<?xml version="1.0" ?>
<!-- Uploaded to: SVG Repo, www.svgrepo.com, Generator: SVG Repo Mixer Tools -->
<svg fill="#000000" width="800px" height="800px" viewBox="0 0 64 64" id="Layer_1_1_" version="1.1" xml:space="preserve" xmlns="http://www.w3.org/2000/svg" xmlns:xlink="http://www.w3.org/1999/xlink">
<g>
<path d="M60,3h-9.184C50.402,1.839,49.302,1,48,1H34c-1.302,0-2.402,0.839-2.816,2H22c-1.654,0-3,1.346-3,3v13h-3.406   c-1.217,0-2.418,0.319-3.474,0.923L6.734,23H1v18h6.697l4.236,2.824C13.087,44.594,14.43,45,15.816,45H19v15c0,1.654,1.346,3,3,3   h38c1.654,0,3-1.346,3-3V6C63,4.346,61.654,3,60,3z M25,27h2c2.206,0,4-1.794,4-4s-1.794-4-4-4h-2V9h6.184   c0.414,1.161,1.514,2,2.816,2h14c1.302,0,2.402-0.839,2.816-2H57v48H25V27z M33,4c0-0.552,0.448-1,1-1h14c0.552,0,1,0.448,1,1v4   c0,0.552-0.448,1-1,1H34c-0.552,0-1-0.448-1-1V4z M21,6c0-0.552,0.448-1,1-1h9v2h-8v12h-2V6z M15.816,43   c-0.99,0-1.949-0.29-2.773-0.84L8.303,39H3V25h4.266l5.847-3.341C13.867,21.228,14.725,21,15.594,21H27c1.103,0,2,0.897,2,2   s-0.897,2-2,2H15v1c0,2.757-2.243,5-5,5v2c3.521,0,6.442-2.612,6.929-6H19v16H15.816z M61,60c0,0.552-0.448,1-1,1H22   c-0.552,0-1-0.448-1-1V27h2v32h36V7h-8V5h9c0.552,0,1,0.448,1,1V60z"/>
<rect height="2" width="2" x="35" y="5"/>
<rect height="2" width="2" x="45" y="5"/>
<path d="M48.373,47.209l-3.375-0.964l-0.001-0.507C46.81,44.472,48,42.374,48,40v-2c0-3.859-3.141-7-7-7s-7,3.141-7,7v2   c0,2.372,1.189,4.469,3,5.736v0.51l-3.374,0.963C31.491,47.82,30,49.797,30,52.018V55h22v-2.982   C52,49.797,50.509,47.82,48.373,47.209z M36,40v-2c0-2.757,2.243-5,5-5s5,2.243,5,5v2c0,2.757-2.243,5-5,5S36,42.757,36,40z    M42.965,46.714L41,49.333l-1.965-2.619C39.659,46.897,40.318,47,41,47S42.341,46.897,42.965,46.714z M50,53H32v-0.982   c0-1.332,0.895-2.519,2.176-2.885l3.437-0.982L41,52.667l3.387-4.516l3.437,0.982C49.105,49.499,50,50.686,50,52.018V53z"/>
<rect height="2" width="2" x="27" y="13"/>
<rect height="2" width="24" x="31" y="13"/>
<rect height="2" width="22" x="33" y="17"/>
<rect height="2" width="22" x="33" y="21"/>
<rect height="2" width="2" x="53" y="25"/>
<rect height="2" width="18" x="33" y="25"/>
</g>
</svg>