<svg width="28" height="28" viewBox="0 0 28 28" fill="none" xmlns="http://www.w3.org/2000/svg">
<path d="M11.3764 2.36123C12.4493 0.100946 15.5493 0.100942 16.6223 2.36123L18.4765 6.26759C18.9026 7.16515 19.7262 7.78726 20.6789 7.93119L24.8251 8.55761C27.2242 8.92006 28.1822 11.9854 26.4462 13.7448L23.4459 16.7855C22.7565 17.4841 22.442 18.4907 22.6047 19.4772L23.313 23.7707C23.7228 26.255 21.2148 28.1495 19.069 26.9766L15.3605 24.9495C14.5083 24.4837 13.4904 24.4837 12.6382 24.9495L8.9297 26.9766C6.78387 28.1495 4.27591 26.255 4.68573 23.7708L5.394 19.4772C5.55674 18.4907 5.24216 17.4841 4.55279 16.7855L1.55252 13.7448C-0.183496 11.9854 0.774453 8.92006 3.17356 8.55761L7.31985 7.93119C8.27254 7.78726 9.0961 7.16515 9.52216 6.26759L11.3764 2.36123Z" fill="#F9CB9F"/>
</svg>
