<svg width="49" height="48" viewBox="0 0 49 48" fill="none" xmlns="http://www.w3.org/2000/svg">
<rect x="0.333984" width="48" height="48" rx="16" fill="#F5F5F5"/>
<path d="M18.334 14H30.334C32.5431 14 34.334 15.7909 34.334 18V30C34.334 32.2091 32.5431 34 30.334 34H18.334C16.1248 34 14.334 32.2091 14.334 30V18C14.334 15.7909 16.1248 14 18.334 14Z" fill="#1E4C2F"/>
<path fill-rule="evenodd" clip-rule="evenodd" d="M25.084 20C25.084 19.5858 24.7482 19.25 24.334 19.25C23.9198 19.25 23.584 19.5858 23.584 20V23.25H20.334C19.9198 23.25 19.584 23.5858 19.584 24C19.584 24.4142 19.9198 24.75 20.334 24.75H23.584V28C23.584 28.4142 23.9198 28.75 24.334 28.75C24.7482 28.75 25.084 28.4142 25.084 28V24.75H28.334C28.7482 24.75 29.084 24.4142 29.084 24C29.084 23.5858 28.7482 23.25 28.334 23.25H25.084V20Z" fill="#F9CB9F"/>
</svg>
