<svg width="390" height="96" viewBox="0 0 390 96" fill="none" xmlns="http://www.w3.org/2000/svg">
<defs>
<linearGradient id="paint0_linear_239_32306" x1="390" y1="48" x2="0.0100808" y2="46.0185" gradientUnits="userSpaceOnUse">
<stop stop-color="#1E4C2F"/>
<stop offset="1" stop-color="#1E4C2F" stop-opacity="0.86"/>
</linearGradient>
<clipPath id="clip0_239_32306">
<rect width="390" height="96" fill="white"/>
</clipPath>
</defs>
<g clip-path="url(#clip0_239_32306)">
<path d="M400 -297V103H0V-297" fill="white"/>
<path fill-rule="evenodd" clip-rule="evenodd" d="M9.32227 -51.1908L12.9134 -54.2397V-71.5552L24.1845 -106.035L24.7445 -125.244H25.0378L25.5978 -106.035L36.86 -71.5552V-54.2397L40.4512 -51.1908V63.7247H9.32227V-51.1908Z" fill="#D3ECDE"/>
<path d="M399.072 -78.0073L387.801 -112.487L387.241 -131.705H386.948L386.388 -112.487L375.125 -78.0073V-60.7006L371.525 -57.6517V57.2727H399.997V-59.9095L399.072 -60.7006V-78.0073Z" fill="#D3ECDE"/>
<path fill-rule="evenodd" clip-rule="evenodd" d="M177.581 -60.2216L167.643 -77.955H166.755L166.266 -93.1816H166.043L165.555 -77.955H156.097L155.599 -93.1816H155.377L154.879 -77.955H153.999L144.061 -60.2216H141.795L141.243 -83.6261H140.977L140.426 -60.2216H138.523V63.725H183.119V-60.2216H181.199L180.648 -83.6261H180.39L179.83 -60.2216H177.581Z" fill="#D3ECDE"/>
<path fill-rule="evenodd" clip-rule="evenodd" d="M270.273 -45.0107L260.335 -62.744H259.446L258.957 -77.9707H258.726L258.237 -62.744H248.779L248.29 -77.9707H248.068L247.57 -62.744H246.69L236.753 -45.0107H234.486L233.935 -68.4151H233.668L233.117 -45.0107H231.215V78.9359H275.802V-45.0107H273.89L273.339 -68.4151H273.082L272.522 -45.0107H270.273Z" fill="#D3ECDE"/>
<path fill-rule="evenodd" clip-rule="evenodd" d="M103.129 -62.744L80.1775 -77.9707L65.6797 -62.744V61.0871H103.129V-62.744Z" fill="#D3ECDE"/>
<path fill-rule="evenodd" clip-rule="evenodd" d="M293.598 -91.5194L316.549 -106.746L331.047 -91.5194V32.3117H293.598V-91.5194Z" fill="#D3ECDE"/>
<path fill-rule="evenodd" clip-rule="evenodd" d="M375.493 -69.0272L352.551 -84.2539L338.053 -69.0272V54.8039H375.493V-69.0272Z" fill="#D3ECDE"/>
<path fill-rule="evenodd" clip-rule="evenodd" d="M200.965 -61.893L204.894 -65.2175V-84.1419L217.205 -92.6753L217.818 -113.68H218.138L218.752 -92.6753L231.063 -84.1419V-65.2175L235 -61.893V63.7247H200.965V-61.893Z" fill="#D3ECDE"/>
<path d="M400 0.591579H397.858V-19.6929L383.004 -24.4573L368.827 -19.6929V-3.77287H361.947V-12.2706L338.809 -13.5595L326.027 -10.5729V1.18712L316.284 0.511583V-11.7995L296.196 -13.2218L286.462 -9.08843V1.79159L277.956 4.20934V-4.3862L267.458 -6.70622L254.818 -4.3862V4.20934L246.311 1.79159V-17.204L236.578 -21.3284L216.489 -19.9151V0.511583L200.729 1.18712V-7.13287L187.947 -10.1373L164.818 -8.83065V-3.77287H157.938V-16.004L143.76 -20.7684L128.907 -16.004V0.591579H124.027L123.378 -16.6884L107.609 -19.524L92.9956 -18.4573V0.716011H83.2444V-4.36843L68.8 -7.79066V-20.5995L62.9778 -21.7284V-28.4929L52.2578 -29.6484L45.4844 -28.4929V-22.244L37.9289 -21.3907V1.43601L19.9111 2.36046V-1.72843L12.64 -3.32842L0 -2.51953V103H400V0.591579Z" fill="#B1DACA"/>
<path d="M315.004 69.9971L314.444 72.1927H310.275V70.5571L315.004 69.9971ZM303.733 84.1571L307.875 84.6016L308.666 82.4771L303.902 82.5305L303.724 84.1571H303.733ZM280.906 82.4682L281.59 84.6105L285.004 84.2638L284.844 82.6371L280.915 82.4682H280.906ZM306.479 68.966L294.266 65.4105V62.6016L288.879 65.126L288.222 67.3838L286.462 67.7571L287.102 66.0327L282.337 66.086L282.159 67.7127L285.155 68.0327L283.475 68.3971L284.222 70.646L276.106 70.5482L278.497 75.606L275.279 77.1971L279.777 81.2238L285.208 81.9705L285.306 84.2193L302.435 84.5927L303.413 82.1571L309.03 80.8504L308.959 79.7393L311.804 79.0727L313.022 72.7083L305.626 71.3216L306.462 68.966H306.479Z" fill="#73B550"/>
<path d="M305.653 71.3106L300.578 72.084L306.489 68.9551L305.653 71.3106ZM303.884 74.8129H299.582L297.377 77.9595L280.915 76.3951L275.938 77.7551L279.813 81.2217L285.244 81.9684L285.342 84.2173L302.471 84.5906L303.449 82.1551L309.066 80.8484L308.995 79.7373L311.84 79.0706L313.058 72.7062L305.671 71.3195L303.902 74.8129H303.884ZM310.275 70.5551V72.1906H314.444L315.004 69.9951L310.275 70.5551ZM303.733 84.1551L307.875 84.5995L308.666 82.4751L303.902 82.5284L303.724 84.1551H303.733ZM280.906 82.4662L281.591 84.6084L285.004 84.2617L284.844 82.6351L280.915 82.4662H280.906Z" fill="#388A43"/>
<path d="M111.902 70.1029L111.342 72.2807H107.209V70.654L111.902 70.094V70.1029ZM100.72 84.1562L104.836 84.6006L105.627 82.494L100.898 82.5473L100.72 84.1562ZM78.0625 82.4851L78.7381 84.6095L82.1247 84.2718L81.9647 82.654L78.0625 82.4851ZM103.44 69.0895L91.3247 65.5607V62.7695L85.9736 65.2762L85.3247 67.5162L83.5825 67.8895L84.2225 66.1829L79.4936 66.2362L79.3158 67.8451L82.2936 68.1651L80.6225 68.5206L81.3692 70.7518L73.3158 70.6629L75.6892 75.6762L72.498 77.2584L76.9603 81.2495L82.3469 81.9962L82.4358 84.2273L99.4403 84.6006L100.409 82.1829L105.982 80.8851L105.911 79.774L108.729 79.1162L109.938 72.7962L102.605 71.4184L103.44 69.0806V69.0895Z" fill="#73B550"/>
<path d="M102.612 71.4187L97.5725 72.1921L103.439 69.0898L102.604 71.4276L102.612 71.4187ZM100.861 74.8943H96.5858L94.3991 78.0143L78.0614 76.4676L73.1191 77.8187L76.9591 81.2587L82.3458 82.0054L82.4347 84.2365L99.4391 84.6098L100.408 82.1921L105.981 80.8943L105.91 79.7832L108.728 79.1254L109.937 72.8054L102.604 71.4276L100.852 74.8943H100.861ZM107.208 70.6632V72.2898H111.341L111.901 70.1121L107.208 70.6721V70.6632ZM100.719 84.1565L104.835 84.6009L105.626 82.4943L100.897 82.5476L100.719 84.1565ZM78.0614 82.4854L78.7369 84.6098L82.1236 84.2721L81.9636 82.6543L78.0614 82.4854Z" fill="#388A43"/>
<path d="M140.169 73.3918L139.742 75.0807H136.542V73.8274L140.169 73.4007V73.3918ZM131.52 84.254L134.702 84.6007L135.316 82.974L131.662 83.0096L131.529 84.254H131.52ZM114.009 82.9563L114.534 84.6007L117.156 84.334L117.031 83.0896L114.018 82.9563H114.009ZM133.636 72.6007L124.267 69.8718V67.7207L120.133 69.6585L119.627 71.3918L118.276 71.6851L118.773 70.3607L115.12 70.3963L114.987 71.6407L117.289 71.8896L116 72.1651L116.578 73.8896L110.356 73.8185L112.187 77.694L109.725 78.9118L113.173 81.9963L117.342 82.574L117.413 84.2985L130.56 84.5829L131.307 82.7163L135.618 81.7118L135.565 80.8585L137.742 80.3518L138.676 75.4718L133.005 74.4051L133.645 72.5918L133.636 72.6007Z" fill="#73B550"/>
<path d="M132.987 74.406L129.094 75.0016L133.636 72.6016L132.996 74.406H132.987ZM131.636 77.0905H128.33L126.632 79.4993L114.001 78.2993L110.188 79.3483L113.156 82.006L117.325 82.5838L117.396 84.3082L130.543 84.5927L131.29 82.726L135.601 81.7216L135.548 80.8682L137.725 80.3616L138.659 75.4816L132.987 74.4149L131.636 77.0993V77.0905ZM136.543 73.8194V75.0727H139.743L140.17 73.3838L136.543 73.8105V73.8194ZM131.53 84.2549L134.712 84.6016L135.325 82.9749L131.672 83.0105L131.539 84.2549H131.53ZM114.019 82.9571L114.543 84.6016L117.165 84.3349L117.041 83.0905L114.027 82.9571H114.019Z" fill="#388A43"/>
<path d="M281.849 73.6502L281.431 75.2946H278.311V74.068L281.858 73.6502H281.849ZM273.404 84.2635L276.507 84.6013L277.102 83.0102L273.529 83.0457L273.395 84.2635H273.404ZM256.293 83.0013L256.8 84.6013L259.36 84.3435L259.235 83.1258L256.284 83.0013H256.293ZM275.467 72.8768L266.311 70.2102V68.1035L262.275 69.9969L261.787 71.6946L260.471 71.9791L260.951 70.6902L257.378 70.7257L257.244 71.9435L259.493 72.1835L258.231 72.4502L258.791 74.1302L252.711 74.0591L254.507 77.8458L252.098 79.0369L255.467 82.0591L259.538 82.6191L259.609 84.2991L272.453 84.5835L273.182 82.7613L277.395 81.7746L277.342 80.9391L279.475 80.4413L280.391 75.668L274.853 74.628L275.484 72.8591L275.467 72.8768Z" fill="#73B550"/>
<path d="M274.836 74.6439L271.032 75.2217L275.467 72.875L274.836 74.635V74.6439ZM273.512 77.2661H270.285L268.632 79.6217L256.294 78.4484L252.561 79.4706L255.458 82.0661L259.529 82.6261L259.601 84.3061L272.445 84.5906L273.174 82.7683L277.387 81.7817L277.334 80.9461L279.467 80.4484L280.383 75.675L274.845 74.635L273.521 77.2572L273.512 77.2661ZM278.303 74.075V75.3017H281.423L281.841 73.6572L278.294 74.075H278.303ZM273.396 84.2706L276.498 84.6083L277.094 83.0172L273.521 83.0528L273.387 84.2706H273.396ZM256.285 83.0084L256.792 84.6083L259.352 84.3506L259.227 83.1328L256.276 83.0084H256.285Z" fill="#388A43"/>
<path d="M234.045 73.6502L233.627 75.2946H230.507V74.068L234.054 73.6502H234.045ZM225.601 84.2635L228.703 84.6013L229.298 83.0102L225.725 83.0457L225.592 84.2635H225.601ZM208.49 83.0013L208.996 84.6013L211.556 84.3435L211.432 83.1258L208.481 83.0013H208.49ZM227.663 72.8768L218.507 70.2102V68.1035L214.463 69.9969L213.974 71.6946L212.658 71.9791L213.138 70.6902L209.565 70.7257L209.432 71.9435L211.681 72.1835L210.418 72.4502L210.978 74.1302L204.898 74.0591L206.694 77.8458L204.285 79.0369L207.654 82.0591L211.725 82.6191L211.796 84.2991L224.641 84.5835L225.37 82.7613L229.583 81.7746L229.53 80.9391L231.663 80.4413L232.578 75.668L227.041 74.628L227.672 72.8591L227.663 72.8768Z" fill="#73B550"/>
<path d="M227.022 74.6439L223.217 75.2217L227.653 72.875L227.022 74.635V74.6439ZM225.697 77.2661H222.471L220.817 79.6217L208.479 78.4484L204.746 79.4706L207.644 82.0661L211.715 82.6261L211.786 84.3061L224.631 84.5906L225.359 82.7683L229.573 81.7817L229.519 80.9461L231.653 80.4484L232.568 75.675L227.031 74.635L225.706 77.2572L225.697 77.2661ZM230.488 74.075V75.3017H233.608L234.026 73.6572L230.479 74.075H230.488ZM225.582 84.2706L228.684 84.6083L229.279 83.0172L225.706 83.0528L225.573 84.2706H225.582ZM208.471 83.0084L208.977 84.6083L211.537 84.3506L211.413 83.1328L208.462 83.0084H208.471Z" fill="#388A43"/>
<path d="M382.071 73.6502L381.654 75.2946H378.534V74.068L382.08 73.6502H382.071ZM373.627 84.2635L376.729 84.6013L377.325 83.0102L373.751 83.0457L373.618 84.2635H373.627ZM356.516 83.0013L357.023 84.6013L359.583 84.3435L359.458 83.1258L356.507 83.0013H356.516ZM375.689 72.8768L366.534 70.2102V68.1035L362.498 69.9969L362.009 71.6946L360.694 71.9791L361.174 70.6902L357.6 70.7257L357.467 71.9435L359.716 72.1835L358.454 72.4502L359.014 74.1302L352.934 74.0591L354.729 77.8458L352.32 79.0369L355.689 82.0591L359.76 82.6191L359.831 84.2991L372.676 84.5835L373.405 82.7613L377.618 81.7746L377.565 80.9391L379.698 80.4413L380.614 75.668L375.076 74.628L375.707 72.8591L375.689 72.8768Z" fill="#73B550"/>
<path d="M375.059 74.6439L371.254 75.2217L375.69 72.875L375.059 74.635V74.6439ZM373.734 77.2661H370.508L368.854 79.6217L356.517 78.4484L352.783 79.4706L355.681 82.0661L359.752 82.6261L359.823 84.3061L372.668 84.5906L373.397 82.7683L377.61 81.7817L377.557 80.9461L379.69 80.4484L380.605 75.675L375.068 74.635L373.743 77.2572L373.734 77.2661ZM378.525 74.075V75.3017H381.645L382.063 73.6572L378.517 74.075H378.525ZM373.619 84.2706L376.721 84.6083L377.317 83.0172L373.743 83.0528L373.61 84.2706H373.619ZM356.508 83.0084L357.014 84.6083L359.574 84.3506L359.45 83.1328L356.499 83.0084H356.508Z" fill="#388A43"/>
<path d="M61.583 59.4456C61.5652 67.739 64.063 75.9345 64.0896 84.3789H65.7785C65.7519 78.7167 64.2674 73.2678 63.5563 67.6767C63.5919 67.6856 63.6185 67.7034 63.6541 67.7123C65.183 67.9789 66.4363 67.0012 66.4274 65.3745C66.4185 61.579 65.8852 57.7923 65.983 53.979C65.983 53.7923 65.6896 53.7745 65.6541 53.9523C65.3074 55.9523 65.0763 57.8367 65.0319 59.8723C64.9963 61.499 66.0007 65.8101 63.423 65.819C63.4052 65.819 63.3874 65.8278 63.3785 65.8278C62.9252 60.3612 63.503 54.9478 63.4407 49.4723C63.4407 49.2678 63.1652 49.2856 63.1119 49.4456C62.2407 52.0412 61.8141 54.6101 61.6541 57.1701C61.4319 57.3301 61.2452 57.5078 61.0763 57.7567C60.6141 58.4323 59.7696 58.5745 59.023 58.619C58.2407 58.6634 57.3607 58.3345 56.6585 58.0234C55.8141 57.6412 55.7074 56.7612 55.6007 55.9523C55.5119 55.3123 54.543 55.1612 54.4185 55.8634C53.9296 58.6012 55.9741 59.7656 58.4007 60.1478C59.183 60.2723 60.5963 60.0145 61.5919 59.4367L61.583 59.4456Z" fill="#88592F"/>
<path d="M66.3474 62.4578C66.1962 59.6311 65.9207 56.8133 65.9918 53.9689C65.9918 53.7822 65.6985 53.7644 65.6629 53.9422C65.3162 55.9422 65.0851 57.8266 65.0407 59.8622C65.0229 60.4755 65.1562 61.4622 65.1918 62.4578H66.3474Z" fill="#451D00"/>
<path d="M58.3919 60.1559C59.1741 60.2803 60.5874 60.0225 61.583 59.4448C61.583 60.4492 61.6185 61.4537 61.6807 62.4581H63.2185C63.1385 58.1292 63.4852 53.8181 63.4407 49.4625C63.4407 49.2581 63.1652 49.2759 63.1119 49.4359C62.2407 52.0314 61.8141 54.6003 61.6541 57.1603C61.4319 57.3203 61.2452 57.4981 61.0763 57.747C60.6141 58.4225 59.7696 58.5647 59.023 58.6092C58.2407 58.6536 57.3607 58.3248 56.6585 58.0137C55.8141 57.6314 55.7074 56.7514 55.6007 55.9425C55.5119 55.3025 54.543 55.1514 54.4185 55.8536C53.9296 58.5914 55.9741 59.7559 58.4007 60.1381L58.3919 60.1559Z" fill="#451D00"/>
<path d="M58.1706 15.8733L55.1039 17.5622C54.3928 17.9533 53.9217 18.6822 53.8506 19.5266L52.2328 36.5933L46.615 39.8644L44.1973 50.3355L45.3973 51.4555C49.0506 54.8689 53.8062 56.6555 58.4106 56.2199L73.4773 54.7977L81.5128 44.3177C82.3928 43.1711 81.6639 41.3844 80.1084 40.8422L70.5884 37.5266L66.8373 28.1044C66.4017 27.0111 65.6284 26.0688 64.6417 25.4288L61.5573 23.4288L60.8462 17.3755C60.695 16.0511 59.2728 15.2688 58.1528 15.8911L58.1706 15.8733Z" fill="#73B550"/>
<path d="M67.0476 39.6413C62.0165 38.7524 52.2298 36.5835 52.2298 36.5835L53.3231 25.0013C54.3009 26.1035 59.9453 30.3258 65.3676 27.7302C65.6787 27.5791 66.0342 27.4013 66.3542 27.1613C66.5409 27.4635 66.7187 27.7746 66.8431 28.1035L70.5942 37.5257H70.6031C70.6031 37.5257 71.6787 40.2458 67.0476 39.6502V39.6413ZM61.572 23.4102L61.1365 19.668C57.6165 20.2102 56.0787 22.0146 56.132 22.0235C60.0254 22.788 61.572 23.4013 61.572 23.4013V23.4102ZM81.3676 41.7391C81.5098 44.2991 73.7587 45.1435 68.1765 45.0635C62.4342 44.9835 52.6209 45.6235 47.8387 42.6546C47.1009 42.1924 46.6298 41.5258 46.3987 40.788L44.2031 50.3257L45.4031 51.4457C49.0565 54.8591 53.812 56.6457 58.4165 56.2102L73.4831 54.788L81.5187 44.308C82.0965 43.5524 81.972 42.5213 81.3765 41.748L81.3676 41.7391Z" fill="#388A43"/>
<path d="M240.648 59.6137C240.025 67.827 241.928 75.9337 241.341 84.2892H243.03C243.421 78.6892 242.328 73.2937 242.025 67.7559C242.061 67.7648 242.088 67.7826 242.114 67.7915C243.625 68.0581 244.95 67.0803 245.056 65.4714C245.323 61.7114 245.065 57.9692 245.439 54.1914C245.456 54.0048 245.154 53.987 245.11 54.1648C244.612 56.147 244.256 58.0137 244.052 60.0226C243.892 61.6314 244.585 65.8981 242.008 65.907C241.99 65.907 241.972 65.9159 241.963 65.9159C241.91 60.5026 242.879 55.1426 243.216 49.7203C243.225 49.5159 242.959 49.5337 242.888 49.6937C241.83 52.2626 241.216 54.8137 240.87 57.347C240.639 57.507 240.434 57.6848 240.248 57.9337C239.732 58.6003 238.879 58.7515 238.132 58.787C237.341 58.8315 236.488 58.5115 235.812 58.2003C234.994 57.8181 234.959 56.9559 234.905 56.1559C234.861 55.5159 233.91 55.3648 233.723 56.067C233.03 58.7781 234.994 59.9337 237.394 60.307C238.168 60.4314 239.599 60.1737 240.639 59.6048L240.648 59.6137Z" fill="#88592F"/>
<path d="M245.191 62.6013C245.244 59.8013 245.173 57.0102 245.457 54.2013C245.475 54.0146 245.173 53.9968 245.128 54.1746C244.631 56.1568 244.275 58.0235 244.071 60.0324C244.008 60.6368 244.071 61.6146 244.035 62.6013H245.191Z" fill="#451D00"/>
<path d="M237.404 60.3254C238.177 60.4499 239.608 60.1921 240.648 59.6232C240.577 60.6188 240.542 61.6143 240.524 62.6099H242.062C242.302 58.3255 242.959 54.0499 243.226 49.7477C243.235 49.5432 242.968 49.561 242.897 49.721C241.84 52.2899 241.226 54.841 240.879 57.3744C240.648 57.5344 240.444 57.7121 240.257 57.961C239.742 58.6277 238.888 58.7788 238.142 58.8144C237.351 58.8588 236.497 58.5388 235.822 58.2277C235.004 57.8455 234.968 56.9832 234.915 56.1832C234.871 55.5432 233.92 55.3921 233.733 56.0944C233.04 58.8055 235.004 59.961 237.404 60.3343V60.3254Z" fill="#451D00"/>
<path d="M240.411 16.4756L237.22 18.1467C236.482 18.5289 235.957 19.2578 235.815 20.0845L232.953 36.9823L227.095 40.2267L223.922 50.5911L225.042 51.7023C228.455 55.08 233.077 56.8489 237.709 56.4134L252.882 55L261.682 44.6267C262.642 43.4889 262.055 41.72 260.535 41.1867L251.264 37.9067L248.206 28.5822C247.851 27.4978 247.149 26.5645 246.206 25.9333L243.273 23.9511L243.006 17.9511C242.944 16.6356 241.593 15.8711 240.42 16.4845L240.411 16.4756Z" fill="#73B550"/>
<path d="M247.557 40.0139C242.589 39.1339 232.962 36.9828 232.962 36.9828L234.9 25.5161C235.797 26.6094 241.14 30.7872 246.749 28.2094C247.069 28.0583 247.442 27.8806 247.771 27.6406C247.94 27.9339 248.091 28.245 248.197 28.5739L251.255 37.8984H251.264C251.264 37.8984 252.135 40.5917 247.549 40.005L247.557 40.0139ZM243.264 23.9517L243.104 20.2539C239.549 20.7872 237.877 22.5739 237.931 22.5917C241.762 23.3472 243.264 23.9606 243.264 23.9606V23.9517ZM261.726 42.0939C261.682 44.6272 253.869 45.4717 248.286 45.3828C242.553 45.3028 232.695 45.9339 228.117 43.0006C227.406 42.5472 226.997 41.8806 226.811 41.1517L223.922 50.5917L225.042 51.7028C228.455 55.0806 233.077 56.8495 237.709 56.4139L252.882 55.0006L261.682 44.6272C262.313 43.8806 262.26 42.8584 261.726 42.0939Z" fill="#388A43"/>
<path d="M23.005 78.8145H21.8672V85.1078H23.005V78.8145Z" fill="#653E36"/>
<path d="M25.9835 78.8145H24.8457V85.1078H25.9835V78.8145Z" fill="#653E36"/>
<path d="M34.4561 78.8145H33.3184V85.1078H34.4561V78.8145Z" fill="#653E36"/>
<path d="M38.0206 78.8145H36.8828V85.1078H38.0206V78.8145Z" fill="#653E36"/>
<path d="M46.3722 78.8145H45.2344V85.1078H46.3722V78.8145Z" fill="#653E36"/>
<path d="M49.3624 78.8145H48.2246V85.1078H49.3624V78.8145Z" fill="#653E36"/>
<path d="M52.39 81.3749H19.6966L17.9277 72.9838L32.8166 71.686L35.5988 69.1082L51.7766 67.2148L54.15 70.6282L52.39 81.3749Z" fill="#73B550"/>
<path d="M18.6113 76.2451L19.6958 81.374H52.3802L53.4735 74.7251L51.6602 73.6318C51.598 73.7829 51.5091 73.9251 51.4024 74.0407C51.0469 74.4229 50.4335 74.5562 49.9358 74.3784C49.3313 74.1562 48.878 73.6407 49.0202 72.9562C49.0824 72.6718 49.278 72.4673 49.5269 72.3429L48.7802 71.8984L48.5135 71.9518C48.558 72.1562 48.5669 72.3695 48.5313 72.5829C48.4869 73.3295 47.8913 74.0229 47.3047 74.4051C46.4691 74.9562 45.4469 74.7695 44.7002 74.174C44.2736 73.8362 44.1224 73.294 44.1491 72.7695L37.4291 74.0318L32.3091 77.1962L30.9402 77.0984C30.9402 77.1784 30.9224 77.2673 30.9047 77.3473C30.6647 78.2896 29.5269 78.9029 28.6024 78.654C27.9269 78.4673 27.3935 77.8362 27.4024 77.1251C27.4024 77.0273 27.4202 76.9384 27.438 76.8584L23.518 76.5829C23.4913 76.814 23.3935 77.0362 23.2247 77.2318C22.9135 77.5873 22.3358 77.6584 21.9091 77.5162C21.4024 77.3473 21.0735 76.9918 21.0291 76.4495C21.0291 76.4407 21.0291 76.4229 21.0291 76.4051L18.6113 76.2362V76.2451ZM37.9269 75.0184C38.2558 74.5295 38.9402 74.3073 39.5002 74.2629C40.0958 74.2184 40.638 74.4406 41.0735 74.8495C41.4113 75.1606 41.3758 75.7118 41.0735 76.0229C40.6824 76.4318 40.0602 76.6362 39.5358 76.7695C38.9402 76.9295 38.1847 77.0007 37.6958 76.5384C37.1891 76.0584 37.4558 75.374 37.9269 75.0184Z" fill="#388A43"/>
<path d="M148.364 78.8223H147.227V85.1156H148.364V78.8223Z" fill="#653E36"/>
<path d="M151.343 78.8223H150.205V85.1156H151.343V78.8223Z" fill="#653E36"/>
<path d="M159.816 78.8223H158.678V85.1156H159.816V78.8223Z" fill="#653E36"/>
<path d="M163.38 78.8223H162.242V85.1156H163.38V78.8223Z" fill="#653E36"/>
<path d="M171.732 78.8223H170.594V85.1156H171.732V78.8223Z" fill="#653E36"/>
<path d="M174.722 78.8223H173.584V85.1156H174.722V78.8223Z" fill="#653E36"/>
<path d="M177.751 81.3749H145.058L143.289 72.9838L158.178 71.686L160.96 69.1082L177.138 67.2148L179.511 70.6282L177.751 81.3749Z" fill="#73B550"/>
<path d="M143.984 76.2451L145.069 81.374H177.753L178.847 74.7251L177.033 73.6318C176.971 73.7829 176.882 73.9251 176.775 74.0407C176.42 74.4229 175.807 74.5562 175.309 74.3784C174.704 74.1562 174.251 73.6407 174.393 72.9562C174.455 72.6718 174.651 72.4673 174.9 72.3429L174.153 71.8984L173.887 71.9518C173.931 72.1562 173.94 72.3695 173.904 72.5829C173.86 73.3295 173.264 74.0229 172.678 74.4051C171.842 74.9562 170.82 74.7695 170.073 74.174C169.647 73.8362 169.495 73.294 169.522 72.7695L162.802 74.0318L157.682 77.1962L156.313 77.0984C156.313 77.1784 156.295 77.2673 156.278 77.3473C156.038 78.2896 154.9 78.9029 153.975 78.654C153.3 78.4673 152.767 77.8362 152.775 77.1251C152.775 77.0273 152.793 76.9384 152.811 76.8584L148.891 76.5829C148.864 76.814 148.767 77.0362 148.598 77.2318C148.287 77.5873 147.709 77.6584 147.282 77.5162C146.775 77.3473 146.447 76.9918 146.402 76.4495C146.402 76.4407 146.402 76.4229 146.402 76.4051L143.984 76.2362V76.2451ZM163.3 75.0184C163.629 74.5295 164.313 74.3073 164.873 74.2629C165.469 74.2184 166.011 74.4406 166.447 74.8495C166.784 75.1606 166.749 75.7118 166.447 76.0229C166.055 76.4318 165.433 76.6362 164.909 76.7695C164.313 76.9295 163.558 77.0007 163.069 76.5384C162.562 76.0584 162.829 75.374 163.3 75.0184Z" fill="#388A43"/>
<path d="M194.268 66.6616V64.0038C200.116 64.0038 209.921 62.4038 209.921 51.666H212.579C212.579 61.0527 205.734 66.6616 194.276 66.6616H194.268Z" fill="#88592F"/>
<path d="M193.503 84.5121C193.441 72.8232 193.316 70.2276 193.138 66.3076C193.005 63.3476 192.836 59.6676 192.641 50.7165L195.29 50.6543C195.485 59.5699 195.654 63.241 195.787 66.1832C195.965 70.1387 196.081 72.7521 196.152 84.4943L193.494 84.5121H193.503Z" fill="#88592F"/>
<path d="M194.526 72.3695C183.157 72.3695 182.615 66.974 182.615 49.8984H185.273C185.273 67.8629 186.135 69.7118 194.535 69.7118V72.3695H194.526Z" fill="#88592F"/>
<path d="M209.878 60.4847L207.754 58.8936C209.549 56.5113 209.914 53.6491 209.914 51.6758H212.572C212.572 55.0891 211.647 58.138 209.878 60.4847Z" fill="#451D00"/>
<path d="M192.827 59.561C192.765 56.6099 192.712 53.6676 192.641 50.7165L195.29 50.6543C195.352 53.6054 195.414 56.5565 195.476 59.5077L192.818 59.561H192.827Z" fill="#451D00"/>
<path d="M182.749 59.5073C182.633 56.2273 182.615 52.9562 182.615 49.8984H185.273C185.273 52.9295 185.291 56.174 185.397 59.4095L182.749 59.4984V59.5073Z" fill="#451D00"/>
<path d="M0 84.1773L0 114.295L400 114.295V84.1773L0 84.1773Z" fill="#83BF63"/>
<path d="M192.116 14.6621L183.005 18.9377L181.894 22.7599L173.894 24.4755L175.165 28.271L161.449 28.1199L165.494 36.6621L160.062 39.3554L167.654 46.1554L176.836 47.4266L176.987 51.2221L205.947 51.8532L207.6 47.7377L217.094 45.5243L216.978 43.6399L221.778 42.5199L223.831 31.7555L211.334 29.4088L212.756 25.4266L192.116 19.4088V14.6621Z" fill="#73B550"/>
<path d="M219.166 30.8766H226.206L227.157 27.1699L219.166 28.121V30.8766Z" fill="#B8DC64"/>
<path d="M171.672 23.3219L178.676 24.0774L180.019 20.4863L171.965 20.5752L171.672 23.3219Z" fill="#73B550"/>
<path d="M208.107 51.0992L215.112 51.8548L216.454 48.2637L208.401 48.3525L208.107 51.0992Z" fill="#B8DC64"/>
<path d="M176.444 51.285L170.675 51.8628L169.52 48.2539L176.168 48.5384L176.444 51.285Z" fill="#B8DC64"/>
<path d="M202.756 30.7166L211.343 29.4011L212.756 25.4277L202.756 30.7166Z" fill="#388A43"/>
<path d="M223.833 31.7588L211.344 29.4121L208.358 35.3232H201.078L197.344 40.6388L169.522 37.9988L161.113 40.301L167.656 46.1588L176.838 47.4299L176.989 51.2254L205.949 51.8566L207.602 47.741L217.096 45.5277L216.98 43.6432L221.78 42.5232L223.833 31.7588Z" fill="#388A43"/>
<path d="M219.166 30.8766H226.206L227.157 27.1699L219.166 28.121V30.8766Z" fill="#73B550"/>
<path d="M208.107 51.0972L215.112 51.8528L216.454 48.2617L208.401 48.3506L208.107 51.0972Z" fill="#388A43"/>
<path d="M176.448 51.287L170.679 51.8647L169.523 48.2559L176.172 48.5403L176.448 51.287Z" fill="#73B550"/>
<path d="M334.301 66.6616V64.0038C340.15 64.0038 349.954 62.4038 349.954 51.666H352.612C352.612 61.0527 345.767 66.6616 334.31 66.6616H334.301Z" fill="#88592F"/>
<path d="M333.536 84.5121C333.474 72.8232 333.349 70.2276 333.172 66.3076C333.038 63.3476 332.869 59.6676 332.674 50.7165L335.323 50.6543C335.518 59.5699 335.687 63.241 335.82 66.1832C335.998 70.1387 336.114 72.7521 336.185 84.4943L333.527 84.5121H333.536Z" fill="#88592F"/>
<path d="M334.56 72.3695C323.191 72.3695 322.648 66.974 322.648 49.8984H325.306C325.306 67.8629 326.168 69.7118 334.568 69.7118V72.3695H334.56Z" fill="#88592F"/>
<path d="M349.912 60.4847L347.787 58.8936C349.583 56.5113 349.947 53.6491 349.947 51.6758H352.605C352.605 55.0891 351.68 58.138 349.912 60.4847Z" fill="#451D00"/>
<path d="M332.864 59.561C332.802 56.6099 332.749 53.6676 332.678 50.7165L335.327 50.6543C335.389 53.6054 335.451 56.5565 335.513 59.5077L332.855 59.561H332.864Z" fill="#451D00"/>
<path d="M322.776 59.5073C322.66 56.2273 322.643 52.9562 322.643 49.8984H325.3C325.3 52.9295 325.318 56.174 325.425 59.4095L322.776 59.4984V59.5073Z" fill="#451D00"/>
<path d="M332.15 14.6621L323.039 18.9377L321.928 22.7599L313.928 24.4755L315.19 28.271L301.483 28.1199L305.519 36.6621L300.088 39.3554L307.688 46.1554L316.861 47.4266L317.021 51.2221L345.981 51.8532L347.635 47.7377L357.128 45.5243L357.003 43.6399L361.812 42.5199L363.866 31.7555L351.368 29.4088L352.79 25.4266L332.15 19.4088V14.6621Z" fill="#73B550"/>
<path d="M359.201 30.8766H366.241L367.192 27.1699L359.201 28.121V30.8766Z" fill="#B8DC64"/>
<path d="M311.705 23.3219L318.71 24.0774L320.052 20.4863L311.998 20.5752L311.705 23.3219Z" fill="#73B550"/>
<path d="M348.141 51.0992L355.145 51.8548L356.487 48.2637L348.434 48.3525L348.141 51.0992Z" fill="#B8DC64"/>
<path d="M316.479 51.285L310.701 51.8628L309.555 48.2539L316.195 48.5384L316.479 51.285Z" fill="#B8DC64"/>
<path d="M342.791 30.7166L351.369 29.4011L352.791 25.4277L342.791 30.7166Z" fill="#388A43"/>
<path d="M363.868 31.7588L351.371 29.4121L348.393 35.3232H341.113L337.38 40.6388L309.557 37.9988L301.148 40.301L307.691 46.1588L316.864 47.4299L317.024 51.2254L345.984 51.8566L347.637 47.741L357.131 45.5277L357.006 43.6432L361.815 42.5232L363.868 31.7588Z" fill="#388A43"/>
<path d="M359.201 30.8766H366.241L367.192 27.1699L359.201 28.121V30.8766Z" fill="#73B550"/>
<path d="M348.143 51.0972L355.147 51.8528L356.489 48.2617L348.436 48.3506L348.143 51.0972Z" fill="#388A43"/>
<path d="M316.483 51.287L310.705 51.8647L309.559 48.2559L316.199 48.5403L316.483 51.287Z" fill="#73B550"/>
<path d="M131.5 85.7752H23.0558C20.6024 85.7752 18.6113 85.4285 18.6113 85.0018C18.6113 84.5752 20.6024 84.2285 23.0558 84.2285H131.491C133.945 84.2285 135.936 84.5752 135.936 85.0018C135.936 85.4285 133.945 85.7752 131.491 85.7752H131.5Z" fill="#6AAB48"/>
<path d="M290.284 85.8806H181.849C179.395 85.8806 177.404 85.534 177.404 85.1073C177.404 84.6806 179.395 84.334 181.849 84.334H290.284C292.738 84.334 294.729 84.6806 294.729 85.1073C294.729 85.534 292.738 85.8806 290.284 85.8806Z" fill="#6AAB48"/>
<rect width="390" height="96" fill="url(#paint0_linear_239_32306)"/>
</g>
</svg>
