<svg width="390" height="844" viewBox="0 0 390 844" fill="none" xmlns="http://www.w3.org/2000/svg">
<g opacity="0.2">
<path d="M395 -181V219H-5V-181" fill="white"/>
<path fill-rule="evenodd" clip-rule="evenodd" d="M4.32227 64.8092L7.91338 61.7603V44.4448L19.1845 9.96475L19.7445 -9.24414H20.0378L20.5978 9.96475L31.86 44.4448V61.7603L35.4512 64.8092V179.725H4.32227V64.8092Z" fill="#D3ECDE"/>
<path d="M394.072 37.9927L382.801 3.5127L382.241 -15.7051H381.948L381.388 3.5127L370.125 37.9927V55.2994L366.525 58.3483V173.273H394.997V56.0905L394.072 55.2994V37.9927Z" fill="#D3ECDE"/>
<path fill-rule="evenodd" clip-rule="evenodd" d="M172.581 55.7784L162.643 38.045H161.755L161.266 22.8184H161.043L160.555 38.045H151.097L150.599 22.8184H150.377L149.879 38.045H148.999L139.061 55.7784H136.795L136.243 32.3739H135.977L135.426 55.7784H133.523V179.725H178.119V55.7784H176.199L175.648 32.3739H175.39L174.83 55.7784H172.581Z" fill="#D3ECDE"/>
<path fill-rule="evenodd" clip-rule="evenodd" d="M265.273 70.9893L255.335 53.256H254.446L253.957 38.0293H253.726L253.237 53.256H243.779L243.29 38.0293H243.068L242.57 53.256H241.69L231.753 70.9893H229.486L228.935 47.5849H228.668L228.117 70.9893H226.215V194.936H270.802V70.9893H268.89L268.339 47.5849H268.082L267.522 70.9893H265.273Z" fill="#D3ECDE"/>
<path fill-rule="evenodd" clip-rule="evenodd" d="M98.1286 53.256L75.1775 38.0293L60.6797 53.256V177.087H98.1286V53.256Z" fill="#D3ECDE"/>
<path fill-rule="evenodd" clip-rule="evenodd" d="M288.598 24.4806L311.549 9.25391L326.047 24.4806V148.312H288.598V24.4806Z" fill="#D3ECDE"/>
<path fill-rule="evenodd" clip-rule="evenodd" d="M370.493 46.9728L347.551 31.7461L333.053 46.9728V170.804H370.493V46.9728Z" fill="#D3ECDE"/>
<path fill-rule="evenodd" clip-rule="evenodd" d="M195.965 54.107L199.894 50.7825V31.8581L212.205 23.3247L212.818 2.32031H213.138L213.752 23.3247L226.063 31.8581V50.7825L230 54.107V179.725H195.965V54.107Z" fill="#D3ECDE"/>
<path d="M395 116.592H392.858V96.3071L378.004 91.5427L363.827 96.3071V112.227H356.947V103.729L333.809 102.44L321.027 105.427V117.187L311.284 116.512V104.2L291.196 102.778L281.462 106.912V117.792L272.956 120.209V111.614L262.458 109.294L249.818 111.614V120.209L241.311 117.792V98.796L231.578 94.6716L211.489 96.0849V116.512L195.729 117.187V108.867L182.947 105.863L159.818 107.169V112.227H152.938V99.996L138.76 95.2316L123.907 99.996V116.592H119.027L118.378 99.3116L102.609 96.476L87.9956 97.5427V116.716H78.2444V111.632L63.8 108.209V95.4005L57.9778 94.2716V87.5071L47.2578 86.3516L40.4844 87.5071V93.756L32.9289 94.6093V117.436L14.9111 118.36V114.272L7.64 112.672L-5 113.48V219H395V116.592Z" fill="#B1DACA"/>
<path d="M310.004 185.997L309.444 188.193H305.275V186.557L310.004 185.997ZM298.733 200.157L302.875 200.602L303.666 198.477L298.902 198.53L298.724 200.157H298.733ZM275.906 198.468L276.59 200.61L280.004 200.264L279.844 198.637L275.915 198.468H275.906ZM301.479 184.966L289.266 181.41V178.602L283.879 181.126L283.222 183.384L281.462 183.757L282.102 182.033L277.337 182.086L277.159 183.713L280.155 184.033L278.475 184.397L279.222 186.646L271.106 186.548L273.497 191.606L270.279 193.197L274.777 197.224L280.208 197.97L280.306 200.219L297.435 200.593L298.413 198.157L304.03 196.85L303.959 195.739L306.804 195.073L308.022 188.708L300.626 187.322L301.462 184.966H301.479Z" fill="#73B550"/>
<path d="M300.653 187.311L295.578 188.084L301.489 184.955L300.653 187.311ZM298.884 190.813H294.582L292.377 193.96L275.915 192.395L270.938 193.755L274.813 197.222L280.244 197.968L280.342 200.217L297.471 200.591L298.449 198.155L304.066 196.848L303.995 195.737L306.84 195.071L308.058 188.706L300.671 187.319L298.902 190.813H298.884ZM305.275 186.555V188.191H309.444L310.004 185.995L305.275 186.555ZM298.733 200.155L302.875 200.6L303.666 198.475L298.902 198.528L298.724 200.155H298.733ZM275.906 198.466L276.591 200.608L280.004 200.262L279.844 198.635L275.915 198.466H275.906Z" fill="#388A43"/>
<path d="M106.902 186.103L106.342 188.281H102.209V186.654L106.902 186.094V186.103ZM95.7203 200.156L99.8358 200.601L100.627 198.494L95.8981 198.547L95.7203 200.156ZM73.0625 198.485L73.7381 200.61L77.1247 200.272L76.9647 198.654L73.0625 198.485ZM98.4403 185.09L86.3247 181.561V178.77L80.9736 181.276L80.3247 183.516L78.5825 183.89L79.2225 182.183L74.4936 182.236L74.3158 183.845L77.2936 184.165L75.6225 184.521L76.3692 186.752L68.3158 186.663L70.6892 191.676L67.498 193.258L71.9603 197.25L77.3469 197.996L77.4358 200.227L94.4403 200.601L95.4092 198.183L100.982 196.885L100.911 195.774L103.729 195.116L104.938 188.796L97.6047 187.418L98.4403 185.081V185.09Z" fill="#73B550"/>
<path d="M97.6125 187.419L92.5725 188.192L98.4391 185.09L97.6036 187.428L97.6125 187.419ZM95.8614 190.894H91.5858L89.3991 194.014L73.0614 192.468L68.1191 193.819L71.9591 197.259L77.3458 198.005L77.4347 200.237L94.4391 200.61L95.408 198.192L100.981 196.894L100.91 195.783L103.728 195.125L104.937 188.805L97.6036 187.428L95.8525 190.894H95.8614ZM102.208 186.663V188.29H106.341L106.901 186.112L102.208 186.672V186.663ZM95.7191 200.156L99.8347 200.601L100.626 198.494L95.8969 198.548L95.7191 200.156ZM73.0614 198.485L73.7369 200.61L77.1236 200.272L76.9636 198.654L73.0614 198.485Z" fill="#388A43"/>
<path d="M135.169 189.392L134.742 191.081H131.542V189.827L135.169 189.401V189.392ZM126.52 200.254L129.702 200.601L130.316 198.974L126.662 199.01L126.529 200.254H126.52ZM109.009 198.956L109.534 200.601L112.156 200.334L112.031 199.09L109.018 198.956H109.009ZM128.636 188.601L119.267 185.872V183.721L115.133 185.658L114.627 187.392L113.276 187.685L113.773 186.361L110.12 186.396L109.987 187.641L112.289 187.89L111 188.165L111.578 189.89L105.356 189.818L107.187 193.694L104.725 194.912L108.173 197.996L112.342 198.574L112.413 200.298L125.56 200.583L126.307 198.716L130.618 197.712L130.565 196.858L132.742 196.352L133.676 191.472L128.005 190.405L128.645 188.592L128.636 188.601Z" fill="#73B550"/>
<path d="M127.987 190.406L124.094 191.002L128.636 188.602L127.996 190.406H127.987ZM126.636 193.09H123.33L121.632 195.499L109.001 194.299L105.188 195.348L108.156 198.006L112.325 198.584L112.396 200.308L125.543 200.593L126.29 198.726L130.601 197.722L130.548 196.868L132.725 196.362L133.659 191.482L127.987 190.415L126.636 193.099V193.09ZM131.543 189.819V191.073H134.743L135.17 189.384L131.543 189.81V189.819ZM126.53 200.255L129.712 200.602L130.325 198.975L126.672 199.01L126.539 200.255H126.53ZM109.019 198.957L109.543 200.602L112.165 200.335L112.041 199.09L109.027 198.957H109.019Z" fill="#388A43"/>
<path d="M276.849 189.65L276.431 191.295H273.311V190.068L276.858 189.65H276.849ZM268.404 200.264L271.507 200.601L272.102 199.01L268.529 199.046L268.395 200.264H268.404ZM251.293 199.001L251.8 200.601L254.36 200.344L254.235 199.126L251.284 199.001H251.293ZM270.467 188.877L261.311 186.21V184.104L257.275 185.997L256.787 187.695L255.471 187.979L255.951 186.69L252.378 186.726L252.244 187.944L254.493 188.184L253.231 188.45L253.791 190.13L247.711 190.059L249.507 193.846L247.098 195.037L250.467 198.059L254.538 198.619L254.609 200.299L267.453 200.584L268.182 198.761L272.395 197.775L272.342 196.939L274.475 196.441L275.391 191.668L269.853 190.628L270.484 188.859L270.467 188.877Z" fill="#73B550"/>
<path d="M269.836 190.644L266.032 191.222L270.467 188.875L269.836 190.635V190.644ZM268.512 193.266H265.285L263.632 195.622L251.294 194.448L247.561 195.471L250.458 198.066L254.529 198.626L254.601 200.306L267.445 200.591L268.174 198.768L272.387 197.782L272.334 196.946L274.467 196.448L275.383 191.675L269.845 190.635L268.521 193.257L268.512 193.266ZM273.303 190.075V191.302H276.423L276.841 189.657L273.294 190.075H273.303ZM268.396 200.271L271.498 200.608L272.094 199.017L268.521 199.053L268.387 200.271H268.396ZM251.285 199.008L251.792 200.608L254.352 200.351L254.227 199.133L251.276 199.008H251.285Z" fill="#388A43"/>
<path d="M229.045 189.65L228.627 191.295H225.507V190.068L229.054 189.65H229.045ZM220.601 200.264L223.703 200.601L224.298 199.01L220.725 199.046L220.592 200.264H220.601ZM203.49 199.001L203.996 200.601L206.556 200.344L206.432 199.126L203.481 199.001H203.49ZM222.663 188.877L213.507 186.21V184.104L209.463 185.997L208.974 187.695L207.658 187.979L208.138 186.69L204.565 186.726L204.432 187.944L206.681 188.184L205.418 188.45L205.978 190.13L199.898 190.059L201.694 193.846L199.285 195.037L202.654 198.059L206.725 198.619L206.796 200.299L219.641 200.584L220.37 198.761L224.583 197.775L224.53 196.939L226.663 196.441L227.578 191.668L222.041 190.628L222.672 188.859L222.663 188.877Z" fill="#73B550"/>
<path d="M222.022 190.644L218.217 191.222L222.653 188.875L222.022 190.635V190.644ZM220.697 193.266H217.471L215.817 195.622L203.479 194.448L199.746 195.471L202.644 198.066L206.715 198.626L206.786 200.306L219.631 200.591L220.359 198.768L224.573 197.782L224.519 196.946L226.653 196.448L227.568 191.675L222.031 190.635L220.706 193.257L220.697 193.266ZM225.488 190.075V191.302H228.608L229.026 189.657L225.479 190.075H225.488ZM220.582 200.271L223.684 200.608L224.279 199.017L220.706 199.053L220.573 200.271H220.582ZM203.471 199.008L203.977 200.608L206.537 200.351L206.413 199.133L203.462 199.008H203.471Z" fill="#388A43"/>
<path d="M377.071 189.65L376.654 191.295H373.534V190.068L377.08 189.65H377.071ZM368.627 200.264L371.729 200.601L372.325 199.01L368.751 199.046L368.618 200.264H368.627ZM351.516 199.001L352.023 200.601L354.583 200.344L354.458 199.126L351.507 199.001H351.516ZM370.689 188.877L361.534 186.21V184.104L357.498 185.997L357.009 187.695L355.694 187.979L356.174 186.69L352.6 186.726L352.467 187.944L354.716 188.184L353.454 188.45L354.014 190.13L347.934 190.059L349.729 193.846L347.32 195.037L350.689 198.059L354.76 198.619L354.831 200.299L367.676 200.584L368.405 198.761L372.618 197.775L372.565 196.939L374.698 196.441L375.614 191.668L370.076 190.628L370.707 188.859L370.689 188.877Z" fill="#73B550"/>
<path d="M370.059 190.644L366.254 191.222L370.69 188.875L370.059 190.635V190.644ZM368.734 193.266H365.508L363.854 195.622L351.517 194.448L347.783 195.471L350.681 198.066L354.752 198.626L354.823 200.306L367.668 200.591L368.397 198.768L372.61 197.782L372.557 196.946L374.69 196.448L375.605 191.675L370.068 190.635L368.743 193.257L368.734 193.266ZM373.525 190.075V191.302H376.645L377.063 189.657L373.517 190.075H373.525ZM368.619 200.271L371.721 200.608L372.317 199.017L368.743 199.053L368.61 200.271H368.619ZM351.508 199.008L352.014 200.608L354.574 200.351L354.45 199.133L351.499 199.008H351.508Z" fill="#388A43"/>
<path d="M56.583 175.446C56.5652 183.739 59.063 191.934 59.0896 200.379H60.7785C60.7519 194.717 59.2674 189.268 58.5563 183.677C58.5919 183.686 58.6185 183.703 58.6541 183.712C60.183 183.979 61.4363 183.001 61.4274 181.375C61.4185 177.579 60.8852 173.792 60.983 169.979C60.983 169.792 60.6896 169.775 60.6541 169.952C60.3074 171.952 60.0763 173.837 60.0319 175.872C59.9963 177.499 61.0007 181.81 58.423 181.819C58.4052 181.819 58.3874 181.828 58.3785 181.828C57.9252 176.361 58.503 170.948 58.4407 165.472C58.4407 165.268 58.1652 165.286 58.1119 165.446C57.2407 168.041 56.8141 170.61 56.6541 173.17C56.4319 173.33 56.2452 173.508 56.0763 173.757C55.6141 174.432 54.7696 174.575 54.023 174.619C53.2407 174.663 52.3607 174.335 51.6585 174.023C50.8141 173.641 50.7074 172.761 50.6007 171.952C50.5119 171.312 49.543 171.161 49.4185 171.863C48.9296 174.601 50.9741 175.766 53.4007 176.148C54.183 176.272 55.5963 176.014 56.5919 175.437L56.583 175.446Z" fill="#88592F"/>
<path d="M61.3474 178.458C61.1962 175.631 60.9207 172.813 60.9918 169.969C60.9918 169.782 60.6985 169.764 60.6629 169.942C60.3162 171.942 60.0851 173.827 60.0407 175.862C60.0229 176.476 60.1562 177.462 60.1918 178.458H61.3474Z" fill="#451D00"/>
<path d="M53.3919 176.156C54.1741 176.28 55.5874 176.023 56.583 175.445C56.583 176.449 56.6185 177.454 56.6807 178.458H58.2185C58.1385 174.129 58.4852 169.818 58.4407 165.463C58.4407 165.258 58.1652 165.276 58.1119 165.436C57.2407 168.031 56.8141 170.6 56.6541 173.16C56.4319 173.32 56.2452 173.498 56.0763 173.747C55.6141 174.423 54.7696 174.565 54.023 174.609C53.2407 174.654 52.3607 174.325 51.6585 174.014C50.8141 173.631 50.7074 172.751 50.6007 171.943C50.5119 171.303 49.543 171.151 49.4185 171.854C48.9296 174.591 50.9741 175.756 53.4007 176.138L53.3919 176.156Z" fill="#451D00"/>
<path d="M53.1706 131.873L50.1039 133.562C49.3928 133.953 48.9217 134.682 48.8506 135.527L47.2328 152.593L41.615 155.864L39.1973 166.336L40.3973 167.456C44.0506 170.869 48.8062 172.656 53.4106 172.22L68.4773 170.798L76.5128 160.318C77.3928 159.171 76.6639 157.384 75.1084 156.842L65.5884 153.527L61.8373 144.104C61.4017 143.011 60.6284 142.069 59.6417 141.429L56.5573 139.429L55.8462 133.376C55.695 132.051 54.2728 131.269 53.1528 131.891L53.1706 131.873Z" fill="#73B550"/>
<path d="M62.0476 155.641C57.0165 154.752 47.2298 152.584 47.2298 152.584L48.3231 141.001C49.3009 142.104 54.9453 146.326 60.3676 143.73C60.6787 143.579 61.0342 143.401 61.3542 143.161C61.5409 143.464 61.7187 143.775 61.8431 144.104L65.5942 153.526H65.6031C65.6031 153.526 66.6787 156.246 62.0476 155.65V155.641ZM56.572 139.41L56.1365 135.668C52.6165 136.21 51.0787 138.015 51.132 138.024C55.0254 138.788 56.572 139.401 56.572 139.401V139.41ZM76.3676 157.739C76.5098 160.299 68.7587 161.144 63.1765 161.064C57.4342 160.984 47.6209 161.624 42.8387 158.655C42.1009 158.192 41.6298 157.526 41.3987 156.788L39.2031 166.326L40.4031 167.446C44.0565 170.859 48.812 172.646 53.4165 172.21L68.4831 170.788L76.5187 160.308C77.0965 159.552 76.972 158.521 76.3765 157.748L76.3676 157.739Z" fill="#388A43"/>
<path d="M235.648 175.614C235.025 183.827 236.928 191.934 236.341 200.289H238.03C238.421 194.689 237.328 189.294 237.025 183.756C237.061 183.765 237.088 183.783 237.114 183.791C238.625 184.058 239.95 183.08 240.056 181.471C240.323 177.711 240.065 173.969 240.439 170.191C240.456 170.005 240.154 169.987 240.11 170.165C239.612 172.147 239.256 174.014 239.052 176.023C238.892 177.631 239.585 181.898 237.008 181.907C236.99 181.907 236.972 181.916 236.963 181.916C236.91 176.503 237.879 171.143 238.216 165.72C238.225 165.516 237.959 165.534 237.888 165.694C236.83 168.263 236.216 170.814 235.87 173.347C235.639 173.507 235.434 173.685 235.248 173.934C234.732 174.6 233.879 174.751 233.132 174.787C232.341 174.831 231.488 174.511 230.812 174.2C229.994 173.818 229.959 172.956 229.905 172.156C229.861 171.516 228.91 171.365 228.723 172.067C228.03 174.778 229.994 175.934 232.394 176.307C233.168 176.431 234.599 176.174 235.639 175.605L235.648 175.614Z" fill="#88592F"/>
<path d="M240.191 178.601C240.244 175.801 240.173 173.01 240.457 170.201C240.475 170.015 240.173 169.997 240.128 170.175C239.631 172.157 239.275 174.024 239.071 176.032C239.008 176.637 239.071 177.615 239.035 178.601H240.191Z" fill="#451D00"/>
<path d="M232.404 176.325C233.177 176.45 234.608 176.192 235.648 175.623C235.577 176.619 235.542 177.614 235.524 178.61H237.062C237.302 174.325 237.959 170.05 238.226 165.748C238.235 165.543 237.968 165.561 237.897 165.721C236.84 168.29 236.226 170.841 235.879 173.374C235.648 173.534 235.444 173.712 235.257 173.961C234.742 174.628 233.888 174.779 233.142 174.814C232.351 174.859 231.497 174.539 230.822 174.228C230.004 173.845 229.968 172.983 229.915 172.183C229.871 171.543 228.92 171.392 228.733 172.094C228.04 174.805 230.004 175.961 232.404 176.334V176.325Z" fill="#451D00"/>
<path d="M235.411 132.476L232.22 134.147C231.482 134.529 230.957 135.258 230.815 136.084L227.953 152.982L222.095 156.227L218.922 166.591L220.042 167.702C223.455 171.08 228.077 172.849 232.709 172.413L247.882 171L256.682 160.627C257.642 159.489 257.055 157.72 255.535 157.187L246.264 153.907L243.206 144.582C242.851 143.498 242.149 142.564 241.206 141.933L238.273 139.951L238.006 133.951C237.944 132.636 236.593 131.871 235.42 132.484L235.411 132.476Z" fill="#73B550"/>
<path d="M242.557 156.014C237.589 155.134 227.962 152.983 227.962 152.983L229.9 141.516C230.797 142.609 236.14 146.787 241.749 144.209C242.069 144.058 242.442 143.881 242.771 143.641C242.94 143.934 243.091 144.245 243.197 144.574L246.255 153.898H246.264C246.264 153.898 247.135 156.592 242.549 156.005L242.557 156.014ZM238.264 139.952L238.104 136.254C234.549 136.787 232.877 138.574 232.931 138.592C236.762 139.347 238.264 139.961 238.264 139.961V139.952ZM256.726 158.094C256.682 160.627 248.869 161.472 243.286 161.383C237.553 161.303 227.695 161.934 223.117 159.001C222.406 158.547 221.997 157.881 221.811 157.152L218.922 166.592L220.042 167.703C223.455 171.081 228.077 172.849 232.709 172.414L247.882 171.001L256.682 160.627C257.313 159.881 257.26 158.858 256.726 158.094Z" fill="#388A43"/>
<path d="M18.005 194.814H16.8672V201.108H18.005V194.814Z" fill="#653E36"/>
<path d="M20.9835 194.814H19.8457V201.108H20.9835V194.814Z" fill="#653E36"/>
<path d="M29.4561 194.814H28.3184V201.108H29.4561V194.814Z" fill="#653E36"/>
<path d="M33.0206 194.814H31.8828V201.108H33.0206V194.814Z" fill="#653E36"/>
<path d="M41.3722 194.814H40.2344V201.108H41.3722V194.814Z" fill="#653E36"/>
<path d="M44.3624 194.814H43.2246V201.108H44.3624V194.814Z" fill="#653E36"/>
<path d="M47.39 197.375H14.6966L12.9277 188.984L27.8166 187.686L30.5988 185.108L46.7766 183.215L49.15 186.628L47.39 197.375Z" fill="#73B550"/>
<path d="M13.6113 192.245L14.6958 197.374H47.3802L48.4735 190.725L46.6602 189.632C46.598 189.783 46.5091 189.925 46.4024 190.041C46.0469 190.423 45.4335 190.556 44.9358 190.378C44.3313 190.156 43.878 189.641 44.0202 188.956C44.0824 188.672 44.278 188.467 44.5269 188.343L43.7802 187.898L43.5135 187.952C43.558 188.156 43.5669 188.37 43.5313 188.583C43.4869 189.33 42.8913 190.023 42.3047 190.405C41.4691 190.956 40.4469 190.77 39.7002 190.174C39.2736 189.836 39.1224 189.294 39.1491 188.77L32.4291 190.032L27.3091 193.196L25.9402 193.098C25.9402 193.178 25.9224 193.267 25.9047 193.347C25.6647 194.29 24.5269 194.903 23.6024 194.654C22.9269 194.467 22.3935 193.836 22.4024 193.125C22.4024 193.027 22.4202 192.938 22.438 192.858L18.518 192.583C18.4913 192.814 18.3935 193.036 18.2247 193.232C17.9135 193.587 17.3358 193.658 16.9091 193.516C16.4024 193.347 16.0735 192.992 16.0291 192.45C16.0291 192.441 16.0291 192.423 16.0291 192.405L13.6113 192.236V192.245ZM32.9269 191.018C33.2558 190.53 33.9402 190.307 34.5002 190.263C35.0958 190.218 35.638 190.441 36.0735 190.85C36.4113 191.161 36.3758 191.712 36.0735 192.023C35.6824 192.432 35.0602 192.636 34.5358 192.77C33.9402 192.93 33.1847 193.001 32.6958 192.538C32.1891 192.058 32.4558 191.374 32.9269 191.018Z" fill="#388A43"/>
<path d="M143.364 194.822H142.227V201.116H143.364V194.822Z" fill="#653E36"/>
<path d="M146.343 194.822H145.205V201.116H146.343V194.822Z" fill="#653E36"/>
<path d="M154.816 194.822H153.678V201.116H154.816V194.822Z" fill="#653E36"/>
<path d="M158.38 194.822H157.242V201.116H158.38V194.822Z" fill="#653E36"/>
<path d="M166.732 194.822H165.594V201.116H166.732V194.822Z" fill="#653E36"/>
<path d="M169.722 194.822H168.584V201.116H169.722V194.822Z" fill="#653E36"/>
<path d="M172.751 197.375H140.058L138.289 188.984L153.178 187.686L155.96 185.108L172.138 183.215L174.511 186.628L172.751 197.375Z" fill="#73B550"/>
<path d="M138.984 192.245L140.069 197.374H172.753L173.847 190.725L172.033 189.632C171.971 189.783 171.882 189.925 171.775 190.041C171.42 190.423 170.807 190.556 170.309 190.378C169.704 190.156 169.251 189.641 169.393 188.956C169.455 188.672 169.651 188.467 169.9 188.343L169.153 187.898L168.887 187.952C168.931 188.156 168.94 188.37 168.904 188.583C168.86 189.33 168.264 190.023 167.678 190.405C166.842 190.956 165.82 190.77 165.073 190.174C164.647 189.836 164.495 189.294 164.522 188.77L157.802 190.032L152.682 193.196L151.313 193.098C151.313 193.178 151.295 193.267 151.278 193.347C151.038 194.29 149.9 194.903 148.975 194.654C148.3 194.467 147.767 193.836 147.775 193.125C147.775 193.027 147.793 192.938 147.811 192.858L143.891 192.583C143.864 192.814 143.767 193.036 143.598 193.232C143.287 193.587 142.709 193.658 142.282 193.516C141.775 193.347 141.447 192.992 141.402 192.45C141.402 192.441 141.402 192.423 141.402 192.405L138.984 192.236V192.245ZM158.3 191.018C158.629 190.53 159.313 190.307 159.873 190.263C160.469 190.218 161.011 190.441 161.447 190.85C161.784 191.161 161.749 191.712 161.447 192.023C161.055 192.432 160.433 192.636 159.909 192.77C159.313 192.93 158.558 193.001 158.069 192.538C157.562 192.058 157.829 191.374 158.3 191.018Z" fill="#388A43"/>
<path d="M189.268 182.662V180.004C195.116 180.004 204.921 178.404 204.921 167.666H207.579C207.579 177.053 200.734 182.662 189.276 182.662H189.268Z" fill="#88592F"/>
<path d="M188.503 200.512C188.441 188.823 188.316 186.228 188.138 182.308C188.005 179.348 187.836 175.668 187.641 166.717L190.29 166.654C190.485 175.57 190.654 179.241 190.787 182.183C190.965 186.139 191.081 188.752 191.152 200.494L188.494 200.512H188.503Z" fill="#88592F"/>
<path d="M189.526 188.37C178.157 188.37 177.615 182.974 177.615 165.898H180.273C180.273 183.863 181.135 185.712 189.535 185.712V188.37H189.526Z" fill="#88592F"/>
<path d="M204.878 176.485L202.754 174.894C204.549 172.511 204.914 169.649 204.914 167.676H207.572C207.572 171.089 206.647 174.138 204.878 176.485Z" fill="#451D00"/>
<path d="M187.827 175.561C187.765 172.61 187.712 169.668 187.641 166.717L190.29 166.654C190.352 169.605 190.414 172.557 190.476 175.508L187.818 175.561H187.827Z" fill="#451D00"/>
<path d="M177.749 175.507C177.633 172.227 177.615 168.956 177.615 165.898H180.273C180.273 168.93 180.291 172.174 180.397 175.41L177.749 175.498V175.507Z" fill="#451D00"/>
<path d="M0 195.295L0 845.295H390L390 195.295H0Z" fill="#499D2F"/>
<path d="M187.116 130.662L178.005 134.938L176.894 138.76L168.894 140.475L170.165 144.271L156.449 144.12L160.494 152.662L155.062 155.355L162.654 162.155L171.836 163.427L171.987 167.222L200.947 167.853L202.6 163.738L212.094 161.524L211.978 159.64L216.778 158.52L218.831 147.755L206.334 145.409L207.756 141.427L187.116 135.409V130.662Z" fill="#73B550"/>
<path d="M214.166 146.877H221.206L222.157 143.17L214.166 144.121V146.877Z" fill="#B8DC64"/>
<path d="M166.672 139.322L173.676 140.077L175.019 136.486L166.965 136.575L166.672 139.322Z" fill="#73B550"/>
<path d="M203.107 167.099L210.112 167.855L211.454 164.264L203.401 164.353L203.107 167.099Z" fill="#B8DC64"/>
<path d="M171.444 167.285L165.675 167.863L164.52 164.254L171.168 164.538L171.444 167.285Z" fill="#B8DC64"/>
<path d="M197.756 146.717L206.343 145.401L207.756 141.428L197.756 146.717Z" fill="#388A43"/>
<path d="M218.833 147.759L206.344 145.412L203.358 151.323H196.078L192.344 156.639L164.522 153.999L156.113 156.301L162.656 162.159L171.838 163.43L171.989 167.225L200.949 167.857L202.602 163.741L212.096 161.528L211.98 159.643L216.78 158.523L218.833 147.759Z" fill="#388A43"/>
<path d="M214.166 146.877H221.206L222.157 143.17L214.166 144.121V146.877Z" fill="#73B550"/>
<path d="M203.107 167.097L210.112 167.853L211.454 164.262L203.401 164.351L203.107 167.097Z" fill="#388A43"/>
<path d="M171.448 167.287L165.679 167.865L164.523 164.256L171.172 164.54L171.448 167.287Z" fill="#73B550"/>
<path d="M329.301 182.662V180.004C335.15 180.004 344.954 178.404 344.954 167.666H347.612C347.612 177.053 340.767 182.662 329.31 182.662H329.301Z" fill="#88592F"/>
<path d="M328.536 200.512C328.474 188.823 328.349 186.228 328.172 182.308C328.038 179.348 327.869 175.668 327.674 166.717L330.323 166.654C330.518 175.57 330.687 179.241 330.82 182.183C330.998 186.139 331.114 188.752 331.185 200.494L328.527 200.512H328.536Z" fill="#88592F"/>
<path d="M329.56 188.37C318.191 188.37 317.648 182.974 317.648 165.898H320.306C320.306 183.863 321.168 185.712 329.568 185.712V188.37H329.56Z" fill="#88592F"/>
<path d="M344.912 176.485L342.787 174.894C344.583 172.511 344.947 169.649 344.947 167.676H347.605C347.605 171.089 346.68 174.138 344.912 176.485Z" fill="#451D00"/>
<path d="M327.864 175.561C327.802 172.61 327.749 169.668 327.678 166.717L330.327 166.654C330.389 169.605 330.451 172.557 330.513 175.508L327.855 175.561H327.864Z" fill="#451D00"/>
<path d="M317.776 175.507C317.66 172.227 317.643 168.956 317.643 165.898H320.3C320.3 168.93 320.318 172.174 320.425 175.41L317.776 175.498V175.507Z" fill="#451D00"/>
<path d="M327.15 130.662L318.039 134.938L316.928 138.76L308.928 140.475L310.19 144.271L296.483 144.12L300.519 152.662L295.088 155.355L302.688 162.155L311.861 163.427L312.021 167.222L340.981 167.853L342.635 163.738L352.128 161.524L352.003 159.64L356.812 158.52L358.866 147.755L346.368 145.409L347.79 141.427L327.15 135.409V130.662Z" fill="#73B550"/>
<path d="M354.201 146.877H361.241L362.192 143.17L354.201 144.121V146.877Z" fill="#B8DC64"/>
<path d="M306.705 139.322L313.71 140.077L315.052 136.486L306.998 136.575L306.705 139.322Z" fill="#73B550"/>
<path d="M343.141 167.099L350.145 167.855L351.487 164.264L343.434 164.353L343.141 167.099Z" fill="#B8DC64"/>
<path d="M311.479 167.285L305.701 167.863L304.555 164.254L311.195 164.538L311.479 167.285Z" fill="#B8DC64"/>
<path d="M337.791 146.717L346.369 145.401L347.791 141.428L337.791 146.717Z" fill="#388A43"/>
<path d="M358.868 147.759L346.371 145.412L343.393 151.323H336.113L332.38 156.639L304.557 153.999L296.148 156.301L302.691 162.159L311.864 163.43L312.024 167.225L340.984 167.857L342.637 163.741L352.131 161.528L352.006 159.643L356.815 158.523L358.868 147.759Z" fill="#388A43"/>
<path d="M354.201 146.877H361.241L362.192 143.17L354.201 144.121V146.877Z" fill="#73B550"/>
<path d="M343.143 167.097L350.147 167.853L351.489 164.262L343.436 164.351L343.143 167.097Z" fill="#388A43"/>
<path d="M311.483 167.287L305.705 167.865L304.559 164.256L311.199 164.54L311.483 167.287Z" fill="#73B550"/>
<path d="M126.5 201.775H18.0558C15.6024 201.775 13.6113 201.429 13.6113 201.002C13.6113 200.575 15.6024 200.229 18.0558 200.229H126.491C128.945 200.229 130.936 200.575 130.936 201.002C130.936 201.429 128.945 201.775 126.491 201.775H126.5Z" fill="#6AAB48"/>
<path d="M285.284 201.881H176.849C174.395 201.881 172.404 201.534 172.404 201.107C172.404 200.681 174.395 200.334 176.849 200.334H285.284C287.738 200.334 289.729 200.681 289.729 201.107C289.729 201.534 287.738 201.881 285.284 201.881Z" fill="#6AAB48"/>
</g>
</svg>
