<svg width="17" height="16" viewBox="0 0 17 16" fill="none" xmlns="http://www.w3.org/2000/svg">
<circle cx="8.5" cy="8" r="8" fill="#499D2F" fill-opacity="0.2"/>
<circle cx="8.49838" cy="7.99838" r="5.65854" fill="#499D2F"/>
<path fill-rule="evenodd" clip-rule="evenodd" d="M10.0927 6.37444C10.1678 6.3 10.2691 6.25811 10.3749 6.25781C10.4806 6.25752 10.5822 6.29886 10.6577 6.37288C10.7332 6.4469 10.7766 6.54767 10.7784 6.65339C10.7802 6.75912 10.7403 6.8613 10.6674 6.93785L8.52531 9.61542C8.48849 9.65507 8.44406 9.68689 8.39466 9.70898C8.34527 9.73107 8.29193 9.74297 8.23783 9.74397C8.18373 9.74497 8.12999 9.73505 8.07981 9.71481C8.02963 9.69457 7.98405 9.66441 7.94579 9.62615L6.52652 8.20634C6.48699 8.1695 6.45527 8.12507 6.43328 8.0757C6.41128 8.02634 6.39945 7.97305 6.3985 7.91901C6.39755 7.86498 6.40749 7.8113 6.42773 7.76119C6.44797 7.71108 6.47809 7.66556 6.51631 7.62735C6.55452 7.58913 6.60004 7.55901 6.65016 7.53876C6.70027 7.51852 6.75394 7.50858 6.80798 7.50954C6.86201 7.51049 6.9153 7.52232 6.96467 7.54431C7.01403 7.56631 7.05846 7.59802 7.09531 7.63756L8.21892 8.76064L10.0825 6.38624C10.0858 6.38209 10.0894 6.37815 10.0932 6.37444H10.0927Z" fill="white"/>
</svg>
