<svg width="16" height="136" viewBox="0 0 16 136" fill="none" xmlns="http://www.w3.org/2000/svg">
<rect y="12" width="16" height="16" rx="8" fill="#FDEAD9"/>
<rect x="4" y="16" width="8" height="8" rx="4" fill="#FC8838"/>
<path d="M8 34V102" stroke="#D9D9D9" stroke-width="2" stroke-dasharray="6 6"/>
<path fill-rule="evenodd" clip-rule="evenodd" d="M8 108C3.58172 108 0 111.582 0 116C0 120.418 3.58172 124 8 124C12.4183 124 16 120.418 16 116C16 111.582 12.4183 108 8 108ZM7.99957 110.56C4.99514 110.56 2.55957 112.996 2.55957 116C2.55957 119.004 4.99514 121.44 7.99957 121.44C11.004 121.44 13.4396 119.004 13.4396 116C13.4396 112.996 11.004 110.56 7.99957 110.56Z" fill="#1E4C2F"/>
<rect x="5.11914" y="113.119" width="5.76" height="5.76" rx="2.88" fill="#3C5041"/>
</svg>
