<svg width="40" height="40" viewBox="0 0 40 40" fill="none" xmlns="http://www.w3.org/2000/svg">
<path fill-rule="evenodd" clip-rule="evenodd" d="M20 6.97929C18.5923 4.78669 16.1325 3.33398 13.3333 3.33398C10.802 3.33398 8.75 5.38601 8.75 7.91732C8.75 10.4486 10.802 12.5007 13.3333 12.5007H20H26.6667C29.198 12.5007 31.25 10.4486 31.25 7.91732C31.25 5.38601 29.198 3.33398 26.6667 3.33398C23.8675 3.33398 21.4077 4.78669 20 6.97929ZM13.3333 10.0007H18.6051C18.0408 7.61173 15.8947 5.83398 13.3333 5.83398C12.1827 5.83398 11.25 6.76672 11.25 7.91732C11.25 9.06791 12.1827 10.0007 13.3333 10.0007ZM26.6667 10.0007H21.3949C21.9592 7.61173 24.1053 5.83398 26.6667 5.83398C27.8173 5.83398 28.75 6.76672 28.75 7.91732C28.75 9.06791 27.8173 10.0007 26.6667 10.0007Z" fill="#FC8838"/>
<path d="M3.33398 13.3333C3.33398 11.4924 4.82637 10 6.66732 10H33.334C35.1749 10 36.6673 11.4924 36.6673 13.3333V16.6667C36.6673 18.5076 35.1749 20 33.334 20H6.66732C4.82637 20 3.33398 18.5076 3.33398 16.6667V13.3333Z" fill="#F9CB9F"/>
<path d="M6.66797 20H33.3346V34.6667C33.3346 35.7712 32.4392 36.6667 31.3346 36.6667H8.66797C7.5634 36.6667 6.66797 35.7712 6.66797 34.6667V20Z" fill="#FC8838"/>
</svg>
