<?xml version="1.0" encoding="iso-8859-1"?>
<!-- Uploaded to: SVG Repo, www.svgrepo.com, Generator: SVG Repo Mixer Tools -->
<svg version="1.1" id="Layer_1" xmlns="http://www.w3.org/2000/svg" xmlns:xlink="http://www.w3.org/1999/xlink" 
	 viewBox="0 0 512 512" xml:space="preserve">
<path style="fill:#FFAA99;" d="M448.001,506.61c0,2.964-2.425,5.39-5.39,5.39H69.389c-2.963,0-5.39-2.425-5.39-5.39V271.236
	c0-2.964,2.425-5.39,5.39-5.39h373.223c2.964,0,5.39,2.425,5.39,5.39V506.61z"/>
<path style="fill:#E84731;" d="M154.621,47.288c-0.787,0-1.542-0.312-2.1-0.864l-20.494-20.392
	c-2.898-2.881-4.493-6.709-4.493-10.782s1.596-7.902,4.493-10.781C134.925,1.586,138.776,0,142.874,0
	c4.097,0,7.949,1.586,10.847,4.467l0.9,0.895l0.901-0.895C158.418,1.586,162.271,0,166.37,0c4.097,0,7.95,1.586,10.847,4.467
	c2.896,2.88,4.494,6.708,4.494,10.781s-1.598,7.903-4.494,10.782l-20.494,20.392C156.165,46.975,155.41,47.288,154.621,47.288z"/>
<path style="fill:#FFBAC5;" d="M357.378,47.288c-0.788,0-1.543-0.312-2.101-0.864l-20.493-20.392
	c-2.898-2.881-4.493-6.709-4.493-10.782s1.595-7.902,4.493-10.781C337.68,1.586,341.532,0,345.629,0
	c4.099,0,7.95,1.586,10.848,4.467l0.9,0.895l0.9-0.895C361.174,1.586,365.028,0,369.126,0c4.098,0,7.95,1.586,10.847,4.467
	c2.896,2.88,4.494,6.708,4.494,10.781s-1.597,7.903-4.494,10.782l-20.495,20.392C358.92,46.975,358.166,47.288,357.378,47.288z"/>
<path style="fill:#FF8163;" d="M335.242,506.61c0,2.964-2.425,5.39-5.389,5.39H182.148c-2.964,0-5.39-2.425-5.39-5.39V197.182
	c0-2.965,2.425-5.39,5.39-5.39h147.706c2.963,0,5.389,2.424,5.389,5.39V506.61z"/>
<path style="opacity:0.1;enable-background:new    ;" d="M78.69,506.61V271.236c0-2.964,2.425-5.39,5.39-5.39H69.389
	c-2.963,0-5.39,2.425-5.39,5.39V506.61c0,2.964,2.425,5.39,5.39,5.39H84.08C81.115,512,78.69,509.575,78.69,506.61z"/>
<path style="opacity:0.1;enable-background:new    ;" d="M193.629,506.61V197.182c0-2.965,2.425-5.39,5.39-5.39h-16.871
	c-2.964,0-5.39,2.424-5.39,5.39V506.61c0,2.964,2.425,5.39,5.39,5.39h16.871C196.054,512,193.629,509.575,193.629,506.61z"/>
<path style="fill:#7DD8D8;" d="M290.232,393.846h-68.463c-2.964,0-5.39,2.425-5.39,5.39V512h79.242V399.236
	C295.621,396.271,293.196,393.846,290.232,393.846z"/>
<path style="fill:#66BFBD;" d="M256,512h39.622V399.236c0-2.964-2.425-5.39-5.39-5.39H256V512z"/>
<g>
	<path style="fill:#FF8163;" d="M94.148,495.377c-4.328,0-7.837-3.508-7.837-7.837v-59.076c0-4.329,3.509-7.837,7.837-7.837
		s7.837,3.508,7.837,7.837v59.076C101.985,491.868,98.477,495.377,94.148,495.377z"/>
	<path style="fill:#FF8163;" d="M120.151,495.377c-4.328,0-7.837-3.508-7.837-7.837v-59.076c0-4.329,3.509-7.837,7.837-7.837
		s7.837,3.508,7.837,7.837v59.076C127.987,491.868,124.479,495.377,120.151,495.377z"/>
	<path style="fill:#FF8163;" d="M146.152,495.377c-4.328,0-7.837-3.508-7.837-7.837v-59.076c0-4.329,3.509-7.837,7.837-7.837
		c4.328,0,7.837,3.508,7.837,7.837v59.076C153.989,491.868,150.48,495.377,146.152,495.377z"/>
	<path style="fill:#FF8163;" d="M363.925,495.377c-4.329,0-7.837-3.508-7.837-7.837v-59.076c0-4.329,3.508-7.837,7.837-7.837
		c4.329,0,7.837,3.508,7.837,7.837v59.076C371.762,491.868,368.254,495.377,363.925,495.377z"/>
	<path style="fill:#FF8163;" d="M389.928,495.377c-4.329,0-7.837-3.508-7.837-7.837v-59.076c0-4.329,3.508-7.837,7.837-7.837
		c4.328,0,7.837,3.508,7.837,7.837v59.076C397.764,491.868,394.256,495.377,389.928,495.377z"/>
	<path style="fill:#FF8163;" d="M415.929,495.377c-4.329,0-7.837-3.508-7.837-7.837v-59.076c0-4.329,3.508-7.837,7.837-7.837
		c4.329,0,7.837,3.508,7.837,7.837v59.076C423.766,491.868,420.257,495.377,415.929,495.377z"/>
	<path style="fill:#FF8163;" d="M256,140.307c-1.545,0-3.025-0.61-4.118-1.695l-40.17-39.97c-5.681-5.643-8.808-13.15-8.808-21.134
		s3.127-15.491,8.808-21.133c5.678-5.646,13.227-8.758,21.262-8.758c8.031,0,15.583,3.113,21.263,8.758L256,58.129l1.764-1.754
		c5.678-5.646,13.228-8.758,21.262-8.758c8.033,0,15.584,3.113,21.264,8.758c5.678,5.642,8.808,13.148,8.808,21.133
		s-3.131,15.491-8.808,21.134l-40.17,39.97C259.024,139.697,257.544,140.307,256,140.307z"/>
</g>
<path style="fill:#E84731;" d="M377.988,189.981c-1.135,0-2.223-0.448-3.026-1.244l-29.53-29.381
	c-4.174-4.15-6.474-9.667-6.474-15.537s2.3-11.386,6.474-15.535c4.174-4.15,9.725-6.438,15.63-6.438
	c5.903,0,11.455,2.287,15.63,6.438l1.297,1.288l1.298-1.288c4.173-4.15,9.723-6.438,15.629-6.438c5.904,0,11.454,2.287,15.629,6.438
	c4.175,4.148,6.475,9.665,6.475,15.535s-2.3,11.386-6.475,15.537l-29.529,29.381C380.21,189.534,379.125,189.981,377.988,189.981z"
	/>
<path style="fill:#FFBAC5;" d="M134.012,189.981c-1.136,0-2.224-0.448-3.027-1.244l-29.529-29.381
	c-4.175-4.15-6.474-9.667-6.474-15.537s2.299-11.386,6.474-15.535c4.174-4.15,9.724-6.438,15.63-6.438
	c5.904,0,11.454,2.287,15.63,6.438l1.298,1.288l1.298-1.288c4.172-4.15,9.723-6.438,15.629-6.438c5.905,0,11.455,2.287,15.63,6.438
	c4.174,4.148,6.476,9.665,6.476,15.535s-2.302,11.386-6.476,15.537l-29.529,29.381C136.235,189.534,135.148,189.981,134.012,189.981
	z"/>
<path style="opacity:0.1;enable-background:new    ;" d="M165.266,35.798l-20.494-20.392c-2.897-2.88-4.493-6.709-4.493-10.782
	c0-1.545,0.232-3.055,0.675-4.492c-3.37,0.415-6.488,1.91-8.927,4.335c-2.898,2.88-4.493,6.708-4.493,10.781
	s1.596,7.903,4.493,10.782l20.494,20.392c0.558,0.552,1.313,0.864,2.1,0.864c0.789,0,1.543-0.312,2.101-0.864l9.913-9.863
	C166.123,36.429,165.648,36.174,165.266,35.798z"/>
<path style="opacity:0.1;enable-background:new    ;" d="M347.421,17.947c-2.898-2.88-4.493-6.709-4.493-10.782
	c0-2.523,0.614-4.952,1.769-7.119c-3.745,0.223-7.239,1.762-9.914,4.422c-2.897,2.88-4.493,6.708-4.493,10.781
	s1.595,7.903,4.493,10.782l20.493,20.392c0.558,0.552,1.313,0.864,2.101,0.864c0.789,0,1.542-0.312,2.1-0.864l8.282-8.24
	L347.421,17.947z"/>
<path style="opacity:0.1;enable-background:new    ;" d="M233.934,87.324c-5.681-5.645-8.807-13.151-8.807-21.135
	c0-6.819,2.286-13.283,6.49-18.541c-7.524,0.33-14.548,3.398-19.905,8.725c-5.681,5.642-8.808,13.148-8.808,21.133
	s3.127,15.491,8.808,21.134l40.17,39.97c1.094,1.085,2.574,1.695,4.118,1.695s3.024-0.61,4.118-1.695l12.681-12.617L233.934,87.324z
	"/>
<path style="opacity:0.1;enable-background:new    ;" d="M367.655,148.037c-4.175-4.149-6.475-9.667-6.475-15.536
	c0-3.716,0.928-7.287,2.662-10.463c-0.916-0.114-1.842-0.193-2.78-0.193c-5.905,0-11.455,2.287-15.63,6.438
	c-4.174,4.148-6.474,9.665-6.474,15.534s2.3,11.386,6.474,15.537l29.53,29.381c0.805,0.797,1.892,1.244,3.026,1.244
	c1.137,0,2.223-0.448,3.027-1.244l13.772-13.703L367.655,148.037z"/>
<path style="opacity:0.1;enable-background:new    ;" d="M123.679,148.037c-4.175-4.149-6.475-9.667-6.475-15.536
	c0-3.716,0.927-7.287,2.662-10.463c-0.916-0.114-1.842-0.193-2.782-0.193c-5.906,0-11.455,2.287-15.63,6.438
	c-4.175,4.148-6.474,9.665-6.474,15.534s2.299,11.386,6.474,15.537l29.529,29.381c0.805,0.797,1.891,1.244,3.027,1.244
	c1.136,0,2.223-0.448,3.026-1.244l13.773-13.703L123.679,148.037z"/>
<g>
	<rect x="205.239" y="228.927" style="fill:#EED063;" width="24.763" height="24.616"/>
	<rect x="243.618" y="228.927" style="fill:#EED063;" width="24.762" height="24.616"/>
	<rect x="281.997" y="228.927" style="fill:#EED063;" width="24.762" height="24.616"/>
	<rect x="205.239" y="267.076" style="fill:#EED063;" width="24.763" height="24.617"/>
	<rect x="243.618" y="267.076" style="fill:#EED063;" width="24.762" height="24.617"/>
</g>
<g>
	<rect x="281.997" y="267.076" style="fill:#FFFFFF;" width="24.762" height="24.617"/>
	<rect x="205.239" y="305.236" style="fill:#FFFFFF;" width="24.763" height="24.616"/>
</g>
<g>
	<rect x="243.618" y="305.236" style="fill:#EED063;" width="24.762" height="24.616"/>
	<rect x="281.997" y="305.236" style="fill:#EED063;" width="24.762" height="24.616"/>
	<rect x="205.239" y="343.385" style="fill:#EED063;" width="24.763" height="24.617"/>
	<rect x="243.618" y="343.385" style="fill:#EED063;" width="24.762" height="24.617"/>
	<rect x="281.997" y="343.385" style="fill:#EED063;" width="24.762" height="24.617"/>
</g>
<g>
	<rect x="88.576" y="298.433" style="fill:#E84731;" width="24.763" height="24.617"/>
	<rect x="126.966" y="298.433" style="fill:#E84731;" width="24.762" height="24.617"/>
	<rect x="88.576" y="336.593" style="fill:#E84731;" width="24.763" height="24.616"/>
	<rect x="126.966" y="336.593" style="fill:#E84731;" width="24.762" height="24.616"/>
	<rect x="88.576" y="374.742" style="fill:#E84731;" width="24.763" height="24.617"/>
	<rect x="126.966" y="374.742" style="fill:#E84731;" width="24.762" height="24.617"/>
	<rect x="358.358" y="298.433" style="fill:#E84731;" width="24.761" height="24.617"/>
	<rect x="396.737" y="298.433" style="fill:#E84731;" width="24.762" height="24.617"/>
	<rect x="358.358" y="336.593" style="fill:#E84731;" width="24.761" height="24.616"/>
	<rect x="396.737" y="336.593" style="fill:#E84731;" width="24.762" height="24.616"/>
	<rect x="358.358" y="374.742" style="fill:#E84731;" width="24.761" height="24.617"/>
	<rect x="396.737" y="374.742" style="fill:#E84731;" width="24.762" height="24.617"/>
</g>
<path style="opacity:0.1;enable-background:new    ;" d="M232.547,399.236c0-2.964,2.425-5.39,5.39-5.39h-16.169
	c-2.964,0-5.39,2.425-5.39,5.39V512h16.169V399.236z"/>
</svg>