<svg width="16" height="17" viewBox="0 0 16 17" fill="none" xmlns="http://www.w3.org/2000/svg">
<path d="M6.6457 1.26776L2.48085 3.11881C1.27616 3.65422 0.481172 4.85326 0.557831 6.16934C0.857525 11.3145 2.36423 13.5796 6.27933 16.2302C7.31649 16.9324 8.68363 16.9341 9.72003 16.2308C13.6472 13.5658 15.1 11.2687 15.426 6.18716C15.511 4.86238 14.7147 3.65062 13.5016 3.11147L9.35329 1.26776C8.49141 0.884703 7.50759 0.884704 6.6457 1.26776Z" fill="#1E4C2F"/>
<path fill-rule="evenodd" clip-rule="evenodd" d="M10.9116 6.86168C11.1714 7.08898 11.1977 7.48383 10.9704 7.74361L8.57879 10.4768C8.06488 11.0642 7.17968 11.1428 6.57027 10.6553L5.10959 9.48675C4.84005 9.27112 4.79635 8.87781 5.01198 8.60827C5.22761 8.33873 5.62092 8.29503 5.89046 8.51066L7.35114 9.67921C7.4382 9.74886 7.56466 9.73762 7.63807 9.65372L10.0297 6.92047C10.257 6.6607 10.6518 6.63438 10.9116 6.86168Z" fill="#F9CB9F"/>
</svg>
