<svg width="20" height="20" viewBox="0 0 20 20" fill="none" xmlns="http://www.w3.org/2000/svg">
<path d="M17.5144 12.363L17.2691 13.0717L17.2691 13.0717L17.5144 12.363ZM17.5144 7.63698L17.7598 8.3457L17.5144 7.63698ZM2.48426 12.363L2.72963 13.0717L2.72963 13.0717L2.48426 12.363ZM2.48426 7.63698L2.23889 8.3457H2.23889L2.48426 7.63698ZM13.0297 8.03033C13.3226 7.73744 13.3226 7.26256 13.0297 6.96967C12.7368 6.67678 12.2619 6.67678 11.969 6.96967L13.0297 8.03033ZM6.96902 11.9697C6.67613 12.2626 6.67613 12.7374 6.96902 13.0303C7.26191 13.3232 7.73679 13.3232 8.02968 13.0303L6.96902 11.9697ZM4.99935 16.75C3.57261 16.75 2.41602 15.5934 2.41602 14.1667H0.916016C0.916016 16.4218 2.74419 18.25 4.99935 18.25V16.75ZM17.5827 14.1667C17.5827 15.5934 16.4261 16.75 14.9993 16.75V18.25C17.2545 18.25 19.0827 16.4218 19.0827 14.1667H17.5827ZM14.9993 3.25C16.4261 3.25 17.5827 4.4066 17.5827 5.83333H19.0827C19.0827 3.57817 17.2545 1.75 14.9993 1.75V3.25ZM4.99935 1.75C2.74419 1.75 0.916016 3.57817 0.916016 5.83333H2.41602C2.41602 4.4066 3.57261 3.25 4.99935 3.25V1.75ZM17.7598 11.6543C17.0737 11.4167 16.5827 10.7647 16.5827 10H15.0827C15.0827 11.4236 15.9975 12.6315 17.2691 13.0717L17.7598 11.6543ZM16.5827 10C16.5827 9.23526 17.0737 8.58326 17.7598 8.3457L17.2691 6.92825C15.9975 7.36849 15.0827 8.57644 15.0827 10H16.5827ZM3.41602 10C3.41602 10.7647 2.92505 11.4167 2.23889 11.6543L2.72963 13.0717C4.00121 12.6315 4.91602 11.4236 4.91602 10H3.41602ZM2.23889 8.3457C2.92505 8.58326 3.41602 9.23526 3.41602 10H4.91602C4.91602 8.57644 4.00121 7.36849 2.72963 6.92825L2.23889 8.3457ZM19.0827 6.66667V5.83333H17.5827V6.66667H19.0827ZM17.5827 13.3333V14.1667H19.0827V13.3333H17.5827ZM0.916016 13.3333V14.1667H2.41602V13.3333H0.916016ZM2.41602 6.66667V5.83333H0.916016V6.66667H2.41602ZM14.9993 16.75H4.99935V18.25H14.9993V16.75ZM14.9993 1.75H4.99935V3.25H14.9993V1.75ZM2.23889 11.6543C1.64719 11.8592 0.916016 12.4229 0.916016 13.3333H2.41602C2.41602 13.3235 2.41765 13.2912 2.46853 13.2349C2.52337 13.1742 2.6156 13.1112 2.72963 13.0717L2.23889 11.6543ZM17.7598 8.3457C18.3515 8.14085 19.0827 7.57707 19.0827 6.66667H17.5827C17.5827 6.67651 17.581 6.70882 17.5302 6.76512C17.4753 6.82582 17.3831 6.88877 17.2691 6.92825L17.7598 8.3457ZM2.72963 6.92825C2.6156 6.88877 2.52337 6.82582 2.46853 6.76512C2.41765 6.70882 2.41602 6.67651 2.41602 6.66667H0.916016C0.916016 7.57708 1.64719 8.14085 2.23889 8.3457L2.72963 6.92825ZM17.2691 13.0717C17.3831 13.1112 17.4753 13.1742 17.5302 13.2349C17.581 13.2912 17.5827 13.3235 17.5827 13.3333H19.0827C19.0827 12.4229 18.3515 11.8592 17.7598 11.6543L17.2691 13.0717ZM7.58268 7.5C7.58268 7.54602 7.54537 7.58333 7.49935 7.58333V9.08333C8.3738 9.08333 9.08268 8.37445 9.08268 7.5H7.58268ZM7.49935 7.58333C7.45333 7.58333 7.41602 7.54602 7.41602 7.5H5.91602C5.91602 8.37445 6.6249 9.08333 7.49935 9.08333V7.58333ZM7.41602 7.5C7.41602 7.45398 7.45333 7.41667 7.49935 7.41667V5.91667C6.6249 5.91667 5.91602 6.62555 5.91602 7.5H7.41602ZM7.49935 7.41667C7.54537 7.41667 7.58268 7.45398 7.58268 7.5H9.08268C9.08268 6.62555 8.3738 5.91667 7.49935 5.91667V7.41667ZM12.5827 12.5C12.5827 12.546 12.5454 12.5833 12.4993 12.5833V14.0833C13.3738 14.0833 14.0827 13.3745 14.0827 12.5H12.5827ZM12.4993 12.5833C12.4533 12.5833 12.416 12.546 12.416 12.5H10.916C10.916 13.3745 11.6249 14.0833 12.4993 14.0833V12.5833ZM12.416 12.5C12.416 12.454 12.4533 12.4167 12.4993 12.4167V10.9167C11.6249 10.9167 10.916 11.6255 10.916 12.5H12.416ZM12.4993 12.4167C12.5454 12.4167 12.5827 12.454 12.5827 12.5H14.0827C14.0827 11.6255 13.3738 10.9167 12.4993 10.9167V12.4167ZM11.969 6.96967L6.96902 11.9697L8.02968 13.0303L13.0297 8.03033L11.969 6.96967Z" fill="#1E4C2F"/>
</svg>
