<svg width="20" height="20" viewBox="0 0 20 20" fill="none" xmlns="http://www.w3.org/2000/svg">
<path d="M17.5007 5.83333C17.5007 7.67428 15.834 10.8333 14.1673 10.8333C12.5007 10.8333 10.834 7.67428 10.834 5.83333C10.834 3.99238 12.3264 2.5 14.1673 2.5C16.0083 2.5 17.5007 3.99238 17.5007 5.83333Z" fill="#F9CB9F"/>
<path d="M15.416 5.83398C15.416 6.52434 14.8564 7.08398 14.166 7.08398C13.4757 7.08398 12.916 6.52434 12.916 5.83398C12.916 5.14363 13.4757 4.58398 14.166 4.58398C14.8564 4.58398 15.416 5.14363 15.416 5.83398Z" fill="#1E4C2F"/>
<path fill-rule="evenodd" clip-rule="evenodd" d="M6.04167 12.5007C6.04167 11.235 7.06768 10.209 8.33333 10.209H10C10.3452 10.209 10.625 10.4888 10.625 10.834C10.625 11.1792 10.3452 11.459 10 11.459H8.33333C7.75804 11.459 7.29167 11.9254 7.29167 12.5007C7.29167 13.0759 7.75804 13.5423 8.33333 13.5423H15.8333C17.099 13.5423 18.125 14.5683 18.125 15.834C18.125 17.0996 17.099 18.1257 15.8333 18.1257H2.5C2.15482 18.1257 1.875 17.8458 1.875 17.5007C1.875 17.1555 2.15482 16.8757 2.5 16.8757H15.8333C16.4086 16.8757 16.875 16.4093 16.875 15.834C16.875 15.2587 16.4086 14.7923 15.8333 14.7923H8.33333C7.06768 14.7923 6.04167 13.7663 6.04167 12.5007Z" fill="#1E4C2F"/>
</svg>
