<svg width="48" height="48" viewBox="0 0 48 48" fill="none" xmlns="http://www.w3.org/2000/svg">
<rect width="48" height="48" rx="16" fill="#F5F5F5"/>
<path d="M16.9688 23.4375C14.2506 23.4375 12 25.6412 12 28.3594C12 31.0776 14.2506 33.2812 16.9688 33.2812C19.6869 33.2812 21.8906 31.0776 21.8906 28.3594C21.8906 25.6412 19.6869 23.4375 16.9688 23.4375ZM16.9688 31.875C15.0304 31.875 13.4062 30.2977 13.4062 28.3594C13.4062 26.421 15.0304 24.8438 16.9688 24.8438C18.9071 24.8438 20.4844 26.421 20.4844 28.3594C20.4844 30.2977 18.9071 31.875 16.9688 31.875Z" fill="#1E4C2F"/>
<path d="M31.0312 23.4375C28.3131 23.4375 26.1094 25.6412 26.1094 28.3594C26.1094 31.0776 28.3131 33.2812 31.0312 33.2812C33.7494 33.2812 36 31.0776 36 28.3594C36 25.6412 33.7494 23.4375 31.0312 23.4375ZM31.0312 31.875C29.0929 31.875 27.5156 30.2977 27.5156 28.3594C27.5156 26.421 29.0929 24.8438 31.0312 24.8438C32.9696 24.8438 34.5938 26.421 34.5938 28.3594C34.5938 30.2977 32.9696 31.875 31.0312 31.875Z" fill="#1E4C2F"/>
<path d="M19.7812 22.0305C19.3927 22.0305 19.0781 21.7161 19.0781 21.3274V18.5156C19.0781 18.127 19.3927 17.8125 19.7812 17.8125C20.1698 17.8125 20.4844 18.127 20.4844 18.5156V21.3274C20.4844 21.7161 20.1698 22.0305 19.7812 22.0305Z" fill="#1E4C2F"/>
<path d="M21.1875 19.2188H18.375C17.9864 19.2188 17.6719 18.9042 17.6719 18.5156C17.6719 18.127 17.9864 17.8125 18.375 17.8125H21.1875C21.5761 17.8125 21.8906 18.127 21.8906 18.5156C21.8906 18.9042 21.5761 19.2188 21.1875 19.2188Z" fill="#1E4C2F"/>
<path d="M31.7344 20.625H28.9219L28.2188 19.3506L28.9219 17.8125H32.4375C32.8259 17.8125 33.1406 18.1273 33.1406 18.5156V19.2188C33.1406 19.9955 32.5111 20.625 31.7344 20.625Z" fill="#F9CB9F"/>
<path d="M28.9219 17.1094C28.9219 15.9463 27.9756 15 26.8125 15H25.4062C25.0177 15 24.7031 15.3145 24.7031 15.7031C24.7031 16.0917 25.0177 16.4062 25.4062 16.4062H26.8125C27.2005 16.4062 27.5156 16.7214 27.5156 17.1094V17.8125L28.1748 18.5156L28.9219 17.8125V17.1094Z" fill="#1E4C2F"/>
<path d="M28.2188 22.0312C28.6073 22.0312 28.9219 21.7167 28.9219 21.3281V17.8125H27.5156V21.3281C27.5156 21.7167 27.8302 22.0312 28.2188 22.0312Z" fill="#1E4C2F"/>
<path d="M30.7646 27.7125C30.413 27.8531 30.0053 27.6703 29.8505 27.3187L27.7411 22.0313H20.2599L18.2911 26.9531L17.7147 28.4015C17.6021 28.6687 17.3349 28.8375 17.0537 28.8375C16.9693 28.8375 16.8848 28.8234 16.8004 28.7954C16.435 28.6406 16.2661 28.2328 16.4068 27.8812L16.7724 26.9531L19.1349 21.0609C19.2333 20.7938 19.5005 20.625 19.7818 20.625H28.2193C28.5005 20.625 28.7677 20.7938 28.8661 21.0609L31.1585 26.7984C31.313 27.15 31.1303 27.5577 30.7646 27.7125H30.7646Z" fill="#1E4C2F"/>
<path d="M28.7671 21.7791L23.9999 27.5869L23.0718 28.7259C22.9312 28.8946 22.7202 28.979 22.5234 28.979C22.3687 28.979 22.2139 28.9228 22.0735 28.8243C21.7781 28.5712 21.7358 28.1353 21.975 27.826L23.9999 25.3509L27.6702 20.8789L28.7671 21.7791Z" fill="#1E4C2F"/>
<path d="M28.7672 21.7791L24 27.5868V25.3509L27.6703 20.8789L28.7672 21.7791Z" fill="#1E4C2F"/>
<path d="M30.7641 27.7125C30.4125 27.8531 30.0048 27.6703 29.85 27.3187L27.7406 22.0312H24V20.625H28.2188C28.5 20.625 28.7672 20.7938 28.8656 21.0609L31.1578 26.7984C31.3125 27.15 31.1298 27.5577 30.7641 27.7125Z" fill="#1E4C2F"/>
<path d="M24.7031 28.3594C24.7031 28.8798 24.4219 29.3297 24 29.5687C23.7891 29.6953 23.5499 29.7656 23.2969 29.7656H16.2656C15.4922 29.7656 14.8594 29.1328 14.8594 28.3594C14.8594 27.5859 15.4922 26.9531 16.2656 26.9531H23.2969C23.5499 26.9531 23.7891 27.0234 24 27.15C24.4219 27.3891 24.7031 27.839 24.7031 28.3594Z" fill="#F9CB9F"/>
<path d="M31.0312 30.4688C29.8681 30.4688 28.9219 29.5224 28.9219 28.3594C28.9219 27.1963 29.8682 26.25 31.0312 26.25C32.1943 26.25 33.1406 27.1963 33.1406 28.3594C33.1406 29.5224 32.1943 30.4688 31.0312 30.4688Z" fill="#F9CB9F"/>
</svg>
