<svg width="17" height="20" viewBox="0 0 17 20" fill="none" xmlns="http://www.w3.org/2000/svg">
<path d="M7.66667 7.58266C7.25245 7.58266 6.91667 7.91844 6.91667 8.33266C6.91667 8.74687 7.25245 9.08266 7.66667 9.08266V7.58266ZM8.5 8.33266H9.25C9.25 7.91844 8.91421 7.58266 8.5 7.58266V8.33266ZM7.75 14.166C7.75 14.5802 8.08579 14.916 8.5 14.916C8.91421 14.916 9.25 14.5802 9.25 14.166H7.75ZM2.73205 4.53212L3.11422 5.17745L2.73205 4.53212ZM2.73205 15.4666L3.11422 14.8213L2.73205 15.4666ZM10.232 17.8566L9.84988 17.2113L10.232 17.8566ZM6.76795 17.8566L6.38578 18.502L6.76795 17.8566ZM14.2679 15.4666L14.6501 16.1119L14.2679 15.4666ZM14.2679 4.53212L13.8858 5.17745L14.2679 4.53212ZM10.232 2.14206L9.84988 2.78738L10.232 2.14206ZM6.76795 2.14206L6.38578 1.49673L6.76795 2.14206ZM7.66667 9.08266H8.5V7.58266H7.66667V9.08266ZM7.75 8.33266V14.166H9.25V8.33266H7.75ZM9.84988 2.78738L13.8858 5.17745L14.6501 3.88679L10.6142 1.49673L9.84988 2.78738ZM15.25 7.60929V12.3894H16.75V7.60929H15.25ZM13.8858 14.8213L9.84988 17.2113L10.6142 18.502L14.6501 16.1119L13.8858 14.8213ZM7.15011 17.2113L3.11422 14.8213L2.34989 16.1119L6.38578 18.502L7.15011 17.2113ZM1.75 12.3894V7.60929H0.25V12.3894H1.75ZM3.11422 5.17745L7.15011 2.78738L6.38578 1.49673L2.34989 3.88679L3.11422 5.17745ZM1.75 7.60929C1.75 6.5986 2.27574 5.67399 3.11422 5.17745L2.34989 3.88679C1.04477 4.65968 0.25 6.0811 0.25 7.60929H1.75ZM3.11422 14.8213C2.27574 14.3247 1.75 13.4001 1.75 12.3894H0.25C0.25 13.9176 1.04477 15.339 2.34989 16.1119L3.11422 14.8213ZM9.84988 17.2113C9.01375 17.7065 7.98625 17.7065 7.15011 17.2113L6.38578 18.502C7.69324 19.2763 9.30675 19.2763 10.6142 18.502L9.84988 17.2113ZM15.25 12.3894C15.25 13.4001 14.7243 14.3247 13.8858 14.8213L14.6501 16.1119C15.9552 15.339 16.75 13.9176 16.75 12.3894H15.25ZM13.8858 5.17745C14.7243 5.67399 15.25 6.5986 15.25 7.60929H16.75C16.75 6.0811 15.9552 4.65968 14.6501 3.88679L13.8858 5.17745ZM10.6142 1.49673C9.30675 0.722446 7.69325 0.722446 6.38578 1.49673L7.15011 2.78738C7.98625 2.29223 9.01375 2.29223 9.84988 2.78738L10.6142 1.49673Z" fill="#1E4C2F"/>
</svg>
