<svg width="18" height="18" viewBox="0 0 18 18" fill="none" xmlns="http://www.w3.org/2000/svg">
<path opacity="0.4" d="M3.99935 0.666016H13.9993C15.8403 0.666016 17.3327 2.1584 17.3327 3.99935V13.9993C17.3327 15.8403 15.8403 17.3327 13.9994 17.3327H3.99935C2.1584 17.3327 0.666016 15.8403 0.666016 13.9994V3.99935C0.666016 2.1584 2.1584 0.666016 3.99935 0.666016Z" fill="#1E4C2F"/>
<path fill-rule="evenodd" clip-rule="evenodd" d="M6.12504 12.8327C5.84889 12.6256 5.79293 12.2339 6.00004 11.9577L7.75004 9.62439C8.02781 9.25402 8.02781 8.74476 7.75004 8.37439L6.00004 6.04105C5.79293 5.76491 5.84889 5.37316 6.12504 5.16605C6.40118 4.95895 6.79293 5.01491 7.00004 5.29105L8.75004 7.62439C9.36115 8.4392 9.36115 9.55957 8.75004 10.3744L7.00004 12.7077C6.79293 12.9839 6.40118 13.0398 6.12504 12.8327Z" fill="#1E4C2F"/>
<path fill-rule="evenodd" clip-rule="evenodd" d="M10.2917 12.8327C10.0156 12.6256 9.9596 12.2339 10.1667 11.9577L11.9167 9.62439C12.1945 9.25402 12.1945 8.74476 11.9167 8.37439L10.1667 6.04105C9.9596 5.76491 10.0156 5.37316 10.2917 5.16605C10.5678 4.95895 10.9596 5.01491 11.1667 5.29105L12.9167 7.62439C13.5278 8.4392 13.5278 9.55957 12.9167 10.3744L11.1667 12.7077C10.9596 12.9839 10.5678 13.0398 10.2917 12.8327Z" fill="#1E4C2F"/>
</svg>
