<svg width="16" height="18" viewBox="0 0 16 18" fill="none" xmlns="http://www.w3.org/2000/svg">
<path d="M13.8333 0.666016H2.16667C1.24619 0.666016 0.5 1.41221 0.5 2.33268V14.9613C0.5 16.1156 1.6451 16.9204 2.7312 16.5294L4.03267 16.0609C4.43934 15.9145 4.88699 15.9318 5.28115 16.1092L7.31606 17.0249C7.75101 17.2206 8.24899 17.2206 8.68394 17.0249L10.7189 16.1092C11.113 15.9318 11.5607 15.9145 11.9673 16.0609L13.2688 16.5294C14.3549 16.9204 15.5 16.1156 15.5 14.9613V2.33268C15.5 1.41221 14.7538 0.666016 13.8333 0.666016Z" fill="#F9CB9F"/>
<path fill-rule="evenodd" clip-rule="evenodd" d="M12.791 4.83203C12.791 5.17721 12.5112 5.45703 12.166 5.45703L3.83268 5.45703C3.4875 5.45703 3.20768 5.17721 3.20768 4.83203C3.20768 4.48685 3.4875 4.20703 3.83268 4.20703L12.166 4.20703C12.5112 4.20703 12.791 4.48685 12.791 4.83203Z" fill="#1E4C2F"/>
<path fill-rule="evenodd" clip-rule="evenodd" d="M12.791 8.16602C12.791 8.51119 12.5112 8.79102 12.166 8.79102L3.83268 8.79102C3.4875 8.79102 3.20768 8.51119 3.20768 8.16601C3.20768 7.82084 3.4875 7.54101 3.83268 7.54101L12.166 7.54102C12.5112 7.54102 12.791 7.82084 12.791 8.16602Z" fill="#1E4C2F"/>
<path fill-rule="evenodd" clip-rule="evenodd" d="M8.625 11.5C8.625 11.8452 8.34518 12.125 8 12.125L3.83333 12.125C3.48816 12.125 3.20833 11.8452 3.20833 11.5C3.20833 11.1548 3.48816 10.875 3.83333 10.875L8 10.875C8.34518 10.875 8.625 11.1548 8.625 11.5Z" fill="#1E4C2F"/>
</svg>
