<svg width="21" height="21" viewBox="0 0 21 21" fill="none" xmlns="http://www.w3.org/2000/svg">
<path fill-rule="evenodd" clip-rule="evenodd" d="M17.25 9.5C17.25 13.7802 13.7802 17.25 9.5 17.25C5.21979 17.25 1.75 13.7802 1.75 9.5C1.75 5.21979 5.21979 1.75 9.5 1.75C13.7802 1.75 17.25 5.21979 17.25 9.5ZM9.5 18.75C14.6086 18.75 18.75 14.6086 18.75 9.5C18.75 4.39137 14.6086 0.25 9.5 0.25C4.39137 0.25 0.25 4.39137 0.25 9.5C0.25 14.6086 4.39137 18.75 9.5 18.75ZM20.4217 20.4217C19.6506 21.1928 18.4004 21.1928 17.6293 20.4217L15.7563 18.5488C16.8465 17.7936 17.7936 16.8465 18.5488 15.7563L20.4217 17.6292C21.1928 18.4003 21.1928 19.6506 20.4217 20.4217Z" fill="#1E4C2F"/>
</svg>
