<svg width="20" height="20" viewBox="0 0 20 20" fill="none" xmlns="http://www.w3.org/2000/svg">
<path d="M8.33333 7.49932C8.33333 6.57885 9.07953 5.83266 10 5.83266C10.9205 5.83266 11.6667 6.57885 11.6667 7.49932C11.6667 7.83112 11.5697 8.14026 11.4026 8.39998C10.9045 9.17405 10 9.91218 10 10.8327V11.2493M10 13.3327V14.166M2.5 7.60929V12.3894C2.5 13.6589 3.16025 14.8319 4.23205 15.4666L8.26795 17.8566C9.33975 18.4914 10.6603 18.4914 11.732 17.8566L15.7679 15.4666C16.8397 14.8319 17.5 13.6589 17.5 12.3894V7.60929C17.5 6.33985 16.8397 5.16684 15.7679 4.53212L11.732 2.14206C10.6603 1.50734 9.33975 1.50734 8.26795 2.14205L4.23205 4.53212C3.16025 5.16684 2.5 6.33985 2.5 7.60929Z" stroke="#28303F" stroke-width="1.5" stroke-linecap="round"/>
</svg>
