<svg width="20" height="20" viewBox="0 0 20 20" fill="none" xmlns="http://www.w3.org/2000/svg">
<path d="M16.6246 4.87106L15.913 5.10823L15.913 5.10823L16.6246 4.87106ZM15.9558 5.23652C16.0868 5.62948 16.5115 5.84185 16.9045 5.71086C17.2974 5.57987 17.5098 5.15513 17.3788 4.76218L15.9558 5.23652ZM13.5712 0.954503C13.1782 0.823517 12.7535 1.03589 12.6225 1.42884C12.4915 1.8218 12.7039 2.24654 13.0968 2.37753L13.5712 0.954503ZM13.4623 1.70878L13.2251 2.42029V2.42029L13.4623 1.70878ZM3.71356 12.3994L3.14199 11.9138H3.14199L3.71356 12.3994ZM4.44628 10.6981L3.70105 10.6137L4.44628 10.6981ZM15.555 10.6981L16.3003 10.6137L15.555 10.6981ZM16.2877 12.3994L16.8593 11.9138L16.2877 12.3994ZM15.2676 8.16105L14.5224 8.24547V8.24547L15.2676 8.16105ZM4.73368 8.16105L5.47891 8.24547L4.73368 8.16105ZM13.2029 16.9292C13.3483 16.5414 13.1517 16.1091 12.7639 15.9637C12.376 15.8184 11.9437 16.0149 11.7984 16.4028L13.2029 16.9292ZM8.20295 16.4028C8.05759 16.0149 7.62532 15.8184 7.23745 15.9637C6.84958 16.1091 6.65299 16.5414 6.79835 16.9292L8.20295 16.4028ZM3.37675 4.87106L4.08826 5.10823L4.08826 5.10823L3.37675 4.87106ZM2.62247 4.76218C2.49149 5.15513 2.70386 5.57988 3.09681 5.71086C3.48977 5.84185 3.91451 5.62948 4.0455 5.23652L2.62247 4.76218ZM6.90449 2.37753C7.29745 2.24654 7.50982 1.8218 7.37883 1.42884C7.24784 1.03589 6.8231 0.823517 6.43015 0.954503L6.90449 2.37753ZM6.53903 1.70878L6.30186 0.997267H6.30186L6.53903 1.70878ZM15.913 5.10823L15.9558 5.23652L17.3788 4.76218L17.3361 4.63388L15.913 5.10823ZM13.0968 2.37753L13.2251 2.42029L13.6994 0.997267L13.5712 0.954503L13.0968 2.37753ZM17.3361 4.63389C16.7637 2.91691 15.4164 1.56959 13.6994 0.997267L13.2251 2.42029C14.4942 2.84332 15.49 3.83916 15.913 5.10823L17.3361 4.63389ZM15.1422 14.2493H4.8591V15.7493H15.1422V14.2493ZM14.5224 8.24547L14.8098 10.7825L16.3003 10.6137L16.0129 8.07662L14.5224 8.24547ZM5.19152 10.7825L5.47891 8.24547L3.98845 8.07662L3.70105 10.6137L5.19152 10.7825ZM4.28513 12.885C4.78863 12.2924 5.10356 11.559 5.19152 10.7825L3.70105 10.6137C3.64618 11.098 3.45011 11.5511 3.14199 11.9138L4.28513 12.885ZM14.8098 10.7825C14.8977 11.559 15.2127 12.2924 15.7162 12.885L16.8593 11.9138C16.5512 11.5511 16.3551 11.098 16.3003 10.6137L14.8098 10.7825ZM4.8591 14.2493C4.23386 14.2493 3.80956 13.4447 4.28513 12.885L3.14199 11.9138C1.89522 13.3813 2.8688 15.7493 4.8591 15.7493V14.2493ZM15.1422 15.7493C17.1325 15.7493 18.1061 13.3813 16.8593 11.9138L15.7162 12.885C16.1917 13.4447 15.7674 14.2493 15.1422 14.2493V15.7493ZM16.0129 8.07662C15.6601 4.96227 13.0904 2.58268 10.0007 2.58268V4.08268C12.2927 4.08268 14.2515 5.85452 14.5224 8.24547L16.0129 8.07662ZM5.47891 8.24547C5.74976 5.85452 7.7086 4.08268 10.0007 4.08268V2.58268C6.91095 2.58268 4.34124 4.96227 3.98845 8.07662L5.47891 8.24547ZM11.7984 16.4028C11.5484 17.0697 10.8544 17.5827 10.0007 17.5827V19.0827C11.4553 19.0827 12.7251 18.2043 13.2029 16.9292L11.7984 16.4028ZM10.0007 17.5827C9.14691 17.5827 8.45289 17.0697 8.20295 16.4028L6.79835 16.9292C7.27622 18.2043 8.54601 19.0827 10.0007 19.0827V17.5827ZM2.66524 4.63389L2.62247 4.76218L4.0455 5.23652L4.08826 5.10823L2.66524 4.63389ZM6.43015 0.954503L6.30186 0.997267L6.7762 2.42029L6.90449 2.37753L6.43015 0.954503ZM4.08826 5.10823C4.51128 3.83916 5.50713 2.84332 6.7762 2.42029L6.30186 0.997267C4.58488 1.56959 3.23756 2.91691 2.66524 4.63389L4.08826 5.10823Z" fill="#28303F"/>
</svg>
