<svg width="20" height="20" viewBox="0 0 20 20" fill="none" xmlns="http://www.w3.org/2000/svg">
<path d="M3.33268 3.33398L16.666 16.6673M11.666 11.8641C11.2237 12.2599 10.6396 12.5007 9.99935 12.5007C8.61864 12.5007 7.49935 11.3814 7.49935 10.0007C7.49935 9.36036 7.74006 8.77628 8.13593 8.33398M16.3392 13.0071C16.8153 12.5925 17.2412 12.1756 17.6079 11.7897C18.5743 10.773 18.5743 9.22829 17.6079 8.21157C15.9781 6.49676 13.1789 4.16732 9.99935 4.16732C9.25654 4.16732 8.53449 4.29445 7.84327 4.51118M5.41602 5.67014C4.20055 6.44602 3.16405 7.39797 2.39077 8.21157C1.42443 9.22829 1.42443 10.773 2.39077 11.7897C4.02059 13.5045 6.81975 15.834 9.99935 15.834C11.5561 15.834 13.0216 15.2756 14.3034 14.5043" stroke="#28303F" stroke-width="1.5" stroke-linecap="round"/>
</svg>
