<svg width="16" height="20" viewBox="0 0 16 20" fill="none" xmlns="http://www.w3.org/2000/svg">
<path d="M11.334 6.66602H4.66732C2.82637 6.66602 1.33398 8.1584 1.33398 9.99935V14.9993C1.33398 16.8403 2.82637 18.3327 4.66732 18.3327H11.334C13.1749 18.3327 14.6673 16.8403 14.6673 14.9993V9.99935C14.6673 8.1584 13.1749 6.66602 11.334 6.66602ZM11.334 6.66602L11.334 4.99935C11.334 3.1584 9.84162 1.66602 8.00067 1.66602C6.76687 1.66602 5.68963 2.33635 5.11328 3.33268M9.66732 12.4993C9.66732 13.4198 8.92113 14.166 8.00065 14.166C7.08018 14.166 6.33398 13.4198 6.33398 12.4993C6.33398 11.5789 7.08018 10.8327 8.00065 10.8327C8.92113 10.8327 9.66732 11.5789 9.66732 12.4993Z" stroke="#28303F" stroke-width="1.5" stroke-linecap="round" stroke-linejoin="round"/>
</svg>
