<svg width="20" height="20" viewBox="0 0 20 20" fill="none" xmlns="http://www.w3.org/2000/svg">
<ellipse cx="9.99935" cy="5.83333" rx="0.833333" ry="0.833333" fill="#28303F"/>
<path d="M9.16667 7.58266C8.75245 7.58266 8.41667 7.91844 8.41667 8.33266C8.41667 8.74687 8.75245 9.08266 9.16667 9.08266V7.58266ZM10 8.33266H10.75C10.75 7.91844 10.4142 7.58266 10 7.58266V8.33266ZM9.25 14.166C9.25 14.5802 9.58579 14.916 10 14.916C10.4142 14.916 10.75 14.5802 10.75 14.166H9.25ZM4.23205 4.53212L4.61422 5.17745L4.23205 4.53212ZM4.23205 15.4666L4.61422 14.8213L4.23205 15.4666ZM11.732 17.8566L11.3499 17.2113L11.732 17.8566ZM8.26795 17.8566L7.88578 18.502L8.26795 17.8566ZM15.7679 15.4666L16.1501 16.1119L15.7679 15.4666ZM15.7679 4.53212L15.3858 5.17745L15.7679 4.53212ZM11.732 2.14206L11.3499 2.78738L11.732 2.14206ZM8.26795 2.14206L7.88578 1.49673L8.26795 2.14206ZM9.16667 9.08266H10V7.58266H9.16667V9.08266ZM9.25 8.33266V14.166H10.75V8.33266H9.25ZM11.3499 2.78738L15.3858 5.17745L16.1501 3.88679L12.1142 1.49673L11.3499 2.78738ZM16.75 7.60929V12.3894H18.25V7.60929H16.75ZM15.3858 14.8213L11.3499 17.2113L12.1142 18.502L16.1501 16.1119L15.3858 14.8213ZM8.65011 17.2113L4.61422 14.8213L3.84989 16.1119L7.88578 18.502L8.65011 17.2113ZM3.25 12.3894V7.60929H1.75V12.3894H3.25ZM4.61422 5.17745L8.65011 2.78738L7.88578 1.49673L3.84989 3.88679L4.61422 5.17745ZM3.25 7.60929C3.25 6.5986 3.77574 5.67399 4.61422 5.17745L3.84989 3.88679C2.54477 4.65968 1.75 6.0811 1.75 7.60929H3.25ZM4.61422 14.8213C3.77574 14.3247 3.25 13.4001 3.25 12.3894H1.75C1.75 13.9176 2.54477 15.339 3.84989 16.1119L4.61422 14.8213ZM11.3499 17.2113C10.5138 17.7065 9.48625 17.7065 8.65011 17.2113L7.88578 18.502C9.19324 19.2763 10.8068 19.2763 12.1142 18.502L11.3499 17.2113ZM16.75 12.3894C16.75 13.4001 16.2243 14.3247 15.3858 14.8213L16.1501 16.1119C17.4552 15.339 18.25 13.9176 18.25 12.3894H16.75ZM15.3858 5.17745C16.2243 5.67399 16.75 6.5986 16.75 7.60929H18.25C18.25 6.0811 17.4552 4.65968 16.1501 3.88679L15.3858 5.17745ZM12.1142 1.49673C10.8068 0.722446 9.19325 0.722446 7.88578 1.49673L8.65011 2.78738C9.48625 2.29223 10.5138 2.29223 11.3499 2.78738L12.1142 1.49673Z" fill="#28303F"/>
</svg>
