<svg width="390" height="223" viewBox="0 0 390 223" fill="none" xmlns="http://www.w3.org/2000/svg">
<g opacity="0.2">
<path d="M395 -188.295V211.705H-5V-188.295" fill="white"/>
<path fill-rule="evenodd" clip-rule="evenodd" d="M4.32227 57.5143L7.91338 54.4654V37.1498L19.1845 2.66983L19.7445 -16.5391H20.0378L20.5978 2.66983L31.86 37.1498V54.4654L35.4512 57.5143V172.43H4.32227V57.5143Z" fill="#D3ECDE"/>
<path d="M394.073 30.6978L382.802 -3.78223L382.242 -23H381.949L381.389 -3.78223L370.126 30.6978V48.0044L366.526 51.0533V165.978H394.997V48.7955L394.073 48.0044V30.6978Z" fill="#D3ECDE"/>
<path fill-rule="evenodd" clip-rule="evenodd" d="M172.58 48.4834L162.643 30.7501H161.754L161.265 15.5234H161.043L160.554 30.7501H151.096L150.598 15.5234H150.376L149.878 30.7501H148.998L139.06 48.4834H136.794L136.243 25.079H135.976L135.425 48.4834H133.523V172.43H178.118V48.4834H176.198L175.647 25.079H175.389L174.829 48.4834H172.58Z" fill="#D3ECDE"/>
<path fill-rule="evenodd" clip-rule="evenodd" d="M265.273 63.6944L255.336 45.961H254.447L253.958 30.7344H253.727L253.238 45.961H243.78L243.291 30.7344H243.069L242.571 45.961H241.691L231.753 63.6944H229.487L228.936 40.2899H228.669L228.118 63.6944H226.216V187.641H270.802V63.6944H268.891L268.34 40.2899H268.082L267.522 63.6944H265.273Z" fill="#D3ECDE"/>
<path fill-rule="evenodd" clip-rule="evenodd" d="M98.1278 45.961L75.1767 30.7344L60.6789 45.961V169.792H98.1278V45.961Z" fill="#D3ECDE"/>
<path fill-rule="evenodd" clip-rule="evenodd" d="M288.598 17.1857L311.549 1.95898L326.047 17.1857V141.017H288.598V17.1857Z" fill="#D3ECDE"/>
<path fill-rule="evenodd" clip-rule="evenodd" d="M370.492 39.6778L347.55 24.4512L333.052 39.6778V163.509H370.492V39.6778Z" fill="#D3ECDE"/>
<path fill-rule="evenodd" clip-rule="evenodd" d="M195.966 46.812L199.895 43.4876V24.5632L212.206 16.0298L212.819 -4.97461H213.139L213.752 16.0298L226.063 24.5632V43.4876L230.001 46.812V172.43H195.966V46.812Z" fill="#D3ECDE"/>
<path d="M395 109.297H392.858V89.0122L378.004 84.2477L363.827 89.0122V104.932H356.947V96.4344L333.809 95.1455L321.027 98.1322V109.892L311.284 109.217V96.9055L291.196 95.4833L281.462 99.6166V110.497L272.956 112.914V104.319L262.458 101.999L249.818 104.319V112.914L241.311 110.497V91.5011L231.578 87.3767L211.489 88.79V109.217L195.729 109.892V101.572L182.947 98.5678L159.818 99.8744V104.932H152.938V92.7011L138.76 87.9367L123.907 92.7011V109.297H119.027L118.378 92.0167L102.609 89.1811L87.9956 90.2477V109.421H78.2444V104.337L63.8 100.914V88.1055L57.9778 86.9766V80.2122L47.2578 79.0566L40.4844 80.2122V86.4611L32.9289 87.3144V110.141L14.9111 111.066V106.977L7.64 105.377L-5 106.186V211.706H395V109.297Z" fill="#B1DACA"/>
<path d="M310.004 178.702L309.444 180.898H305.275V179.262L310.004 178.702ZM298.733 192.862L302.875 193.307L303.666 191.182L298.902 191.236L298.724 192.862H298.733ZM275.906 191.173L276.591 193.316L280.004 192.969L279.844 191.342L275.915 191.173H275.906ZM301.479 177.671L289.266 174.116V171.307L283.879 173.831L283.222 176.089L281.462 176.462L282.102 174.738L277.337 174.791L277.159 176.418L280.155 176.738L278.475 177.102L279.222 179.351L271.106 179.253L273.497 184.311L270.279 185.902L274.777 189.929L280.208 190.676L280.306 192.924L297.435 193.298L298.413 190.862L304.031 189.556L303.959 188.444L306.804 187.778L308.022 181.413L300.626 180.027L301.462 177.671H301.479Z" fill="#73B550"/>
<path d="M300.653 180.016L295.578 180.789L301.489 177.66L300.653 180.016ZM298.884 183.518H294.582L292.377 186.665L275.915 185.1L270.938 186.46L274.813 189.927L280.244 190.673L280.342 192.922L297.471 193.296L298.449 190.86L304.066 189.553L303.995 188.442L306.84 187.776L308.058 181.411L300.671 180.025L298.902 183.518H298.884ZM305.275 179.26V180.896H309.444L310.004 178.7L305.275 179.26ZM298.733 192.86L302.875 193.305L303.666 191.18L298.902 191.233L298.724 192.86H298.733ZM275.906 191.171L276.591 193.313L280.004 192.967L279.844 191.34L275.915 191.171H275.906Z" fill="#388A43"/>
<path d="M106.903 178.808L106.343 180.986H102.209V179.359L106.903 178.799V178.808ZM95.7204 192.861L99.836 193.306L100.627 191.199L95.8982 191.252L95.7204 192.861ZM73.0626 191.19L73.7382 193.315L77.1248 192.977L76.9648 191.359L73.0626 191.19ZM98.4404 177.795L86.3248 174.266V171.475L80.9737 173.981L80.3248 176.221L78.5826 176.595L79.2226 174.888L74.4937 174.941L74.316 176.55L77.2937 176.87L75.6226 177.226L76.3693 179.457L68.316 179.368L70.6893 184.381L67.4982 185.964L71.9604 189.955L77.3471 190.701L77.4359 192.932L94.4404 193.306L95.4093 190.888L100.983 189.59L100.912 188.479L103.729 187.821L104.938 181.501L97.6048 180.124L98.4404 177.786V177.795Z" fill="#73B550"/>
<path d="M97.6128 180.124L92.5728 180.897L98.4395 177.795L97.6039 180.133L97.6128 180.124ZM95.8617 183.599H91.5861L89.3995 186.719L73.0617 185.173L68.1195 186.524L71.9595 189.964L77.3461 190.71L77.435 192.942L94.4395 193.315L95.4084 190.897L100.982 189.599L100.911 188.488L103.728 187.83L104.937 181.51L97.6039 180.133L95.8528 183.599H95.8617ZM102.208 179.368V180.995H106.342L106.902 178.817L102.208 179.377V179.368ZM95.7195 192.862L99.835 193.306L100.626 191.199L95.8973 191.253L95.7195 192.862ZM73.0617 191.19L73.7373 193.315L77.1239 192.977L76.9639 191.359L73.0617 191.19Z" fill="#388A43"/>
<path d="M135.169 182.097L134.742 183.786H131.542V182.532L135.169 182.106V182.097ZM126.52 192.959L129.702 193.306L130.315 191.679L126.662 191.715L126.529 192.959H126.52ZM109.009 191.661L109.533 193.306L112.155 193.039L112.031 191.795L109.018 191.661H109.009ZM128.635 181.306L119.266 178.577V176.426L115.133 178.364L114.626 180.097L113.275 180.39L113.773 179.066L110.12 179.101L109.986 180.346L112.289 180.595L111 180.87L111.578 182.595L105.355 182.524L107.186 186.399L104.724 187.617L108.173 190.701L112.342 191.279L112.413 193.004L125.56 193.288L126.306 191.421L130.618 190.417L130.564 189.564L132.742 189.057L133.675 184.177L128.004 183.11L128.644 181.297L128.635 181.306Z" fill="#73B550"/>
<path d="M127.987 183.111L124.094 183.707L128.636 181.307L127.996 183.111H127.987ZM126.636 185.796H123.33L121.632 188.204L109.001 187.004L105.188 188.053L108.156 190.711L112.325 191.289L112.396 193.013L125.543 193.298L126.29 191.431L130.601 190.427L130.548 189.573L132.725 189.067L133.659 184.187L127.987 183.12L126.636 185.804V185.796ZM131.543 182.524V183.778H134.743L135.17 182.089L131.543 182.516V182.524ZM126.53 192.96L129.712 193.307L130.325 191.68L126.672 191.716L126.539 192.96H126.53ZM109.019 191.662L109.543 193.307L112.165 193.04L112.041 191.796L109.027 191.662H109.019Z" fill="#388A43"/>
<path d="M276.849 182.355L276.431 184H273.311V182.773L276.857 182.355H276.849ZM268.404 192.969L271.506 193.306L272.102 191.715L268.529 191.751L268.395 192.969H268.404ZM251.293 191.706L251.8 193.306L254.36 193.049L254.235 191.831L251.284 191.706H251.293ZM270.466 181.582L261.311 178.915V176.809L257.275 178.702L256.786 180.4L255.471 180.684L255.951 179.395L252.377 179.431L252.244 180.649L254.493 180.889L253.231 181.155L253.791 182.835L247.711 182.764L249.506 186.551L247.097 187.742L250.466 190.764L254.537 191.324L254.609 193.004L267.453 193.289L268.182 191.466L272.395 190.48L272.342 189.644L274.475 189.146L275.391 184.373L269.853 183.333L270.484 181.564L270.466 181.582Z" fill="#73B550"/>
<path d="M269.836 183.349L266.032 183.927L270.467 181.58L269.836 183.34V183.349ZM268.512 185.971H265.285L263.632 188.327L251.294 187.153L247.561 188.176L250.458 190.771L254.53 191.331L254.601 193.011L267.445 193.296L268.174 191.473L272.387 190.487L272.334 189.651L274.467 189.153L275.383 184.38L269.845 183.34L268.521 185.962L268.512 185.971ZM273.303 182.78V184.007H276.423L276.841 182.362L273.294 182.78H273.303ZM268.396 192.976L271.498 193.313L272.094 191.722L268.521 191.758L268.387 192.976H268.396ZM251.285 191.713L251.792 193.313L254.352 193.056L254.227 191.838L251.276 191.713H251.285Z" fill="#388A43"/>
<path d="M229.045 182.355L228.627 184H225.507V182.773L229.054 182.355H229.045ZM220.6 192.969L223.703 193.306L224.298 191.715L220.725 191.751L220.592 192.969H220.6ZM203.489 191.706L203.996 193.306L206.556 193.049L206.432 191.831L203.48 191.706H203.489ZM222.663 181.582L213.507 178.915V176.809L209.463 178.702L208.974 180.4L207.658 180.684L208.138 179.395L204.565 179.431L204.432 180.649L206.68 180.889L205.418 181.155L205.978 182.835L199.898 182.764L201.694 186.551L199.285 187.742L202.654 190.764L206.725 191.324L206.796 193.004L219.64 193.289L220.369 191.466L224.583 190.48L224.529 189.644L226.663 189.146L227.578 184.373L222.04 183.333L222.672 181.564L222.663 181.582Z" fill="#73B550"/>
<path d="M222.022 183.349L218.217 183.927L222.653 181.58L222.022 183.34V183.349ZM220.697 185.971H217.471L215.817 188.327L203.48 187.153L199.746 188.176L202.644 190.771L206.715 191.331L206.786 193.011L219.631 193.296L220.36 191.473L224.573 190.487L224.52 189.651L226.653 189.153L227.569 184.38L222.031 183.34L220.706 185.962L220.697 185.971ZM225.489 182.78V184.007H228.609L229.026 182.362L225.48 182.78H225.489ZM220.582 192.976L223.684 193.313L224.28 191.722L220.706 191.758L220.573 192.976H220.582ZM203.471 191.713L203.977 193.313L206.537 193.056L206.413 191.838L203.462 191.713H203.471Z" fill="#388A43"/>
<path d="M377.071 182.355L376.653 184H373.533V182.773L377.08 182.355H377.071ZM368.627 192.969L371.729 193.306L372.324 191.715L368.751 191.751L368.618 192.969H368.627ZM351.515 191.706L352.022 193.306L354.582 193.049L354.458 191.831L351.507 191.706H351.515ZM370.689 181.582L361.533 178.915V176.809L357.498 178.702L357.009 180.4L355.693 180.684L356.173 179.395L352.6 179.431L352.467 180.649L354.715 180.889L353.453 181.155L354.013 182.835L347.933 182.764L349.729 186.551L347.32 187.742L350.689 190.764L354.76 191.324L354.831 193.004L367.675 193.289L368.404 191.466L372.618 190.48L372.564 189.644L374.698 189.146L375.613 184.373L370.075 183.333L370.707 181.564L370.689 181.582Z" fill="#73B550"/>
<path d="M370.059 183.349L366.254 183.927L370.69 181.58L370.059 183.34V183.349ZM368.734 185.971H365.508L363.854 188.327L351.516 187.153L347.783 188.176L350.681 190.771L354.752 191.331L354.823 193.011L367.668 193.296L368.396 191.473L372.61 190.487L372.556 189.651L374.69 189.153L375.605 184.38L370.068 183.34L368.743 185.962L368.734 185.971ZM373.525 182.78V184.007H376.645L377.063 182.362L373.516 182.78H373.525ZM368.619 192.976L371.721 193.313L372.316 191.722L368.743 191.758L368.61 192.976H368.619ZM351.508 191.713L352.014 193.313L354.574 193.056L354.45 191.838L351.499 191.713H351.508Z" fill="#388A43"/>
<path d="M56.5828 168.151C56.5651 176.444 59.0628 184.64 59.0895 193.084H60.7784C60.7517 187.422 59.2673 181.973 58.5562 176.382C58.5917 176.391 58.6184 176.408 58.654 176.417C60.1828 176.684 61.4362 175.706 61.4273 174.08C61.4184 170.284 60.8851 166.497 60.9829 162.684C60.9829 162.497 60.6895 162.48 60.654 162.657C60.3073 164.657 60.0762 166.542 60.0317 168.577C59.9962 170.204 61.0006 174.515 58.4228 174.524C58.4051 174.524 58.3873 174.533 58.3784 174.533C57.9251 169.066 58.5028 163.653 58.4406 158.177C58.4406 157.973 58.1651 157.991 58.1117 158.151C57.2406 160.746 56.814 163.315 56.654 165.875C56.4317 166.035 56.2451 166.213 56.0762 166.462C55.614 167.137 54.7695 167.28 54.0228 167.324C53.2406 167.368 52.3606 167.04 51.6584 166.728C50.814 166.346 50.7073 165.466 50.6006 164.657C50.5117 164.017 49.5428 163.866 49.4184 164.568C48.9295 167.306 50.974 168.471 53.4006 168.853C54.1828 168.977 55.5962 168.72 56.5917 168.142L56.5828 168.151Z" fill="#88592F"/>
<path d="M61.3469 171.163C61.1958 168.336 60.9202 165.518 60.9913 162.674C60.9913 162.487 60.698 162.47 60.6625 162.647C60.3158 164.647 60.0847 166.532 60.0402 168.567C60.0225 169.181 60.1558 170.167 60.1913 171.163H61.3469Z" fill="#451D00"/>
<path d="M53.3917 168.861C54.174 168.985 55.5873 168.728 56.5828 168.15C56.5828 169.154 56.6184 170.159 56.6806 171.163H58.2184C58.1384 166.834 58.4851 162.523 58.4406 158.168C58.4406 157.963 58.1651 157.981 58.1117 158.141C57.2406 160.736 56.814 163.305 56.654 165.865C56.4317 166.025 56.2451 166.203 56.0762 166.452C55.614 167.128 54.7695 167.27 54.0228 167.314C53.2406 167.359 52.3606 167.03 51.6584 166.719C50.814 166.337 50.7073 165.456 50.6006 164.648C50.5117 164.008 49.5428 163.856 49.4184 164.559C48.9295 167.296 50.974 168.461 53.4006 168.843L53.3917 168.861Z" fill="#451D00"/>
<path d="M53.17 124.578L50.1034 126.267C49.3922 126.658 48.9211 127.387 48.85 128.232L47.2322 145.298L41.6145 148.569L39.1967 159.041L40.3967 160.161C44.05 163.574 48.8056 165.361 53.41 164.925L68.4767 163.503L76.5122 153.023C77.3922 151.876 76.6634 150.089 75.1078 149.547L65.5878 146.232L61.8367 136.809C61.4011 135.716 60.6278 134.774 59.6411 134.134L56.5567 132.134L55.8456 126.081C55.6945 124.756 54.2722 123.974 53.1522 124.596L53.17 124.578Z" fill="#73B550"/>
<path d="M62.0485 148.346C57.0174 147.457 47.2307 145.289 47.2307 145.289L48.324 133.706C49.3018 134.809 54.9463 139.031 60.3685 136.435C60.6796 136.284 61.0352 136.106 61.3552 135.866C61.5418 136.169 61.7196 136.48 61.844 136.809L65.5952 146.231H65.604C65.604 146.231 66.6796 148.951 62.0485 148.355V148.346ZM56.5729 132.115L56.1374 128.373C52.6174 128.915 51.0796 130.72 51.1329 130.729C55.0263 131.493 56.5729 132.106 56.5729 132.106V132.115ZM76.3685 150.444C76.5107 153.004 68.7596 153.849 63.1774 153.769C57.4352 153.689 47.6218 154.329 42.8396 151.36C42.1018 150.897 41.6307 150.231 41.3996 149.493L39.204 159.031L40.404 160.151C44.0574 163.564 48.8129 165.351 53.4174 164.915L68.484 163.493L76.5196 153.013C77.0974 152.257 76.9729 151.226 76.3774 150.453L76.3685 150.444Z" fill="#388A43"/>
<path d="M235.648 168.319C235.026 176.532 236.928 184.639 236.342 192.994H238.03C238.422 187.394 237.328 181.999 237.026 176.461C237.062 176.47 237.088 176.488 237.115 176.497C238.626 176.763 239.95 175.785 240.057 174.177C240.324 170.417 240.066 166.674 240.439 162.897C240.457 162.71 240.155 162.692 240.11 162.87C239.613 164.852 239.257 166.719 239.053 168.728C238.893 170.337 239.586 174.603 237.008 174.612C236.99 174.612 236.973 174.621 236.964 174.621C236.91 169.208 237.879 163.848 238.217 158.425C238.226 158.221 237.959 158.239 237.888 158.399C236.83 160.968 236.217 163.519 235.87 166.052C235.639 166.212 235.435 166.39 235.248 166.639C234.733 167.305 233.879 167.457 233.133 167.492C232.342 167.537 231.488 167.217 230.813 166.905C229.995 166.523 229.959 165.661 229.906 164.861C229.862 164.221 228.91 164.07 228.724 164.772C228.03 167.483 229.995 168.639 232.395 169.012C233.168 169.137 234.599 168.879 235.639 168.31L235.648 168.319Z" fill="#88592F"/>
<path d="M240.19 171.306C240.244 168.506 240.173 165.715 240.457 162.906C240.475 162.72 240.173 162.702 240.128 162.88C239.63 164.862 239.275 166.729 239.07 168.737C239.008 169.342 239.07 170.32 239.035 171.306H240.19Z" fill="#451D00"/>
<path d="M232.404 169.031C233.177 169.155 234.609 168.897 235.649 168.328C235.577 169.324 235.542 170.319 235.524 171.315H237.062C237.302 167.031 237.96 162.755 238.226 158.453C238.235 158.248 237.969 158.266 237.897 158.426C236.84 160.995 236.226 163.546 235.88 166.079C235.648 166.239 235.444 166.417 235.257 166.666C234.742 167.333 233.889 167.484 233.142 167.519C232.351 167.564 231.497 167.244 230.822 166.933C230.004 166.551 229.969 165.688 229.915 164.888C229.871 164.248 228.92 164.097 228.733 164.799C228.04 167.511 230.004 168.666 232.404 169.039V169.031Z" fill="#451D00"/>
<path d="M235.41 125.181L232.219 126.852C231.481 127.234 230.957 127.963 230.814 128.79L227.952 145.687L222.094 148.932L218.921 159.296L220.041 160.407C223.454 163.785 228.077 165.554 232.708 165.118L247.881 163.705L256.681 153.332C257.641 152.194 257.054 150.425 255.534 149.892L246.263 146.612L243.205 137.287C242.85 136.203 242.148 135.27 241.205 134.638L238.272 132.656L238.005 126.656C237.943 125.341 236.592 124.576 235.419 125.19L235.41 125.181Z" fill="#73B550"/>
<path d="M242.557 148.719C237.588 147.839 227.961 145.688 227.961 145.688L229.899 134.221C230.797 135.315 236.139 139.492 241.748 136.915C242.068 136.763 242.441 136.586 242.77 136.346C242.939 136.639 243.09 136.95 243.197 137.279L246.254 146.603H246.263C246.263 146.603 247.134 149.297 242.548 148.71L242.557 148.719ZM238.263 132.657L238.103 128.959C234.548 129.492 232.877 131.279 232.93 131.297C236.761 132.052 238.263 132.666 238.263 132.666V132.657ZM256.725 150.799C256.681 153.332 248.868 154.177 243.285 154.088C237.552 154.008 227.694 154.639 223.117 151.706C222.405 151.252 221.997 150.586 221.81 149.857L218.921 159.297L220.041 160.408C223.454 163.786 228.077 165.555 232.708 165.119L247.881 163.706L256.681 153.332C257.312 152.586 257.259 151.563 256.725 150.799Z" fill="#388A43"/>
<path d="M18.0059 187.52H16.8681V193.813H18.0059V187.52Z" fill="#653E36"/>
<path d="M20.9838 187.52H19.846V193.813H20.9838V187.52Z" fill="#653E36"/>
<path d="M29.4562 187.52H28.3185V193.813H29.4562V187.52Z" fill="#653E36"/>
<path d="M33.0206 187.52H31.8828V193.813H33.0206V187.52Z" fill="#653E36"/>
<path d="M41.3735 187.52H40.2357V193.813H41.3735V187.52Z" fill="#653E36"/>
<path d="M44.3625 187.52H43.2247V193.813H44.3625V187.52Z" fill="#653E36"/>
<path d="M47.3905 190.08H14.6972L12.9283 181.689L27.8172 180.391L30.5994 177.813L46.7772 175.92L49.1505 179.333L47.3905 190.08Z" fill="#73B550"/>
<path d="M13.6121 184.95L14.6966 190.079H47.381L48.4744 183.43L46.661 182.337C46.5988 182.488 46.5099 182.63 46.4032 182.746C46.0477 183.128 45.4344 183.261 44.9366 183.083C44.3321 182.861 43.8788 182.346 44.021 181.661C44.0832 181.377 44.2788 181.172 44.5277 181.048L43.781 180.604L43.5144 180.657C43.5588 180.861 43.5677 181.075 43.5321 181.288C43.4877 182.035 42.8921 182.728 42.3055 183.11C41.4699 183.661 40.4477 183.475 39.701 182.879C39.2744 182.541 39.1232 181.999 39.1499 181.475L32.4299 182.737L27.3099 185.901L25.941 185.803C25.941 185.883 25.9232 185.972 25.9055 186.052C25.6655 186.995 24.5277 187.608 23.6032 187.359C22.9277 187.172 22.3944 186.541 22.4032 185.83C22.4032 185.732 22.421 185.644 22.4388 185.564L18.5188 185.288C18.4921 185.519 18.3944 185.741 18.2255 185.937C17.9144 186.292 17.3366 186.363 16.9099 186.221C16.4032 186.052 16.0744 185.697 16.0299 185.155C16.0299 185.146 16.0299 185.128 16.0299 185.11L13.6121 184.941V184.95ZM32.9277 183.723C33.2566 183.235 33.941 183.012 34.501 182.968C35.0966 182.924 35.6388 183.146 36.0744 183.555C36.4121 183.866 36.3766 184.417 36.0744 184.728C35.6832 185.137 35.061 185.341 34.5366 185.475C33.941 185.635 33.1855 185.706 32.6966 185.244C32.1899 184.764 32.4566 184.079 32.9277 183.723Z" fill="#388A43"/>
<path d="M143.363 187.527H142.226V193.821H143.363V187.527Z" fill="#653E36"/>
<path d="M146.341 187.527H145.204V193.821H146.341V187.527Z" fill="#653E36"/>
<path d="M154.814 187.527H153.676V193.821H154.814V187.527Z" fill="#653E36"/>
<path d="M158.378 187.527H157.24V193.821H158.378V187.527Z" fill="#653E36"/>
<path d="M166.731 187.527H165.593V193.821H166.731V187.527Z" fill="#653E36"/>
<path d="M169.72 187.527H168.582V193.821H169.72V187.527Z" fill="#653E36"/>
<path d="M172.751 190.08H140.057L138.289 181.689L153.177 180.391L155.96 177.813L172.137 175.92L174.511 179.333L172.751 190.08Z" fill="#73B550"/>
<path d="M138.983 184.95L140.068 190.079H172.752L173.846 183.43L172.032 182.337C171.97 182.488 171.881 182.63 171.775 182.746C171.419 183.128 170.806 183.261 170.308 183.083C169.703 182.861 169.25 182.346 169.392 181.661C169.455 181.377 169.65 181.172 169.899 181.048L169.152 180.604L168.886 180.657C168.93 180.861 168.939 181.075 168.903 181.288C168.859 182.035 168.263 182.728 167.677 183.11C166.841 183.661 165.819 183.475 165.072 182.879C164.646 182.541 164.495 181.999 164.521 181.475L157.801 182.737L152.681 185.901L151.312 185.803C151.312 185.883 151.295 185.972 151.277 186.052C151.037 186.995 149.899 187.608 148.975 187.359C148.299 187.172 147.766 186.541 147.775 185.83C147.775 185.732 147.792 185.644 147.81 185.564L143.89 185.288C143.863 185.519 143.766 185.741 143.597 185.937C143.286 186.292 142.708 186.363 142.281 186.221C141.775 186.052 141.446 185.697 141.401 185.155C141.401 185.146 141.401 185.128 141.401 185.11L138.983 184.941V184.95ZM158.299 183.723C158.628 183.235 159.312 183.012 159.872 182.968C160.468 182.924 161.01 183.146 161.446 183.555C161.783 183.866 161.748 184.417 161.446 184.728C161.055 185.137 160.432 185.341 159.908 185.475C159.312 185.635 158.557 185.706 158.068 185.244C157.561 184.764 157.828 184.079 158.299 183.723Z" fill="#388A43"/>
<path d="M189.267 175.367V172.709C195.116 172.709 204.921 171.109 204.921 160.371H207.578C207.578 169.758 200.734 175.367 189.276 175.367H189.267Z" fill="#88592F"/>
<path d="M188.503 193.217C188.44 181.528 188.316 178.933 188.138 175.013C188.005 172.053 187.836 168.373 187.64 159.422L190.289 159.359C190.485 168.275 190.654 171.946 190.787 174.888C190.965 178.844 191.08 181.457 191.151 193.199L188.494 193.217H188.503Z" fill="#88592F"/>
<path d="M189.526 181.075C178.157 181.075 177.615 175.679 177.615 158.604H180.272C180.272 176.568 181.135 178.417 189.535 178.417V181.075H189.526Z" fill="#88592F"/>
<path d="M204.877 169.19L202.753 167.599C204.548 165.216 204.913 162.354 204.913 160.381H207.57C207.57 163.794 206.646 166.843 204.877 169.19Z" fill="#451D00"/>
<path d="M187.827 168.266C187.765 165.315 187.711 162.373 187.64 159.422L190.289 159.359C190.351 162.31 190.414 165.262 190.476 168.213L187.818 168.266H187.827Z" fill="#451D00"/>
<path d="M177.748 168.212C177.632 164.932 177.615 161.661 177.615 158.604H180.272C180.272 161.635 180.29 164.879 180.397 168.115L177.748 168.204V168.212Z" fill="#451D00"/>
<path d="M-5 192.882L-5 223L395 223V192.882L-5 192.882Z" fill="#83BF63"/>
<path d="M187.116 123.367L178.005 127.643L176.894 131.465L168.894 133.181L170.165 136.976L156.449 136.825L160.494 145.367L155.062 148.061L162.654 154.861L171.836 156.132L171.987 159.927L200.947 160.558L202.6 156.443L212.094 154.229L211.978 152.345L216.778 151.225L218.831 140.461L206.334 138.114L207.756 134.132L187.116 128.114V123.367Z" fill="#73B550"/>
<path d="M214.165 139.582H221.205L222.157 135.875L214.165 136.826V139.582Z" fill="#B8DC64"/>
<path d="M166.673 132.027L173.677 132.782L175.019 129.191L166.966 129.28L166.673 132.027Z" fill="#73B550"/>
<path d="M203.107 159.804L210.111 160.56L211.453 156.969L203.4 157.058L203.107 159.804Z" fill="#B8DC64"/>
<path d="M171.445 159.99L165.676 160.568L164.52 156.959L171.169 157.243L171.445 159.99Z" fill="#B8DC64"/>
<path d="M197.756 139.422L206.343 138.106L207.756 134.133L197.756 139.422Z" fill="#388A43"/>
<path d="M218.833 140.464L206.344 138.117L203.357 144.028H196.077L192.344 149.344L164.522 146.704L156.113 149.006L162.655 154.864L171.837 156.135L171.989 159.931L200.949 160.562L202.602 156.446L212.095 154.233L211.98 152.348L216.78 151.228L218.833 140.464Z" fill="#388A43"/>
<path d="M214.166 139.582H221.206L222.157 135.875L214.166 136.826V139.582Z" fill="#73B550"/>
<path d="M203.107 159.802L210.112 160.558L211.454 156.967L203.401 157.056L203.107 159.802Z" fill="#388A43"/>
<path d="M171.447 159.992L165.678 160.57L164.523 156.961L171.172 157.245L171.447 159.992Z" fill="#73B550"/>
<path d="M329.302 175.367V172.709C335.151 172.709 344.955 171.109 344.955 160.371H347.613C347.613 169.758 340.769 175.367 329.311 175.367H329.302Z" fill="#88592F"/>
<path d="M328.537 193.217C328.475 181.528 328.351 178.933 328.173 175.013C328.04 172.053 327.871 168.373 327.675 159.422L330.324 159.359C330.52 168.275 330.688 171.946 330.822 174.888C331 178.844 331.115 181.457 331.186 193.199L328.528 193.217H328.537Z" fill="#88592F"/>
<path d="M329.56 181.075C318.192 181.075 317.649 175.679 317.649 158.604H320.307C320.307 176.568 321.169 178.417 329.569 178.417V181.075H329.56Z" fill="#88592F"/>
<path d="M344.912 169.19L342.788 167.599C344.583 165.216 344.948 162.354 344.948 160.381H347.605C347.605 163.794 346.681 166.843 344.912 169.19Z" fill="#451D00"/>
<path d="M327.864 168.266C327.802 165.315 327.748 162.373 327.677 159.422L330.326 159.359C330.388 162.31 330.451 165.262 330.513 168.213L327.855 168.266H327.864Z" fill="#451D00"/>
<path d="M317.776 168.212C317.66 164.932 317.642 161.661 317.642 158.604H320.3C320.3 161.635 320.318 164.879 320.425 168.115L317.776 168.204V168.212Z" fill="#451D00"/>
<path d="M327.15 123.367L318.039 127.643L316.928 131.465L308.928 133.181L310.19 136.976L296.484 136.825L300.519 145.367L295.088 148.061L302.688 154.861L311.862 156.132L312.022 159.927L340.982 160.558L342.635 156.443L352.128 154.229L352.004 152.345L356.813 151.225L358.866 140.461L346.368 138.114L347.79 134.132L327.15 128.114V123.367Z" fill="#73B550"/>
<path d="M354.2 139.582H361.24L362.191 135.875L354.2 136.826V139.582Z" fill="#B8DC64"/>
<path d="M306.706 132.027L313.71 132.782L315.053 129.191L306.999 129.28L306.706 132.027Z" fill="#73B550"/>
<path d="M343.142 159.804L350.146 160.56L351.488 156.969L343.435 157.058L343.142 159.804Z" fill="#B8DC64"/>
<path d="M311.48 159.99L305.702 160.568L304.555 156.959L311.195 157.243L311.48 159.99Z" fill="#B8DC64"/>
<path d="M337.791 139.422L346.369 138.106L347.791 134.133L337.791 139.422Z" fill="#388A43"/>
<path d="M358.868 140.464L346.37 138.117L343.392 144.028H336.112L332.379 149.344L304.557 146.704L296.148 149.006L302.69 154.864L311.863 156.135L312.023 159.931L340.983 160.562L342.637 156.446L352.13 154.233L352.005 152.348L356.814 151.228L358.868 140.464Z" fill="#388A43"/>
<path d="M354.201 139.582H361.241L362.192 135.875L354.201 136.826V139.582Z" fill="#73B550"/>
<path d="M343.142 159.802L350.147 160.558L351.489 156.967L343.435 157.056L343.142 159.802Z" fill="#388A43"/>
<path d="M311.482 159.992L305.704 160.57L304.558 156.961L311.198 157.245L311.482 159.992Z" fill="#73B550"/>
<path d="M126.501 194.48H18.0566C15.6032 194.48 13.6121 194.134 13.6121 193.707C13.6121 193.28 15.6032 192.934 18.0566 192.934H126.492C128.945 192.934 130.937 193.28 130.937 193.707C130.937 194.134 128.945 194.48 126.492 194.48H126.501Z" fill="#6AAB48"/>
<path d="M285.284 194.586H176.849C174.396 194.586 172.404 194.239 172.404 193.812C172.404 193.386 174.396 193.039 176.849 193.039H285.284C287.738 193.039 289.729 193.386 289.729 193.812C289.729 194.239 287.738 194.586 285.284 194.586Z" fill="#6AAB48"/>
</g>
</svg>
