<svg width="48" height="48" viewBox="0 0 48 48" fill="none" xmlns="http://www.w3.org/2000/svg">
<rect width="48" height="48" rx="16" fill="#F5F5F5"/>
<path d="M21 28C21 30.2091 19 34 17 34C15 34 13 30.2091 13 28C13 25.7909 14.7909 24 17 24C19.2091 24 21 25.7909 21 28Z" fill="#1E4C2F"/>
<path d="M34 17C34 18.123 33.0541 19.5614 32.2246 20.6068C31.574 21.4267 30.3837 21.4709 29.7029 20.676C28.8918 19.7288 28 18.4136 28 17.2091C28 15 29.3431 14 31 14C32.6569 14 34 15 34 17Z" fill="#1E4C2F"/>
<path d="M18.5 28C18.5 28.8284 17.8284 29.5 17 29.5C16.1716 29.5 15.5 28.8284 15.5 28C15.5 27.1716 16.1716 26.5 17 26.5C17.8284 26.5 18.5 27.1716 18.5 28Z" fill="#CCEBDA"/>
<path fill-rule="evenodd" clip-rule="evenodd" d="M18.2246 20.6068C19.0541 19.5614 20 18.123 20 17C20 15 18.6569 14 17 14C15.3431 14 14 15 14 17.2091C14 18.4136 14.8918 19.7288 15.7029 20.676C16.3837 21.4709 17.574 21.4267 18.2246 20.6068ZM17 18C17.5523 18 18 17.5523 18 17C18 16.4477 17.5523 16 17 16C16.4477 16 16 16.4477 16 17C16 17.5523 16.4477 18 17 18Z" fill="#F9CB9F"/>
<path d="M32 17C32 17.5523 31.5523 18 31 18C30.4477 18 30 17.5523 30 17C30 16.4477 30.4477 16 31 16C31.5523 16 32 16.4477 32 17Z" fill="#CCEBDA"/>
<path fill-rule="evenodd" clip-rule="evenodd" d="M30.0303 22.9697C30.3232 23.2626 30.3232 23.7374 30.0303 24.0303L29.8756 24.1851C29.5827 24.478 29.1078 24.478 28.8149 24.1851C28.522 23.8922 28.522 23.4173 28.8149 23.1244L28.9697 22.9697C29.2626 22.6768 29.7374 22.6768 30.0303 22.9697ZM28.0184 24.9816C28.3113 25.2745 28.3113 25.7493 28.0184 26.0422L27.7089 26.3518C27.416 26.6447 26.9411 26.6447 26.6482 26.3518C26.3553 26.0589 26.3553 25.584 26.6482 25.2911L26.9578 24.9816C27.2507 24.6887 27.7255 24.6887 28.0184 24.9816ZM25.8518 27.1482C26.1447 27.4411 26.1447 27.916 25.8518 28.2089L25.5422 28.5184C25.2493 28.8113 24.7745 28.8113 24.4816 28.5184C24.1887 28.2255 24.1887 27.7507 24.4816 27.4578L24.7911 27.1482C25.084 26.8553 25.5589 26.8553 25.8518 27.1482ZM23.6851 29.3149C23.978 29.6078 23.978 30.0827 23.6851 30.3756L23.5303 30.5303C23.2374 30.8232 22.7626 30.8232 22.4697 30.5303C22.1768 30.2374 22.1768 29.7626 22.4697 29.4697L22.6244 29.3149C22.9173 29.022 23.3922 29.022 23.6851 29.3149Z" fill="#F9CB9F"/>
<path fill-rule="evenodd" clip-rule="evenodd" d="M20.25 21.5C20.25 21.0858 20.5858 20.75 21 20.75H21.2143C21.6285 20.75 21.9643 21.0858 21.9643 21.5C21.9643 21.9142 21.6285 22.25 21.2143 22.25H21C20.5858 22.25 20.25 21.9142 20.25 21.5ZM23.0357 21.5C23.0357 21.0858 23.3715 20.75 23.7857 20.75H24.2143C24.6285 20.75 24.9643 21.0858 24.9643 21.5C24.9643 21.9142 24.6285 22.25 24.2143 22.25H23.7857C23.3715 22.25 23.0357 21.9142 23.0357 21.5ZM26.0357 21.5C26.0357 21.0858 26.3715 20.75 26.7857 20.75H27C27.4142 20.75 27.75 21.0858 27.75 21.5C27.75 21.9142 27.4142 22.25 27 22.25H26.7857C26.3715 22.25 26.0357 21.9142 26.0357 21.5Z" fill="#F9CB9F"/>
</svg>
