<?xml version="1.0" ?><!-- Uploaded to: SVG Repo, www.svgrepo.com, Generator: SVG Repo Mixer Tools -->
<svg width="800px" height="800px" viewBox="0 0 32 32" id="object" xmlns="http://www.w3.org/2000/svg"><defs><style>.cls-1{fill:#91e085;}.cls-2{fill:#6d6daa;}.cls-3{fill:#ff9797;}.cls-4{fill:#eef5fd;}.cls-5{fill:#96d7ff;}</style></defs><title/><polygon class="cls-1" points="30 30 2 30 6 20 26 20 30 30"/><path class="cls-2" d="M30,31H2a1,1,0,0,1-.93-1.37l4-10A1,1,0,0,1,6,19H26a1,1,0,0,1,.93.63l4,10A1,1,0,0,1,30,31ZM3.48,29h25l-3.2-8H6.68Z"/><polygon class="cls-3" points="25 30 7 30 9.57 20 22.43 20 25 30"/><path class="cls-2" d="M25,31H7a1,1,0,0,1-1-1.25l2.57-10a1,1,0,0,1,1-.75H22.43a1,1,0,0,1,1,.75l2.57,10A1,1,0,0,1,25,31ZM8.29,29H23.71l-2.06-8H10.35Z"/><path class="cls-4" d="M25,11c0,5-9,15-9,15S7,16,7,11a9,9,0,0,1,18,0Z"/><path class="cls-2" d="M16,27a1,1,0,0,1-.74-.33C14.31,25.61,6,16.2,6,11a10,10,0,0,1,20,0c0,5.2-8.31,14.61-9.26,15.67A1,1,0,0,1,16,27ZM16,3a8,8,0,0,0-8,8c0,3.42,5.23,10.24,8,13.48,2.77-3.24,8-10.06,8-13.48A8,8,0,0,0,16,3Z"/><polygon class="cls-5" points="20 15 12 15 12 10.2 16 7 20 10.2 20 15"/><path class="cls-2" d="M20,16H12a1,1,0,0,1-1-1V10.2a1,1,0,0,1,.38-.78l4-3.2a1,1,0,0,1,1.25,0l4,3.2a1,1,0,0,1,.37.78V15A1,1,0,0,1,20,16Zm-7-2h6V10.68l-3-2.4-3,2.4Z"/></svg>