<svg width="118" height="83" viewBox="0 0 118 83" fill="none" xmlns="http://www.w3.org/2000/svg">
<path d="M105.946 33.7672C100.211 29.508 93.1557 27.7361 86.088 28.7819C83.6477 29.1423 81.3362 29.8285 79.1838 30.7821L65.3571 5.46319H81.601C81.9757 5.57019 82.8073 5.84092 83.6292 6.32958C84.5098 6.85313 85.3062 7.58272 85.5934 8.55904L85.5934 8.55906C85.8894 9.5651 85.6506 10.9201 84.7588 12.5983C83.8732 14.2648 82.381 16.1774 80.305 18.2526L79.9513 18.6062L80.3049 18.9598L82.7535 21.4084L83.107 21.7619L83.4606 21.4084C88.7525 16.1165 91.065 11.3452 89.8756 7.29785L89.8756 7.2977C89.1478 4.82421 87.2957 3.27492 85.6489 2.34797C83.9995 1.41955 82.4969 1.08074 82.3552 1.05015L82.3548 1.05006L82.1738 1.01117L82.1219 1H82.0688H58.6753H57.8326L58.2365 1.73965L75.2679 32.9263C66.88 38.4811 61.9713 48.5579 63.5361 59.1536L64.0308 59.0806L63.5361 59.1537C64.5803 66.2214 68.3154 72.461 74.0512 76.7202L74.0513 76.7202C78.7113 80.1795 84.2404 81.9983 89.9421 81.9983C91.2585 81.9983 92.5834 81.9018 93.9081 81.7054C100.976 80.6613 107.215 76.9261 111.474 71.1904C115.734 65.4545 117.504 58.4014 116.46 51.3337C115.487 44.7494 112.179 38.8839 107.093 34.6686H107.16L105.946 33.7672ZM67.9547 58.5019C66.6699 49.8088 70.6184 41.5313 77.4177 36.8601L88.0405 56.3136L88.2802 56.7525L88.719 56.5128L91.7595 54.8522L92.1983 54.6126L91.9587 54.1738L81.3336 34.716C83.0303 33.9988 84.8394 33.4773 86.7412 33.1972L86.7416 33.1971C87.8471 33.0333 88.9505 32.9522 90.0469 32.9522C94.7941 32.9522 99.4008 34.4664 103.284 37.3501L103.582 36.9486L103.284 37.3501C108.064 40.8999 111.174 46.095 112.044 51.9855C112.915 57.876 111.44 63.749 107.891 68.5296L107.746 68.7252C104.201 73.3949 99.0675 76.4321 93.2578 77.2902L93.3309 77.7849L93.2578 77.2902C87.369 78.1603 81.4943 76.6854 76.7155 73.1373C71.9349 69.5874 68.8248 64.3924 67.9548 58.5019L67.9547 58.5019Z" fill="#CCEBDA" stroke="#CCEBDA"/>
<path d="M27.4953 56.9769V57.4769H27.9953H50.17C49.047 68.7204 39.5292 77.5317 27.9953 77.5317C16.2824 77.5317 5.70896 67.5235 5.70896 55.2436C5.70896 42.9556 15.7073 32.9573 27.9953 32.9573H30.9191H31.7633L31.3575 32.217L25.302 21.1679L25.0617 20.7293L24.6231 20.9698L21.5861 22.6355L21.1478 22.8758L21.388 23.3141L24.3613 28.7395C11.3243 30.5179 1.24577 41.7252 1.24577 55.2436C1.24577 69.9948 13.2458 81.9932 27.9953 81.9932C42.7448 81.9932 54.7449 69.9931 54.7449 55.2436V53.512V53.012H54.2449H27.9953H27.4953V53.512V56.9752V56.9769Z" fill="#CCEBDA" stroke="#CCEBDA"/>
<path d="M39.6917 48.3302H39.7235L39.8004 48.2531L39.8121 48.2449L66.2189 29.5305L66.6269 29.2413L66.3376 28.8333L64.3338 26.0076L64.0446 25.5999L63.6368 25.8889L40.7901 42.08L40.7896 42.0804L33.2313 47.4219L31.946 48.3302H33.5199H39.2359L39.3719 48.5568L39.6917 48.3302Z" fill="#CCEBDA" stroke="#CCEBDA"/>
<path d="M29.4457 58.746C31.3799 57.9448 32.2984 55.7274 31.4972 53.7932C30.696 51.859 28.4786 50.9405 26.5444 51.7417C24.6102 52.5428 23.6917 54.7603 24.4929 56.6945C25.2941 58.6286 27.5115 59.5471 29.4457 58.746Z" fill="#FC8838" stroke="#FC8838"/>
<path d="M92.1599 57.9246C93.6402 56.4442 93.6402 54.0441 92.1599 52.5637C90.6795 51.0833 88.2793 51.0833 86.799 52.5637C85.3186 54.0441 85.3186 56.4442 86.799 57.9246C88.2793 59.4049 90.6795 59.4049 92.1599 57.9246Z" fill="#FC8838" stroke="#FC8838"/>
<path d="M83.5695 23.2421C85.5037 22.4409 86.4222 20.2234 85.621 18.2893C84.8198 16.3551 82.6024 15.4366 80.6682 16.2377C78.734 17.0389 77.8155 19.2564 78.6167 21.1905C79.4179 23.1247 81.6353 24.0432 83.5695 23.2421Z" fill="#FC8838" stroke="#FC8838"/>
<path d="M9.64791 19.3882L9.6481 19.3884C11.4023 21.261 14.4477 22.8979 17.329 23.7505C18.7756 24.1786 20.2128 24.4189 21.4551 24.3807C22.6831 24.3429 23.812 24.029 24.5233 23.2469C25.5815 22.0833 27.0859 21.4812 28.3691 21.1744C29.0051 21.0223 29.5728 20.9461 29.9806 20.9081C30.1842 20.8891 30.3471 20.8797 30.4576 20.8751C30.5129 20.8728 30.555 20.8716 30.5825 20.8711L30.6127 20.8706L30.6192 20.8706L30.6198 20.8706H30.62H30.6202H35.3563C36.3408 20.8706 36.9318 19.8279 36.4917 18.9801L36.4915 18.9797C36.2009 18.4214 35.8272 17.9802 35.434 17.6322L35.4338 17.6319C34.5183 16.8226 33.3341 16.4152 32.1423 16.3856L32.1422 16.3856L11.4901 15.8764L11.4884 15.8747L11.2885 15.8698C9.57828 15.8282 8.46436 17.7722 9.49252 19.1985L9.49279 19.1989C9.53466 19.2569 9.57147 19.3023 9.59978 19.3352C9.61395 19.3516 9.62601 19.3649 9.63554 19.3752L9.64791 19.3882Z" fill="#FC8838" stroke="#FC8838"/>
</svg>
