<svg width="60" height="42" viewBox="0 0 60 42" fill="none" xmlns="http://www.w3.org/2000/svg">
<path d="M53.6287 17.3347C50.7773 15.2445 47.2715 14.3753 43.758 14.8886C42.4647 15.0771 41.2441 15.4475 40.1143 15.9649L32.7935 2.73163H41.4831C41.8445 2.82971 43.37 3.30659 43.7135 4.45903C44.0681 5.64868 43.0942 7.4581 40.9709 9.55331L42.2111 10.7776C44.8844 8.13875 45.9559 5.84823 45.3966 3.96948C44.7113 1.6705 41.8959 1.04481 41.7769 1.01945L41.6852 1H29.8359L38.5751 16.7969C34.2865 19.495 31.7589 24.5123 32.5486 29.7909C33.0676 33.2592 34.9237 36.32 37.7751 38.4102C40.0921 40.108 42.8398 41 45.6732 41C46.3276 41 46.9863 40.9527 47.645 40.8563C51.1585 40.3439 54.2591 38.5116 56.3765 35.6969C58.4938 32.8821 59.3735 29.4223 58.8544 25.9539C58.3353 22.4856 56.4801 19.4248 53.6287 17.3347ZM54.9692 34.6645C53.1311 37.1081 50.4398 38.6985 47.3897 39.1432C44.3405 39.588 41.2972 38.8338 38.8227 37.0201C36.3473 35.2056 34.7362 32.549 34.2856 29.5381C33.6055 24.9959 35.7563 20.677 39.4188 18.3205L44.9323 28.2876L46.4724 27.4573L40.958 17.4885C41.9096 17.0649 42.9332 16.7589 44.015 16.6016C44.5871 16.5179 45.1584 16.4765 45.7263 16.4765C48.1854 16.4765 50.5717 17.251 52.582 18.7247C55.0574 20.5392 56.6685 23.1958 57.1191 26.2067C57.5696 29.2176 56.8064 32.2209 54.9692 34.6645Z" fill="#1E4C2F"/>
<path d="M14.296 28.7398H25.8043C25.3546 34.6187 20.3645 39.2674 14.296 39.2674C8.22742 39.2674 2.75418 34.1554 2.75418 27.8731C2.75418 21.5909 7.93192 16.4797 14.296 16.4797H15.7769L12.7097 10.9551L11.1713 11.7879L12.857 14.8242C6.20001 15.5344 1 21.1157 1 27.8731C1 35.1108 6.96489 40.9982 14.296 40.9982C21.627 40.9982 27.5919 35.11 27.5919 27.8731V27.0073H14.296V28.7398Z" fill="#1E4C2F"/>
<path d="M20.1343 24.1687L33.5099 14.8113L32.4949 13.3984L20.9223 21.4943L17.0936 24.1653H20.1308L20.1317 24.1645L20.1343 24.1687Z" fill="#1E4C2F"/>
<path fill-rule="evenodd" clip-rule="evenodd" d="M52.582 18.7247C50.5717 17.251 48.1854 16.4765 45.7263 16.4765C45.1584 16.4765 44.5871 16.5179 44.015 16.6016C43.2803 16.7084 42.5725 16.8838 41.8959 17.1181C41.5762 17.2288 41.2634 17.3526 40.958 17.4885L46.4724 27.4573L44.9323 28.2876L39.4188 18.3205C39.1357 18.5027 38.8617 18.6965 38.5973 18.9013C35.4407 21.346 33.6581 25.347 34.2856 29.5381C34.7362 32.549 36.3473 35.2056 38.8227 37.0201C41.2972 38.8338 44.3405 39.588 47.3897 39.1432C50.4398 38.6985 53.1311 37.1081 54.9692 34.6645C56.8064 32.2209 57.5696 29.2176 57.1191 26.2067C56.6685 23.1958 55.0574 20.5392 52.582 18.7247ZM54.17 34.0634C55.8469 31.833 56.5408 29.0994 56.1301 26.3547C55.7194 23.61 54.2531 21.1895 51.9908 19.5312C50.1523 18.1834 47.9731 17.4765 45.7263 17.4765C45.2072 17.4765 44.6842 17.5143 44.1597 17.5911C43.5485 17.6799 42.9564 17.821 42.3879 18.0075L47.8367 27.8578L44.5361 29.6372L39.0876 19.7877C36.2785 22.0297 34.7117 25.6306 35.2746 29.39C35.6853 32.1347 37.1516 34.5553 39.4138 36.2136C41.6757 37.8713 44.4545 38.5608 47.2454 38.1537C50.0368 37.7467 52.4918 36.2943 54.17 34.0634ZM41.3628 9.1563C43.2129 7.23 44.0455 5.57287 43.7135 4.45903C43.37 3.30659 41.8445 2.82971 41.4831 2.73163H32.7935L40.1143 15.9649C41.2441 15.4475 42.4647 15.0771 43.758 14.8886C47.2715 14.3753 50.7773 15.2445 53.6287 17.3347C56.4801 19.4248 58.3353 22.4856 58.8544 25.9539C59.3735 29.4223 58.4938 32.8821 56.3765 35.6969C54.2591 38.5116 51.1585 40.3439 47.645 40.8563C46.9863 40.9527 46.3276 41 45.6732 41C42.8398 41 40.0921 40.108 37.7751 38.4102C34.9237 36.32 33.0676 33.2592 32.5486 29.7909C31.7589 24.5123 34.2865 19.495 38.5751 16.7969L29.8359 1H41.6852L41.7769 1.01945C41.8959 1.04481 44.7113 1.6705 45.3966 3.96948C45.9045 5.67569 45.0674 7.72152 42.9071 10.0595C42.8178 10.1561 42.7263 10.2532 42.6325 10.3508C42.4968 10.492 42.3563 10.6343 42.2111 10.7776L40.9709 9.55331C41.1062 9.41978 41.2368 9.28742 41.3628 9.1563ZM37.2578 16.4814L28.1399 0H41.7901L41.9844 0.0412253C42.0917 0.0640758 42.9337 0.252995 43.8601 0.767738C44.7799 1.27884 45.9075 2.18273 46.3549 3.68384C47.089 6.14984 45.6128 8.8248 42.9136 11.4893L42.2111 12.1828L39.5473 9.55317L40.2685 8.8415C41.2902 7.83336 41.9904 6.93642 42.3909 6.19258C42.8041 5.42496 42.8216 4.96772 42.7551 4.74469C42.6891 4.52305 42.4777 4.28473 42.0989 4.06239C41.8144 3.89546 41.5205 3.78823 41.34 3.73163H34.4896L40.5552 14.696C41.5225 14.3262 42.5451 14.0548 43.6138 13.899C47.3858 13.3481 51.1559 14.2822 54.2199 16.5281C57.2845 18.7746 59.2845 22.0715 59.8434 25.8059C60.4023 29.5405 59.4533 33.2701 57.1756 36.298C54.8983 39.3254 51.5614 41.2957 47.7893 41.8458C47.0826 41.9492 46.3757 42 45.6732 42C42.6274 42 39.6726 41.0403 37.1841 39.2168C34.1195 36.9704 32.1185 33.6734 31.5596 29.9389C30.7576 24.5785 33.1303 19.4781 37.2578 16.4814ZM13.296 29.7398V26.0073H28.5919V27.8731C28.5919 35.6744 22.1671 41.9982 14.296 41.9982C6.42489 41.9982 0 35.6753 0 27.8731C0 21.0925 4.85329 15.4287 11.2901 14.0621L9.80647 11.3897L13.1037 9.60461L17.4759 17.4797H14.296C8.47197 17.4797 3.75418 22.1554 3.75418 27.8731C3.75418 33.5747 8.75088 38.2674 14.296 38.2674C19.4704 38.2674 23.774 34.574 24.6671 29.7398H13.296ZM25.8043 28.7398C25.7785 29.0774 25.7377 29.411 25.6826 29.7398C24.778 35.1373 20.016 39.2674 14.296 39.2674C8.22742 39.2674 2.75418 34.1554 2.75418 27.8731C2.75418 21.5909 7.93192 16.4797 14.296 16.4797H15.7769L12.7097 10.9551L11.1713 11.7879L12.857 14.8242C12.5001 14.8623 12.1475 14.9143 11.7996 14.9798C5.65748 16.1362 1 21.4779 1 27.8731C1 35.1108 6.96489 40.9982 14.296 40.9982C21.5817 40.9982 27.518 35.1826 27.5912 28.0073C27.5917 27.9627 27.5919 27.9179 27.5919 27.8731V27.0073H14.296V28.7398H25.8043ZM20.1308 24.1653L20.1317 24.1645L20.1343 24.1687L33.5099 14.8113L32.4949 13.3984L20.9223 21.4943L17.0936 24.1653H20.1308ZM13.9124 25.1653H19.57L19.834 25.5992L20.4542 25.1653H20.5424L20.7543 24.9554L34.9128 15.0502L32.7309 12.0129L13.9124 25.1653Z" fill="#1E4C2F"/>
<path d="M14.9348 29.3911C15.7853 29.0433 16.1892 28.0808 15.8369 27.2413C15.4846 26.4017 14.5096 26.0031 13.6591 26.3508C12.8086 26.6986 12.4048 27.6611 12.757 28.5006C13.1093 29.3402 14.0844 29.7388 14.9348 29.3911Z" fill="#FC8838"/>
<path d="M46.6179 29.0346C47.2688 28.392 47.2688 27.3502 46.6179 26.7076C45.967 26.0651 44.9116 26.0651 44.2607 26.7076C43.6098 27.3502 43.6098 28.392 44.2607 29.0346C44.9116 29.6771 45.967 29.6771 46.6179 29.0346Z" fill="#FC8838"/>
<path d="M42.3469 11.6391C43.1974 11.2914 43.6013 10.3289 43.249 9.48933C42.8967 8.64978 41.9217 8.2511 41.0712 8.59885C40.2207 8.94661 39.8169 9.90911 40.1692 10.7487C40.5214 11.5882 41.4965 11.9869 42.3469 11.6391Z" fill="#FC8838"/>
<path d="M5.8281 8.43469L16.39 8.69173C16.9416 8.70526 17.4821 8.89128 17.8958 9.25231C18.0748 9.40874 18.2435 9.60574 18.3746 9.85433C18.5133 10.1181 18.3258 10.4344 18.0243 10.4344H15.6251C15.6251 10.4344 13.5198 10.4344 12.3497 11.7043C11.1797 12.9743 6.88163 11.5597 5.1857 9.77062C5.1857 9.77062 5.16257 9.74779 5.12917 9.70213C4.73773 9.16607 5.15829 8.41778 5.82724 8.43385L5.8281 8.43469Z" fill="#FC8838"/>
<path fill-rule="evenodd" clip-rule="evenodd" d="M5.82724 8.43385C5.15829 8.41778 4.73773 9.16607 5.12917 9.70213C5.16257 9.74779 5.1857 9.77062 5.1857 9.77062C6.88163 11.5597 11.1797 12.9743 12.3497 11.7043C13.5198 10.4344 15.6251 10.4344 15.6251 10.4344H18.0243C18.3258 10.4344 18.5133 10.1181 18.3746 9.85433C18.2435 9.60574 18.0748 9.40874 17.8958 9.25231C17.4821 8.89128 16.9416 8.70526 16.39 8.69173L5.8281 8.43469L5.82724 8.43385ZM6.24848 7.44463L6.24749 7.44365L5.85125 7.43414C4.42734 7.39994 3.39797 9.02702 4.32156 10.2919C4.35626 10.3393 4.38896 10.3794 4.41639 10.4109C4.43011 10.4266 4.44271 10.4404 4.45391 10.4523L4.45994 10.4586C5.46772 11.5217 7.14425 12.3946 8.68454 12.8445C9.46487 13.0725 10.274 13.2113 11.0056 13.1891C11.7072 13.1678 12.5245 12.9905 13.0852 12.3819C13.4759 11.9578 14.0708 11.7045 14.6559 11.5664C14.9371 11.5 15.1892 11.4666 15.3695 11.45C15.459 11.4418 15.5289 11.4378 15.5738 11.436C15.5961 11.4351 15.6121 11.4346 15.6209 11.4345L15.6282 11.4344H18.0243C19.0852 11.4344 19.7453 10.3122 19.2596 9.3888C19.0638 9.01745 18.8125 8.72533 18.5538 8.49929C17.9423 7.96567 17.1685 7.71052 16.4145 7.69203L6.24848 7.44463ZM16.759 26.8544C17.3298 28.2145 16.6702 29.7619 15.3133 30.3167C13.9628 30.8689 12.4028 30.2409 11.8349 28.8875C11.2642 27.5274 11.9238 25.98 13.2806 25.4252C14.6311 24.873 16.1911 25.501 16.759 26.8544ZM47.3204 25.996C48.368 27.0301 48.368 28.7121 47.3204 29.7462C46.28 30.7732 44.5985 30.7732 43.5582 29.7462C42.5106 28.7121 42.5106 27.0301 43.5582 25.996C44.5985 24.969 46.2801 24.969 47.3204 25.996ZM44.1711 9.10241C44.7419 10.4626 44.0823 12.0099 42.7254 12.5647C41.3749 13.1169 39.8149 12.4889 39.247 11.1356C38.6763 9.77542 39.3359 8.22806 40.6927 7.67324C42.0432 7.12104 43.6033 7.74905 44.1711 9.10241ZM42.3469 11.6391C43.1974 11.2914 43.6013 10.3289 43.249 9.48933C42.8967 8.64978 41.9217 8.2511 41.0712 8.59885C40.2207 8.94661 39.8169 9.90911 40.1692 10.7487C40.5214 11.5882 41.4965 11.9869 42.3469 11.6391ZM13.6591 26.3508C14.5096 26.0031 15.4846 26.4017 15.8369 27.2413C16.1892 28.0808 15.7853 29.0433 14.9348 29.3911C14.0844 29.7388 13.1093 29.3402 12.757 28.5006C12.4048 27.6611 12.8086 26.6986 13.6591 26.3508ZM46.6179 26.7076C47.2688 27.3502 47.2688 28.392 46.6179 29.0346C45.967 29.6771 44.9116 29.6771 44.2607 29.0346C43.6098 28.392 43.6098 27.3502 44.2607 26.7076C44.9116 26.0651 45.967 26.0651 46.6179 26.7076Z" fill="#FC8838"/>
</svg>
