<svg width="20" height="22" viewBox="0 0 20 22" fill="none" xmlns="http://www.w3.org/2000/svg">
<path d="M12 8C12 9.10457 11.1046 10 10 10C8.89543 10 8 9.10457 8 8C8 6.89543 8.89543 6 10 6C11.1046 6 12 6.89543 12 8Z" stroke="#F0F9F4" stroke-width="1.5"/>
<path d="M17 7.85714C17 10.1415 15.302 12.9966 13.4424 14.9028C12.2191 16.1567 10.9259 17 10 17C9.07413 17 7.78087 16.1567 6.55756 14.9028C4.69796 12.9966 3 10.1415 3 7.85714C3 4.07005 6.13401 1 10 1C13.866 1 17 4.07005 17 7.85714Z" stroke="#F0F9F4" stroke-width="1.5"/>
<path d="M13.1542 15.1895C16.569 15.6154 19 16.7131 19 18C19 19.6569 14.9706 21 10 21C5.02944 21 1 19.6569 1 18C1 16.7131 3.43101 15.6154 6.84581 15.1895" stroke="#F0F9F4" stroke-width="1.5" stroke-linecap="round"/>
</svg>
