<svg width="18" height="20" viewBox="0 0 18 20" fill="none" xmlns="http://www.w3.org/2000/svg">
<path fill-rule="evenodd" clip-rule="evenodd" d="M12.4424 13.9028C14.302 11.9966 16 9.14151 16 6.85714C16 3.07005 12.866 0 9 0C5.13401 0 2 3.07005 2 6.85714C2 9.14151 3.69796 11.9966 5.55756 13.9028C6.78087 15.1567 8.07413 16 9 16C9.92587 16 11.2191 15.1567 12.4424 13.9028ZM9 9C10.1046 9 11 8.10457 11 7C11 5.89543 10.1046 5 9 5C7.89543 5 7 5.89543 7 7C7 8.10457 7.89543 9 9 9Z" fill="#1E4C2F"/>
<path fill-rule="evenodd" clip-rule="evenodd" d="M4.05541 14.4932C1.61238 15.0296 0 15.9522 0 17.0002C0 18.6571 4.02944 20.0002 9 20.0002C13.9706 20.0002 18 18.6571 18 17.0002C18 15.9522 16.3876 15.0296 13.9446 14.4932C13.8031 14.6503 13.6601 14.8029 13.5161 14.9505C12.8438 15.6396 12.1214 16.2488 11.4009 16.6961C10.7141 17.1226 9.87298 17.5002 9 17.5002C8.12701 17.5002 7.28586 17.1226 6.59907 16.6961C5.87856 16.2488 5.15617 15.6396 4.48387 14.9505C4.33993 14.8029 4.19692 14.6503 4.05541 14.4932Z" fill="#F9CB9F"/>
</svg>
