<svg width="20" height="20" viewBox="0 0 20 20" fill="none" xmlns="http://www.w3.org/2000/svg">
<g clip-path="url(#clip0_132_37007)">
<path fill-rule="evenodd" clip-rule="evenodd" d="M18.6486 0H1.35135C0.608108 0 0 0.608108 0 1.35135V18.6486C0 19.3919 0.608108 20 1.35135 20H18.6486C19.3919 20 20 19.3919 20 18.6486V1.35135C20 0.608108 19.3919 0 18.6486 0Z" fill="#A50064"/>
<path d="M13.8384 9.39168C15.4263 9.39168 16.71 8.1079 16.71 6.52006C16.71 4.93222 15.4263 3.64844 13.8384 3.64844C12.2506 3.64844 10.9668 4.93222 10.9668 6.52006C10.9668 8.1079 12.2506 9.39168 13.8384 9.39168ZM13.8384 5.29709C14.5141 5.29709 15.0614 5.84438 15.0614 6.52006C15.0614 7.19573 14.5141 7.74303 13.8384 7.74303C13.1627 7.74303 12.6154 7.19573 12.6154 6.52006C12.6154 5.84438 13.1627 5.29709 13.8384 5.29709Z" fill="white"/>
<path d="M13.8384 10.6348C12.2506 10.6348 10.9668 11.9185 10.9668 13.5064C10.9668 15.0942 12.2506 16.378 13.8384 16.378C15.4263 16.378 16.71 15.0942 16.71 13.5064C16.71 11.9185 15.4263 10.6348 13.8384 10.6348ZM13.8384 14.7294C13.1627 14.7294 12.6154 14.1821 12.6154 13.5064C12.6154 12.8307 13.1627 12.2834 13.8384 12.2834C14.5141 12.2834 15.0614 12.8307 15.0614 13.5064C15.0614 14.1821 14.5141 14.7294 13.8384 14.7294Z" fill="white"/>
<path d="M7.98649 10.6348C7.5 10.6348 7.05405 10.7969 6.69595 11.0672C6.33784 10.7969 5.88514 10.6348 5.40541 10.6348C4.21622 10.6348 3.25 11.601 3.25 12.7902V16.3848H4.89865V12.7699C4.89865 12.4996 5.11486 12.2834 5.38513 12.2834C5.65541 12.2834 5.87162 12.4996 5.87162 12.7699V16.378H7.52027V12.7699C7.52027 12.4996 7.73649 12.2834 8.00676 12.2834C8.27703 12.2834 8.49324 12.4996 8.49324 12.7699V16.378H10.1351V12.7834C10.1351 11.601 9.17568 10.6348 7.98649 10.6348Z" fill="white"/>
<path d="M7.98738 3.64844C7.5009 3.64844 7.05495 3.8106 6.69684 4.08087C6.33873 3.8106 5.88603 3.64844 5.4063 3.64844C4.21036 3.64844 3.24414 4.61465 3.24414 5.80384V9.39168H4.89279V5.78357C4.89279 5.5133 5.10901 5.29709 5.37928 5.29709C5.64955 5.29709 5.86576 5.5133 5.86576 5.78357V9.39168H7.51441V5.78357C7.51441 5.5133 7.73063 5.29709 8.0009 5.29709C8.27117 5.29709 8.48738 5.5133 8.48738 5.78357V9.39168H10.136V5.80384C10.136 4.61465 9.17657 3.64844 7.98738 3.64844Z" fill="white"/>
</g>
<defs>
<clipPath id="clip0_132_37007">
<rect width="20" height="20" fill="white"/>
</clipPath>
</defs>
</svg>
