<svg width="49" height="48" viewBox="0 0 49 48" fill="none" xmlns="http://www.w3.org/2000/svg">
<rect x="0.666016" width="48" height="48" rx="16" fill="#F5F5F5"/>
<path d="M14.666 18H30.666C32.8752 18 34.666 19.7909 34.666 22V30C34.666 32.2091 32.8752 34 30.666 34H18.666C16.4569 34 14.666 32.2091 14.666 30V18Z" fill="#1E4C2F"/>
<path d="M14.666 18C14.666 15.7909 16.4569 14 18.666 14H24.666C26.8752 14 28.666 15.7909 28.666 18H14.666Z" fill="#F9CB9F"/>
<path d="M34.666 24L34.666 28L30.666 28C29.5614 28 28.666 27.1046 28.666 26C28.666 24.8954 29.5614 24 30.666 24L34.666 24Z" fill="#F9CB9F"/>
</svg>
