<svg width="18" height="20" viewBox="0 0 18 20" fill="none" xmlns="http://www.w3.org/2000/svg">
<path d="M1.45549 11.88L0.883926 11.3944H0.883926L1.45549 11.88ZM2.33476 9.8385L1.58953 9.75408L2.33476 9.8385ZM15.6652 9.8385L16.4105 9.75408L15.6652 9.8385ZM16.5445 11.88L17.1161 11.3944L16.5445 11.88ZM15.3204 6.79403L14.5751 6.87846V6.87846L15.3204 6.79403ZM2.67964 6.79403L3.42487 6.87846L2.67964 6.79403ZM12.7023 17.2632C12.8477 16.8753 12.6511 16.4431 12.2632 16.2977C11.8753 16.1523 11.4431 16.3489 11.2977 16.7368L12.7023 17.2632ZM6.7023 16.7368C6.55694 16.3489 6.12467 16.1523 5.7368 16.2977C5.34893 16.4431 5.15234 16.8753 5.2977 17.2632L6.7023 16.7368ZM15.1699 14.25H2.83014V15.75H15.1699V14.25ZM14.5751 6.87846L14.92 9.92292L16.4105 9.75408L16.0656 6.70961L14.5751 6.87846ZM3.07999 9.92292L3.42487 6.87846L1.9344 6.70961L1.58953 9.75408L3.07999 9.92292ZM2.02706 12.3657C2.61173 11.6775 2.97775 10.8255 3.07999 9.92292L1.58953 9.75408C1.52038 10.3645 1.2732 10.9363 0.883926 11.3944L2.02706 12.3657ZM14.92 9.92292C15.0223 10.8255 15.3883 11.6775 15.9729 12.3657L17.1161 11.3944C16.7268 10.9363 16.4796 10.3645 16.4105 9.75408L14.92 9.92292ZM2.83014 14.25C1.94335 14.25 1.37926 13.1281 2.02706 12.3657L0.883926 11.3944C-0.535086 13.0647 0.57828 15.75 2.83014 15.75V14.25ZM15.1699 15.75C17.4217 15.75 18.5351 13.0647 17.1161 11.3944L15.9729 12.3657C16.6207 13.1281 16.0567 14.25 15.1699 14.25V15.75ZM16.0656 6.70961C15.6504 3.04473 12.6279 0.25 9 0.25V1.75C11.8302 1.75 14.2419 3.93698 14.5751 6.87846L16.0656 6.70961ZM3.42487 6.87846C3.75808 3.93698 6.16977 1.75 9 1.75V0.25C5.37212 0.25 2.34956 3.04473 1.9344 6.70961L3.42487 6.87846ZM11.2977 16.7368C10.975 17.5979 10.0846 18.25 9 18.25V19.75C10.6855 19.75 12.1516 18.7325 12.7023 17.2632L11.2977 16.7368ZM9 18.25C7.91542 18.25 7.02502 17.5979 6.7023 16.7368L5.2977 17.2632C5.84835 18.7325 7.31452 19.75 9 19.75V18.25Z" fill="#F0F9F4"/>
</svg>
