<svg width="16" height="16" viewBox="0 0 16 16" fill="none" xmlns="http://www.w3.org/2000/svg">
<path d="M8 16C9.38503 16 10.5633 15.1652 11 14H5C5.43668 15.1652 6.61497 16 8 16Z" fill="#F9CB9F"/>
<path d="M1.67964 5.79403C2.05382 2.49085 4.77095 0 8 0C11.2291 0 13.9462 2.49085 14.3204 5.79403L14.6652 8.8385C14.7509 9.59499 15.0575 10.3069 15.5445 10.88C16.5779 12.0964 15.7392 14 14.1699 14H1.83014C0.260813 14 -0.577914 12.0964 0.455493 10.88C0.942464 10.3069 1.24906 9.59498 1.33476 8.8385L1.67964 5.79403Z" fill="#1E4C2F"/>
</svg>
