<svg width="379" height="270" viewBox="0 0 379 270" fill="none" xmlns="http://www.w3.org/2000/svg">
<g clip-path="url(#clip0_50_12286)">
<path d="M170.708 11.6058C171.08 8.90922 167.274 6.69151 164.42 6.4647C163.059 6.3576 161.642 6.56551 160.35 6.11188C157.553 5.13534 156.438 1.52526 153.703 0.372298C151.662 -0.490846 149.312 0.277793 147.334 1.27324C145.356 2.26869 143.402 3.52246 141.191 3.66106C139.269 3.78707 137.178 3.06883 135.496 4.00758C134.242 4.70691 133.587 6.14969 132.427 7.00653C131.3 7.83817 129.825 8.01458 128.42 8.09018C127.015 8.16579 125.566 8.17839 124.287 8.76432C123.008 9.35025 121.956 10.6985 122.221 12.0783L170.702 11.5995L170.708 11.6058Z" fill="#F5F5F5"/>
<path d="M139.276 66.3175C139.818 62.3735 134.255 59.1351 130.078 58.7949C128.087 58.6311 126.014 58.9398 124.124 58.2783C120.035 56.8544 118.397 51.5685 114.409 49.8863C111.422 48.6262 107.989 49.7477 105.097 51.203C102.205 52.6584 99.3447 54.4918 96.1127 54.6997C93.3027 54.8824 90.2471 53.8366 87.7899 55.21C85.9565 56.2307 84.9989 58.3476 83.3104 59.5888C81.6597 60.811 79.4987 61.063 77.4511 61.1764C75.3972 61.2898 73.2803 61.3087 71.4091 62.1656C69.5442 63.0224 67.9943 64.9944 68.385 67.0105L139.282 66.3112L139.276 66.3175Z" fill="#EBEBEB"/>
<path d="M75.8369 30.1667C76.3094 26.7393 71.4708 23.9167 67.8355 23.6269C66.1029 23.4883 64.301 23.7529 62.6567 23.1796C59.097 21.9384 57.6794 17.3392 54.2016 15.8775C51.6059 14.7813 48.6196 15.7578 46.0994 17.0242C43.5856 18.2906 41.097 19.8845 38.2807 20.0672C35.8362 20.2248 33.1775 19.3175 31.0417 20.5146C29.4477 21.4029 28.6098 23.2426 27.1418 24.3263C25.7053 25.3847 23.8278 25.6115 22.0448 25.706C20.2618 25.8005 18.4159 25.8194 16.7904 26.5629C15.1649 27.3063 13.8229 29.0263 14.1568 30.7778L75.8306 30.1667H75.8369Z" fill="#F5F5F5"/>
<path d="M86.6423 268.954H9.48865L9.14844 147.012H86.3084L86.6423 268.954Z" fill="#EBEBEB"/>
<path d="M86.3093 147.012H47.7324V268.954H86.3093V147.012Z" fill="#E0E0E0"/>
<path d="M45.2118 123.008H17.9629V147.012H45.2118V123.008Z" fill="#EBEBEB"/>
<path d="M45.2124 123.008H38.7168V147.012H45.2124V123.008Z" fill="#E0E0E0"/>
<path d="M88.5645 145.613H2.72266V147.012H88.5645V145.613Z" fill="#E0E0E0"/>
<path d="M30.9162 157.482H24.3828V171.255H30.9162V157.482Z" fill="white"/>
<path d="M47.7331 176.661C47.7331 176.806 39.0954 176.926 28.4478 176.926C17.8003 176.926 9.15625 176.806 9.15625 176.661C9.15625 176.516 17.794 176.396 28.4478 176.396C39.1017 176.396 47.7331 176.516 47.7331 176.661Z" fill="#E0E0E0"/>
<path d="M69.8284 157.482H63.2949V171.255H69.8284V157.482Z" fill="#F5F5F5"/>
<path d="M86.6432 176.661C86.6432 176.806 78.0055 176.926 67.358 176.926C56.7104 176.926 48.0664 176.806 48.0664 176.661C48.0664 176.516 56.7041 176.396 67.358 176.396C78.0118 176.396 86.6432 176.516 86.6432 176.661Z" fill="#EBEBEB"/>
<path d="M69.8284 184.826H63.2949V198.599H69.8284V184.826Z" fill="#F5F5F5"/>
<path d="M86.6432 203.999C86.6432 204.144 78.0055 204.264 67.358 204.264C56.7104 204.264 48.0664 204.144 48.0664 203.999C48.0664 203.854 56.7041 203.734 67.358 203.734C78.0118 203.734 86.6432 203.854 86.6432 203.999Z" fill="#EBEBEB"/>
<path d="M69.8284 212.988H63.2949V226.761H69.8284V212.988Z" fill="#F5F5F5"/>
<path d="M86.6432 232.167C86.6432 232.312 78.0055 232.432 67.358 232.432C56.7104 232.432 48.0664 232.312 48.0664 232.167C48.0664 232.022 56.7041 231.902 67.358 231.902C78.0118 231.902 86.6432 232.022 86.6432 232.167Z" fill="#EBEBEB"/>
<path d="M69.8284 241.158H63.2949V254.931H69.8284V241.158Z" fill="#F5F5F5"/>
<path d="M86.6432 260.337C86.6432 260.482 78.0055 260.601 67.358 260.601C56.7104 260.601 48.0664 260.482 48.0664 260.337C48.0664 260.192 56.7041 260.072 67.358 260.072C78.0118 260.072 86.6432 260.192 86.6432 260.337Z" fill="#EBEBEB"/>
<path d="M30.9162 185.242H24.3828V199.015H30.9162V185.242Z" fill="white"/>
<path d="M47.7331 204.421C47.7331 204.566 39.0954 204.685 28.4478 204.685C17.8003 204.685 9.15625 204.566 9.15625 204.421C9.15625 204.276 17.794 204.156 28.4478 204.156C39.1017 204.156 47.7331 204.276 47.7331 204.421Z" fill="#E0E0E0"/>
<path d="M30.9162 213.002H24.3828V226.774H30.9162V213.002Z" fill="white"/>
<path d="M47.7331 232.181C47.7331 232.326 39.0954 232.445 28.4478 232.445C17.8003 232.445 9.15625 232.326 9.15625 232.181C9.15625 232.036 17.794 231.916 28.4478 231.916C39.1017 231.916 47.7331 232.036 47.7331 232.181Z" fill="#E0E0E0"/>
<path d="M30.9162 240.76H24.3828V254.532H30.9162V240.76Z" fill="white"/>
<path d="M47.7331 259.938C47.7331 260.083 39.0954 260.203 28.4478 260.203C17.8003 260.203 9.15625 260.083 9.15625 259.938C9.15625 259.794 17.794 259.674 28.4478 259.674C39.1017 259.674 47.7331 259.794 47.7331 259.938Z" fill="#E0E0E0"/>
<path d="M416.683 58.002H350.24V268.584H416.683V58.002Z" fill="#F5F5F5"/>
<path d="M381.289 37.3301H357.826V58.0014H381.289V37.3301Z" fill="#F5F5F5"/>
<path d="M381.296 37.3301H375.701V58.0014H381.296V37.3301Z" fill="#EBEBEB"/>
<path d="M344.703 58.0022V56.7988H418.631V58.0022" fill="#E0E0E0"/>
<path d="M368.984 67.0176H363.357V78.8748H368.984V67.0176Z" fill="#FAFAFA"/>
<path d="M383.462 83.5295C383.462 83.6556 376.021 83.7564 366.854 83.7564C357.687 83.7564 350.24 83.6556 350.24 83.5295C350.24 83.4035 357.675 83.3027 366.854 83.3027C376.034 83.3027 383.462 83.4035 383.462 83.5295Z" fill="#E0E0E0"/>
<path d="M368.984 90.9277H363.357V102.785H368.984V90.9277Z" fill="#FAFAFA"/>
<path d="M383.462 107.44C383.462 107.566 376.021 107.667 366.854 107.667C357.687 107.667 350.24 107.566 350.24 107.44C350.24 107.314 357.675 107.213 366.854 107.213C376.034 107.213 383.462 107.314 383.462 107.44Z" fill="#E0E0E0"/>
<path d="M368.984 114.83H363.357V126.687H368.984V114.83Z" fill="#FAFAFA"/>
<path d="M383.462 131.344C383.462 131.47 376.021 131.571 366.854 131.571C357.687 131.571 350.24 131.47 350.24 131.344C350.24 131.218 357.675 131.117 366.854 131.117C376.034 131.117 383.462 131.218 383.462 131.344Z" fill="#E0E0E0"/>
<path d="M368.984 138.734H363.357V150.592H368.984V138.734Z" fill="#FAFAFA"/>
<path d="M383.462 155.246C383.462 155.372 376.021 155.473 366.854 155.473C357.687 155.473 350.24 155.372 350.24 155.246C350.24 155.12 357.675 155.02 366.854 155.02C376.034 155.02 383.462 155.12 383.462 155.246Z" fill="#E0E0E0"/>
<path d="M368.984 162.637H363.357V174.494H368.984V162.637Z" fill="#FAFAFA"/>
<path d="M383.462 179.151C383.462 179.277 376.021 179.377 366.854 179.377C357.687 179.377 350.24 179.277 350.24 179.151C350.24 179.025 357.675 178.924 366.854 178.924C376.034 178.924 383.462 179.025 383.462 179.151Z" fill="#E0E0E0"/>
<path d="M368.984 186.547H363.357V198.404H368.984V186.547Z" fill="#FAFAFA"/>
<path d="M383.462 203.061C383.462 203.187 376.021 203.288 366.854 203.288C357.687 203.288 350.24 203.187 350.24 203.061C350.24 202.935 357.675 202.834 366.854 202.834C376.034 202.834 383.462 202.935 383.462 203.061Z" fill="#E0E0E0"/>
<path d="M368.984 210.449H363.357V222.306H368.984V210.449Z" fill="#FAFAFA"/>
<path d="M419.595 269.371C419.595 269.459 325.657 269.535 209.807 269.535C93.9566 269.535 0 269.459 0 269.371C0 269.283 93.9188 269.207 209.807 269.207C325.695 269.207 419.595 269.283 419.595 269.371Z" fill="#263238"/>
<path d="M340.752 269.37L249.265 269.314C238.265 269.314 229.343 260.386 229.35 249.379L229.394 20.029C229.394 9.02237 238.321 0.101125 249.334 0.107425L340.821 0.164128C351.821 0.170428 360.743 9.09167 360.736 20.0983L360.692 249.449C360.692 260.455 351.758 269.377 340.752 269.37Z" fill="#1E4C2F"/>
<path d="M341.394 6.98044L323.595 6.89854C321.207 6.88594 319.267 8.90204 319.254 11.397L319.242 14.6227C319.229 17.1177 317.289 19.1338 314.901 19.1212L280.205 18.9636C277.817 18.951 275.889 16.9223 275.902 14.4274L275.914 11.2017C275.927 8.70673 273.999 6.67173 271.611 6.66543L265.349 6.63393L249.768 6.56462C242.031 6.52682 235.731 12.7767 235.7 20.5135L234.748 245.158C234.717 252.894 240.954 259.188 248.691 259.22L340.31 259.642C348.047 259.68 354.347 253.436 354.379 245.693L355.33 21.049C355.361 13.3186 349.124 7.01825 341.387 6.98674L341.394 6.98044Z" fill="#F5F5F5"/>
<path d="M302.509 217.185C302.401 219.9 302.307 222.439 302.219 224.556H315.38L313.767 216.473L302.502 217.185H302.509Z" fill="#F5F5F5"/>
<path d="M249.018 220.567L249.131 224.555H300.901C300.989 222.318 301.083 219.83 301.184 217.266L249.018 220.567Z" fill="#F5F5F5"/>
<path d="M314.434 216.434L316.053 224.555H340.315L340.019 214.814L314.434 216.434Z" fill="#F5F5F5"/>
<path d="M303.825 102.846L308.411 76.2462L296.396 75.3516V102.846H303.825Z" fill="#EBEBEB"/>
<path d="M247.941 205.805L234.899 210.914L234.861 220.15L248.325 219.3L247.941 205.805Z" fill="#F5F5F5"/>
<path d="M247.879 203.726L247.167 178.953H247.154V170.215L235.064 171.494L234.906 208.792L247.872 203.714L247.879 203.726Z" fill="#EBEBEB"/>
<path d="M247.152 150.71L235.157 149.129L235.068 169.517L247.152 168.238V150.71Z" fill="#F5F5F5"/>
<path d="M336.58 170.581L336.07 177.682L321.9 179.213L323.003 184.833L339.088 183.617L338.842 175.559L340.127 170.229L336.58 170.581Z" fill="#F5F5F5"/>
<path d="M311.038 185.733L322.341 184.876L319.878 172.27L310.018 173.265L311.038 185.733Z" fill="#F5F5F5"/>
<path d="M311.145 187.038L312.008 197.553L313.545 211.975L314.169 215.137L339.981 213.499L339.124 184.934L311.145 187.038Z" fill="#EBEBEB"/>
<path d="M266.728 137.398L267.724 139.099L247.821 150.71V178.249L268.826 176.762L309.312 172.673L307.831 154.623L269.154 149.57L269.406 147.617L307.668 152.613L305.16 122.063L267.289 125.704L267.163 124.394L305.047 120.752L303.736 104.812H267.308L235.321 110.634L235.17 147.138L247.279 148.738L266.728 137.398ZM249.856 175.622C249.856 175.622 250.007 152.915 249.856 152.065L266.098 143.427L268.202 174.462L249.856 175.622Z" fill="#F5F5F5"/>
<path d="M335.251 170.719L320.533 172.199L321.648 177.92L334.841 176.496L335.251 170.719Z" fill="#F5F5F5"/>
<path d="M302.697 212.32C302.653 213.511 302.609 214.702 302.559 215.867L313.509 215.174L312.948 212.352L302.697 212.327V212.32Z" fill="#F5F5F5"/>
<path d="M279.103 102.846L281.037 94.0944H295.736V75.3069L249.756 71.8984V89.5393L235.397 92.7903L235.328 108.629L267.132 102.846H279.103Z" fill="#EBEBEB"/>
<path d="M309.785 50.56L309.395 48.9471L326.954 41.9979L315.531 19.071C315.323 19.1025 315.115 19.1214 314.901 19.1214L295.496 19.0332L296.025 51.1207L309.785 50.56Z" fill="#F5F5F5"/>
<path d="M336.39 38.2615L336.371 6.9552L323.594 6.8985C321.206 6.8859 319.266 8.902 319.253 11.3969L319.241 14.6227C319.241 16.16 318.491 17.5208 317.363 18.3273L328.792 41.2667L336.397 38.2552L336.39 38.2615Z" fill="#EBEBEB"/>
<path d="M270.389 39.6033L268.908 6.64636L265.355 6.62746L251.469 6.56445L245.553 36.0373L270.395 39.6033H270.389ZM267.226 9.98552L267.698 36.8249L249.238 34.122L253.283 9.97922H267.226V9.98552Z" fill="#F5F5F5"/>
<path d="M271.056 39.7034V39.9869C271.094 42.5574 271.144 47.1881 271.182 52.1402L295.363 51.151L294.834 19.0383L280.198 18.969C277.81 18.9564 275.882 16.9277 275.895 14.4328L275.907 11.207C275.92 8.71211 273.992 6.6771 271.604 6.6708L269.557 6.6582L271.044 39.7097H271.05L271.056 39.7034Z" fill="#F5F5F5"/>
<path d="M243.594 35.7592L249.453 6.57617C241.867 6.71478 235.737 12.8765 235.706 20.5062L235.643 35.0536L235.706 34.6252L243.6 35.7592H243.594Z" fill="#F5F5F5"/>
<path d="M247.789 71.7534L235.491 70.8398L235.402 90.7677L247.789 87.9704V71.7534Z" fill="#F5F5F5"/>
<path d="M243.468 36.4027L235.643 35.2812L235.504 67.5515L237.186 67.6775L243.468 36.4027Z" fill="#F5F5F5"/>
<path d="M268.303 203.348L268.511 177.441L247.82 178.903L248.551 204.287L268.303 203.348Z" fill="#F5F5F5"/>
<path d="M272.116 197.37L301.418 211.407C301.765 202.234 302.08 193.653 302.049 193.111L302.685 193.079L302.994 192.462C303.271 192.6 303.336 194.755 303.189 198.926C303.069 202.416 302.893 207.06 302.716 211.703H312.854L311.36 197.622L309.363 173.334L271.076 177.196L272.109 197.37H272.116Z" fill="#F5F5F5"/>
<path d="M343.938 154.37L343.611 150.955L308.486 154.609L309.961 172.609L340.29 169.547L343.938 154.37Z" fill="#F5F5F5"/>
<path d="M295.736 96.0664H282.619L281.119 102.846H295.736V96.0664Z" fill="#F5F5F5"/>
<path d="M338.515 98.3545L305.653 96.0801L304.311 103.842L305.697 120.689L340.355 117.356L338.515 98.3482V98.3545ZM306.862 103.829L308.626 98.9278L337.167 100.73L338.817 114.748L307.826 118.421L306.862 103.823V103.829Z" fill="#F5F5F5"/>
<path d="M341.922 133.566L340.479 118.666L305.809 121.999L307.106 137.857L341.922 133.566Z" fill="#F5F5F5"/>
<path d="M248.362 220.611L234.911 221.462L234.854 220.586L234.842 224.555H248.476L248.362 220.611Z" fill="#F5F5F5"/>
<path d="M355.091 30.8643L355.286 31.3621L355.33 21.0421C355.362 13.3117 349.124 7.01134 341.388 6.97984L337.021 6.96094L337.04 38.0026L355.084 30.8643H355.091Z" fill="#EBEBEB"/>
<path d="M301.386 212.125L271.472 197.798L270.42 177.266L269.166 177.392L268.952 203.979L248.564 204.949L248.583 205.541V205.554L248.98 219.264L301.241 215.956C301.292 214.683 301.342 213.404 301.386 212.125ZM249.85 206.638L278.384 204.634L296.951 213.247L249.85 215.798V206.638Z" fill="#F5F5F5"/>
<path d="M346.591 65.3404L347.814 58.0825C337.09 54.2519 336.347 43.0688 336.379 39.6855L329.379 42.4577L339.919 63.6204L346.591 65.3467V65.3404Z" fill="#F5F5F5"/>
<path d="M308.324 152.651L322.909 151.132L320.036 138.248L307.271 139.823L308.324 152.651Z" fill="#F5F5F5"/>
<path d="M339.786 77.965L312.543 77.9587L310.282 77.7949L307.207 95.6311L339.54 97.8677L338.784 90.112L341.972 78.6581L339.786 77.965Z" fill="#F5F5F5"/>
<path d="M337.903 73.1837L338.243 64.672L327.539 43.1816L310.938 49.7529L316.646 73.1837H337.903ZM326.89 45.7963L336.699 64.4578L335.282 70.273L318.498 69.643L314.302 51.9895L326.89 45.7963Z" fill="#F5F5F5"/>
<path d="M342.137 175.905L342.641 192.626L354.441 191.958L354.479 192.613L342.66 193.281L343.258 213.291L354.416 212.585L354.498 213.896L343.302 214.608L343.598 224.556H354.473L354.706 168.754L343.586 169.875L342.137 175.905Z" fill="#F5F5F5"/>
<path d="M270.407 40.2704L245.42 36.6855L239.17 67.8217L270.52 70.1465C270.646 65.352 270.533 50.647 270.413 40.2767L270.407 40.2704Z" fill="#EBEBEB"/>
<path d="M311.511 73.1845H315.291L309.942 51.209L296.031 51.776L296.365 72.0567L311.511 73.1845Z" fill="#F5F5F5"/>
<path d="M234.773 240.545L234.754 245.15C234.754 245.295 234.773 245.428 234.773 245.573V240.545Z" fill="#F5F5F5"/>
<path d="M271.158 70.191L295.711 72.0118L295.377 51.8066L271.19 52.7958C271.24 59.6316 271.259 66.9211 271.158 70.1973V70.191Z" fill="#F5F5F5"/>
<path d="M342.117 135.531L320.684 138.171L323.563 151.062L343.415 148.995L342.117 135.531Z" fill="#F5F5F5"/>
<path d="M347.927 57.4198L349.3 49.2735L355.216 49.7334L355.292 32.1934L337.046 39.4135C336.674 51.7558 344.43 56.0968 347.927 57.4198Z" fill="#EBEBEB"/>
<path d="M340.896 88.9035L341.646 96.5962L355.009 97.5223L355.078 81.6771L343.889 78.1426L340.896 88.9035Z" fill="#F5F5F5"/>
<path d="M347.259 154.602L343.75 169.2L354.713 168.091L354.776 152.788C351.411 151.9 348.475 151.181 346.9 150.879L347.259 154.609V154.602Z" fill="#F5F5F5"/>
<path d="M339.863 73.4288L355.091 78.236L355.129 69.5793L340.172 65.7109L339.863 73.4288Z" fill="#F5F5F5"/>
<path d="M346.705 148.875C347.934 149.058 350.259 149.556 354.782 150.747L354.921 117.279L343.744 118.357L346.699 148.875H346.705Z" fill="#F5F5F5"/>
<path d="M343.623 117.046L354.932 115.956L355.002 99.4936L341.834 98.5801L343.623 117.046Z" fill="#F5F5F5"/>
<path d="M349.188 57.8373C351.33 58.4862 353.327 58.9902 355.173 59.362L355.211 51.0518L350.397 50.6738L349.194 57.831L349.188 57.8373Z" fill="#F5F5F5"/>
<path d="M347.863 65.6687L355.134 67.5462L355.165 60.0362C353.282 59.6582 351.253 59.1479 349.073 58.4863L347.863 65.6687Z" fill="#F5F5F5"/>
<path d="M354.498 213.895L354.416 212.585L343.258 213.291L342.66 193.274L354.479 192.607L354.441 191.951L342.641 192.613L342.137 175.892L343.586 169.869L354.706 168.747V168.086L343.75 169.195L347.259 154.597L346.9 150.867C348.475 151.17 351.411 151.894 354.775 152.776V150.728C350.258 149.538 347.933 149.046 346.705 148.857L343.75 118.339L354.926 117.261V115.938L343.624 117.028L341.834 98.5682L355.002 99.4817V97.5097L341.645 96.5836L340.902 88.8909L343.888 78.1362L355.078 81.6707L355.09 78.2308L339.862 73.4236L340.171 65.7057L355.128 69.5678V67.5391L347.864 65.6616L349.073 58.4793C351.253 59.1408 353.282 59.6511 355.166 60.0291V59.355C353.32 58.9833 351.329 58.4793 349.187 57.8303L350.39 50.6732L355.204 51.0512V49.7344L349.294 49.2745L347.92 57.4208C344.417 56.0977 336.668 51.7568 337.04 39.4145L355.286 32.1944V31.3627L355.09 30.865L337.046 38.0032L337.027 6.96159H336.372L336.391 38.2616L328.786 41.2731L317.358 18.3337C316.822 18.718 316.198 18.9763 315.524 19.0771L326.947 42.0039L309.388 48.9532L309.778 50.5661L296.018 51.1268L295.489 19.0393H294.834L295.363 51.152L271.183 52.1412C271.145 47.1891 271.088 42.5584 271.057 39.9878V39.7043H271.044L269.557 6.65287H268.902L270.383 39.6098L245.54 36.0438L251.456 6.57097H249.768C249.661 6.56467 249.554 6.57097 249.447 6.57727L243.587 35.7603L235.693 34.6263L235.63 35.0547V35.2815L243.455 36.403L237.18 67.6714L235.498 67.5454L235.485 70.8342L247.783 71.7477V87.9647L235.403 90.7684V92.7908L249.755 89.5398V71.8989L295.735 75.3074V94.095H281.03L279.096 102.846H267.125L235.321 108.636V110.64L267.302 104.818H303.73L305.041 120.758L267.157 124.399L267.283 125.71L305.154 122.068L307.661 152.619L269.4 147.622L269.148 149.576L307.825 154.628L309.306 172.679L268.82 176.768L247.815 178.255V150.716L267.717 139.104L266.722 137.403L247.273 148.744L235.164 147.144V149.128L247.153 150.71V168.237L235.069 169.516V171.494L247.153 170.215V178.954H247.166L247.878 203.727V203.714L234.905 208.792V210.909L247.941 205.8L248.331 219.295L234.861 220.145V220.58L234.912 221.456L248.363 220.605L248.476 224.549H249.132L249.018 220.561L301.185 217.26C301.084 219.824 300.989 222.306 300.901 224.549H302.218C302.3 222.432 302.401 219.893 302.508 217.178L313.773 216.466L315.386 224.549H316.053L314.434 216.422L340.026 214.803L340.316 224.549H343.598M302.558 215.861C302.602 214.696 302.646 213.505 302.697 212.314L312.947 212.339L313.508 215.162L302.558 215.855V215.861ZM314.17 215.124L313.54 211.968L312.009 197.546L311.146 187.031L339.125 184.92L339.982 213.492L314.17 215.124ZM320.533 172.194L335.251 170.707L334.841 176.484L321.648 177.908L320.533 172.194ZM319.878 172.257L322.341 184.87L311.038 185.72L310.018 173.252L319.878 172.257ZM339.081 183.604L322.996 184.813L321.9 179.193L336.07 177.662L336.574 170.562L340.121 170.203L338.835 175.539L339.075 183.597L339.081 183.604ZM320.029 138.235L322.902 151.113L308.317 152.631L307.265 139.81L320.029 138.235ZM323.563 151.044L320.684 138.153L342.112 135.513L343.416 148.977L323.563 151.044ZM338.325 96.3442L305.992 94.1075L309.066 76.2714L311.328 76.4415H338.565L340.751 77.1345L337.569 88.5885L338.319 96.3442H338.325ZM336.378 39.6602C336.347 43.0435 337.09 54.2329 347.813 58.0571L346.591 65.3151L339.919 63.5888L329.379 42.4261L336.378 39.6539V39.6602ZM327.539 43.1569L338.243 64.6473L337.903 73.159H316.646L310.938 49.7281L327.539 43.1569ZM309.942 51.1835L315.291 73.159H311.511L296.365 72.0375L296.031 51.7568L309.936 51.1898L309.942 51.1835ZM295.376 51.7757L295.71 71.9808L271.157 70.1601C271.258 66.8839 271.239 59.5944 271.189 52.7586L295.376 51.7694V51.7757ZM245.414 36.655L270.401 40.2399C270.527 50.6165 270.635 65.3214 270.508 70.1096L239.158 67.7848L245.408 36.6487L245.414 36.655ZM308.405 76.2147L303.818 102.815H296.39V75.3263L308.405 76.2147ZM282.611 96.0354H295.735V102.815H281.118L282.618 96.0354H282.611ZM304.31 103.816L305.652 96.0544L338.514 98.3288L340.354 117.337L305.696 120.67L304.31 103.823V103.816ZM340.473 118.641L341.916 133.541L307.101 137.832L305.797 121.974L340.473 118.641ZM308.474 154.584L343.598 150.93L343.926 154.345L340.278 169.522L309.948 172.584L308.468 154.584H308.474ZM311.347 197.59L312.84 211.671H302.703C302.88 207.028 303.056 202.385 303.176 198.894C303.323 194.724 303.258 192.569 302.98 192.43L302.672 193.048L302.035 193.079C302.067 193.627 301.752 202.202 301.405 211.375L272.102 197.338L271.069 177.165L309.356 173.303L311.353 197.59H311.347ZM268.505 177.417L268.297 203.324L248.546 204.262L247.815 178.878L268.505 177.417ZM248.583 205.522V205.51L248.565 204.917L268.952 203.947L269.167 177.36L270.42 177.234L271.472 197.767L301.386 212.094C301.336 213.366 301.286 214.651 301.241 215.924L248.98 219.232L248.583 205.522Z" fill="white"/>
<path d="M278.384 204.627L249.85 206.63V215.791L296.951 213.246L278.384 204.627Z" fill="#E0E0E0"/>
<path d="M337.166 100.736L308.625 98.9277L306.861 103.829L307.832 118.427L338.823 114.748L337.166 100.736Z" fill="#E0E0E0"/>
<path d="M268.253 38.5449L267.78 11.6992H253.838L249.793 35.842L268.253 38.5449Z" fill="#E0E0E0"/>
<path d="M335.283 70.274L336.7 64.4526L326.891 45.791L314.303 51.9905L318.499 69.6377L335.283 70.274Z" fill="#EBEBEB"/>
<path d="M249.85 152.064C250.001 152.914 249.85 175.62 249.85 175.62L268.196 174.461L266.092 143.426L249.85 152.064Z" fill="#E0E0E0"/>
<path d="M311.044 170.504L310.074 156.43L341.538 152.385V154.81L337.739 167.751L311.044 170.504Z" fill="#E0E0E0"/>
<path d="M340.38 206.36L339.983 197.18L312.319 198.522C311.594 198.553 310.87 198.402 310.227 198.075L270.995 178.26C270.088 177.8 269.489 176.887 269.439 175.872L264.096 72.3014C264.071 71.8037 264.26 71.3249 264.613 70.972C264.965 70.6255 265.457 70.4491 265.955 70.4806L282.77 71.7281V53.3438H284.742V71.9801C284.742 72.4589 284.541 72.9251 284.188 73.2527C283.835 73.5804 283.362 73.7442 282.884 73.7127L266.081 72.4652L271.411 175.771C271.43 176.08 271.612 176.364 271.889 176.502L311.122 196.317C311.462 196.487 311.846 196.575 312.23 196.55L340.122 195.195C340.594 195.17 341.035 195.334 341.382 195.649C341.728 195.964 341.93 196.392 341.949 196.859L342.352 206.265L340.387 206.347L340.38 206.36Z" fill="white"/>
<path d="M184.473 76.7694L179.842 68.6105C181.89 65.2839 183.074 61.3714 183.074 57.1817C183.074 45.1292 173.303 35.3574 161.25 35.3574C149.198 35.3574 139.426 45.1292 139.426 57.1817C139.426 69.2342 149.198 79.006 161.25 79.006C166.284 79.006 170.915 77.2986 174.607 74.4383V74.4509L184.473 76.7757V76.7694Z" fill="white"/>
<path d="M184.474 76.7687C183.907 76.6427 180.838 75.9434 174.582 74.5258C174.538 74.5132 174.513 74.4754 174.519 74.4313C174.519 74.4187 174.526 74.4061 174.532 74.3998V74.3872L174.652 74.5006C172.182 76.4348 168.628 78.3186 164.168 78.9234C163.059 79.0683 161.9 79.1565 160.709 79.0998C160.117 79.0683 159.506 79.0494 158.894 78.999C158.29 78.9045 157.672 78.8163 157.048 78.7218C154.572 78.2367 152.046 77.2979 149.683 75.8299C147.327 74.3683 145.141 72.39 143.389 69.958C141.644 67.5261 140.315 64.6469 139.697 61.5156C139.08 58.3907 139.13 55.0389 139.956 51.7942C140.781 48.5622 142.325 45.4057 144.643 42.8037C146.981 40.1513 149.879 38.0218 153.067 36.7932C156.242 35.5331 159.625 35.0543 162.864 35.2874C166.102 35.5205 169.202 36.453 171.854 37.9461C174.519 39.433 176.768 41.4113 178.501 43.6227C180.24 45.8341 181.468 48.2787 182.225 50.7106C182.981 53.1551 183.182 55.5744 183.17 57.8173C183.037 62.3347 181.525 66.0393 179.9 68.6539V68.572C182.798 73.776 184.19 76.2836 184.461 76.7687C184.184 76.2899 182.747 73.8012 179.761 68.6476C179.749 68.6224 179.749 68.5909 179.761 68.5657C181.349 65.9637 182.829 62.278 182.936 57.8047C182.936 55.587 182.722 53.1929 181.972 50.7799C181.216 48.3795 179.994 45.9728 178.274 43.7928C176.554 41.6129 174.337 39.6598 171.703 38.2045C169.082 36.7365 166.026 35.8229 162.832 35.5961C159.644 35.3693 156.305 35.8418 153.18 37.0893C150.036 38.3053 147.188 40.4033 144.883 43.0179C142.602 45.5758 141.083 48.6882 140.264 51.8698C139.452 55.0641 139.401 58.3718 140 61.4526C140.605 64.5398 141.909 67.3812 143.629 69.7816C145.349 72.1884 147.503 74.1478 149.828 75.5905C152.153 77.0396 154.648 77.9784 157.093 78.4698C157.71 78.5643 158.315 78.6588 158.913 78.7533C159.518 78.8037 160.117 78.8226 160.703 78.8604C161.881 78.9234 163.027 78.8352 164.124 78.7029C168.54 78.1233 172.068 76.2773 174.532 74.3809C174.57 74.3557 174.62 74.362 174.645 74.3935C174.67 74.425 174.67 74.4628 174.645 74.4943V74.5069L174.595 74.3809C180.826 75.8992 183.882 76.649 184.449 76.7876L184.474 76.7687Z" fill="#263238"/>
<path d="M152.16 57.5466L154.724 54.9887L159.664 59.38L169.373 50.043L171.754 52.6072L159.298 64.3258L152.16 57.5466Z" fill="#FC8838"/>
<path d="M82.0181 269.686H62.9785V196.52H63.6085V269.056H82.0181L254.495 268.76L250.432 177.966L293.444 173.959L309.623 172.327L307.935 153.609L305.364 120.413L341.509 116.462L340.457 97.9017L326.76 94.5877L326.911 93.9766L341.056 97.4039L342.171 117.023L306.038 120.973L308.559 153.552L310.304 172.894L293.501 174.589L251.087 178.533L255.151 269.39L82.0181 269.686Z" fill="#1E4C2F"/>
<g filter="url(#filter0_d_50_12286)">
<rect x="315" y="65" width="24" height="24" rx="12" fill="white" shape-rendering="crispEdges"/>
<path d="M327 93.5L330 89H324L327 93.5Z" fill="white"/>
<circle cx="327" cy="77" r="9.975" stroke="#499D2F" stroke-width="1.05"/>
<path d="M319.5 78.5914C319.5 80.1952 320.805 81.5 322.408 81.5C323.871 81.5 325.085 80.4145 325.287 79.0069H327.081C327.154 79.0069 327.226 78.9878 327.289 78.9515C327.352 78.9151 327.404 78.8629 327.441 78.7999L329.411 75.4035L329.945 76.3168C329.276 76.8501 328.846 77.6713 328.846 78.5914C328.846 80.1952 330.151 81.5 331.754 81.5C333.358 81.5 334.663 80.1952 334.663 78.5914C334.663 76.9875 333.358 75.6828 331.754 75.6828C331.38 75.6826 331.009 75.7552 330.662 75.8966L329.826 74.4652V72.9156C329.826 72.8054 329.782 72.6997 329.704 72.6218C329.626 72.5438 329.52 72.5001 329.41 72.5001H327.748C327.638 72.5001 327.532 72.5438 327.454 72.6218C327.377 72.6997 327.333 72.8054 327.333 72.9156C327.333 73.0258 327.377 73.1315 327.454 73.2094C327.532 73.2873 327.638 73.3311 327.748 73.3311H328.995V74.4658L327.08 77.7655L325.096 74.3681C325.059 74.3053 325.007 74.2533 324.944 74.2171C324.881 74.181 324.809 74.162 324.737 74.1621C324.664 74.1622 324.593 74.1814 324.53 74.2177C324.467 74.254 324.414 74.3062 324.378 74.3691L323.493 75.8935C323.149 75.7542 322.78 75.6826 322.408 75.6828C320.805 75.6828 319.5 76.9875 319.5 78.5914ZM331.754 76.5138C332.9 76.5138 333.832 77.4458 333.832 78.5914C333.832 79.737 332.9 80.669 331.754 80.669C330.609 80.669 329.677 79.737 329.677 78.5914C329.677 77.9774 329.945 77.4249 330.37 77.0443L331.396 78.801C331.423 78.8481 331.46 78.8894 331.503 78.9224C331.547 78.9554 331.596 78.9796 331.649 78.9934C331.702 79.0073 331.757 79.0106 331.811 79.0032C331.865 78.9958 331.917 78.9777 331.964 78.9502C332.011 78.9226 332.052 78.8861 332.085 78.8427C332.118 78.7992 332.142 78.7497 332.156 78.6969C332.17 78.6441 332.174 78.5891 332.166 78.535C332.159 78.481 332.141 78.4289 332.113 78.3818L331.087 76.6244C331.302 76.5511 331.527 76.5138 331.754 76.5138ZM323.789 77.0404C324.117 77.3332 324.353 77.7285 324.444 78.1759H323.13L323.789 77.0404ZM324.738 75.4035L326.358 78.1759H325.287C325.179 77.4233 324.781 76.7634 324.212 76.3117L324.738 75.4035ZM322.048 78.7987C322.085 78.862 322.137 78.9146 322.201 78.9511C322.264 78.9877 322.335 79.0069 322.408 79.0069H324.444C324.251 79.9541 323.412 80.669 322.408 80.669C321.263 80.669 320.331 79.737 320.331 78.5914C320.331 77.4458 321.263 76.5138 322.408 76.5138C322.64 76.5138 322.862 76.5524 323.07 76.6225L322.049 78.3828C322.012 78.446 321.993 78.5177 321.993 78.5907C321.993 78.6637 322.012 78.7355 322.048 78.7987ZM325.568 73.331C325.678 73.331 325.784 73.2873 325.862 73.2093C325.94 73.1314 325.984 73.0257 325.984 72.9155C325.984 72.8053 325.94 72.6996 325.862 72.6217C325.784 72.5438 325.678 72.5 325.568 72.5H323.906C323.796 72.5 323.69 72.5438 323.612 72.6217C323.535 72.6996 323.491 72.8053 323.491 72.9155C323.491 73.0257 323.535 73.1314 323.612 73.2093C323.69 73.2873 323.796 73.331 323.906 73.331H325.568Z" fill="#1E4C2F"/>
<rect x="315.375" y="65.375" width="23.25" height="23.25" rx="11.625" stroke="#1E4C2F" stroke-width="0.75" shape-rendering="crispEdges"/>
</g>
<g filter="url(#filter1_d_50_12286)">
<rect x="247" y="37" width="24" height="24" rx="12" fill="white" shape-rendering="crispEdges"/>
<path d="M259 65.5L262 61H256L259 65.5Z" fill="white"/>
<circle cx="259" cy="49" r="9.975" stroke="#499D2F" stroke-width="1.05"/>
<path d="M251.5 50.5914C251.5 52.1952 252.805 53.5 254.408 53.5C255.871 53.5 257.085 52.4145 257.287 51.0069H259.081C259.154 51.0069 259.226 50.9878 259.289 50.9515C259.352 50.9151 259.404 50.8629 259.441 50.7999L261.411 47.4035L261.945 48.3168C261.276 48.8501 260.846 49.6713 260.846 50.5914C260.846 52.1952 262.151 53.5 263.754 53.5C265.358 53.5 266.663 52.1952 266.663 50.5914C266.663 48.9875 265.358 47.6828 263.754 47.6828C263.38 47.6826 263.009 47.7552 262.662 47.8966L261.826 46.4652V44.9156C261.826 44.8054 261.782 44.6997 261.704 44.6218C261.626 44.5438 261.52 44.5001 261.41 44.5001H259.748C259.638 44.5001 259.532 44.5438 259.454 44.6218C259.377 44.6997 259.333 44.8054 259.333 44.9156C259.333 45.0258 259.377 45.1315 259.454 45.2094C259.532 45.2873 259.638 45.3311 259.748 45.3311H260.995V46.4658L259.08 49.7655L257.096 46.3681C257.059 46.3053 257.007 46.2533 256.944 46.2171C256.881 46.181 256.809 46.162 256.737 46.1621C256.664 46.1622 256.593 46.1814 256.53 46.2177C256.467 46.254 256.414 46.3062 256.378 46.3691L255.493 47.8935C255.149 47.7542 254.78 47.6826 254.408 47.6828C252.805 47.6828 251.5 48.9875 251.5 50.5914ZM263.754 48.5138C264.9 48.5138 265.832 49.4458 265.832 50.5914C265.832 51.737 264.9 52.669 263.754 52.669C262.609 52.669 261.677 51.737 261.677 50.5914C261.677 49.9774 261.945 49.4249 262.37 49.0443L263.396 50.801C263.423 50.8481 263.46 50.8894 263.503 50.9224C263.547 50.9554 263.596 50.9796 263.649 50.9934C263.702 51.0073 263.757 51.0106 263.811 51.0032C263.865 50.9958 263.917 50.9777 263.964 50.9502C264.011 50.9226 264.052 50.8861 264.085 50.8427C264.118 50.7992 264.142 50.7497 264.156 50.6969C264.17 50.6441 264.174 50.5891 264.166 50.535C264.159 50.481 264.141 50.4289 264.113 50.3818L263.087 48.6244C263.302 48.5511 263.527 48.5138 263.754 48.5138ZM255.789 49.0404C256.117 49.3332 256.353 49.7285 256.444 50.1759H255.13L255.789 49.0404ZM256.738 47.4035L258.358 50.1759H257.287C257.179 49.4233 256.781 48.7634 256.212 48.3117L256.738 47.4035ZM254.048 50.7987C254.085 50.862 254.137 50.9146 254.201 50.9511C254.264 50.9877 254.335 51.0069 254.408 51.0069H256.444C256.251 51.9541 255.412 52.669 254.408 52.669C253.263 52.669 252.331 51.737 252.331 50.5914C252.331 49.4458 253.263 48.5138 254.408 48.5138C254.64 48.5138 254.862 48.5524 255.07 48.6225L254.049 50.3828C254.012 50.446 253.993 50.5177 253.993 50.5907C253.993 50.6637 254.012 50.7355 254.048 50.7987ZM257.568 45.331C257.678 45.331 257.784 45.2873 257.862 45.2093C257.94 45.1314 257.984 45.0257 257.984 44.9155C257.984 44.8053 257.94 44.6996 257.862 44.6217C257.784 44.5438 257.678 44.5 257.568 44.5H255.906C255.796 44.5 255.69 44.5438 255.612 44.6217C255.535 44.6996 255.491 44.8053 255.491 44.9155C255.491 45.0257 255.535 45.1314 255.612 45.2093C255.69 45.2873 255.796 45.331 255.906 45.331H257.568Z" fill="#1E4C2F"/>
<rect x="247.375" y="37.375" width="23.25" height="23.25" rx="11.625" stroke="#1E4C2F" stroke-width="0.75" shape-rendering="crispEdges"/>
</g>
<path d="M304.575 104.157H266.244L265.772 72.7188L258.709 71.0934V65.7129H259.339V70.5893L266.395 72.2148L266.862 103.527H304.052L305.728 94.6061L326.828 93.9635L326.847 94.5935L306.257 95.2173L304.575 104.157Z" fill="#1E4C2F"/>
<g filter="url(#filter2_d_50_12286)">
<rect x="277" y="145" width="24" height="24" rx="12" fill="white" shape-rendering="crispEdges"/>
<path d="M289 173.5L292 169H286L289 173.5Z" fill="white"/>
<circle cx="289" cy="157" r="9.975" stroke="#499D2F" stroke-width="1.05"/>
<path d="M281.5 158.591C281.5 160.195 282.805 161.5 284.408 161.5C285.871 161.5 287.085 160.415 287.287 159.007H289.081C289.154 159.007 289.226 158.988 289.289 158.951C289.352 158.915 289.404 158.863 289.441 158.8L291.411 155.404L291.945 156.317C291.276 156.85 290.846 157.671 290.846 158.591C290.846 160.195 292.151 161.5 293.754 161.5C295.358 161.5 296.663 160.195 296.663 158.591C296.663 156.988 295.358 155.683 293.754 155.683C293.38 155.683 293.009 155.755 292.662 155.897L291.826 154.465V152.916C291.826 152.805 291.782 152.7 291.704 152.622C291.626 152.544 291.52 152.5 291.41 152.5H289.748C289.638 152.5 289.532 152.544 289.454 152.622C289.377 152.7 289.333 152.805 289.333 152.916C289.333 153.026 289.377 153.131 289.454 153.209C289.532 153.287 289.638 153.331 289.748 153.331H290.995V154.466L289.08 157.765L287.096 154.368C287.059 154.305 287.007 154.253 286.944 154.217C286.881 154.181 286.809 154.162 286.737 154.162C286.664 154.162 286.593 154.181 286.53 154.218C286.467 154.254 286.414 154.306 286.378 154.369L285.493 155.894C285.149 155.754 284.78 155.683 284.408 155.683C282.805 155.683 281.5 156.988 281.5 158.591ZM293.754 156.514C294.9 156.514 295.832 157.446 295.832 158.591C295.832 159.737 294.9 160.669 293.754 160.669C292.609 160.669 291.677 159.737 291.677 158.591C291.677 157.977 291.945 157.425 292.37 157.044L293.396 158.801C293.423 158.848 293.46 158.889 293.503 158.922C293.547 158.955 293.596 158.98 293.649 158.993C293.702 159.007 293.757 159.011 293.811 159.003C293.865 158.996 293.917 158.978 293.964 158.95C294.011 158.923 294.052 158.886 294.085 158.843C294.118 158.799 294.142 158.75 294.156 158.697C294.17 158.644 294.174 158.589 294.166 158.535C294.159 158.481 294.141 158.429 294.113 158.382L293.087 156.624C293.302 156.551 293.527 156.514 293.754 156.514ZM285.789 157.04C286.117 157.333 286.353 157.729 286.444 158.176H285.13L285.789 157.04ZM286.738 155.404L288.358 158.176H287.287C287.179 157.423 286.781 156.763 286.212 156.312L286.738 155.404ZM284.048 158.799C284.085 158.862 284.137 158.915 284.201 158.951C284.264 158.988 284.335 159.007 284.408 159.007H286.444C286.251 159.954 285.412 160.669 284.408 160.669C283.263 160.669 282.331 159.737 282.331 158.591C282.331 157.446 283.263 156.514 284.408 156.514C284.64 156.514 284.862 156.552 285.07 156.623L284.049 158.383C284.012 158.446 283.993 158.518 283.993 158.591C283.993 158.664 284.012 158.735 284.048 158.799ZM287.568 153.331C287.678 153.331 287.784 153.287 287.862 153.209C287.94 153.131 287.984 153.026 287.984 152.916C287.984 152.805 287.94 152.7 287.862 152.622C287.784 152.544 287.678 152.5 287.568 152.5H285.906C285.796 152.5 285.69 152.544 285.612 152.622C285.535 152.7 285.491 152.805 285.491 152.916C285.491 153.026 285.535 153.131 285.612 153.209C285.69 153.287 285.796 153.331 285.906 153.331H287.568Z" fill="#1E4C2F"/>
<rect x="277.375" y="145.375" width="23.25" height="23.25" rx="11.625" stroke="#1E4C2F" stroke-width="0.75" shape-rendering="crispEdges"/>
</g>
<g filter="url(#filter3_d_50_12286)">
<rect x="27" y="110" width="72" height="72" rx="36" fill="white" shape-rendering="crispEdges"/>
<path d="M63 195.5L72 182H54L63 195.5Z" fill="white"/>
<circle cx="63" cy="146" r="29.925" stroke="#499D2F" stroke-width="3.15"/>
<path d="M40.5 150.774C40.5 155.586 44.4142 159.5 49.2255 159.5C53.6134 159.5 57.2535 156.244 57.8605 152.021H63.2444C63.4627 152.021 63.6772 151.963 63.8664 151.854C64.0557 151.745 64.2129 151.589 64.3225 151.4L70.2342 141.211L71.8344 143.95C69.8275 145.55 68.5378 148.014 68.5378 150.774C68.5378 155.586 72.452 159.5 77.2633 159.5C82.0746 159.5 85.9887 155.586 85.9887 150.774C85.9887 145.963 82.0746 142.048 77.2633 142.048C76.1393 142.048 75.026 142.266 73.9852 142.69L71.4772 138.396V133.747C71.4772 133.416 71.3459 133.099 71.1121 132.865C70.8784 132.631 70.5613 132.5 70.2307 132.5H65.2447C64.9141 132.5 64.5971 132.631 64.3633 132.865C64.1296 133.099 63.9982 133.416 63.9982 133.747C63.9982 134.077 64.1296 134.394 64.3633 134.628C64.5971 134.862 64.9141 134.993 65.2447 134.993H68.9842V138.397L63.2407 148.296L57.2881 138.104C57.1781 137.916 57.0207 137.76 56.8315 137.651C56.6423 137.543 56.428 137.486 56.21 137.486C55.9919 137.487 55.7778 137.544 55.5889 137.653C55.4001 137.762 55.2431 137.919 55.1337 138.107L52.4803 142.681C51.4461 142.262 50.341 142.048 49.2255 142.048C44.4142 142.048 40.5 145.963 40.5 150.774ZM77.2633 144.541C80.6999 144.541 83.4957 147.337 83.4957 150.774C83.4957 154.211 80.6999 157.007 77.2633 157.007C73.8266 157.007 71.0308 154.211 71.0308 150.774C71.0308 148.932 71.8345 147.275 73.1091 146.133L76.187 151.403C76.2694 151.544 76.379 151.668 76.5093 151.767C76.6397 151.866 76.7883 151.939 76.9467 151.98C77.105 152.022 77.27 152.032 77.4323 152.01C77.5945 151.987 77.7507 151.933 77.892 151.85C78.0334 151.768 78.1571 151.658 78.2561 151.528C78.3551 151.398 78.4274 151.249 78.469 151.091C78.5105 150.932 78.5205 150.767 78.4983 150.605C78.4761 150.443 78.4222 150.287 78.3396 150.145L75.2606 144.873C75.9054 144.653 76.582 144.541 77.2633 144.541ZM53.3663 146.121C54.3524 147 55.059 148.186 55.3326 149.528H51.39L53.3663 146.121ZM56.2155 141.211L61.073 149.528H57.8607C57.5362 147.27 56.3444 145.29 54.6349 143.935L56.2155 141.211ZM48.1453 151.396C48.2546 151.586 48.412 151.744 48.6016 151.853C48.7913 151.963 49.0064 152.021 49.2255 152.021H55.3324C54.7534 154.862 52.2353 157.007 49.2255 157.007C45.7888 157.007 42.993 154.211 42.993 150.774C42.993 147.337 45.7888 144.541 49.2255 144.541C49.9197 144.541 50.5871 144.657 51.2112 144.868L48.1472 150.149C48.0373 150.338 47.9792 150.553 47.9789 150.772C47.9786 150.991 48.036 151.206 48.1453 151.396ZM58.7048 134.993C59.0354 134.993 59.3524 134.862 59.5862 134.628C59.82 134.394 59.9513 134.077 59.9513 133.747C59.9513 133.416 59.82 133.099 59.5862 132.865C59.3524 132.631 59.0354 132.5 58.7048 132.5H53.7188C53.3882 132.5 53.0712 132.631 52.8374 132.865C52.6037 133.099 52.4723 133.416 52.4723 133.747C52.4723 134.077 52.6037 134.394 52.8374 134.628C53.0712 134.862 53.3882 134.993 53.7188 134.993H58.7048Z" fill="#1E4C2F"/>
<rect x="28.125" y="111.125" width="69.75" height="69.75" rx="34.875" stroke="#1E4C2F" stroke-width="2.25" shape-rendering="crispEdges"/>
</g>
<path d="M36.8455 234.251C38.4961 234.875 39.7625 236.312 40.4366 237.943C41.1171 239.575 41.2557 241.383 41.1423 243.147C40.9218 246.556 39.164 250.071 37.2235 252.888C34.2434 250.538 33.374 246.222 33.0716 244.004C32.5928 240.501 33.8528 233.88 36.8392 234.258" fill="#1E4C2F"/>
<path d="M40.8205 258.312C40.2724 256.415 40.9654 254.28 42.3704 252.894C43.7754 251.514 45.8041 250.859 47.7761 250.909C48.6896 250.934 49.685 251.148 50.2395 251.873C50.7624 252.547 50.7561 253.524 50.397 254.299C50.0379 255.073 49.3826 255.672 48.6833 256.157C46.2829 257.833 43.6556 259.011 40.8205 258.306" fill="#1E4C2F"/>
<path d="M37.6699 268.891C37.6699 268.891 37.6825 268.639 37.7392 268.192C37.8022 267.7 37.8904 267.058 37.9912 266.289C38.2306 264.701 38.5268 262.427 39.6419 260.178C40.7382 257.935 42.3511 256.246 43.7371 255.377C44.4239 254.936 45.0287 254.659 45.4571 254.514C45.6713 254.432 45.8414 254.394 45.9548 254.363C46.0682 254.331 46.1312 254.318 46.1375 254.331C46.1627 254.388 45.161 254.615 43.8316 255.528C42.5023 256.416 40.9461 258.086 39.8624 260.291C38.7662 262.49 38.4449 264.739 38.1676 266.32C38.0353 267.121 37.9219 267.763 37.8337 268.211C37.7455 268.658 37.6888 268.897 37.6699 268.897V268.891Z" fill="#263238"/>
<path d="M36.3352 239.379C36.3352 239.379 36.3604 239.48 36.3856 239.681C36.4108 239.908 36.4424 240.198 36.4802 240.551C36.5558 241.307 36.6566 242.403 36.7637 243.764C36.9842 246.479 37.2362 250.228 37.4252 254.38C37.6079 258.532 37.6898 262.293 37.715 265.009C37.7276 266.369 37.7276 267.472 37.715 268.234C37.7087 268.593 37.7024 268.883 37.6961 269.11C37.6898 269.312 37.6835 269.413 37.6709 269.419C37.6646 269.419 37.652 269.312 37.6457 269.116C37.6394 268.89 37.6268 268.6 37.6142 268.241C37.5953 267.447 37.5701 266.357 37.5323 265.021C37.463 262.299 37.3559 258.544 37.1732 254.399C36.9905 250.253 36.7637 246.505 36.5873 243.789C36.4991 242.453 36.4298 241.364 36.3793 240.576C36.3604 240.217 36.3415 239.927 36.3289 239.7C36.3226 239.499 36.3226 239.391 36.3289 239.391L36.3352 239.379Z" fill="#263238"/>
<path d="M35.9816 260.618C35.1311 256.548 32.1825 252.975 28.3519 251.362C27.3754 250.953 26.1153 250.713 25.3656 251.463C24.6158 252.213 24.8552 253.479 25.2837 254.45C27.0856 258.482 31.521 261.172 35.9249 260.901" fill="#1E4C2F"/>
<path d="M28.9751 254.557C28.9751 254.557 29.202 254.626 29.5926 254.79C29.7879 254.872 30.0273 254.972 30.2919 255.124C30.5565 255.269 30.8715 255.413 31.1928 255.628C31.5142 255.836 31.8733 256.05 32.2261 256.327C32.5978 256.585 32.9569 256.9 33.335 257.241C34.0721 257.934 34.8218 258.759 35.4771 259.736C36.1197 260.712 36.6048 261.726 36.9513 262.671C37.1088 263.15 37.2664 263.61 37.3546 264.051C37.4743 264.486 37.531 264.902 37.5877 265.28C37.657 265.658 37.657 266.004 37.6885 266.307C37.72 266.609 37.7074 266.867 37.7011 267.082C37.6885 267.51 37.6759 267.743 37.657 267.743C37.6003 267.743 37.657 266.798 37.4113 265.305C37.342 264.933 37.279 264.524 37.1529 264.102C37.0521 263.667 36.8946 263.22 36.7371 262.753C36.3843 261.821 35.9055 260.832 35.2692 259.874C34.6265 258.923 33.8957 258.097 33.1774 257.411C32.812 257.077 32.4592 256.755 32.1001 256.497C31.7599 256.214 31.4071 255.993 31.0983 255.779C29.8257 254.96 28.9499 254.613 28.9751 254.563V254.557Z" fill="#263238"/>
<path d="M227.134 65.0575L227.423 88.4947C227.474 92.4828 226.73 98.3421 220.424 98.1342C214.968 97.542 213.519 92.3757 213.475 88.6585C213.456 86.8944 213.437 85.4202 213.418 85.2437C213.418 85.2437 207.445 84.7586 206.941 78.8552C206.695 76.0012 206.676 70.0915 206.714 64.7425C206.758 58.9966 211.213 54.2525 216.946 53.8304L217.513 53.7863C223.681 53.6981 227.203 58.8832 227.127 65.0575H227.134Z" fill="#FFBE9D"/>
<path d="M213.424 85.2433C213.424 85.2433 217.16 85.1866 220.946 82.4082C220.946 82.4082 219.384 86.8562 213.455 86.7554L213.424 85.2433Z" fill="#EB996E"/>
<path d="M216.806 67.1549C216.926 67.2746 217.606 66.7264 218.595 66.7012C219.585 66.6571 220.322 67.1612 220.429 67.0352C220.479 66.9784 220.36 66.7579 220.038 66.5311C219.723 66.3043 219.181 66.0901 218.57 66.1153C217.953 66.1342 217.442 66.3862 217.153 66.6319C216.857 66.8776 216.756 67.1045 216.819 67.1612L216.806 67.1549Z" fill="#263238"/>
<path d="M217.223 69.4864C217.242 69.9085 217.608 70.2424 218.049 70.2361C218.49 70.2298 218.836 69.877 218.817 69.4549C218.798 69.0328 218.433 68.6989 217.992 68.7052C217.551 68.7115 217.204 69.0643 217.223 69.4864Z" fill="#263238"/>
<path d="M214.331 74.0356C214.331 73.9852 213.757 73.9285 212.838 73.8781C212.604 73.8718 212.384 73.8403 212.333 73.6828C212.264 73.519 212.346 73.2607 212.441 72.9834C212.617 72.4038 212.8 71.8053 212.995 71.169C213.764 68.5858 214.299 66.4689 214.198 66.4437C214.091 66.4122 213.386 68.4787 212.617 71.0618C212.434 71.6982 212.258 72.303 212.088 72.8826C212.018 73.1536 211.892 73.4623 212.031 73.8025C212.107 73.9726 212.283 74.086 212.434 74.1112C212.585 74.1427 212.718 74.1364 212.831 74.1364C213.757 74.1175 214.324 74.0797 214.324 74.0293L214.331 74.0356Z" fill="#263238"/>
<path d="M217.228 63.4438C217.323 63.6643 218.117 63.5005 219.062 63.5446C220.013 63.5761 220.788 63.8029 220.895 63.5887C220.945 63.4879 220.794 63.2863 220.473 63.091C220.152 62.8957 219.654 62.7256 219.087 62.7004C218.52 62.6752 218.009 62.8075 217.676 62.9776C217.342 63.1477 217.178 63.3367 217.222 63.4375L217.228 63.4438Z" fill="#263238"/>
<path d="M207.841 65.2699C207.942 65.4463 208.717 65.251 209.649 65.2195C210.582 65.1754 211.357 65.3077 211.457 65.125C211.502 65.0368 211.344 64.873 211.023 64.7344C210.701 64.5895 210.204 64.4824 209.643 64.5076C209.082 64.5328 208.585 64.6777 208.27 64.8478C207.948 65.0179 207.797 65.188 207.847 65.2762L207.841 65.2699Z" fill="#263238"/>
<path d="M226.969 69.4664C227.064 69.416 230.938 67.9669 231.102 72.0181C231.266 76.0629 227.171 75.395 227.158 75.2816C227.146 75.1682 226.963 69.4664 226.963 69.4664H226.969Z" fill="#FFBE9D"/>
<path d="M228.338 73.694C228.338 73.694 228.413 73.7381 228.533 73.7885C228.653 73.8389 228.854 73.8641 229.062 73.7759C229.484 73.5995 229.818 72.9065 229.806 72.1757C229.806 71.8039 229.711 71.4574 229.566 71.1739C229.428 70.8841 229.232 70.6825 229.012 70.6573C228.798 70.6195 228.646 70.7518 228.602 70.8652C228.552 70.9786 228.583 71.0605 228.558 71.0668C228.545 71.0794 228.47 71.0038 228.495 70.8337C228.508 70.7518 228.552 70.6573 228.646 70.5754C228.741 70.4935 228.879 70.4494 229.031 70.4557C229.346 70.462 229.635 70.7392 229.793 71.0542C229.969 71.3692 230.076 71.7598 230.083 72.1694C230.089 72.9884 229.705 73.7633 229.125 73.9586C228.842 74.0469 228.602 73.9712 228.476 73.8767C228.344 73.7822 228.319 73.694 228.338 73.6814V73.694Z" fill="#EB996E"/>
<path d="M215.289 76.8316C215.245 76.7308 216.039 76.4914 216.593 75.7479C216.87 75.3825 217.034 74.9856 217.154 74.6895C217.273 74.3934 217.362 74.2107 217.406 74.2233C217.45 74.2359 217.437 74.4375 217.374 74.7525C217.305 75.0675 217.166 75.5211 216.851 75.937C216.543 76.3591 216.127 76.6048 215.818 76.7308C215.509 76.8568 215.301 76.8631 215.289 76.8316Z" fill="#263238"/>
<path d="M198.883 59.4432C198.946 59.2038 199.122 59.0085 199.33 58.8825C199.79 58.6116 200.326 58.6431 200.836 58.6368C202.405 58.6116 203.955 58.1327 205.271 57.2885C205.889 56.4001 206.582 55.5622 207.338 54.7873C209.127 52.9413 210.595 51.6875 212.12 51.0764C214.085 50.2825 217.381 49.9612 219.434 50.5031C221.488 51.0386 223.328 52.7082 223.618 54.8125C224.771 53.8422 226.497 53.8485 227.902 54.4092L227.94 54.3966C229.502 54.9511 230.391 56.6018 230.851 58.1957C231.311 59.7897 231.506 61.4908 232.35 62.921C232.527 63.2171 232.734 63.5762 232.583 63.8849C232.464 64.1243 232.161 64.2251 231.896 64.1873C231.632 64.1495 231.399 64.0046 231.172 63.8597C231.348 64.2755 231.518 64.6914 231.695 65.1135C231.128 65.2143 230.542 65.1639 229.994 65.0001C229.66 66.4869 229.269 68.188 228.885 69.1961C228.23 69.1961 227.637 69.2402 227.234 69.6056C226.686 70.097 226.44 71.0232 225.533 70.6704C225.073 70.4939 224.651 69.5237 224.494 69.0512C223.467 65.9262 223.126 62.5745 223.498 59.3046C222.849 58.6179 222.068 58.0508 221.211 57.6539L221.28 57.7169C219.63 57.1436 217.765 56.5829 216.202 57.3578C214.986 57.9563 214.275 59.2164 213.367 60.2244C211.647 62.1271 209.329 63.1604 206.765 63.2738C206.676 64.9371 206.815 67.2808 206.727 68.9441L205.328 66.2853V66.2979C205.215 66.1026 205.12 65.9073 205.026 65.712L204.994 65.6553C204.849 65.334 204.711 65.0127 204.528 64.704C204.528 64.704 204.515 64.7166 204.509 64.7166C203.608 65.5104 202.285 64.2944 202.991 63.3305C203.129 63.1415 203.299 62.9651 203.495 62.8265C203.085 63.2108 202.468 63.3998 201.932 63.2297C201.39 63.0659 200.975 62.5177 201.019 61.957C201.05 61.5727 201.327 61.2325 201.674 61.0813C200.949 61.138 200.206 60.9805 199.57 60.6151C199.154 60.3756 198.744 59.985 198.889 59.4684L198.883 59.4432Z" fill="#263238"/>
<path d="M221.766 55.4868C221.766 55.4868 222.011 55.6443 222.358 56.0286C222.698 56.4129 223.082 57.0808 223.265 57.988C223.36 58.4416 223.416 58.9456 223.416 59.4875C223.416 60.0293 223.372 60.6152 223.334 61.2264C223.297 61.8375 223.253 62.4864 223.29 63.1606C223.309 63.4945 223.353 63.841 223.423 64.1812C223.498 64.5151 223.586 64.8805 223.838 65.1704C224.04 65.4035 224.38 65.5106 224.67 65.4476C224.966 65.3972 225.225 65.2397 225.42 65.0254C225.798 64.5844 225.892 64.0174 225.987 63.526L225.861 63.5386C226.062 63.9859 226.27 64.4206 226.579 64.7734C226.881 65.1263 227.304 65.3594 227.726 65.3972C227.94 65.4161 228.154 65.3846 228.337 65.2901C228.526 65.2019 228.658 65.0444 228.753 64.8805C228.841 64.7167 228.885 64.534 228.879 64.3576C228.866 64.1812 228.803 64.0174 228.69 63.8977L228.627 63.9544C229.08 64.471 229.559 64.7482 229.893 64.9057C230.063 64.9813 230.195 65.0317 230.284 65.057C230.378 65.0822 230.422 65.0948 230.422 65.0948C230.422 65.0948 230.378 65.0696 230.29 65.0381C230.202 65.0002 230.069 64.9498 229.912 64.8679C229.591 64.7041 229.124 64.4143 228.69 63.904L228.627 63.9607C228.822 64.1686 228.835 64.5403 228.664 64.8364C228.576 64.9813 228.457 65.12 228.293 65.1956C228.129 65.2775 227.934 65.3027 227.738 65.2838C227.348 65.246 226.957 65.0254 226.674 64.6915C226.384 64.3576 226.182 63.9292 225.981 63.4819L225.899 63.2929L225.861 63.4945C225.766 63.9922 225.666 64.5277 225.319 64.9309C225.149 65.12 224.909 65.2649 224.651 65.309C224.393 65.3594 224.122 65.2712 223.946 65.0695C223.725 64.8175 223.631 64.471 223.561 64.1434C223.492 63.8095 223.448 63.4756 223.429 63.1417C223.391 62.4801 223.429 61.8375 223.467 61.2201C223.505 60.6089 223.542 60.023 223.536 59.4749C223.536 58.9267 223.467 58.4101 223.366 57.9565C223.171 57.0366 222.767 56.3625 222.402 55.9845C222.037 55.6065 221.772 55.4805 221.772 55.4805L221.766 55.4868Z" fill="#1E4C2F"/>
<path d="M203.508 61.2333C203.508 61.2333 203.52 61.2459 203.558 61.2711C203.596 61.3026 203.646 61.3341 203.703 61.3782C203.766 61.4286 203.848 61.4853 203.955 61.5357C204.056 61.5924 204.176 61.668 204.314 61.7247C204.862 61.983 205.744 62.2413 206.841 62.1783C207.931 62.1153 209.235 61.731 210.4 60.8615C211.579 60.011 212.612 58.7635 213.462 57.3334C213.891 56.6214 214.244 55.8843 214.628 55.2102C215.012 54.536 215.434 53.906 215.945 53.4146C216.449 52.9168 217.041 52.5514 217.646 52.3813C217.948 52.2931 218.251 52.2742 218.54 52.2805C218.83 52.2931 219.107 52.3561 219.359 52.438C219.87 52.6081 220.279 52.8916 220.588 53.1815C220.903 53.4713 221.111 53.78 221.256 54.0446C221.527 54.5864 221.539 54.9329 221.558 54.9266C221.558 54.9266 221.558 54.9077 221.558 54.8636C221.552 54.8132 221.539 54.7565 221.533 54.6809C221.502 54.5234 221.439 54.2966 221.306 54.0131C221.168 53.7422 220.96 53.4209 220.645 53.1185C220.33 52.816 219.914 52.5262 219.391 52.3435C219.133 52.2553 218.843 52.1923 218.547 52.1734C218.244 52.1608 217.929 52.1797 217.614 52.2742C216.984 52.4443 216.379 52.8223 215.856 53.3264C215.327 53.8304 214.899 54.4667 214.508 55.1472C214.118 55.8276 213.765 56.5584 213.343 57.2704C212.505 58.6879 211.484 59.9228 210.325 60.767C209.178 61.6302 207.905 62.0145 206.834 62.0901C205.751 62.1657 204.888 61.9263 204.339 61.6869C203.785 61.4412 203.527 61.2207 203.514 61.2396L203.508 61.2333Z" fill="#1E4C2F"/>
<path d="M202.972 58.6367C202.972 58.6367 203.041 58.6997 203.186 58.7816C203.324 58.8698 203.539 58.9832 203.81 59.1029C204.08 59.2226 204.421 59.3361 204.799 59.4306C205.183 59.5188 205.611 59.5818 206.065 59.6007C206.519 59.6133 206.953 59.5755 207.344 59.5125C207.735 59.4432 208.075 59.355 208.352 59.2479C208.629 59.147 208.85 59.0525 208.995 58.9706C209.14 58.895 209.221 58.8446 209.215 58.8383C209.203 58.8131 208.875 58.9832 208.321 59.1596C208.043 59.2479 207.703 59.3298 207.319 59.3865C206.934 59.4432 206.512 59.4747 206.065 59.4621C205.618 59.4432 205.196 59.3865 204.818 59.3109C204.44 59.2226 204.106 59.1281 203.835 59.021C203.287 58.8131 202.972 58.6241 202.959 58.643L202.972 58.6367Z" fill="#1E4C2F"/>
<path d="M207.797 67.526C207.917 67.6457 208.597 67.0975 209.586 67.0723C210.575 67.0282 211.312 67.5323 211.413 67.4062C211.464 67.3495 211.344 67.129 211.023 66.9022C210.708 66.6754 210.166 66.4612 209.555 66.4864C208.937 66.5053 208.427 66.7573 208.137 67.003C207.841 67.2487 207.74 67.4756 207.803 67.5323L207.797 67.526Z" fill="#263238"/>
<path d="M208.428 69.4864C208.447 69.9085 208.813 70.2424 209.254 70.2361C209.695 70.2298 210.041 69.877 210.022 69.4549C210.01 69.0328 209.638 68.6989 209.197 68.7052C208.756 68.7115 208.41 69.0643 208.428 69.4864Z" fill="#263238"/>
<path d="M194.069 203.342C192.853 204.992 195.89 222.325 198.114 220.428L195.839 224.07L187.403 224.775L181.645 207.235L194.075 203.348L194.069 203.342Z" fill="#FFBE9D"/>
<path d="M203.689 146.664C203.689 146.664 172.61 164.469 171.016 172.571C171.016 172.571 169.718 176.099 171.179 180.881C172.641 185.663 184.486 219.88 184.486 219.88L196.904 215.76L194.768 202.56L189.91 183.004L188.449 181.013C188.449 181.013 190.043 181.013 191.372 180.22C192.701 179.426 212.78 167.153 212.78 167.153L217.802 151.534L203.702 146.664H203.689Z" fill="#263238"/>
<path d="M186.943 223.855L187.151 224.56C187.151 224.56 176.674 232.915 177.222 235.214L200.836 228L198.114 220.238C195.102 222.935 191.48 224.245 186.937 223.855H186.943Z" fill="#FC8838"/>
<g opacity="0.6">
<path d="M200.841 227.994L200.186 226.129L177.788 233.727C177.788 233.727 176.875 234.508 177.221 235.208L200.835 227.994H200.841Z" fill="white"/>
</g>
<path d="M187.093 224.648C187.131 224.761 187.723 224.635 188.404 224.837C189.09 225.02 189.532 225.429 189.626 225.347C189.727 225.291 189.342 224.654 188.517 224.434C187.692 224.201 187.037 224.553 187.093 224.648Z" fill="#263238"/>
<path d="M184.926 226.426C184.932 226.546 185.493 226.59 186.035 226.955C186.589 227.308 186.847 227.806 186.961 227.762C187.074 227.749 186.948 227.05 186.268 226.602C185.594 226.149 184.901 226.313 184.932 226.42L184.926 226.426Z" fill="#263238"/>
<path d="M184.422 229.822C184.536 229.815 184.517 229.192 184.032 228.65C183.547 228.108 182.929 228.02 182.91 228.133C182.873 228.247 183.326 228.48 183.723 228.927C184.126 229.368 184.309 229.847 184.429 229.822H184.422Z" fill="#263238"/>
<path d="M181.41 175.936C181.423 175.904 181.927 176.037 182.695 176.377C183.464 176.717 184.485 177.291 185.499 178.091C186.507 178.891 187.301 179.754 187.811 180.422C188.322 181.09 188.567 181.55 188.542 181.568C188.467 181.631 187.314 179.886 185.316 178.324C183.332 176.742 181.372 176.024 181.416 175.93L181.41 175.936Z" fill="#1E4C2F"/>
<path d="M183.434 172.578C183.434 172.578 183.9 172.931 184.524 173.637C185.147 174.342 185.929 175.382 186.628 176.642C187.321 177.902 187.793 179.118 188.058 180.019C188.323 180.92 188.411 181.493 188.379 181.499C188.335 181.512 188.171 180.958 187.856 180.082C187.541 179.206 187.05 178.022 186.363 176.787C185.677 175.552 184.933 174.506 184.36 173.775C183.786 173.044 183.402 172.616 183.44 172.578H183.434Z" fill="#1E4C2F"/>
<g opacity="0.3">
<path d="M212.654 165.906C212.478 165.383 212.175 164.904 212.018 164.375C211.867 163.871 211.841 163.317 211.552 162.876C211.243 162.416 210.701 162.176 210.185 161.968C207.456 160.872 204.684 159.895 201.868 159.045L199.846 160.242C199.928 161.628 200.784 162.876 201.874 163.732C202.964 164.589 204.281 165.106 205.585 165.559C206.896 166.013 208.231 166.423 209.435 167.109C209.92 167.387 210.392 167.708 210.934 167.853C211.476 167.998 212.125 167.916 212.484 167.487C212.843 167.065 212.818 166.435 212.642 165.906H212.654Z" fill="black"/>
</g>
<path d="M218.804 176.27L223.069 162.006H219.327L215.66 175.413L218.804 176.27Z" fill="#E0E0E0"/>
<path d="M262.668 225.003C262.586 224.978 265.056 216.46 268.174 205.976C271.299 195.486 273.895 187.006 273.977 187.031C274.059 187.057 271.589 195.575 268.471 206.065C265.346 216.548 262.75 225.029 262.674 225.01L262.668 225.003Z" fill="#263238"/>
<path d="M262.667 225.003C262.585 224.991 263.618 216.183 264.979 205.328C266.34 194.472 267.512 185.677 267.594 185.689C267.675 185.702 266.642 194.51 265.281 205.365C263.92 216.221 262.749 225.016 262.667 225.003Z" fill="#263238"/>
<path d="M262.668 225.003C262.586 225.003 262.044 216.152 261.465 205.227C260.879 194.296 260.476 185.438 260.557 185.438C260.639 185.438 261.181 194.283 261.767 205.214C262.347 216.139 262.756 224.997 262.674 225.003H262.668Z" fill="#263238"/>
<path d="M262.666 225.004C262.584 225.023 260.568 216.385 258.168 205.712C255.767 195.033 253.884 186.37 253.965 186.352C254.047 186.333 256.057 194.97 258.464 205.649C260.864 216.322 262.748 224.991 262.666 225.01V225.004Z" fill="#263238"/>
<path d="M262.668 225.003C262.592 225.034 259.158 216.857 255.006 206.732C250.854 196.607 247.547 188.379 247.622 188.348C247.698 188.316 251.132 196.494 255.284 206.619C259.435 216.737 262.743 224.971 262.668 225.003Z" fill="#263238"/>
<path d="M262.667 225.004C262.598 225.048 257.847 217.557 252.057 208.27C246.267 198.984 241.63 191.423 241.706 191.379C241.775 191.335 246.526 198.826 252.316 208.113C258.106 217.393 262.736 224.96 262.667 225.004Z" fill="#263238"/>
<path d="M262.667 225.003C262.604 225.059 256.669 218.469 249.411 210.285C242.147 202.095 236.313 195.416 236.376 195.36C236.439 195.303 242.373 201.893 249.638 210.084C256.896 218.268 262.73 224.952 262.667 225.003Z" fill="#263238"/>
<path d="M262.668 225.003C262.617 225.066 255.662 219.56 247.131 212.712C238.6 205.857 231.733 200.243 231.783 200.18C231.834 200.117 238.789 205.617 247.32 212.478C255.844 219.333 262.718 224.947 262.661 225.01L262.668 225.003Z" fill="#263238"/>
<path d="M262.667 225.003C262.63 225.079 254.849 220.814 245.298 215.477C235.74 210.141 228.028 205.762 228.072 205.687C228.11 205.611 235.891 209.876 245.449 215.213C255 220.543 262.712 224.928 262.674 225.003H262.667Z" fill="#263238"/>
<path d="M262.668 225.003C262.643 225.079 254.257 222.18 243.95 218.52C233.636 214.859 225.301 211.829 225.332 211.753C225.357 211.678 233.743 214.576 244.057 218.236C254.364 221.897 262.706 224.927 262.674 225.003H262.668Z" fill="#263238"/>
<path d="M262.668 225.004C262.655 225.086 253.904 223.625 243.124 221.741C232.344 219.857 223.618 218.263 223.631 218.181C223.643 218.099 232.395 219.561 243.174 221.445C253.948 223.328 262.68 224.922 262.661 225.004H262.668Z" fill="#263238"/>
<path d="M262.667 225.003C262.667 225.085 253.796 225.11 242.859 225.054C231.915 224.997 223.044 224.89 223.051 224.802C223.051 224.72 231.922 224.695 242.865 224.751C253.803 224.808 262.673 224.915 262.673 225.003H262.667Z" fill="#263238"/>
<path d="M262.668 225.003C262.681 225.085 253.942 226.591 243.143 228.368C232.345 230.145 223.581 231.518 223.568 231.436C223.556 231.354 232.294 229.848 243.093 228.072C253.885 226.295 262.649 224.922 262.662 225.003H262.668Z" fill="#263238"/>
<path d="M262.668 225.003C262.693 225.085 254.326 228.034 243.981 231.587C233.63 235.147 225.225 237.963 225.193 237.888C225.168 237.806 233.529 234.863 243.88 231.304C254.225 227.744 262.636 224.928 262.661 225.003H262.668Z" fill="#263238"/>
<path d="M262.667 225.003C262.705 225.079 254.949 229.382 245.347 234.618C235.739 239.86 227.921 244.043 227.883 243.967C227.845 243.892 235.595 239.589 245.203 234.347C254.804 229.111 262.629 224.921 262.667 224.997V225.003Z" fill="#263238"/>
<path d="M262.667 225.004C262.717 225.067 255.793 230.612 247.2 237.385C238.606 244.157 231.594 249.595 231.543 249.525C231.493 249.462 238.417 243.918 247.011 237.145C255.604 230.372 262.61 224.941 262.667 225.004Z" fill="#263238"/>
<path d="M262.668 225.004C262.731 225.061 256.828 231.683 249.488 239.797C242.148 247.912 236.144 254.446 236.081 254.389C236.018 254.332 241.921 247.711 249.261 239.596C256.601 231.481 262.599 224.954 262.662 225.004H262.668Z" fill="#263238"/>
<path d="M262.667 225.004C262.736 225.048 258.03 232.564 252.145 241.794C246.267 251.024 241.441 258.465 241.372 258.421C241.303 258.377 246.009 250.861 251.893 241.631C257.772 232.407 262.598 224.96 262.667 225.004Z" fill="#263238"/>
<path d="M262.667 225.004C262.743 225.036 259.36 233.239 255.107 243.313C250.854 253.394 247.345 261.54 247.263 261.508C247.187 261.477 250.571 253.28 254.823 243.193C259.076 233.113 262.585 224.967 262.667 224.998V225.004Z" fill="#263238"/>
<path d="M262.667 225.004C262.749 225.023 260.783 233.673 258.276 244.321C255.768 254.975 253.67 263.587 253.588 263.568C253.507 263.549 255.472 254.899 257.98 244.251C260.487 233.604 262.585 224.985 262.667 225.004Z" fill="#263238"/>
<path d="M262.666 225.004C262.748 225.004 262.257 233.868 261.564 244.787C260.871 255.705 260.247 264.557 260.165 264.551C260.083 264.551 260.575 255.693 261.268 244.768C261.961 233.85 262.584 225.004 262.666 225.01V225.004Z" fill="#263238"/>
<path d="M262.668 225.004C262.749 224.998 263.745 233.812 264.892 244.687C266.038 255.567 266.901 264.394 266.813 264.407C266.731 264.413 265.736 255.605 264.589 244.718C263.442 233.837 262.586 225.011 262.668 224.998V225.004Z" fill="#263238"/>
<path d="M262.668 225.004C262.75 224.979 265.207 233.503 268.156 244.037C271.104 254.578 273.429 263.133 273.353 263.159C273.271 263.184 270.814 254.66 267.866 244.119C264.917 233.585 262.592 225.023 262.674 225.004H262.668Z" fill="#263238"/>
<path d="M262.668 225.004C262.744 224.966 266.593 232.961 271.262 242.853C275.93 252.751 279.66 260.796 279.584 260.834C279.509 260.872 275.659 252.877 270.991 242.985C266.322 233.094 262.599 225.042 262.674 225.004H262.668Z" fill="#263238"/>
<path d="M262.667 225.004C262.736 224.954 267.864 232.193 274.127 241.164C280.39 250.142 285.405 257.451 285.335 257.501C285.266 257.552 280.138 250.313 273.875 241.341C267.619 232.369 262.597 225.055 262.667 225.004Z" fill="#263238"/>
<path d="M262.666 225.004C262.723 224.948 268.992 231.223 276.666 239.022C284.339 246.822 290.507 253.192 290.451 253.255C290.394 253.312 284.125 247.036 276.451 239.237C268.778 231.437 262.61 225.067 262.666 225.011V225.004Z" fill="#263238"/>
<path d="M262.666 225.003C262.717 224.933 269.943 230.074 278.814 236.482C287.685 242.889 294.836 248.137 294.785 248.207C294.735 248.276 287.508 243.135 278.638 236.728C269.767 230.32 262.622 225.072 262.666 225.003Z" fill="#263238"/>
<path d="M262.668 225.003C262.706 224.927 270.695 228.783 280.504 233.616C290.32 238.448 298.246 242.43 298.214 242.505C298.177 242.581 290.194 238.725 280.372 233.886C270.556 229.054 262.63 225.072 262.668 225.003Z" fill="#263238"/>
<path d="M262.666 225.004C262.692 224.922 271.21 227.392 281.693 230.51C292.183 233.635 300.664 236.231 300.638 236.313C300.613 236.395 292.095 233.925 281.605 230.8C271.122 227.675 262.641 225.08 262.66 225.004H262.666Z" fill="#263238"/>
<path d="M262.668 225.003C262.681 224.921 271.488 225.929 282.35 227.252C293.212 228.575 302.007 229.722 302.001 229.804C301.988 229.885 293.18 228.877 282.319 227.554C271.457 226.231 262.662 225.085 262.674 225.003H262.668Z" fill="#263238"/>
<path d="M262.668 225.003C262.668 224.921 271.52 224.436 282.451 223.926C293.382 223.415 302.247 223.069 302.247 223.151C302.247 223.233 293.395 223.718 282.464 224.228C271.539 224.738 262.674 225.085 262.668 225.003Z" fill="#263238"/>
<path d="M262.668 225.004C262.649 224.922 271.299 222.969 281.991 220.638C292.683 218.306 301.365 216.479 301.377 216.561C301.396 216.643 292.746 218.596 282.054 220.934C271.369 223.265 262.687 225.086 262.668 225.01V225.004Z" fill="#263238"/>
<path d="M262.668 225.004C262.637 224.928 270.84 221.551 280.989 217.463C291.139 213.374 299.393 210.123 299.424 210.205C299.456 210.287 291.253 213.657 281.103 217.746C270.953 221.835 262.7 225.08 262.668 225.004Z" fill="#263238"/>
<path d="M262.666 225.003C262.622 224.934 270.145 220.233 279.469 214.507C288.794 208.78 296.385 204.193 296.43 204.268C296.474 204.338 288.951 209.038 279.627 214.765C270.302 220.492 262.71 225.078 262.666 225.003Z" fill="#263238"/>
<path d="M262.666 225.003C262.61 224.94 269.244 219.049 277.472 211.841C285.707 204.634 292.423 198.844 292.48 198.907C292.536 198.97 285.908 204.861 277.668 212.068C269.433 219.276 262.717 225.066 262.66 225.003H262.666Z" fill="#263238"/>
<path d="M262.667 225.003C262.604 224.953 268.154 218.029 275.066 209.549C281.977 201.069 287.635 194.233 287.698 194.289C287.761 194.34 282.21 201.258 275.299 209.744C268.387 218.224 262.73 225.06 262.667 225.003Z" fill="#263238"/>
<path d="M262.667 225.004C262.591 224.96 266.913 217.211 272.306 207.697C277.706 198.178 282.135 190.497 282.211 190.535C282.286 190.579 277.97 198.322 272.571 207.842C267.178 217.356 262.743 225.042 262.667 224.998V225.004Z" fill="#263238"/>
<path d="M209.539 236.056C211.967 230.117 209.122 223.334 203.183 220.906C197.244 218.477 190.46 221.323 188.032 227.262C185.603 233.201 188.449 239.984 194.388 242.413C200.327 244.841 207.11 241.995 209.539 236.056Z" fill="#263238"/>
<path d="M116.961 225.003C116.879 224.978 119.349 216.46 122.467 205.976C125.592 195.486 128.188 187.006 128.27 187.031C128.352 187.057 125.882 195.575 122.757 206.065C119.632 216.548 117.037 225.029 116.961 225.01V225.003Z" fill="#263238"/>
<path d="M116.96 225.003C116.878 224.991 117.911 216.183 119.272 205.328C120.633 194.472 121.805 185.677 121.886 185.689C121.968 185.702 120.935 194.51 119.574 205.365C118.213 216.221 117.042 225.016 116.96 225.003Z" fill="#263238"/>
<path d="M116.961 225.003C116.879 225.003 116.337 216.152 115.758 205.227C115.172 194.296 114.769 185.438 114.85 185.438C114.932 185.438 115.474 194.283 116.054 205.214C116.64 216.139 117.043 224.997 116.961 225.003Z" fill="#263238"/>
<path d="M116.959 225.004C116.877 225.023 114.861 216.385 112.461 205.712C110.06 195.033 108.177 186.37 108.258 186.352C108.34 186.333 110.35 194.97 112.757 205.649C115.157 216.322 117.041 224.991 116.959 225.01V225.004Z" fill="#263238"/>
<path d="M116.96 225.003C116.885 225.034 113.451 216.857 109.299 206.732C105.147 196.607 101.84 188.379 101.915 188.348C101.991 188.316 105.425 196.494 109.577 206.619C113.728 216.737 117.036 224.971 116.96 225.003Z" fill="#263238"/>
<path d="M116.96 225.004C116.891 225.048 112.14 217.557 106.35 208.27C100.56 198.984 95.9234 191.423 95.999 191.379C96.0683 191.335 100.819 198.826 106.609 208.113C112.399 217.393 117.029 224.96 116.96 225.004Z" fill="#263238"/>
<path d="M116.96 225.003C116.897 225.059 110.962 218.469 103.704 210.285C96.4396 202.095 90.6055 195.416 90.6685 195.36C90.7315 195.303 96.6664 201.893 103.931 210.084C111.189 218.268 117.023 224.952 116.96 225.003Z" fill="#263238"/>
<path d="M116.961 225.003C116.91 225.066 109.955 219.56 101.424 212.712C92.8934 205.857 86.026 200.243 86.0764 200.18C86.1269 200.117 93.0824 205.617 101.613 212.478C110.137 219.333 117.011 224.947 116.954 225.01L116.961 225.003Z" fill="#263238"/>
<path d="M116.96 225.003C116.923 225.079 109.142 220.814 99.5905 215.477C90.0329 210.141 82.3213 205.762 82.3654 205.687C82.4032 205.611 90.1841 209.876 99.7354 215.213C109.287 220.543 116.998 224.928 116.96 225.003Z" fill="#263238"/>
<path d="M116.961 225.003C116.936 225.079 108.55 222.18 98.2425 218.52C87.9289 214.859 79.5936 211.829 79.6251 211.753C79.6503 211.678 88.036 214.576 98.3496 218.236C108.657 221.897 116.999 224.927 116.967 225.003H116.961Z" fill="#263238"/>
<path d="M116.961 225.004C116.948 225.086 108.197 223.625 97.417 221.741C86.6372 219.857 77.9112 218.263 77.9238 218.181C77.9364 218.099 86.6876 219.561 97.4674 221.445C108.241 223.328 116.973 224.922 116.954 225.004H116.961Z" fill="#263238"/>
<path d="M116.96 225.003C116.96 225.085 108.089 225.11 97.1519 225.054C86.2083 224.997 77.3438 224.89 77.3438 224.802C77.3438 224.72 86.2146 224.695 97.1582 224.751C108.096 224.808 116.966 224.915 116.966 225.003H116.96Z" fill="#263238"/>
<path d="M116.961 225.003C116.974 225.085 108.235 226.591 97.4364 228.368C86.6377 230.145 77.8739 231.518 77.8613 231.436C77.8487 231.354 86.5873 229.848 97.386 228.072C108.178 226.295 116.942 224.922 116.961 225.003Z" fill="#263238"/>
<path d="M116.96 225.003C116.985 225.085 108.619 228.034 98.2735 231.587C87.9221 235.147 79.5174 237.963 79.4922 237.888C79.467 237.806 87.8276 234.863 98.179 231.304C108.524 227.744 116.935 224.928 116.96 225.003Z" fill="#263238"/>
<path d="M116.96 225.003C116.998 225.079 109.242 229.382 99.6404 234.618C90.0324 239.86 82.2137 244.043 82.1759 243.967C82.1381 243.892 89.8875 239.589 99.4955 234.347C109.097 229.111 116.922 224.921 116.96 224.997V225.003Z" fill="#263238"/>
<path d="M116.96 225.004C117.01 225.067 110.086 230.612 101.492 237.385C92.8989 244.157 85.8866 249.595 85.8362 249.525C85.7858 249.462 92.7098 243.918 101.303 237.145C109.897 230.372 116.903 224.941 116.96 225.004Z" fill="#263238"/>
<path d="M116.961 225.004C117.024 225.061 111.12 231.683 103.781 239.797C96.4408 247.912 90.4365 254.446 90.3735 254.389C90.3105 254.332 96.2139 247.711 103.554 239.596C110.894 231.481 116.892 224.954 116.955 225.004H116.961Z" fill="#263238"/>
<path d="M116.959 225.004C117.029 225.048 112.322 232.564 106.444 241.794C100.566 251.024 95.74 258.465 95.6707 258.421C95.6014 258.377 100.308 250.861 106.192 241.631C112.07 232.407 116.896 224.96 116.966 225.004H116.959Z" fill="#263238"/>
<path d="M116.96 225.004C117.036 225.036 113.653 233.239 109.4 243.313C105.147 253.394 101.638 261.54 101.556 261.508C101.48 261.477 104.864 253.28 109.116 243.193C113.369 233.113 116.878 224.967 116.96 224.998V225.004Z" fill="#263238"/>
<path d="M116.96 225.004C117.042 225.023 115.076 233.673 112.569 244.321C110.061 254.975 107.963 263.587 107.881 263.568C107.799 263.549 109.765 254.899 112.273 244.251C114.78 233.604 116.878 224.985 116.96 225.004Z" fill="#263238"/>
<path d="M116.959 225.004C117.041 225.004 116.55 233.868 115.857 244.787C115.164 255.705 114.54 264.557 114.458 264.551C114.376 264.551 114.868 255.693 115.561 244.768C116.254 233.85 116.877 225.004 116.959 225.01V225.004Z" fill="#263238"/>
<path d="M116.959 225.004C117.041 224.998 118.037 233.812 119.183 244.687C120.33 255.567 121.193 264.394 121.105 264.407C121.023 264.413 120.028 255.605 118.881 244.718C117.734 233.837 116.871 225.011 116.959 224.998V225.004Z" fill="#263238"/>
<path d="M116.961 225.004C117.043 224.979 119.5 233.503 122.448 244.037C125.397 254.578 127.722 263.133 127.646 263.159C127.564 263.184 125.107 254.66 122.159 244.119C119.21 233.585 116.885 225.023 116.961 225.004Z" fill="#263238"/>
<path d="M116.961 225.004C117.037 224.966 120.886 232.961 125.555 242.853C130.223 252.751 133.953 260.796 133.877 260.834C133.802 260.872 129.952 252.877 125.284 242.985C120.615 233.094 116.892 225.042 116.967 225.004H116.961Z" fill="#263238"/>
<path d="M116.96 225.004C117.029 224.954 122.157 232.193 128.42 241.164C134.682 250.142 139.698 257.451 139.628 257.501C139.559 257.552 134.43 250.313 128.168 241.341C121.912 232.369 116.89 225.055 116.96 225.004Z" fill="#263238"/>
<path d="M116.959 225.004C117.016 224.948 123.285 231.223 130.959 239.022C138.632 246.822 144.8 253.192 144.744 253.255C144.687 253.312 138.418 247.036 130.744 239.237C123.071 231.437 116.903 225.067 116.959 225.011V225.004Z" fill="#263238"/>
<path d="M116.959 225.003C117.01 224.933 124.236 230.074 133.107 236.482C141.978 242.889 149.129 248.137 149.078 248.207C149.028 248.276 141.801 243.135 132.93 236.728C124.066 230.32 116.915 225.072 116.959 225.003Z" fill="#263238"/>
<path d="M116.961 225.003C116.999 224.927 124.988 228.783 134.803 233.616C144.619 238.448 152.545 242.43 152.514 242.505C152.476 242.581 144.493 238.725 134.671 233.886C124.855 229.054 116.929 225.072 116.967 225.003H116.961Z" fill="#263238"/>
<path d="M116.959 225.004C116.985 224.922 125.503 227.392 135.986 230.51C146.476 233.635 154.957 236.231 154.931 236.313C154.906 236.395 146.388 233.925 135.898 230.8C125.414 227.675 116.934 225.08 116.953 225.004H116.959Z" fill="#263238"/>
<path d="M116.961 225.003C116.974 224.921 125.781 225.929 136.643 227.252C147.505 228.575 156.3 229.722 156.294 229.804C156.281 229.885 147.473 228.877 136.612 227.554C125.75 226.231 116.955 225.085 116.967 225.003H116.961Z" fill="#263238"/>
<path d="M116.961 225.003C116.961 224.921 125.813 224.436 136.744 223.926C147.675 223.415 156.54 223.069 156.54 223.151C156.54 223.233 147.688 223.718 136.757 224.228C125.832 224.738 116.967 225.085 116.961 225.003Z" fill="#263238"/>
<path d="M116.961 225.004C116.942 224.922 125.592 222.969 136.284 220.638C146.976 218.306 155.658 216.479 155.676 216.561C155.695 216.643 147.045 218.596 136.353 220.934C125.662 223.265 116.986 225.086 116.967 225.01L116.961 225.004Z" fill="#263238"/>
<path d="M116.961 225.004C116.93 224.928 125.133 221.551 135.282 217.463C145.432 213.374 153.686 210.123 153.717 210.205C153.749 210.287 145.546 213.657 135.396 217.746C125.246 221.835 116.993 225.08 116.961 225.004Z" fill="#263238"/>
<path d="M116.959 225.003C116.915 224.934 124.438 220.233 133.762 214.507C143.087 208.78 150.678 204.193 150.723 204.268C150.767 204.338 143.244 209.038 133.92 214.765C124.595 220.492 117.003 225.078 116.959 225.003Z" fill="#263238"/>
<path d="M116.959 225.003C116.903 224.94 123.537 219.049 131.765 211.841C140 204.634 146.716 198.844 146.773 198.907C146.829 198.97 140.201 204.861 131.96 212.068C123.726 219.276 117.01 225.066 116.953 225.003H116.959Z" fill="#263238"/>
<path d="M116.96 225.003C116.897 224.953 122.447 218.029 129.359 209.549C136.27 201.069 141.928 194.233 141.991 194.289C142.054 194.34 136.503 201.258 129.592 209.744C122.68 218.224 117.023 225.06 116.96 225.003Z" fill="#263238"/>
<path d="M116.96 225.004C116.884 224.96 121.206 217.211 126.599 207.697C131.999 198.178 136.428 190.497 136.504 190.535C136.579 190.579 132.263 198.322 126.864 207.842C121.471 217.356 117.036 225.042 116.96 224.998V225.004Z" fill="#263238"/>
<path d="M71.9629 225.003C71.9629 249.851 92.1113 270 116.96 270C141.808 270 161.957 249.851 161.957 225.003C161.957 200.154 141.808 180.006 116.96 180.006C92.1113 180.006 71.9629 200.154 71.9629 225.003ZM75.762 225.003C75.762 202.252 94.2093 183.805 116.96 183.805C139.71 183.805 158.158 202.252 158.158 225.003C158.158 247.753 139.71 266.2 116.96 266.2C94.2093 266.2 75.762 247.753 75.762 225.003Z" fill="#263238"/>
<path d="M75.7617 225.002C75.7617 247.753 94.209 266.2 116.959 266.2C139.71 266.2 158.157 247.753 158.157 225.002C158.157 202.252 139.71 183.805 116.959 183.805C94.209 183.805 75.7617 202.252 75.7617 225.002ZM77.3431 225.002C77.3431 203.121 95.0785 185.386 116.959 185.386C138.84 185.386 156.576 203.121 156.576 225.002C156.576 246.883 138.84 264.619 116.959 264.619C95.0785 264.619 77.3431 246.883 77.3431 225.002Z" fill="#E0E0E0"/>
<path d="M217.67 225.003C217.67 249.851 237.818 270 262.667 270C287.515 270 307.664 249.851 307.664 225.003C307.664 200.154 287.515 180.006 262.667 180.006C237.818 180.006 217.67 200.154 217.67 225.003ZM221.469 225.003C221.469 202.252 239.916 183.805 262.667 183.805C285.417 183.805 303.865 202.252 303.865 225.003C303.865 247.753 285.417 266.2 262.667 266.2C239.916 266.2 221.469 247.753 221.469 225.003Z" fill="#263238"/>
<path d="M221.469 225.002C221.469 247.753 239.916 266.2 262.667 266.2C285.417 266.2 303.864 247.753 303.864 225.002C303.864 202.252 285.417 183.805 262.667 183.805C239.916 183.805 221.469 202.252 221.469 225.002ZM223.05 225.002C223.05 203.121 240.786 185.386 262.667 185.386C284.548 185.386 302.283 203.121 302.283 225.002C302.283 246.883 284.548 264.619 262.667 264.619C240.786 264.619 223.05 246.883 223.05 225.002Z" fill="#E0E0E0"/>
<path d="M243.937 221.594H241.379V228.934H243.937V221.594Z" fill="#1E4C2F"/>
<path d="M202.09 234.63L191.058 248.295L189.055 247.804L200.087 232.859L202.09 234.63Z" fill="#263238"/>
<path d="M184.038 250.558L195.436 250.572L195.439 247.359L184.042 247.345L184.038 250.558Z" fill="#263238"/>
<path d="M216.394 179.379L215.176 180.637L261.369 225.385L262.588 224.127L216.394 179.379Z" fill="#1E4C2F"/>
<path d="M311.243 213.789C311.243 213.789 301.264 176.201 263.972 176.201C226.68 176.201 213.33 205.649 213.33 228.935L216.619 228.223C216.619 228.223 214.823 179.377 264.117 179.377C297.691 179.377 308.364 215.043 308.364 215.043L311.243 213.783V213.789Z" fill="#1E4C2F"/>
<path d="M186.207 230.661C186.207 230.661 188.374 219.806 197.264 218.382C206.148 216.952 241.713 218.382 241.713 218.382C241.713 218.382 245.38 218.533 245.38 223.164L219.7 224.09L209.241 228.229C209.241 228.229 206.696 220.788 197.264 223.164C190.17 224.947 190.138 230.667 190.138 230.667H186.213L186.207 230.661Z" fill="#263238"/>
<path d="M207.231 207.323V203.121C198.839 203.121 193.061 201.054 189.691 199.316C186.055 197.444 184.361 195.542 184.348 195.523L184.31 195.479L149.677 157.803L146.584 160.644L181.198 198.301C181.822 199.007 189.527 207.323 207.231 207.323Z" fill="#1E4C2F"/>
<path d="M215.655 174.102L198.783 233.174L202.824 234.328L219.696 175.256L215.655 174.102Z" fill="#1E4C2F"/>
<path d="M199.997 235.991L262.963 227.082L262.377 222.924L201.604 231.524L145.367 170.014L142.268 172.849L199.997 235.991Z" fill="#1E4C2F"/>
<path d="M157.049 136.357H169.064C169.789 136.357 170.381 137.63 170.381 139.205C170.381 140.78 169.789 142.053 169.064 142.053L157.049 141.177C154.517 138.222 157.049 136.364 157.049 136.364V136.357Z" fill="#263238"/>
<path d="M164.32 241.252C164.32 241.252 171.994 217.607 158.152 197.912C144.317 178.217 125.529 176.642 118.082 175.641L117.887 178.784C117.887 178.784 137.626 180.089 149.073 191.379C160.527 202.669 167.174 220.171 162.461 239.123L164.32 241.246V241.252Z" fill="#1E4C2F"/>
<path d="M118.258 226.792C127.028 219.881 134.601 203.758 134.923 203.071L134.998 202.882L150.56 158.768L147.089 156.896L131.073 201.383C130.468 202.662 123.33 217.443 115.656 223.491L118.258 226.792Z" fill="#1E4C2F"/>
<path d="M223.743 186.496L235.083 172.32H284.188C284.673 172.32 285.064 171.929 285.064 171.444C285.064 170.959 284.673 170.568 284.188 170.568H234.239L222.477 185.273L223.737 186.496H223.743Z" fill="#1E4C2F"/>
<path d="M271.612 171.307L262.16 224.857L263.885 225.162L273.337 171.612L271.612 171.307Z" fill="#1E4C2F"/>
<path d="M253.588 225.388C253.588 221.091 257.072 217.613 261.369 217.613C265.666 217.613 269.15 221.097 269.15 225.388C269.15 229.678 265.666 233.169 261.369 233.169C257.072 233.169 253.588 229.685 253.588 225.388Z" fill="#263238"/>
<path d="M109.18 225.388C109.18 221.091 112.664 217.613 116.961 217.613C121.257 217.613 124.741 221.097 124.741 225.388C124.741 229.678 121.257 233.169 116.961 233.169C112.664 233.169 109.18 229.685 109.18 225.388Z" fill="#263238"/>
<path d="M189.055 237.993C189.105 237.943 189.754 239.083 191.587 240.444C192.501 241.118 193.73 241.805 195.248 242.341C196.766 242.889 198.574 243.292 200.591 243.575C202.613 243.846 204.824 244.174 207.225 244.168C209.619 244.187 212.177 243.985 214.854 243.676C220.216 243.059 226.082 242.152 232.206 241.018C238.329 239.883 244.138 238.655 249.418 237.508C252.052 236.935 254.559 236.387 256.909 235.87C259.246 235.341 261.401 234.724 263.209 233.804C264.11 233.344 264.923 232.815 265.622 232.229C266.315 231.643 266.889 230.987 267.342 230.326C268.256 229.003 268.697 227.642 268.829 226.52C268.968 225.393 268.804 224.504 268.628 223.937C268.458 223.364 268.3 223.087 268.319 223.074C268.319 223.074 268.357 223.144 268.426 223.282C268.489 223.427 268.602 223.622 268.684 223.918C268.88 224.485 269.069 225.386 268.949 226.533C268.836 227.673 268.401 229.06 267.487 230.42C267.027 231.101 266.46 231.769 265.755 232.373C265.049 232.978 264.224 233.52 263.316 233.993C261.489 234.938 259.309 235.58 256.972 236.116C254.628 236.639 252.121 237.193 249.487 237.779C244.214 238.938 238.405 240.18 232.269 241.314C226.138 242.448 220.266 243.349 214.892 243.953C212.208 244.256 209.638 244.445 207.231 244.413C204.818 244.413 202.594 244.061 200.572 243.783C198.549 243.481 196.735 243.065 195.204 242.492C193.673 241.931 192.438 241.225 191.531 240.526C190.617 239.833 190.006 239.178 189.622 238.718C189.445 238.491 189.307 238.308 189.2 238.176C189.105 238.05 189.061 237.987 189.067 237.987L189.055 237.993Z" fill="#263238"/>
<path d="M231.121 158.861C230.655 160.298 228.576 166.352 225.526 166.579C222.477 166.8 201.421 163.523 198.265 162.723C196.255 162.213 195.096 158.868 199.878 158.868C206.745 158.868 232.167 155.654 231.121 158.868V158.861Z" fill="#1E4C2F"/>
<path d="M153.048 124.002C153.048 124.002 146.445 125.388 145.677 125.911C144.908 126.434 144.555 128.18 145.072 129.181C145.589 130.177 146.792 130.372 147.479 130.523C148.165 130.674 154.674 127.26 154.674 127.26C154.674 127.26 155.512 124.286 153.042 123.996L153.048 124.002Z" fill="#263238"/>
<path d="M161.913 144.875C160.792 144.743 157.73 144.623 156.804 143.974C156.016 143.426 155.594 142.462 155.487 141.511C155.392 140.685 155.5 139.854 155.632 139.028C156.501 139.129 157.068 139.211 157.068 139.211V136.363C157.068 136.363 152.589 135.947 148.846 136.389C147.819 135.595 146.931 134.637 146.055 133.679C145.432 132.999 144.764 132.123 145.072 131.26C145.217 130.851 145.564 130.542 145.86 130.214C146.15 129.887 146.414 129.471 146.333 129.042C146.251 128.614 145.545 128.11 145.224 128.412C144.613 128.986 143.989 129.572 143.542 130.277C143.094 130.983 142.842 131.84 143.025 132.646C143.226 133.541 143.926 134.24 144.594 134.895C145.249 135.532 145.904 136.174 146.559 136.811C145.274 137.163 144.298 137.699 143.983 138.512C142.76 141.637 146.207 146.96 149.861 148.825L147.498 157.224L150.39 158.578L153.427 148.498C153.496 148.265 153.376 148.013 153.143 147.931L150.818 147.068C150.818 147.068 145.249 142.172 145.955 139.917C146.301 138.802 149.029 138.619 151.694 138.72C151.486 139.589 151.316 140.465 151.341 141.353C151.373 142.563 152.23 144.144 153.168 144.907C153.824 145.442 154.586 145.927 155.355 146.116C157.667 146.69 160.105 146.948 162.474 146.696C163.52 146.582 163.52 145.058 162.474 144.938C162.298 144.919 162.109 144.894 161.913 144.875Z" fill="#E0E0E0"/>
<path d="M161.913 144.875C161.913 144.875 162.032 144.875 162.259 144.893C162.467 144.912 162.896 144.906 163.154 145.328C163.28 145.523 163.33 145.801 163.261 146.078C163.204 146.355 162.959 146.639 162.618 146.721C161.957 146.828 161.213 146.859 160.357 146.859C159.506 146.859 158.561 146.784 157.534 146.639C157.024 146.563 156.488 146.469 155.94 146.349C155.398 146.235 154.806 146.097 154.27 145.788C153.735 145.486 153.218 145.133 152.746 144.667C152.292 144.194 151.92 143.621 151.631 142.991C151.347 142.367 151.164 141.63 151.215 140.899C151.24 140.168 151.385 139.431 151.561 138.694L151.675 138.845C150.579 138.814 149.438 138.807 148.273 138.952C147.699 139.034 147.101 139.141 146.59 139.412C146.338 139.544 146.118 139.74 146.055 139.998C145.979 140.269 146.004 140.565 146.074 140.855C146.408 142.027 147.227 143.073 148.058 144.074C148.915 145.076 149.873 146.04 150.894 146.96L150.849 146.935C151.347 147.117 151.851 147.3 152.355 147.489C152.607 147.584 152.866 147.678 153.124 147.773C153.262 147.811 153.445 147.937 153.514 148.1C153.603 148.258 153.584 148.485 153.533 148.611C153.218 149.669 152.891 150.746 152.563 151.849C151.902 154.048 151.221 156.316 150.528 158.634L150.478 158.811L150.308 158.729C149.4 158.307 148.411 157.841 147.416 157.374L147.29 157.318L147.328 157.185C148.084 154.495 148.877 151.673 149.684 148.8V148.787L149.772 148.976C147.302 147.628 145.444 145.448 144.31 143.016C143.755 141.8 143.415 140.445 143.629 139.103C143.73 138.782 143.78 138.442 143.976 138.14C144.171 137.843 144.423 137.61 144.707 137.428C145.267 137.056 145.885 136.835 146.502 136.665L146.433 136.93C145.727 136.243 145.034 135.563 144.341 134.889C143.667 134.227 142.936 133.452 142.817 132.425C142.703 131.417 143.15 130.472 143.724 129.748C144.014 129.376 144.335 129.048 144.663 128.733C144.839 128.569 144.965 128.437 145.185 128.254C145.494 128.084 145.771 128.242 145.973 128.361C146.175 128.506 146.351 128.683 146.445 128.941C146.521 129.206 146.471 129.464 146.376 129.685C146.187 130.132 145.828 130.434 145.557 130.749C145.274 131.058 145.097 131.417 145.129 131.801C145.154 132.186 145.343 132.557 145.576 132.885C146.049 133.54 146.647 134.12 147.189 134.706C147.743 135.279 148.317 135.815 148.915 136.287L148.821 136.262C151.839 135.947 154.598 136.067 157.068 136.262H157.169V136.369C157.169 137.402 157.162 138.329 157.162 139.217V139.33L157.049 139.318C156.513 139.248 156.06 139.185 155.612 139.129L155.713 139.053C155.575 139.872 155.48 140.66 155.549 141.397C155.612 142.128 155.846 142.802 156.224 143.318C156.413 143.57 156.633 143.797 156.879 143.955C157.125 144.112 157.402 144.2 157.666 144.27C158.196 144.415 158.7 144.49 159.141 144.56C160.035 144.686 160.728 144.742 161.201 144.793C161.428 144.818 161.598 144.837 161.73 144.856C161.85 144.875 161.906 144.881 161.906 144.887C161.906 144.887 160.93 144.856 159.128 144.66C158.681 144.604 158.177 144.534 157.635 144.396C157.364 144.32 157.08 144.238 156.81 144.074C156.545 143.911 156.312 143.678 156.11 143.413C155.713 142.871 155.461 142.178 155.386 141.422C155.31 140.666 155.398 139.86 155.531 139.034L155.543 138.946L155.631 138.959C156.072 139.015 156.532 139.072 157.074 139.135L156.961 139.229C156.961 138.347 156.961 137.421 156.954 136.382L157.049 136.489C154.598 136.312 151.839 136.205 148.852 136.533H148.802L148.758 136.508C148.14 136.029 147.561 135.487 147 134.907C146.445 134.315 145.86 133.755 145.356 133.061C145.116 132.709 144.896 132.305 144.858 131.839C144.807 131.367 145.047 130.9 145.349 130.579C145.639 130.245 145.96 129.962 146.118 129.59C146.193 129.414 146.225 129.212 146.175 129.048C146.118 128.891 145.979 128.727 145.815 128.62C145.658 128.513 145.45 128.443 145.349 128.519C145.223 128.626 145.034 128.815 144.877 128.96C144.555 129.269 144.24 129.596 143.969 129.949C143.421 130.642 143.024 131.518 143.132 132.406C143.239 133.295 143.9 134.025 144.574 134.681C145.261 135.355 145.96 136.029 146.666 136.716L146.861 136.905L146.597 136.98C145.998 137.144 145.406 137.358 144.896 137.705C144.644 137.875 144.417 138.083 144.259 138.329C144.102 138.568 144.051 138.889 143.957 139.179C143.755 140.414 144.07 141.718 144.618 142.896C145.715 145.253 147.554 147.407 149.93 148.699L150.049 148.762L150.011 148.888V148.9C149.199 151.773 148.405 154.596 147.649 157.286L147.561 157.097C148.556 157.563 149.539 158.023 150.446 158.452L150.226 158.553C150.925 156.234 151.612 153.966 152.273 151.773C152.607 150.677 152.929 149.6 153.25 148.541C153.338 148.321 153.25 148.138 153.023 148.075C152.765 147.981 152.513 147.886 152.254 147.792C151.744 147.603 151.246 147.42 150.749 147.231L150.723 147.218L150.705 147.199C149.671 146.261 148.714 145.29 147.85 144.276C147.006 143.249 146.181 142.203 145.822 140.937C145.746 140.616 145.715 140.275 145.809 139.941C145.904 139.582 146.2 139.343 146.477 139.198C147.05 138.896 147.661 138.801 148.254 138.713C149.438 138.568 150.591 138.581 151.694 138.618H151.839L151.801 138.77C151.448 140.219 151.209 141.699 151.832 142.921C152.103 143.533 152.462 144.087 152.897 144.547C153.332 144.988 153.855 145.347 154.365 145.643C154.882 145.946 155.43 146.078 155.978 146.198C156.52 146.317 157.049 146.418 157.553 146.5C158.567 146.658 159.506 146.733 160.35 146.752C161.188 146.765 161.957 146.739 162.587 146.645C162.889 146.576 163.11 146.336 163.167 146.084C163.236 145.832 163.192 145.574 163.085 145.391C162.858 145.001 162.455 144.988 162.24 144.956C162.014 144.925 161.9 144.9 161.9 144.9L161.913 144.875Z" fill="#263238"/>
<path d="M225.904 244.787C225.904 244.787 224.681 260.815 224.707 261.59L221.582 264.268L213.656 262.497L213.41 244.787H225.904Z" fill="#FFBE9D"/>
<path d="M213.505 261.527L213.492 262.232C213.492 262.232 201.509 266.882 201.352 269.144L225.041 269.307L224.776 261.426C221.242 263.032 217.556 263.19 213.511 261.533L213.505 261.527Z" fill="#FC8838"/>
<g opacity="0.6">
<path d="M225.041 269.301L224.978 267.404L202.297 267.94C202.297 267.94 201.239 268.393 201.352 269.137L225.041 269.301Z" fill="white"/>
</g>
<path d="M213.411 262.294C213.411 262.408 213.991 262.465 214.558 262.843C215.131 263.202 215.421 263.706 215.528 263.662C215.635 263.643 215.465 262.95 214.772 262.502C214.085 262.055 213.38 262.187 213.405 262.294H213.411Z" fill="#263238"/>
<path d="M210.923 263.303C210.898 263.416 211.395 263.618 211.786 264.109C212.189 264.588 212.284 265.117 212.403 265.117C212.51 265.136 212.599 264.462 212.101 263.857C211.61 263.252 210.929 263.196 210.929 263.309L210.923 263.303Z" fill="#263238"/>
<path d="M209.493 266.271C209.6 266.296 209.764 265.717 209.468 265.087C209.178 264.45 208.636 264.198 208.586 264.293C208.523 264.387 208.869 264.727 209.102 265.257C209.348 265.773 209.373 266.265 209.493 266.277V266.271Z" fill="#263238"/>
<path d="M206.129 156.702L208.718 165.484L210.11 178.954L211.509 217.223L212.813 218.615L213.16 259.554H225.332C225.332 259.554 230.082 226.434 229.591 218.123C229.1 209.813 229.622 201.321 229.622 201.321L235.784 174.135C235.784 174.135 238.859 161.811 238.941 155.196C239.016 149.028 238.456 144.989 238.456 144.989C238.456 144.989 217.866 149.532 213.141 148.228C208.416 146.924 204.472 144.693 204.472 144.693C204.472 144.693 202.619 143.282 201.914 145.367C201.655 146.142 202.216 147.736 202.216 147.736L206.129 156.695V156.702Z" fill="#263238"/>
<path d="M219.863 211.816C219.863 211.816 219.516 212.314 218.836 213.007C218.155 213.7 217.16 214.607 215.963 215.495C214.766 216.378 213.613 217.071 212.749 217.518C211.886 217.965 211.326 218.186 211.313 218.154C211.294 218.11 211.817 217.827 212.649 217.329C213.48 216.837 214.608 216.126 215.786 215.25C216.964 214.374 217.979 213.505 218.691 212.856C219.403 212.207 219.831 211.785 219.869 211.816H219.863Z" fill="#1E4C2F"/>
<path d="M146.458 125.741C146.458 125.741 148.865 120.707 149.558 120.317C150.251 119.92 153.527 119.422 153.527 119.422C153.527 119.422 158.687 121.532 159.575 121.369C160.47 121.205 165.031 121.369 165.031 121.369L166.02 127.259H161.409C161.409 127.259 159.474 128.394 158.082 128.469C156.69 128.545 154.51 129.439 154.51 129.439C154.51 129.439 151.164 132.835 150.767 132.936C150.37 133.037 149.577 132.936 149.476 131.745C149.375 130.555 151.826 128.469 151.826 128.469C151.826 128.469 153.017 127.984 152.324 126.629C151.63 125.275 151.555 124.639 150.66 124.739C149.766 124.84 146.445 125.741 146.445 125.741H146.458Z" fill="#FFBE9D"/>
<path d="M245.335 98.6184C244.686 95.4682 240.994 90.1003 239.69 89.1238C238.386 88.1472 228.494 85.7342 228.494 85.7342L227.423 83.6992L226.97 85.1042C226.913 85.3562 224.135 91.1021 216.184 90.5603C213.846 90.4028 213.487 88.9411 213.487 88.9411L213.141 91.0517C213.141 91.0517 204.289 94.813 202.858 95.5501C200.968 96.5204 186.503 118.055 186.503 118.055L163.544 121.06L162.965 130.473L187.29 131.418C190.579 131.632 193.704 130.536 196.161 128.337L204.377 119.668V120.354C204.352 124.128 203.117 142.059 203.117 142.059C201.138 148.567 208.617 149.657 214.3 152.303C214.3 152.303 218.445 154.149 224.147 155.309C234.058 157.331 239.74 151.503 239.74 151.503L240.289 148.271C240.289 148.271 245.984 101.775 245.335 98.6247V98.6184Z" fill="#FC8838"/>
<g opacity="0.3">
<path d="M206.701 130.485L209.284 133.729C209.284 133.729 233.635 143.797 241.038 142.046V138.486L210.532 128.891L206.701 129.306V130.485Z" fill="black"/>
</g>
<path d="M233.792 93.2004C233.792 93.2004 231.361 100.811 231.361 104.465C231.361 108.12 232.255 118.622 233.131 120.544C234.007 122.459 234.901 123.618 234.901 123.618L233.547 124.929L211.212 122.207L210.525 132.004C210.525 132.004 235.374 139.357 237.749 139.357C240.124 139.357 245.057 139.086 246.885 137.895C248.712 136.71 249.991 131.777 249.991 127.48C249.991 123.184 248.327 93.9565 239.866 89.0422C235.72 86.6292 233.792 93.2004 233.792 93.2004Z" fill="#FC8838"/>
<path d="M243.539 126.611C243.494 126.643 243.167 126.139 242.461 125.496C241.768 124.854 240.64 124.104 239.235 123.745C237.831 123.392 236.482 123.524 235.569 123.757C234.643 123.99 234.113 124.28 234.088 124.23C234.082 124.211 234.202 124.123 234.441 123.99C234.68 123.858 235.039 123.694 235.512 123.549C236.438 123.253 237.843 123.077 239.311 123.449C240.779 123.82 241.932 124.633 242.612 125.339C242.953 125.692 243.198 126.007 243.343 126.233C243.494 126.46 243.558 126.599 243.539 126.611Z" fill="#263238"/>
<path d="M240.289 120.367C240.314 120.461 238.777 120.657 237.24 121.684C235.69 122.685 234.896 124.008 234.82 123.952C234.789 123.933 234.94 123.58 235.312 123.082C235.677 122.584 236.282 121.954 237.076 121.432C237.876 120.909 238.689 120.606 239.294 120.474C239.899 120.335 240.283 120.335 240.289 120.373V120.367Z" fill="#263238"/>
<path d="M197.805 120.556L200.527 118.887H205.366L209.688 122.824L210.979 123.467L210.501 130.265L207.691 129.919C207.691 129.919 201.687 130.177 201.107 129.793C200.527 129.408 199.689 128.18 199.689 128.18C199.689 128.18 196.268 127.209 196.073 126.825C195.878 126.441 196.073 126.05 196.073 126.05L194.781 125.212C194.781 125.212 194.006 123.795 193.943 123.404L193.88 123.02C193.88 123.02 192.998 122.755 192.847 121.728C192.79 121.331 194.416 121.419 194.416 121.419L198.48 121.476L197.805 120.563V120.556Z" fill="#FFBE9D"/>
<path d="M198.556 121.584L195.746 117.76H189.918V118.251L192.854 121.66L198.556 121.584Z" fill="#1E4C2F"/>
<path d="M205.159 154.206C205.077 154.256 204.258 152.864 203.539 151.037C202.821 149.21 202.147 147.786 202.223 147.742C202.305 147.691 203.124 149.084 203.842 150.911C204.56 152.731 205.234 154.162 205.159 154.206Z" fill="#1E4C2F"/>
<path d="M208.762 166C208.762 166 208.662 165.767 208.536 165.339C208.41 164.91 208.239 164.28 208.05 163.499C207.666 161.936 207.194 159.769 206.784 157.35C206.375 154.93 206.11 152.725 205.959 151.125C205.883 150.325 205.833 149.676 205.814 149.229C205.789 148.781 205.789 148.529 205.814 148.529C205.839 148.529 205.883 148.775 205.94 149.216C206.009 149.733 206.091 150.363 206.186 151.1C206.393 152.688 206.696 154.886 207.105 157.293C207.515 159.706 207.943 161.873 208.271 163.448C208.422 164.179 208.548 164.803 208.655 165.307C208.743 165.748 208.781 165.994 208.756 166H208.762Z" fill="#1E4C2F"/>
<path d="M234.101 158.46C234.101 158.46 233.912 158.586 233.534 158.756C233.351 158.844 233.118 158.945 232.841 159.033C232.564 159.128 232.255 159.247 231.896 159.323C231.184 159.518 230.314 159.657 229.344 159.726C228.374 159.77 227.297 159.726 226.181 159.537C225.073 159.336 224.046 159.008 223.151 158.63C222.263 158.233 221.488 157.805 220.889 157.376C220.58 157.181 220.328 156.954 220.102 156.778C219.868 156.601 219.686 156.425 219.547 156.28C219.257 155.99 219.1 155.826 219.119 155.807C219.163 155.757 219.805 156.4 221.021 157.187C221.626 157.584 222.389 157.981 223.271 158.353C224.159 158.706 225.161 159.014 226.244 159.216C227.328 159.399 228.38 159.455 229.332 159.424C230.283 159.38 231.14 159.266 231.845 159.103C233.257 158.788 234.082 158.403 234.107 158.46H234.101Z" fill="#1E4C2F"/>
<path d="M238.404 89.1486C238.41 89.2053 237.761 89.2809 236.785 89.6463C235.815 90.0054 234.536 90.7237 233.484 91.9081C232.438 93.0926 231.883 94.4535 231.644 95.4615C231.398 96.4696 231.404 97.1311 231.341 97.1248C231.323 97.1248 231.297 96.961 231.291 96.6649C231.291 96.3688 231.316 95.934 231.411 95.4111C231.6 94.3653 232.142 92.9288 233.232 91.6939C234.328 90.4591 235.689 89.7471 236.703 89.4321C237.213 89.2683 237.635 89.1927 237.932 89.1612C238.228 89.1297 238.391 89.1297 238.398 89.1549L238.404 89.1486Z" fill="#263238"/>
<path d="M203.116 99.1847C203.116 99.1847 203.116 99.1847 203.109 99.1721C203.122 99.1721 203.084 99.1532 203.135 99.1595V99.1847C203.153 99.2162 203.16 99.2666 203.172 99.3359C203.191 99.4682 203.216 99.6572 203.242 99.9092C203.298 100.407 203.361 101.131 203.431 102.02C203.576 103.803 203.739 106.273 203.909 109.001C204.073 111.729 204.206 114.198 204.281 115.988C204.313 116.832 204.338 117.538 204.357 118.111C204.369 118.615 204.357 118.892 204.338 118.892C204.319 118.892 204.275 118.621 204.231 118.117C204.18 117.55 204.124 116.844 204.054 116C203.916 114.217 203.752 111.748 203.588 109.019C203.424 106.291 203.292 103.822 203.21 102.032C203.179 101.188 203.147 100.483 203.128 99.9155C203.128 99.7013 203.122 99.5123 203.116 99.3359C203.116 99.2855 203.116 99.2351 203.116 99.1847V99.1658C203.16 99.1595 203.128 99.1658 203.135 99.1658C203.135 99.1721 203.128 99.1784 203.128 99.1784L203.116 99.1847Z" fill="#263238"/>
<path d="M228.5 85.7272C228.5 85.7272 228.487 86.0108 228.374 86.5022C228.261 86.9936 228.034 87.6992 227.624 88.512C227.221 89.3247 226.591 90.232 225.734 91.0762C224.865 91.9141 223.769 92.6891 222.49 93.2435C219.888 94.3713 217.166 94.0059 215.54 93.2246C214.709 92.8403 214.11 92.3993 213.745 92.0528C213.373 91.7062 213.203 91.4794 213.215 91.4668C213.266 91.4038 213.984 92.3174 215.635 93.0104C217.235 93.716 219.862 94.0248 222.357 92.9411C223.598 92.3993 224.669 91.6558 225.526 90.8557C226.371 90.043 227.001 89.1798 227.423 88.3986C228.273 86.8298 228.431 85.702 228.5 85.7209V85.7272Z" fill="#263238"/>
<path d="M231.216 102.033C231.216 102.033 231.241 102.14 231.266 102.355C231.291 102.588 231.329 102.896 231.373 103.293C231.462 104.138 231.581 105.341 231.739 106.872C232.041 109.991 232.47 114.432 232.993 119.832L232.974 119.775C233.503 120.619 234.076 121.533 234.662 122.471L234.713 122.553L234.656 122.629C234.265 123.152 233.837 123.731 233.396 124.317L233.345 124.387L233.263 124.374C227.751 123.706 221.419 122.944 214.728 122.131C213.449 121.974 212.183 121.822 210.929 121.665L211.112 121.514C210.866 124.935 210.633 128.23 210.419 131.311L210.305 131.153C218.225 133.321 225.016 135.173 229.855 136.496C232.243 137.164 234.152 137.693 235.481 138.065C236.118 138.247 236.615 138.392 236.974 138.493C237.132 138.544 237.258 138.581 237.359 138.613C237.447 138.638 237.485 138.657 237.485 138.663C237.485 138.67 237.441 138.663 237.352 138.638C237.252 138.613 237.119 138.581 236.962 138.544C236.603 138.449 236.099 138.323 235.456 138.159C234.12 137.806 232.211 137.309 229.811 136.679C224.966 135.387 218.162 133.566 210.23 131.449L210.104 131.418V131.292C210.324 128.211 210.551 124.916 210.79 121.495L210.803 121.325L210.973 121.344C212.22 121.495 213.487 121.652 214.772 121.804C221.469 122.629 227.795 123.404 233.308 124.078L233.175 124.135C233.616 123.549 234.051 122.975 234.442 122.453V122.61C233.849 121.665 233.282 120.751 232.759 119.907L232.741 119.882V119.85C232.262 114.451 231.871 110.003 231.6 106.884C231.474 105.347 231.373 104.144 231.304 103.3C231.279 102.903 231.254 102.588 231.235 102.361C231.222 102.147 231.216 102.04 231.228 102.04L231.216 102.033Z" fill="#263238"/>
</g>
<defs>
<filter id="filter0_d_50_12286" x="309" y="62" width="36" height="40.5" filterUnits="userSpaceOnUse" color-interpolation-filters="sRGB">
<feFlood flood-opacity="0" result="BackgroundImageFix"/>
<feColorMatrix in="SourceAlpha" type="matrix" values="0 0 0 0 0 0 0 0 0 0 0 0 0 0 0 0 0 0 127 0" result="hardAlpha"/>
<feOffset dy="3"/>
<feGaussianBlur stdDeviation="3"/>
<feComposite in2="hardAlpha" operator="out"/>
<feColorMatrix type="matrix" values="0 0 0 0 0 0 0 0 0 0 0 0 0 0 0 0 0 0 0.12 0"/>
<feBlend mode="normal" in2="BackgroundImageFix" result="effect1_dropShadow_50_12286"/>
<feBlend mode="normal" in="SourceGraphic" in2="effect1_dropShadow_50_12286" result="shape"/>
</filter>
<filter id="filter1_d_50_12286" x="241" y="34" width="36" height="40.5" filterUnits="userSpaceOnUse" color-interpolation-filters="sRGB">
<feFlood flood-opacity="0" result="BackgroundImageFix"/>
<feColorMatrix in="SourceAlpha" type="matrix" values="0 0 0 0 0 0 0 0 0 0 0 0 0 0 0 0 0 0 127 0" result="hardAlpha"/>
<feOffset dy="3"/>
<feGaussianBlur stdDeviation="3"/>
<feComposite in2="hardAlpha" operator="out"/>
<feColorMatrix type="matrix" values="0 0 0 0 0 0 0 0 0 0 0 0 0 0 0 0 0 0 0.12 0"/>
<feBlend mode="normal" in2="BackgroundImageFix" result="effect1_dropShadow_50_12286"/>
<feBlend mode="normal" in="SourceGraphic" in2="effect1_dropShadow_50_12286" result="shape"/>
</filter>
<filter id="filter2_d_50_12286" x="271" y="142" width="36" height="40.5" filterUnits="userSpaceOnUse" color-interpolation-filters="sRGB">
<feFlood flood-opacity="0" result="BackgroundImageFix"/>
<feColorMatrix in="SourceAlpha" type="matrix" values="0 0 0 0 0 0 0 0 0 0 0 0 0 0 0 0 0 0 127 0" result="hardAlpha"/>
<feOffset dy="3"/>
<feGaussianBlur stdDeviation="3"/>
<feComposite in2="hardAlpha" operator="out"/>
<feColorMatrix type="matrix" values="0 0 0 0 0 0 0 0 0 0 0 0 0 0 0 0 0 0 0.12 0"/>
<feBlend mode="normal" in2="BackgroundImageFix" result="effect1_dropShadow_50_12286"/>
<feBlend mode="normal" in="SourceGraphic" in2="effect1_dropShadow_50_12286" result="shape"/>
</filter>
<filter id="filter3_d_50_12286" x="9" y="101" width="108" height="121.5" filterUnits="userSpaceOnUse" color-interpolation-filters="sRGB">
<feFlood flood-opacity="0" result="BackgroundImageFix"/>
<feColorMatrix in="SourceAlpha" type="matrix" values="0 0 0 0 0 0 0 0 0 0 0 0 0 0 0 0 0 0 127 0" result="hardAlpha"/>
<feOffset dy="9"/>
<feGaussianBlur stdDeviation="9"/>
<feComposite in2="hardAlpha" operator="out"/>
<feColorMatrix type="matrix" values="0 0 0 0 0 0 0 0 0 0 0 0 0 0 0 0 0 0 0.12 0"/>
<feBlend mode="normal" in2="BackgroundImageFix" result="effect1_dropShadow_50_12286"/>
<feBlend mode="normal" in="SourceGraphic" in2="effect1_dropShadow_50_12286" result="shape"/>
</filter>
<clipPath id="clip0_50_12286">
<rect width="419.595" height="270" fill="white"/>
</clipPath>
</defs>
</svg>
