<svg width="389" height="320" viewBox="0 0 389 320" fill="none" xmlns="http://www.w3.org/2000/svg">
<g clip-path="url(#clip0_50_10702)">
<path d="M37.9427 139.447H34.041V285.703H37.9427V139.447Z" fill="#1E4C2F"/>
<path d="M37.9362 285.783C37.9362 285.783 37.9288 285.511 37.9215 285.01C37.9215 284.473 37.9141 283.737 37.9068 282.795C37.9068 280.814 37.892 277.965 37.8773 274.306C37.8626 266.923 37.8405 256.292 37.811 243.122C37.789 216.782 37.7595 180.327 37.7227 139.668L37.9288 140.087C36.6921 140.087 35.367 140.087 34.0345 140.087C34.4467 139.248 34.1449 139.881 34.2406 139.712V142.877C34.2406 143.945 34.2406 145.012 34.2406 146.08C34.2406 148.207 34.2406 150.327 34.2406 152.433C34.2406 156.644 34.2406 160.811 34.2406 164.918C34.2406 173.134 34.2406 181.129 34.2332 188.851C34.2259 204.289 34.2112 218.615 34.2038 231.395C34.1523 256.874 34.1155 276.154 34.1007 285.783L34.0345 285.658C35.3375 285.688 36.3019 285.717 36.9571 285.732C37.2663 285.747 37.5092 285.754 37.6859 285.761C37.8479 285.769 37.9288 285.776 37.9362 285.783C37.9362 285.791 37.8626 285.798 37.708 285.806C37.5387 285.806 37.3031 285.82 36.9939 285.835C36.3313 285.85 35.3522 285.879 34.0345 285.909H33.9682V285.783C33.9461 276.147 33.9093 256.874 33.8652 231.395C33.8578 218.615 33.8431 204.289 33.8357 188.851C33.8357 181.129 33.8357 173.134 33.8283 164.918C33.8283 160.811 33.8283 156.644 33.8283 152.433C33.8283 150.327 33.8283 148.207 33.8283 146.08C33.8283 145.012 33.8283 143.945 33.8283 142.877V141.273V140.47V139.712C33.9241 139.513 33.6149 140.095 34.0418 139.248C35.3743 139.248 36.6994 139.248 37.9362 139.248H38.1423V139.668C38.1055 180.444 38.0761 217.017 38.054 243.431C38.0245 256.557 38.0025 267.158 37.9877 274.52C37.973 278.135 37.9656 280.954 37.9583 282.912C37.9583 283.833 37.9436 284.554 37.9436 285.077C37.9436 285.563 37.9288 285.791 37.9288 285.791L37.9362 285.783Z" fill="#1E4C2F"/>
<path d="M34.4844 78.1065L66.9787 108.824C67.7517 109.555 67.7861 110.779 67.0554 111.551L36.3378 144.046C35.6071 144.819 34.3833 144.853 33.6103 144.122L1.11604 113.405C0.343061 112.674 0.308665 111.45 1.03938 110.677L31.757 78.1831C32.4877 77.4101 33.7115 77.3757 34.4844 78.1065Z" fill="white" stroke="#1E4C2F"/>
<path d="M34.7766 141.162C33.8564 141.162 32.9362 140.824 32.2147 140.146L4.24751 113.703C3.25367 112.761 3.2095 111.185 4.1518 110.191L30.5878 82.2242C31.2724 81.5027 32.2 81.0831 33.1939 81.061C34.1877 81.0463 35.1374 81.3923 35.8588 82.0769L62.9132 107.659C64.4076 109.072 64.4739 111.436 63.0604 112.93L37.4784 139.984C36.7496 140.757 35.7557 141.147 34.7693 141.147L34.7766 141.162ZM32.4871 139.852C33.135 140.463 34.0036 140.779 34.865 140.757C35.7557 140.735 36.5803 140.36 37.1913 139.719L62.7733 112.665C64.0322 111.332 63.9733 109.22 62.6408 107.961L35.5864 82.3787C34.9386 81.7677 34.092 81.4512 33.2086 81.4733C32.3178 81.4953 31.4933 81.8708 30.8823 82.5113L4.44627 110.471C3.65857 111.303 3.69538 112.621 4.52725 113.408L32.4945 139.844L32.4871 139.852Z" fill="#1E4C2F"/>
<path d="M29.4396 105.184V116.116L22.4238 110.963L29.4396 105.184Z" fill="#499D2F"/>
<path d="M43.6924 108.799H27.1211V112.494H43.6924V108.799Z" fill="#499D2F"/>
<path d="M91.7639 20.9806C90.7848 19.6408 89.3566 18.5512 87.715 18.3451C86.0733 18.139 84.2476 19.0297 83.7175 20.5978C83.482 17.0641 82.9814 13.4422 81.2145 10.3797C79.4477 7.3172 76.1497 4.90255 72.616 5.12341C69.2885 5.32953 66.4322 7.80308 64.8494 10.7404C63.2666 13.6777 62.7219 17.0421 62.1992 20.3401C60.9403 18.7942 58.268 19.28 56.9503 20.7818C55.6325 22.2836 55.3012 24.3817 55.0215 26.362H94.2595C93.678 24.8087 92.743 22.3204 91.7639 20.9806Z" fill="#EBEBEB"/>
<path d="M419.826 37.7499C418.67 36.1671 416.984 34.8788 415.041 34.6359C413.097 34.4003 410.948 35.4456 410.314 37.3008C410.035 33.1267 409.446 28.8495 407.355 25.2276C405.264 21.6056 401.37 18.7566 397.196 19.0142C393.257 19.2572 389.893 22.1798 388.016 25.6472C386.146 29.1145 385.498 33.0972 384.887 36.9916C383.393 35.1585 380.249 35.7401 378.688 37.5143C377.135 39.2885 376.738 41.7694 376.406 44.1104H422.771C422.086 42.2773 420.982 39.3326 419.826 37.7572V37.7499Z" fill="#EBEBEB"/>
<path d="M175.395 39.7096C173.878 37.6336 171.655 35.9257 169.1 35.6165C166.546 35.2999 163.712 36.6839 162.88 39.1207C162.512 33.6288 161.739 27.9971 158.985 23.2267C156.232 18.4563 151.108 14.7165 145.616 15.0478C140.441 15.3643 136.002 19.2145 133.543 23.7788C131.084 28.3431 130.23 33.5846 129.428 38.7084C127.462 36.3011 123.318 37.0594 121.271 39.393C119.225 41.7267 118.702 44.9953 118.268 48.0725H179.282C178.376 45.6579 176.926 41.7856 175.402 39.7096H175.395Z" fill="#F5F5F5"/>
<path d="M210.391 320H65.4609L72.9773 312.926H217.908L210.391 320Z" fill="#E0E0E0"/>
<path d="M459.858 320H314.928L322.444 312.926H467.375L459.858 320Z" fill="#E0E0E0"/>
<path d="M517.817 285.732C517.817 285.842 403.953 285.931 263.528 285.931C123.103 285.931 9.2168 285.842 9.2168 285.732C9.2168 285.622 123.059 285.533 263.528 285.533C403.997 285.533 517.817 285.622 517.817 285.732Z" fill="#263238"/>
<path d="M258.015 9.62904C258.015 9.62904 257.492 9.44499 256.521 9.2315C255.556 9.01801 254.106 8.83397 252.354 9.06954C250.609 9.30512 248.548 10.0045 246.737 11.4916C244.933 12.9492 243.387 15.1651 242.776 17.7858C242.776 17.8079 242.761 17.83 242.761 17.8521L242.644 18.3012L242.474 17.8742C241.466 15.3859 239.677 13.4056 237.733 12.1468C235.783 10.8658 233.692 10.3358 231.94 10.218C230.18 10.0928 228.752 10.3505 227.802 10.5934C226.845 10.8437 226.345 11.0646 226.33 11.0425C226.33 11.0351 226.448 10.9762 226.691 10.8658C226.934 10.7627 227.294 10.6229 227.773 10.483C228.723 10.1959 230.166 9.90878 231.954 10.0045C233.736 10.1002 235.886 10.6155 237.888 11.9185C239.883 13.1921 241.723 15.2092 242.761 17.7711L242.474 17.7932C242.474 17.7932 242.489 17.749 242.489 17.7196C243.122 15.0252 244.712 12.7651 246.567 11.2781C248.43 9.76155 250.55 9.06954 252.332 8.86342C254.121 8.64993 255.586 8.87078 256.55 9.12108C257.036 9.24623 257.404 9.37138 257.647 9.46708C257.89 9.56278 258.015 9.62167 258.015 9.62904Z" fill="#263238"/>
<path d="M334.886 24.4184C334.886 24.4184 334.591 24.3374 334.061 24.227C333.531 24.1166 332.736 24.0209 331.779 24.1607C330.829 24.2933 329.703 24.6834 328.724 25.4932C327.745 26.2883 326.906 27.4956 326.574 28.9238V28.9606L326.449 29.4097L326.28 28.9827C325.728 27.6281 324.756 26.546 323.696 25.8613C322.636 25.1619 321.495 24.8675 320.538 24.7939C319.573 24.7202 318.793 24.8527 318.27 24.9779C317.748 25.1104 317.46 25.2208 317.453 25.1988C317.453 25.1914 317.512 25.1546 317.645 25.0883C317.777 25.0221 317.976 24.9485 318.233 24.8601C318.756 24.6908 319.551 24.5288 320.545 24.573C321.532 24.6172 322.724 24.9043 323.836 25.6184C324.947 26.3251 325.971 27.4441 326.545 28.8649L326.258 28.887V28.8502C326.618 27.3484 327.509 26.0969 328.54 25.2724C329.578 24.4331 330.756 24.0577 331.742 23.9473C332.736 23.8368 333.546 23.9693 334.076 24.1092C334.341 24.1828 334.547 24.2564 334.68 24.3153C334.812 24.3742 334.878 24.411 334.878 24.4184H334.886Z" fill="#263238"/>
<path d="M288.913 32.3849C288.913 32.3849 288.633 32.7088 288.125 33.283C287.617 33.8572 286.918 34.7259 286.196 35.8891C284.739 38.1786 283.281 41.8373 283.333 46.0262C283.333 46.0703 283.333 46.1145 283.333 46.1513L283.038 46.1734C282.729 44.1268 282.044 42.2496 281.183 40.6815C280.322 39.1061 279.313 37.8326 278.364 36.8682C277.414 35.9038 276.545 35.2265 275.919 34.7922C275.294 34.3578 274.933 34.1443 274.948 34.1222C274.948 34.1149 275.051 34.159 275.227 34.2547C275.404 34.3578 275.669 34.483 275.986 34.6965C276.634 35.1013 277.532 35.7639 278.518 36.7209C279.505 37.678 280.543 38.9589 281.433 40.549C282.324 42.1318 283.024 44.0459 283.34 46.1292L283.046 46.1513C283.046 46.1071 283.046 46.063 283.046 46.0188C282.994 41.7564 284.511 38.0534 286.027 35.7639C286.785 34.6008 287.507 33.7468 288.052 33.1947C288.309 32.9076 288.545 32.7161 288.692 32.5763C288.839 32.4364 288.92 32.3701 288.928 32.3775L288.913 32.3849Z" fill="#263238"/>
<path d="M25.8468 247.384C27.702 247.995 29.1743 249.519 30.0062 251.293C30.8381 253.067 31.081 255.062 31.0442 257.013C30.9706 260.797 29.1964 264.772 27.1793 267.975C23.7708 265.516 22.6003 260.782 22.1512 258.345C21.4519 254.495 22.5193 247.104 25.8468 247.376" fill="#1E4C2F"/>
<path d="M31.4198 273.812C30.7205 271.744 31.383 269.344 32.8701 267.739C34.3572 266.141 36.5731 265.317 38.7521 265.28C39.7607 265.265 40.8723 265.457 41.5275 266.23C42.1385 266.951 42.1753 268.033 41.8146 268.909C41.4539 269.785 40.7619 270.477 40.011 271.052C37.4417 273.017 34.5927 274.453 31.4125 273.812" fill="#1E4C2F"/>
<path d="M28.4449 285.671C28.4449 285.671 28.4449 285.392 28.489 284.891C28.5406 284.339 28.5995 283.632 28.6731 282.778C28.8571 281.011 29.078 278.479 30.197 275.939C31.3012 273.407 33.0018 271.456 34.4888 270.432C35.225 269.91 35.8802 269.579 36.3514 269.394C36.5796 269.291 36.771 269.247 36.8961 269.203C37.0213 269.166 37.0875 269.144 37.0949 269.159C37.1243 269.218 36.0275 269.52 34.5993 270.594C33.1711 271.64 31.5294 273.569 30.4399 276.057C29.3356 278.545 29.0927 281.041 28.8571 282.808C28.7467 283.698 28.6584 284.42 28.5847 284.913C28.5111 285.406 28.4596 285.679 28.4375 285.679L28.4449 285.671Z" fill="#263238"/>
<path d="M25.5312 253.082C25.5312 253.082 25.5681 253.192 25.5975 253.413C25.6343 253.664 25.6858 253.98 25.7447 254.37C25.8699 255.202 26.0318 256.41 26.2159 257.911C26.5913 260.9 27.0551 265.037 27.46 269.624C27.8649 274.21 28.1373 278.362 28.2993 281.373C28.3802 282.875 28.4318 284.097 28.4539 284.936C28.4612 285.334 28.4686 285.658 28.4759 285.908C28.4759 286.129 28.4759 286.247 28.4686 286.247C28.4612 286.247 28.4465 286.129 28.4244 285.908C28.4023 285.658 28.3802 285.334 28.3508 284.944C28.2919 284.068 28.2109 282.86 28.1079 281.381C27.9017 278.377 27.5999 274.225 27.195 269.646C26.7901 265.067 26.3558 260.93 26.0318 257.933C25.8699 256.461 25.7374 255.261 25.649 254.385C25.6122 253.988 25.5754 253.671 25.5533 253.421C25.5312 253.2 25.5312 253.082 25.5386 253.082H25.5312Z" fill="#263238"/>
<path d="M26.1783 276.602C25.0373 272.141 21.6067 268.327 17.2853 266.73C16.1884 266.325 14.7824 266.119 13.9873 266.987C13.1922 267.856 13.5161 269.24 14.0462 270.293C16.2326 274.666 21.2754 277.426 26.1341 276.911" fill="#1E4C2F"/>
<path d="M18.1249 270.234C18.1249 270.234 18.3752 270.301 18.8243 270.463C19.0451 270.544 19.3175 270.647 19.6193 270.794C19.9212 270.941 20.2745 271.088 20.6353 271.309C21.0033 271.523 21.4082 271.744 21.8131 272.038C22.2328 272.31 22.6524 272.642 23.0867 272.995C23.9407 273.724 24.8094 274.607 25.5823 275.645C26.3406 276.698 26.9222 277.788 27.3565 278.826C27.5553 279.348 27.7467 279.849 27.8719 280.335C28.0264 280.813 28.1074 281.27 28.1884 281.682C28.2841 282.094 28.2988 282.477 28.343 282.808C28.3872 283.14 28.3945 283.434 28.3945 283.67C28.4019 284.141 28.3945 284.398 28.3798 284.406C28.3209 284.406 28.3283 283.36 27.9896 281.719C27.8939 281.314 27.8056 280.865 27.6436 280.401C27.5111 279.93 27.3197 279.444 27.1136 278.929C26.6792 277.92 26.0977 276.845 25.3541 275.815C24.5959 274.791 23.7493 273.915 22.9174 273.194C22.4904 272.84 22.0929 272.509 21.6806 272.229C21.2905 271.935 20.8929 271.707 20.5322 271.486C19.0893 270.639 18.0955 270.301 18.1175 270.242L18.1249 270.234Z" fill="#263238"/>
<path d="M306.183 151.191C305.417 152.73 278.422 169.654 278.422 169.654L285.916 176.265C285.916 176.265 313.515 166.371 319.964 158.317L318.713 131.499L303.025 131.41L306.176 151.199L306.183 151.191Z" fill="#AE7461"/>
<path d="M282.368 166.409C282.368 166.409 278.628 164.826 278.186 164.87C277.745 164.922 272.665 167.27 271.818 167.874C270.972 168.477 269.632 171.415 270.751 172.872L271.458 173.667C271.458 173.667 271.082 176.016 272.643 176.745C274.204 177.473 274.285 177.098 274.285 177.098C274.285 177.098 273.306 179.005 275.153 179.395L277.001 179.792C277.001 179.792 277.737 182.023 279.107 181.67C280.468 181.316 285.894 178.953 286.733 177.702C287.573 176.45 288.272 175.375 288.272 175.375L291.806 173.594L285.776 163.994L282.36 166.409H282.368Z" fill="#263238"/>
<path d="M344.164 129.901C344.164 129.901 295.517 156.838 299.979 171.642C304.44 186.447 344.186 214.031 344.186 214.031L353.219 206.323C353.219 206.323 337.685 185.799 333.342 179.188C330.095 174.248 323.801 170.516 323.801 170.516C323.801 170.516 351.246 161.086 361.994 155.815C372.742 150.544 376.813 147.231 377.623 139.53C378.433 131.823 376.408 128.083 375.193 124.638C373.979 121.192 365.056 114.699 365.056 114.699L344.171 129.909L344.164 129.901Z" fill="#263238"/>
<path d="M272.157 291.71L270.928 270.869L273.365 291.6L272.15 291.71H272.157ZM250.219 287.75L249.697 287.499L258.752 269.389L267.343 251.059L259.348 268.182L250.219 287.75ZM294.331 283.59L270.796 250.639L294.36 283.568L294.331 283.59ZM233.133 273.814L248.372 262.094L232.728 273.269L248.386 262.087L265.223 249.13L265.672 249.734L249.182 261.512L233.133 273.814ZM270.965 271.502L268.639 251.39L270.928 270.869L270.965 271.495V271.502ZM308.473 267.122L291.026 257.817L272.047 249.513L272.746 248.07L290.613 257.596L309.143 265.738L291.033 257.817L308.48 267.122H308.473ZM224.453 253.554L224.299 252.509L244.389 249.999L264.332 246.517L245.103 249.91L224.461 253.554H224.453ZM313.663 245.515H273.173L313.663 245.479V245.515ZM264.472 243.66L245.037 237.587L225.742 231.874L243.064 236.968L225.83 231.58L243.16 236.998L264.582 243.299L264.472 243.66ZM272.96 243.601L291.305 236.725L310.873 229.386L311.256 230.49L291.931 236.527L272.96 243.601ZM272.157 241.511L270.891 240.347L285.21 226.029L298.314 210.599L285.519 225.72L299.521 211.718L285.512 225.727L272.15 241.518L272.157 241.511ZM265.701 241.187L251.375 226.861L236.534 213.116L250.735 226.22L237.071 212.557L250.742 226.228L266.29 240.576L265.701 241.187ZM267.696 239.766L262.595 222.414L255.91 201.036L256.271 200.925L261.984 220.353L267.991 239.685L262.595 222.422L267.696 239.773V239.766ZM269.706 239.751L273.748 222.584L278.982 200.344L279.291 200.417L274.381 220.058L269.713 239.751H269.706Z" fill="#E0E0E0"/>
<path d="M268.719 291.857C243.498 291.857 222.988 271.34 222.988 246.126C222.988 220.912 243.505 200.395 268.719 200.395C293.933 200.395 314.451 220.912 314.451 246.126C314.451 271.34 293.933 291.857 268.719 291.857ZM268.719 202.596C244.72 202.596 225.197 222.119 225.197 246.118C225.197 270.118 244.72 289.641 268.719 289.641C292.719 289.641 312.242 270.118 312.242 246.118C312.242 222.119 292.719 202.596 268.719 202.596Z" fill="#E0E0E0"/>
<path d="M268.72 294.846C241.857 294.846 220 272.989 220 246.126C220 219.263 241.857 197.406 268.72 197.406C295.583 197.406 317.44 219.263 317.44 246.126C317.44 272.989 295.583 294.846 268.72 294.846ZM268.72 200.344C243.477 200.344 222.945 220.883 222.945 246.119C222.945 271.355 243.484 291.894 268.72 291.894C293.956 291.894 314.495 271.355 314.495 246.119C314.495 220.883 293.956 200.344 268.72 200.344Z" fill="#263238"/>
<path d="M312.309 246.267C312.309 246.267 312.287 246.024 312.272 245.56C312.243 245.096 312.258 244.397 312.177 243.492C312.066 241.673 311.757 238.994 310.925 235.629C310.064 232.287 308.621 228.26 306.096 224.042C303.578 219.838 299.964 215.443 295.039 211.696C292.587 209.819 289.804 208.133 286.735 206.742C283.665 205.35 280.315 204.231 276.745 203.591C269.626 202.259 261.609 202.663 253.923 205.454C246.267 208.229 238.986 213.412 233.745 220.597C228.474 227.73 225.316 236.837 225.33 246.267C225.308 255.697 228.466 264.811 233.737 271.945C238.979 279.13 246.26 284.312 253.916 287.088C261.602 289.878 269.619 290.283 276.737 288.95C280.308 288.31 283.665 287.191 286.727 285.8C289.797 284.408 292.58 282.722 295.031 280.845C299.956 277.098 303.564 272.703 306.089 268.499C308.614 264.281 310.057 260.254 310.918 256.912C311.75 253.555 312.059 250.868 312.169 249.057C312.25 248.152 312.236 247.452 312.265 246.988C312.287 246.525 312.302 246.282 312.302 246.282C312.302 246.282 312.331 247.239 312.243 249.064C312.155 250.883 311.875 253.577 311.058 256.956C310.219 260.313 308.79 264.37 306.273 268.617C303.755 272.85 300.14 277.289 295.193 281.073C292.734 282.973 289.937 284.673 286.845 286.087C283.76 287.493 280.389 288.626 276.789 289.282C273.196 289.952 269.39 290.217 265.503 289.922C261.616 289.664 257.656 288.825 253.783 287.449C246.054 284.658 238.707 279.439 233.414 272.195C228.091 264.995 224.896 255.808 224.918 246.289C224.896 236.778 228.091 227.583 233.414 220.39C238.707 213.147 246.054 207.927 253.776 205.137C257.648 203.753 261.609 202.921 265.496 202.663C269.383 202.362 273.189 202.634 276.782 203.304C280.381 203.959 283.753 205.093 286.838 206.499C289.922 207.905 292.727 209.613 295.186 211.512C300.126 215.296 303.748 219.735 306.265 223.968C308.783 228.216 310.211 232.272 311.05 235.637C311.868 239.016 312.147 241.703 312.236 243.528C312.324 245.354 312.295 246.311 312.295 246.311L312.309 246.267Z" fill="#263238"/>
<path d="M411.648 291.858L410.456 271.65L408.129 251.538L410.419 271.017L412.856 291.747L411.641 291.858H411.648ZM389.718 287.897L389.195 287.647L398.854 268.337L389.725 287.905L389.718 287.897ZM433.829 283.738L410.294 250.787L433.859 283.716L433.829 283.738ZM372.631 273.961L387.87 262.242L372.226 273.417L387.885 262.234L404.728 249.278L405.177 249.881L388.687 261.66L372.639 273.961H372.631ZM398.243 269.537L406.834 251.206L398.839 268.33L398.235 269.537H398.243ZM447.964 267.27L430.516 257.964L411.538 249.66L412.237 248.217L430.104 257.744L448.634 265.886L430.524 257.964L447.971 267.27H447.964ZM363.944 253.702L363.768 252.509L383.872 250.146L403.815 246.664L384.513 250.073L403.977 247.783L384.506 250.073L363.937 253.702H363.944ZM453.154 245.663H412.664L453.154 245.626V245.663ZM403.963 243.808L384.528 237.734L365.233 232.022L382.555 237.116L365.321 231.727L382.65 237.145L404.073 243.447L403.963 243.808ZM412.451 243.749L430.796 236.873L450.364 229.533L450.747 230.638L431.422 236.674L412.451 243.749ZM411.648 241.658L410.382 240.495L424.701 226.176L437.805 210.746L425.01 225.867L439.012 211.865L425.003 225.875L411.641 241.665L411.648 241.658ZM405.192 241.334L390.866 227.008L376.025 213.264L390.226 226.368L376.562 212.704L390.233 226.375L405.774 240.723L405.185 241.334H405.192ZM409.197 239.891L413.238 222.724L413.872 220.191L409.197 239.891ZM407.482 239.818L402.085 222.554L401.474 220.486L407.482 239.818ZM413.238 222.724L418.473 200.477L418.782 200.55L413.238 222.724ZM402.085 222.562L395.401 201.176L395.762 201.066L402.085 222.562Z" fill="#E0E0E0"/>
<path d="M408.21 292.005C382.996 292.005 362.479 271.488 362.479 246.274C362.479 221.06 382.996 200.543 408.21 200.543C433.424 200.543 453.941 221.06 453.941 246.274C453.941 271.488 433.424 292.005 408.21 292.005ZM408.21 202.744C384.21 202.744 364.687 222.267 364.687 246.267C364.687 270.266 384.21 289.789 408.21 289.789C432.209 289.789 451.732 270.266 451.732 246.267C451.732 222.267 432.209 202.744 408.21 202.744Z" fill="#E0E0E0"/>
<path d="M408.21 294.994C381.347 294.994 359.49 273.137 359.49 246.267C359.49 219.397 381.347 197.547 408.21 197.547C435.073 197.547 456.93 219.404 456.93 246.267C456.93 273.13 435.073 294.994 408.21 294.994ZM408.21 200.492C382.967 200.492 362.435 221.031 362.435 246.267C362.435 271.503 382.974 292.049 408.21 292.049C433.446 292.049 453.986 271.51 453.986 246.267C453.986 221.023 433.446 200.492 408.21 200.492Z" fill="#263238"/>
<path d="M451.8 246.413C451.8 246.413 451.777 246.171 451.763 245.707C451.733 245.243 451.748 244.544 451.667 243.638C451.557 241.82 451.247 239.14 450.415 235.776C449.554 232.434 448.111 228.407 445.586 224.188C443.068 219.985 439.454 215.59 434.529 211.843C432.077 209.966 429.295 208.28 426.225 206.888C423.155 205.497 419.805 204.378 416.235 203.737C409.116 202.405 401.099 202.81 393.414 205.6C385.757 208.375 378.477 213.558 373.235 220.743C367.964 227.877 364.806 236.983 364.821 246.413C364.799 255.844 367.957 264.958 373.228 272.091C378.469 279.276 385.75 284.459 393.406 287.234C401.092 290.024 409.109 290.429 416.228 289.097C419.798 288.456 423.155 287.337 426.217 285.946C429.287 284.555 432.07 282.869 434.522 280.992C439.447 277.244 443.054 272.849 445.579 268.646C448.104 264.428 449.547 260.401 450.408 257.059C451.24 253.702 451.549 251.015 451.66 249.204C451.741 248.298 451.726 247.599 451.755 247.135C451.777 246.671 451.792 246.428 451.792 246.428C451.792 246.428 451.822 247.385 451.733 249.211C451.645 251.029 451.365 253.724 450.548 257.103C449.709 260.46 448.281 264.516 445.763 268.764C443.245 272.997 439.631 277.436 434.683 281.22C432.225 283.119 429.427 284.82 426.335 286.233C423.251 287.639 419.879 288.773 416.279 289.428C412.687 290.098 408.881 290.363 404.994 290.069C401.107 289.811 397.146 288.972 393.274 287.595C385.544 284.805 378.197 279.585 372.904 272.342C367.581 265.142 364.386 255.954 364.408 246.436C364.386 236.924 367.581 227.729 372.904 220.537C378.197 213.293 385.544 208.074 393.266 205.283C397.139 203.899 401.099 203.068 404.986 202.81C408.873 202.508 412.679 202.78 416.272 203.45C419.872 204.106 423.243 205.239 426.328 206.645C429.412 208.051 432.217 209.759 434.676 211.659C439.616 215.443 443.238 219.882 445.756 224.115C448.273 228.363 449.701 232.419 450.541 235.783C451.358 239.162 451.638 241.849 451.726 243.675C451.814 245.501 451.785 246.458 451.785 246.458L451.8 246.413Z" fill="#263238"/>
<path d="M268.743 170.581C268.743 170.581 259.806 166.944 259.173 164.625C258.539 162.306 257.384 160.414 255.698 162.1C254.012 163.786 253.21 166.377 255.838 169.536L264.709 175.16L268.75 171.847V170.581H268.743Z" fill="#263238"/>
<path d="M252.458 184.738C253.599 183.921 254.777 183.016 255.402 181.72C256.168 180.137 255.925 178.495 255.682 176.817C255.358 174.608 255.233 171.001 257.868 170.066C258.59 169.809 259.076 169.094 258.862 168.314C258.671 167.615 257.839 167.063 257.11 167.32C254.077 168.395 252.686 171.428 252.656 174.491C252.642 176.11 253.113 177.686 253.098 179.291C253.083 180.689 252.075 181.528 251.015 182.279C250.389 182.728 250.087 183.524 250.507 184.23C250.867 184.849 251.824 185.187 252.458 184.738Z" fill="#263238"/>
<path d="M364.613 187.624L370.532 161.482H375.155L369.524 189.067L364.613 187.624Z" fill="#E0E0E0"/>
<path d="M265.488 246.671L288.442 186.018L283.856 179.974L289.127 176.102L294.516 182.514L366.315 184.649L370.688 185.193C370.688 185.193 395.99 226.345 400.451 231.94C405.221 237.918 410.765 245.353 410.765 245.353L406.156 248.372C406.156 248.372 393.575 232.993 387.296 222.613C381.009 212.233 369.127 192.842 369.127 192.842L352.828 256.956L347.064 255.969L362.067 190.582L298.152 189.066L349.405 246.598L347.064 255.969L293.161 193.645L271.238 248.305L265.503 246.664L265.488 246.671Z" fill="#1E4C2F"/>
<path d="M352.121 251.148L405.744 244.258L406.657 248.292L352.121 256.957V251.148Z" fill="#1E4C2F"/>
<path d="M356.818 160.996C355.25 160.959 354.631 158.972 355.883 158.029C356.81 157.33 358.15 156.763 360.057 156.704C365.35 156.535 394.812 156.704 394.812 156.704C394.812 156.704 395.886 158.243 393.825 159.951C391.756 161.659 386.103 163.367 383.047 163.367C379.992 163.367 371.372 161.946 366.697 161.489C363.819 161.21 359.622 161.062 356.81 160.996H356.818Z" fill="#1E4C2F"/>
<path d="M275.883 189.508C272.791 189.14 269.648 187.704 267.719 185.202C265.93 182.883 265.201 179.746 266.357 176.986C267.557 174.115 270.244 172.922 273.196 172.723C276.98 172.466 280.845 172.738 284.636 172.841C289.142 172.966 293.64 173.15 298.138 173.386C300.582 173.511 300.574 169.72 298.138 169.587C293.514 169.344 288.884 169.16 284.261 169.035C282.008 168.976 279.755 168.925 277.503 168.888C275.419 168.858 273.343 168.822 271.275 169.138C267.299 169.749 264.148 172.208 262.698 175.97C261.314 179.57 262.08 183.773 264.281 186.887C267.005 190.745 271.282 192.755 275.89 193.299C276.906 193.417 277.79 192.342 277.79 191.4C277.79 190.274 276.914 189.626 275.89 189.501L275.883 189.508Z" fill="#E0E0E0"/>
<path d="M364.613 185.548L365.585 181.256H371.57L370.672 186.166L365.136 187.41L364.613 185.548Z" fill="#1E4C2F"/>
<path d="M300.604 182.691L303.246 185.732L335.984 186.564L333.864 183.678L300.604 182.691Z" fill="#E0E0E0"/>
<path d="M305.469 197.297L303.85 206.021L308.134 210.975L309.783 202.141L305.469 197.297Z" fill="#E0E0E0"/>
<path d="M311.691 204.275L309.99 213.109L314.267 218.057L315.953 209.061L311.691 204.275Z" fill="#263238"/>
<path d="M268.69 250.964C271.361 250.964 273.527 248.799 273.527 246.128C273.527 243.456 271.361 241.291 268.69 241.291C266.019 241.291 263.854 243.456 263.854 246.128C263.854 248.799 266.019 250.964 268.69 250.964Z" fill="#E0E0E0"/>
<path d="M273.527 246.127C273.483 246.127 273.497 245.7 273.299 244.964C273.1 244.25 272.614 243.197 271.532 242.395C270.486 241.585 268.771 241.136 267.107 241.754C266.29 242.049 265.51 242.608 264.958 243.381C264.391 244.139 264.067 245.119 264.06 246.12C264.067 247.128 264.391 248.1 264.958 248.866C265.51 249.639 266.29 250.198 267.107 250.493C268.771 251.111 270.486 250.662 271.532 249.852C272.614 249.05 273.1 247.997 273.299 247.283C273.497 246.554 273.483 246.12 273.527 246.12C273.542 246.12 273.549 246.223 273.549 246.429C273.549 246.635 273.534 246.937 273.446 247.32C273.291 248.071 272.82 249.19 271.701 250.073C270.619 250.956 268.786 251.479 266.982 250.831C266.099 250.522 265.245 249.926 264.641 249.094C264.023 248.277 263.669 247.209 263.662 246.12C263.669 245.03 264.023 243.97 264.641 243.146C265.245 242.314 266.091 241.717 266.982 241.408C268.786 240.76 270.619 241.283 271.701 242.167C272.82 243.05 273.291 244.169 273.446 244.92C273.527 245.303 273.556 245.604 273.549 245.811C273.549 246.017 273.542 246.12 273.527 246.12V246.127Z" fill="#263238"/>
<path d="M357.846 274.233L344.455 279.646L346.392 284.438L359.783 279.025L357.846 274.233Z" fill="#263238"/>
<path d="M346.386 284.431V284.416L344.436 279.609H344.45L357.856 274.184V274.198L359.807 279.006H359.792L346.386 284.431ZM344.487 279.631L346.408 284.387L359.763 278.991L357.841 274.235L344.487 279.631Z" fill="#FC8838"/>
<path d="M351.952 279.291C350.597 279.174 349.589 277.981 349.707 276.626L351.4 256.956C351.518 255.601 352.71 254.593 354.065 254.711C355.419 254.828 356.428 256.021 356.31 257.375L354.617 277.046C354.499 278.401 353.306 279.409 351.952 279.291Z" fill="#263238"/>
<path d="M351.953 279.292C351.953 279.292 352.151 279.292 352.505 279.233C352.851 279.174 353.388 279.005 353.859 278.512C354.095 278.269 354.294 277.945 354.419 277.555C354.544 277.172 354.529 276.708 354.581 276.215C354.654 275.221 354.743 274.102 354.839 272.865C355.045 270.37 355.28 267.425 355.545 264.156C355.685 262.515 355.825 260.799 355.98 259.018C356.016 258.569 356.053 258.12 356.097 257.671C356.149 257.207 356.149 256.809 355.994 256.397C355.715 255.587 354.934 254.969 354.058 254.903C353.182 254.822 352.306 255.293 351.894 256.044C351.673 256.419 351.607 256.817 351.577 257.281C351.54 257.737 351.496 258.186 351.459 258.628C351.305 260.409 351.15 262.132 351.003 263.766C350.709 267.035 350.436 269.98 350.208 272.468C350.09 273.697 349.987 274.816 349.891 275.81C349.855 276.303 349.759 276.76 349.818 277.157C349.869 277.562 350.017 277.916 350.208 278.195C350.591 278.762 351.091 279.012 351.423 279.138C351.761 279.255 351.96 279.27 351.953 279.285C351.953 279.285 351.754 279.307 351.393 279.211C351.04 279.108 350.502 278.865 350.075 278.284C349.862 277.997 349.7 277.621 349.626 277.187C349.553 276.745 349.641 276.281 349.663 275.795C349.737 274.802 349.825 273.683 349.921 272.446C350.127 269.95 350.363 267.005 350.628 263.737C350.767 262.095 350.907 260.38 351.062 258.598C351.099 258.149 351.136 257.7 351.18 257.251C351.202 256.817 351.29 256.272 351.548 255.852C352.034 254.976 353.064 254.417 354.088 254.513C355.118 254.594 356.038 255.322 356.362 256.272C356.546 256.728 356.532 257.281 356.48 257.715C356.443 258.171 356.399 258.62 356.362 259.062C356.208 260.844 356.053 262.559 355.906 264.201C355.612 267.469 355.339 270.414 355.111 272.902C354.993 274.132 354.89 275.251 354.794 276.244C354.735 276.73 354.743 277.201 354.596 277.628C354.456 278.048 354.22 278.387 353.97 278.637C353.447 279.145 352.88 279.292 352.512 279.329C352.144 279.366 351.953 279.307 351.953 279.307V279.292Z" fill="#FC8838"/>
<path d="M282.327 168.69L278.297 172.076L287.925 183.534L291.955 180.148L282.327 168.69Z" fill="#E0E0E0"/>
<path d="M350.009 268.926C357.132 268.926 362.907 263.152 362.907 256.029C362.907 248.905 357.132 243.131 350.009 243.131C342.886 243.131 337.111 248.905 337.111 256.029C337.111 263.152 342.886 268.926 350.009 268.926Z" fill="#E0E0E0"/>
<path d="M344.915 239.911L357.791 233.367L355.45 228.76L342.573 235.304L344.915 239.911Z" fill="#263238"/>
<path d="M344.907 239.943V239.929L342.551 235.305H342.565L355.456 228.746V228.761L357.812 233.384H357.797L344.907 239.943ZM342.602 235.32L344.929 239.892L357.768 233.362L355.441 228.79L342.602 235.32Z" fill="#FC8838"/>
<path d="M350.185 263.324C354.255 263.324 357.555 260.025 357.555 255.955C357.555 251.885 354.255 248.586 350.185 248.586C346.116 248.586 342.816 251.885 342.816 255.955C342.816 260.025 346.116 263.324 350.185 263.324Z" fill="#263238"/>
<path d="M350.355 234.348C351.717 234.348 352.821 235.452 352.821 236.814V256.558C352.821 257.92 351.717 259.024 350.355 259.024C348.993 259.024 347.889 257.92 347.889 256.558V236.814C347.889 235.452 348.993 234.348 350.355 234.348Z" fill="#263238"/>
<path d="M350.355 234.349C350.355 234.349 350.163 234.363 349.81 234.452C349.471 234.547 348.949 234.753 348.522 235.283C348.308 235.548 348.131 235.887 348.05 236.285C347.962 236.675 348.014 237.139 348.006 237.639C348.014 238.633 348.028 239.759 348.036 240.996C348.05 243.499 348.065 246.451 348.08 249.735C348.08 251.384 348.087 253.106 348.095 254.895C348.095 255.344 348.095 255.793 348.095 256.25C348.08 256.713 348.117 257.111 348.301 257.509C348.647 258.289 349.479 258.841 350.362 258.834C351.245 258.841 352.077 258.289 352.423 257.516C352.615 257.118 352.644 256.721 352.629 256.257C352.629 255.801 352.629 255.352 352.629 254.903C352.629 253.114 352.637 251.391 352.644 249.742C352.659 246.466 352.674 243.507 352.688 241.004C352.696 239.767 352.71 238.64 352.718 237.647C352.718 237.153 352.762 236.69 352.674 236.292C352.585 235.895 352.409 235.556 352.202 235.291C351.776 234.761 351.253 234.547 350.914 234.459C350.561 234.371 350.369 234.378 350.369 234.356C350.369 234.356 350.561 234.319 350.929 234.385C351.29 234.459 351.842 234.65 352.32 235.195C352.556 235.468 352.755 235.828 352.858 236.255C352.968 236.69 352.924 237.161 352.939 237.647C352.946 238.64 352.961 239.767 352.968 241.004C352.983 243.507 352.998 246.459 353.012 249.742C353.012 251.391 353.02 253.114 353.027 254.903C353.027 255.352 353.027 255.801 353.027 256.257C353.042 256.699 353.005 257.236 352.784 257.685C352.379 258.598 351.4 259.246 350.369 259.239C349.339 259.246 348.36 258.598 347.955 257.685C347.734 257.244 347.697 256.699 347.712 256.257C347.712 255.801 347.712 255.352 347.712 254.903C347.712 253.114 347.719 251.391 347.727 249.742C347.741 246.466 347.756 243.507 347.771 241.004C347.778 239.767 347.793 238.64 347.8 237.647C347.822 237.161 347.771 236.69 347.881 236.255C347.984 235.828 348.19 235.468 348.419 235.195C348.897 234.65 349.449 234.452 349.81 234.385C350.178 234.319 350.369 234.356 350.369 234.356L350.355 234.349Z" fill="#FC8838"/>
<path d="M292.13 142.917C292.13 142.917 292.123 142.836 292.13 142.666C292.13 142.475 292.13 142.225 292.138 141.901C292.152 141.201 292.167 140.2 292.196 138.934C292.255 136.313 292.344 132.559 292.447 127.936C292.476 126.772 292.506 125.55 292.542 124.277C292.587 123.003 292.587 121.678 292.704 120.309C292.962 117.592 293.691 114.64 295.421 112.042C296.282 110.753 297.387 109.561 298.756 108.663C300.118 107.757 301.73 107.168 303.416 106.984C305.102 106.778 306.935 107.131 308.392 108.14C309.865 109.119 311.028 110.532 311.904 112.086C312.662 113.455 313.214 114.905 313.582 116.385C313.774 117.121 313.892 117.872 313.972 118.63C314.017 119.389 313.995 120.14 313.958 120.868C313.781 123.806 313.457 126.633 313.148 129.349C312.508 134.775 311.815 139.729 311.19 144.036L311.168 144.176H311.028C305.234 143.793 300.508 143.491 297.202 143.285C295.598 143.174 294.331 143.086 293.448 143.027C293.036 142.998 292.719 142.976 292.476 142.954C292.263 142.939 292.152 142.924 292.16 142.917C292.16 142.917 292.285 142.917 292.513 142.917C292.763 142.924 293.095 142.939 293.514 142.961C294.405 143.005 295.686 143.064 297.306 143.145C300.589 143.314 305.293 143.565 311.05 143.866L310.888 143.999C311.484 139.692 312.154 134.738 312.78 129.312C313.082 126.603 313.406 123.776 313.575 120.854C313.612 120.125 313.634 119.389 313.59 118.667C313.516 117.938 313.406 117.21 313.214 116.488C312.854 115.045 312.316 113.617 311.573 112.285C310.719 110.768 309.6 109.406 308.194 108.471C306.802 107.507 305.087 107.176 303.475 107.374C301.848 107.544 300.294 108.11 298.984 108.979C297.666 109.848 296.584 110.989 295.745 112.248C294.052 114.773 293.323 117.666 293.05 120.346C292.925 121.693 292.918 123.003 292.866 124.262C292.822 125.521 292.785 126.728 292.741 127.884C292.572 132.493 292.439 136.232 292.344 138.846C292.292 140.134 292.248 141.135 292.219 141.849C292.204 142.181 292.189 142.438 292.182 142.637C292.174 142.814 292.167 142.909 292.16 142.917H292.13Z" fill="#263238"/>
<path d="M294.036 95.808C292.873 92.8854 291.68 89.9555 290.031 87.2832C288.382 84.6108 286.233 82.1741 283.509 80.6061C283.096 80.3705 280.093 78.9718 279.754 79.3104C279.519 79.5533 281.97 81.1435 282.029 81.4821C282.566 84.6845 284.385 87.5703 286.66 89.8966C288.934 92.2229 291.312 94.0339 294.036 95.8154" fill="#263238"/>
<path d="M265.981 102.36C261.438 96.5883 262.094 88.299 267.475 83.3003L268.012 82.8071C274.101 77.7938 281.757 80.1642 286.601 86.3849L302.959 106.703L304.144 121.25L295.774 125.277C294.338 123.584 289.038 117.451 289.023 117.466C289.023 117.466 282.67 121.743 277.465 116.259C274.947 113.609 270.206 107.734 265.981 102.36Z" fill="#AE7461"/>
<path d="M289.029 117.467C289.029 117.467 292.718 114.434 294.278 108.633C294.278 108.633 296.406 114.412 290.406 119.05L289.029 117.467Z" fill="#6F4439"/>
<path d="M272.494 105.702C272.87 106.137 273.54 106.174 273.996 105.791C274.453 105.408 274.526 104.753 274.151 104.318C273.775 103.884 273.105 103.847 272.649 104.223C272.193 104.606 272.119 105.261 272.494 105.695V105.702Z" fill="#263238"/>
<path d="M269.432 103.723C269.623 103.738 269.815 102.737 270.669 101.949C271.508 101.146 272.546 101.007 272.539 100.815C272.539 100.727 272.266 100.631 271.81 100.69C271.361 100.742 270.72 100.97 270.19 101.47C269.66 101.964 269.395 102.575 269.322 103.016C269.248 103.458 269.329 103.73 269.425 103.73L269.432 103.723Z" fill="#263238"/>
<path d="M280.336 99.011C280.712 99.4453 281.382 99.4821 281.838 99.0993C282.294 98.7165 282.368 98.0613 281.993 97.627C281.617 97.1926 280.947 97.1558 280.491 97.5313C280.034 97.9141 279.961 98.5693 280.336 99.0036V99.011Z" fill="#263238"/>
<path d="M277.914 96.4848C278.106 96.4995 278.297 95.4983 279.151 94.7106C279.99 93.9082 281.028 93.7683 281.021 93.5769C281.021 93.4886 280.749 93.3929 280.292 93.4518C279.843 93.5033 279.203 93.7315 278.673 94.2321C278.143 94.7253 277.878 95.3364 277.804 95.7781C277.73 96.2198 277.811 96.4922 277.907 96.4922L277.914 96.4848Z" fill="#263238"/>
<path d="M280.991 105.555C280.947 105.504 280.336 105.901 279.371 106.586C279.136 106.763 278.886 106.91 278.709 106.8C278.51 106.689 278.385 106.373 278.26 106.019C277.973 105.305 277.678 104.554 277.369 103.767C276.073 100.579 274.925 98.0391 274.792 98.0906C274.667 98.1421 275.61 100.77 276.905 103.965C277.229 104.746 277.538 105.489 277.833 106.203C277.98 106.527 278.098 106.939 278.51 107.16C278.716 107.271 278.989 107.241 279.165 107.146C279.342 107.057 279.467 106.947 279.585 106.851C280.49 106.1 281.035 105.607 280.991 105.555Z" fill="#263238"/>
<path d="M276.258 94.543C276.567 94.6608 277.104 93.7701 277.995 92.9308C278.864 92.0769 279.791 91.5689 279.673 91.2671C279.614 91.1272 279.276 91.0683 278.79 91.1861C278.304 91.2965 277.686 91.5983 277.156 92.1063C276.626 92.6143 276.309 93.2106 276.184 93.6817C276.059 94.1529 276.11 94.4841 276.258 94.543Z" fill="#263238"/>
<path d="M266.437 100.512C266.79 100.549 267.313 99.7094 268.152 98.9364C268.969 98.1413 269.83 97.6628 269.816 97.3095C269.801 97.1475 269.507 97.0518 269.028 97.1475C268.549 97.2432 267.902 97.5524 267.335 98.0898C266.768 98.6272 266.422 99.2603 266.312 99.7241C266.194 100.195 266.275 100.482 266.444 100.512H266.437Z" fill="#263238"/>
<path d="M289.957 90.913C290.016 90.7879 292.725 86.253 296.119 90.1548C299.513 94.0638 294.889 96.6625 294.786 96.5595C294.683 96.4564 289.957 90.913 289.957 90.913Z" fill="#AE7461"/>
<path d="M294.691 94.0414C294.691 94.0414 294.802 94.0267 294.964 93.9826C295.118 93.9384 295.347 93.8059 295.479 93.5482C295.759 93.0403 295.538 92.0832 294.949 91.3618C294.647 91.001 294.279 90.7213 293.911 90.552C293.543 90.3679 293.182 90.3311 292.947 90.471C292.696 90.6035 292.66 90.8538 292.704 91.0084C292.748 91.163 292.836 91.2219 292.822 91.244C292.822 91.2661 292.682 91.244 292.571 91.0599C292.52 90.9716 292.483 90.8391 292.512 90.6845C292.542 90.5299 292.645 90.3679 292.8 90.2575C293.116 90.0146 293.631 90.0587 294.036 90.2428C294.463 90.4195 294.883 90.7139 295.222 91.1262C295.884 91.936 296.12 93.0182 295.693 93.6734C295.479 93.9826 295.177 94.1003 294.979 94.1077C294.772 94.1151 294.677 94.0488 294.684 94.0267L294.691 94.0414Z" fill="#6F4439"/>
<path d="M262.962 93.6661C262.027 93.8575 262.174 90.1619 263.131 88.1154C264.581 85.0234 267.629 81.2763 270.338 80.0322C273.6 78.5377 276.898 77.9782 280.255 79.2445C283.611 80.5107 286.49 82.8738 288.743 85.6639C289.427 86.5179 290.082 87.4602 290.244 88.5423C290.436 89.8822 289.854 91.3324 290.922 92.4882C291.312 92.9152 291.57 93.46 291.54 94.0416C291.474 95.4256 289.979 95.455 288.956 95.0796C286.777 94.2771 285.106 92.5177 283.523 90.8171C282.397 89.6098 281.248 88.3657 280.578 86.8639C280.21 86.0467 279.989 85.1633 279.577 84.3609C279.165 83.5584 278.502 82.8223 277.619 82.6309C277.479 82.6014 277.273 82.5867 277.023 82.5793C275.072 82.5572 273.261 83.5953 272.289 85.2811C270.743 87.9608 267.96 92.3631 266.326 92.4514C263.978 92.5839 263.035 92.1717 263.035 92.1717L262.962 93.6661Z" fill="#263238"/>
<path d="M284.229 103.737C284.089 103.848 284.855 104.753 284.619 106.056C284.391 107.359 283.338 108.073 283.434 108.206C283.471 108.272 283.795 108.206 284.214 107.867C284.626 107.543 285.105 106.917 285.245 106.122C285.385 105.327 285.142 104.628 284.862 104.23C284.575 103.818 284.288 103.686 284.229 103.737Z" fill="#263238"/>
<path d="M289.95 86.9744C291.003 82.0568 290.966 79.2004 289.398 76.4766L259.178 103.126C259.178 103.126 263.389 103.774 265.914 102.353L264.655 100.491C264.655 100.491 279.481 86.8934 285.297 85.826L287.859 85.2444L289.95 86.9744Z" fill="#FC8838"/>
<path d="M283.839 83.9629C283.839 83.9629 290.891 91.3835 294.705 98.2741C298.665 105.437 292.482 113.042 292.482 113.042C292.482 113.042 296.059 103.471 290.987 97.0521C286.393 91.2363 281.623 85.8328 281.623 85.8328L283.839 83.9629Z" fill="#FC8838"/>
<path d="M283.164 73.752C283.164 73.752 285.998 74.1937 286.256 75.0771C286.447 75.7102 274.168 80.0021 274.168 80.0021L273.939 77.4991L277.569 74.5838L283.164 73.7593V73.752Z" fill="#263238"/>
<path d="M277.376 69.3428C277.376 69.3428 278.621 69.4827 278.473 71.0875L278.297 73.031C278.297 73.031 280.925 73.1415 283.413 73.8261C283.413 73.8261 278.039 75.3941 275.757 78.5523C275.588 78.7879 275.845 79.0897 276.103 78.9499C278.37 77.7425 284.377 74.6432 286.078 74.8052C286.461 74.842 287.58 74.9377 288.507 75.7033C290.363 77.2272 291.158 79.686 290.789 82.0565L290.34 84.9202L285.776 84.5669C284.024 84.4344 282.301 84.9938 280.947 86.1128C277.855 88.6821 271.612 92.9887 270.28 94.1592C269.168 95.1383 261.49 102.912 259.598 103.089C257.713 103.266 255.784 103.619 255.954 101.896C256.123 100.174 257.242 91.6268 259.966 85.7816C262.69 79.9363 266.937 76.5941 266.937 76.5941C266.937 76.5941 275.963 69.041 277.369 69.3428" fill="#FC8838"/>
<path d="M285.085 74.724C285.107 74.7756 284.304 75.2026 282.979 75.8504C281.654 76.5056 279.821 77.3816 277.775 78.3239C277.267 78.5595 276.766 78.7877 276.28 79.0086C276.067 79.1116 275.787 78.9939 275.699 78.7951C275.647 78.6994 275.632 78.5669 275.677 78.4564C275.691 78.4049 275.728 78.3534 275.758 78.3166L275.816 78.243C275.978 78.0442 276.148 77.8528 276.317 77.6687C277.002 76.9473 277.716 76.4025 278.356 76.0124C278.989 75.6222 279.549 75.3792 279.939 75.232C280.329 75.0848 280.557 75.048 280.565 75.0627C280.594 75.1289 279.718 75.4234 278.511 76.2406C277.907 76.6528 277.237 77.1976 276.589 77.9043C276.427 78.081 276.265 78.265 276.111 78.4638C276 78.5963 276.037 78.5521 276.045 78.6037C276.067 78.6405 276.096 78.6479 276.133 78.6331C276.611 78.4123 277.112 78.1767 277.62 77.9411C279.659 76.9988 281.522 76.1596 282.869 75.5706C284.216 74.9817 285.07 74.6431 285.092 74.6946L285.085 74.724Z" fill="#263238"/>
<path d="M267.387 82.042C267.35 82.0125 267.777 81.3205 268.602 80.2899C269.426 79.2592 270.678 77.9194 272.224 76.6237C273.777 75.3281 275.316 74.3416 276.479 73.7159C277.642 73.0827 278.4 72.7883 278.422 72.8324C278.452 72.8913 277.73 73.2741 276.619 73.9588C275.507 74.6434 274.005 75.652 272.474 76.9329C270.95 78.2139 269.684 79.5022 268.815 80.4813C267.939 81.453 267.438 82.0935 267.387 82.0567V82.042Z" fill="#263238"/>
<path d="M274.094 80.9376C274.013 80.7168 273.792 80.5695 273.564 80.518C273.336 80.4665 272.872 80.3781 272.644 80.4297C271.974 80.5916 271.363 80.9303 270.869 81.983C270.575 82.8001 271.731 83.3155 272.356 83.1093C272.982 82.9032 273.446 82.3952 273.829 81.8652C274.028 81.5928 274.212 81.2468 274.094 80.9303V80.9376Z" fill="#263238"/>
<path d="M269.072 85.2521C268.991 85.0312 268.771 84.884 268.542 84.8325C268.314 84.7809 267.85 84.6926 267.622 84.7441C266.952 84.9061 266.341 85.2447 265.848 86.2974C265.553 87.1146 266.709 87.6299 267.335 87.4238C267.961 87.2177 268.425 86.7097 268.807 86.1797C269.006 85.9073 269.19 85.5613 269.072 85.2447V85.2521Z" fill="#263238"/>
<path d="M289.346 84.4045C289.339 84.4413 288.824 84.2941 287.881 84.2205C286.939 84.1395 285.548 84.2205 283.928 84.7064C282.308 85.1849 280.497 86.1272 278.716 87.4891C276.92 88.8363 275.16 90.581 273.224 92.3331C269.344 95.8447 265.406 98.4949 262.505 100.306C261.055 101.211 259.863 101.911 259.031 102.375C258.648 102.588 258.324 102.765 258.066 102.905C257.845 103.022 257.72 103.074 257.713 103.067C257.713 103.052 257.816 102.978 258.022 102.838C258.272 102.676 258.574 102.485 258.95 102.242C259.804 101.697 260.952 100.961 262.358 100.063C265.214 98.2004 269.101 95.5208 272.959 92.0313C274.88 90.2866 276.662 88.5418 278.495 87.1873C280.313 85.818 282.176 84.8757 283.847 84.4266C285.511 83.9555 286.939 83.926 287.889 84.0585C288.367 84.1101 288.735 84.1984 288.978 84.272C289.221 84.3456 289.346 84.3898 289.339 84.3972L289.346 84.4045Z" fill="#263238"/>
<path d="M302.723 112.998C302.723 112.998 294.25 114.86 293.941 121.611C293.631 128.369 293.087 153.156 292.66 154.812C292.225 156.469 269.271 178.569 269.271 178.569L277.966 183.501C277.966 183.501 302.951 168.159 307.619 158.957C309.636 154.982 313.7 122.053 313.898 118.092C314.09 114.131 308.841 110.627 302.731 112.99L302.723 112.998Z" fill="#AE7461"/>
<path d="M269.308 177.671C269.308 177.671 265.318 176.898 264.899 177.038C264.479 177.178 260.003 180.535 259.304 181.308C258.604 182.081 257.905 185.224 259.304 186.417L260.158 187.05C260.158 187.05 260.283 189.428 261.961 189.81C263.64 190.193 263.64 189.81 263.64 189.81C263.64 189.81 263.08 191.879 264.972 191.879H266.864C266.864 191.879 268.057 193.911 269.316 193.278C270.574 192.645 275.389 189.199 275.949 187.801C276.508 186.402 276.964 185.209 276.964 185.209L280.049 182.728L272.143 174.594L269.308 177.671Z" fill="#263238"/>
<path d="M307.81 158.494C307.758 158.479 307.898 157.699 308.126 156.425C308.384 155.026 308.7 153.333 309.046 151.463C309.422 149.527 309.768 147.775 310.04 146.516C310.312 145.25 310.504 144.477 310.563 144.484C310.614 144.492 310.519 145.287 310.32 146.568C310.114 147.841 309.812 149.601 309.436 151.544C309.061 153.48 308.7 155.233 308.398 156.491C308.104 157.75 307.861 158.523 307.81 158.509V158.494Z" fill="#6F4439"/>
<path d="M291.584 122.325C291.665 122.685 309.282 137.873 312.543 139.801C315.804 141.738 344.809 144.476 344.809 144.476C344.809 144.476 352.267 135.097 354.681 131.755C356.883 128.715 362.963 123.311 365.768 122.663C371.216 121.404 373.292 121.044 373.292 121.044C373.292 121.044 370.001 112.916 351.891 107.145C333.789 101.373 317.696 98.6494 307.073 101.027C298.276 102.993 299.682 102.463 299.682 102.463L291.584 122.317V122.325Z" fill="#FC8838"/>
<path d="M292.129 142.915L311.012 144.012C311.012 144.012 314.082 122.825 313.765 118.709C313.448 114.594 310.327 106.592 303.724 107.129C297.12 107.667 292.828 113.946 292.747 122.287C292.659 130.628 292.136 142.915 292.136 142.915H292.129Z" fill="#EBEBEB"/>
<path d="M292.238 140.214L311.342 141.628L311.806 138.264L292.349 137.145L292.238 140.214Z" fill="#FC8838"/>
<path d="M343.102 156.012C343.102 156.012 341.431 194.765 341.6 201.78C341.769 208.796 349.345 258.053 349.345 258.053L362.272 258.296C362.272 258.296 363.199 228.386 363.818 219.817C364.436 211.248 363.648 203.451 363.818 200.61C363.987 197.768 370.244 169.359 371.459 164.353C372.674 159.355 373.005 157.684 374.345 155.011C375.677 152.339 378.46 144.609 378.688 141.775C379.572 130.909 374.993 124.158 374.993 124.158L349.624 142.644L343.109 156.005L343.102 156.012Z" fill="#263238"/>
<path d="M349.058 259.525L347.137 243.447L363.48 244.257L362.722 259.702L357.76 264.826L350.457 263.493L349.058 259.525Z" fill="#263238"/>
<path d="M334.651 277.179C334.651 277.179 340.143 278.128 344.678 277.216C349.213 276.303 355.787 273.925 358.202 273.071C360.624 272.224 367.956 272.261 368.177 269.67C368.398 267.078 362.707 258.288 362.707 258.288C362.707 258.288 361.846 261.182 359.321 261.366C356.795 261.557 351.753 260.806 351.753 260.806C351.753 260.806 349.257 257.758 347.799 257.795C346.334 257.832 347.291 261.881 347.291 261.881C347.291 261.881 344.325 267.218 342.028 268.565C339.724 269.913 339.724 270.664 336.904 271.061C334.084 271.459 332.848 272.651 332.848 272.651C332.848 272.651 331.817 275.11 332.575 275.868C333.334 276.627 334.651 277.179 334.651 277.179Z" fill="#FC8838"/>
<path d="M332.538 275.824C333.23 276.692 334.651 277.215 334.651 277.215C334.651 277.215 340.143 278.165 344.678 277.252C349.212 276.339 355.786 273.961 358.201 273.107C360.616 272.253 367.955 272.297 368.176 269.706C368.242 268.999 368.125 268.293 367.823 267.586C367.823 267.586 360.726 270.405 357.178 270.751C353.629 271.097 346.378 274.447 342.373 274.874C338.369 275.301 333.76 274.845 333.76 274.845L332.369 274.285C332.28 274.889 332.126 275.308 332.538 275.816V275.824Z" fill="#E0E0E0"/>
<path d="M342.844 267.77C342.911 267.755 343.028 268.396 343.485 269.021C343.934 269.654 344.501 269.964 344.471 270.03C344.457 270.089 343.787 269.853 343.293 269.161C342.8 268.477 342.786 267.762 342.844 267.77Z" fill="white"/>
<path d="M344.913 265.465C344.979 265.443 345.171 266.209 345.782 266.908C346.386 267.622 347.107 267.917 347.078 267.983C347.078 268.042 346.253 267.828 345.605 267.063C344.95 266.305 344.854 265.465 344.913 265.465Z" fill="white"/>
<path d="M346.326 263.324C346.385 263.287 346.775 263.78 347.364 264.273C347.945 264.774 348.497 265.091 348.461 265.149C348.438 265.208 347.82 264.973 347.209 264.45C346.598 263.927 346.274 263.353 346.326 263.316V263.324Z" fill="white"/>
<path d="M360.785 267.042C360.785 267.042 360.439 267.189 359.858 267.336C359.276 267.483 358.466 267.66 357.568 267.8C356.663 267.94 355.845 268.028 355.249 268.065C354.653 268.102 354.285 268.102 354.277 268.065C354.277 267.999 355.742 267.851 357.531 267.564C359.328 267.285 360.763 266.968 360.785 267.034V267.042Z" fill="white"/>
<path d="M344.441 224.911C344.441 224.911 344.404 224.771 344.36 224.506C344.316 224.204 344.257 223.814 344.176 223.314C344.022 222.239 343.808 220.715 343.543 218.808C343.02 214.906 342.284 209.429 341.415 202.958V202.936C341.401 198.166 341.504 192.799 341.688 187.153C342.041 176.677 342.512 167.202 342.704 160.341C342.792 156.933 342.858 154.165 342.91 152.214C342.932 151.279 342.947 150.543 342.954 150.005C342.961 149.77 342.969 149.586 342.976 149.431C342.976 149.299 342.991 149.232 342.998 149.232C343.006 149.232 343.013 149.299 343.02 149.431C343.02 149.586 343.028 149.77 343.035 150.005C343.035 150.543 343.05 151.279 343.064 152.214C343.064 154.135 343.057 156.911 342.984 160.349C342.866 167.217 342.439 176.692 342.085 187.167C341.901 192.814 341.784 198.173 341.776 202.936V202.914C342.586 209.393 343.271 214.877 343.764 218.779C343.992 220.693 344.169 222.217 344.301 223.292C344.353 223.792 344.397 224.19 344.426 224.491C344.448 224.764 344.463 224.904 344.448 224.904L344.441 224.911Z" fill="#FC8838"/>
<path d="M356.316 257.375C356.316 257.375 356.301 257.272 356.293 257.066C356.293 256.845 356.279 256.543 356.271 256.168C356.264 255.351 356.249 254.188 356.227 252.701C356.198 249.667 356.161 245.317 356.109 239.957C356.036 234.569 355.955 228.164 355.859 221.052C355.8 217.497 355.712 213.764 355.587 209.892C355.513 207.956 355.432 205.99 355.3 204.003C355.226 203.016 355.057 202.03 355.057 200.977C355.057 199.946 355.152 198.93 355.241 197.907C355.653 193.807 356.271 189.846 356.89 186.018C357.508 182.197 358.156 178.516 358.789 175.012C360.055 168.011 361.277 161.717 362.315 156.438C363.361 151.16 364.237 146.89 364.855 143.946C365.164 142.488 365.407 141.354 365.577 140.559C365.658 140.191 365.724 139.897 365.775 139.683C365.82 139.484 365.849 139.389 365.856 139.389C365.856 139.389 365.849 139.492 365.812 139.69C365.775 139.911 365.716 140.206 365.65 140.574C365.496 141.376 365.275 142.517 364.995 143.975C364.421 146.949 363.596 151.219 362.58 156.49C361.572 161.776 360.387 168.07 359.135 175.078C358.509 178.583 357.876 182.263 357.258 186.084C356.647 189.905 356.028 193.866 355.624 197.944C355.535 198.96 355.439 199.976 355.439 200.977C355.439 201.956 355.601 202.965 355.675 203.973C355.808 205.976 355.889 207.941 355.962 209.877C356.08 213.75 356.161 217.482 356.212 221.038C356.323 228.157 356.36 234.561 356.374 239.943C356.374 245.309 356.374 249.66 356.374 252.693C356.36 254.18 356.352 255.343 356.345 256.161C356.338 256.543 356.33 256.838 356.323 257.059C356.323 257.265 356.308 257.368 356.301 257.368L356.316 257.375Z" fill="#1E4C2F"/>
<path d="M155.08 176.747C155.08 176.747 153.409 215.499 153.578 222.515C153.748 229.53 161.323 278.788 161.323 278.788L174.25 279.031C174.25 279.031 175.178 249.12 175.796 240.551C176.415 231.982 175.627 224.186 175.796 221.344C175.965 218.503 182.223 190.094 183.438 185.088C184.652 180.089 184.984 178.418 186.323 175.746C187.663 173.073 190.439 165.343 190.667 162.509C191.55 151.643 186.971 144.893 186.971 144.893L161.603 163.378L155.088 176.739L155.08 176.747Z" fill="#FFBF9D"/>
<path d="M161.037 280.26L159.123 264.182L175.459 264.984L174.7 280.436L169.739 285.56L162.436 284.228L161.037 280.26Z" fill="#263238"/>
<path d="M146.63 297.913C146.63 297.913 152.122 298.863 156.657 297.95C161.191 297.037 167.765 294.659 170.18 293.805C172.602 292.959 179.934 292.995 180.155 290.404C180.376 287.813 174.685 279.023 174.685 279.023C174.685 279.023 173.824 281.916 171.299 282.1C168.774 282.291 163.731 281.541 163.731 281.541C163.731 281.541 161.236 278.493 159.778 278.53C158.313 278.566 159.27 282.615 159.27 282.615C159.27 282.615 156.303 287.953 154.006 289.3C151.702 290.647 151.702 291.398 148.883 291.795C146.063 292.193 144.826 293.386 144.826 293.386C144.826 293.386 143.796 295.844 144.554 296.603C145.312 297.361 146.63 297.913 146.63 297.913Z" fill="#FC8838"/>
<path d="M144.517 296.558C145.209 297.427 146.629 297.949 146.629 297.949C146.629 297.949 152.121 298.899 156.656 297.986C161.191 297.073 167.765 294.696 170.18 293.842C172.602 292.995 179.934 293.032 180.155 290.44C180.221 289.734 180.103 289.027 179.801 288.32C179.801 288.32 172.705 291.14 169.156 291.486C165.608 291.832 158.357 295.181 154.352 295.608C150.347 296.035 145.739 295.579 145.739 295.579L144.347 295.019C144.259 295.623 144.104 296.043 144.517 296.551V296.558Z" fill="#E0E0E0"/>
<path d="M154.823 288.504C154.889 288.489 155.007 289.13 155.463 289.756C155.912 290.389 156.479 290.698 156.45 290.764C156.435 290.823 155.765 290.588 155.272 289.896C154.779 289.211 154.764 288.497 154.823 288.504Z" fill="white"/>
<path d="M156.892 286.2C156.958 286.178 157.149 286.943 157.76 287.643C158.364 288.357 159.085 288.651 159.056 288.717C159.056 288.776 158.232 288.563 157.584 287.797C156.929 287.039 156.833 286.2 156.892 286.2Z" fill="white"/>
<path d="M158.304 284.058C158.363 284.021 158.753 284.515 159.342 285.008C159.924 285.508 160.476 285.825 160.439 285.884C160.417 285.943 159.799 285.715 159.188 285.184C158.577 284.662 158.253 284.088 158.304 284.051V284.058Z" fill="white"/>
<path d="M172.764 287.776C172.764 287.776 172.418 287.923 171.836 288.07C171.254 288.218 170.445 288.394 169.547 288.534C168.641 288.674 167.824 288.762 167.228 288.799C166.631 288.836 166.256 288.836 166.256 288.799C166.256 288.733 167.721 288.578 169.51 288.299C171.306 288.019 172.742 287.702 172.764 287.769V287.776Z" fill="white"/>
<path d="M154.653 181.516L154.094 201.82L179.617 204.463L184.674 179.661C184.674 179.661 188.709 172.793 190.269 167.566C191.374 163.87 193.516 154.271 186.964 144.686L154.653 181.516Z" fill="#263238"/>
<path d="M80.7194 191.313C80.7194 191.313 71.7822 187.677 71.1491 185.358C70.516 183.039 69.3602 181.147 67.6744 182.833C65.9886 184.518 65.1861 187.11 67.8143 190.268L76.6852 195.892L80.7268 192.58V191.313H80.7194Z" fill="#263238"/>
<path d="M64.4361 205.471C65.5772 204.653 66.7551 203.748 67.3808 202.452C68.1464 200.87 67.9035 199.228 67.6605 197.549C67.3366 195.341 67.2115 191.734 69.847 190.799C70.5684 190.541 71.0543 189.827 70.8408 189.047C70.6494 188.347 69.8175 187.795 69.0887 188.053C66.0557 189.128 64.6643 192.161 64.6349 195.223C64.6202 196.843 65.0913 198.418 65.0766 200.023C65.0619 201.422 64.0533 202.261 62.9932 203.012C62.3675 203.461 62.0656 204.256 62.4852 204.963C62.846 205.581 63.803 205.92 64.4361 205.471Z" fill="#263238"/>
<path d="M84.1576 313.091L82.9356 292.25L85.3723 312.98L84.1576 313.091ZM62.4552 309.24L61.4688 308.762L71.0758 290.144L62.4552 309.233V309.24ZM106.368 304.956L95.7745 290.122L82.5233 272.233L82.8399 272.005L95.8407 290.21L106.375 304.956H106.368ZM106.626 304.772L95.8407 290.21L94.6776 288.583L106.626 304.765V304.772ZM45.1478 295.202L60.3792 283.482L44.7355 294.657L60.3939 283.474L77.2376 270.518L77.6867 271.121L61.1964 282.9L45.1478 295.202ZM82.9798 292.883L80.6535 272.77L82.943 292.25L82.9798 292.875V292.883ZM70.7593 290.777L79.1222 272.343L71.0832 290.152L70.7593 290.777ZM120.709 288.068L84.4963 269.958L120.731 288.031L120.716 288.068H120.709ZM36.4609 274.942L36.3652 274.331L56.3965 271.386L76.3395 267.904L57.6701 271.202L36.4683 274.942H36.4609ZM125.67 266.903H85.1809L125.67 266.866V266.903ZM76.4867 265.048L57.1548 259.004L37.6094 253.792L56.3818 258.761L37.8523 252.967L56.3965 258.761L76.7591 264.15L76.5014 265.041L76.4867 265.048ZM84.9822 265.019L84.7834 264.459L103.961 257.87L122.895 250.81L105.168 257.458L123.072 251.304L105.139 257.473L84.9822 265.033V265.019ZM77.7088 262.567L63.3902 248.248L48.2544 234.813L62.9706 247.829L49.079 233.937L62.9779 247.829L78.5848 261.639L77.7088 262.567ZM83.5613 262.361L83.1932 262.015L97.2689 247.358L110.925 232.516L98.3216 246.268L111.241 232.811L98.2775 246.32L83.5687 262.368L83.5613 262.361ZM81.7504 261.132L81.581 261.095L86.5723 240.519L91.0261 221.717L87.6471 236.087L91.1292 221.739L87.5072 236.698L81.7577 261.132H81.7504ZM79.8289 261.102L73.7923 241.174L67.9545 222.394L72.7249 237.655L68.087 222.357L72.85 238.06L80.0351 261.043L79.8289 261.102Z" fill="#E0E0E0"/>
<path d="M80.7194 313.238C55.4981 313.238 34.9883 292.72 34.9883 267.507C34.9883 242.293 55.5054 221.775 80.7194 221.775C105.933 221.775 126.451 242.293 126.451 267.507C126.451 292.72 105.933 313.238 80.7194 313.238ZM80.7194 223.977C56.7201 223.977 37.1968 243.5 37.1968 267.499C37.1968 291.498 56.7201 311.022 80.7194 311.022C104.719 311.022 124.242 291.498 124.242 267.499C124.242 243.5 104.719 223.977 80.7194 223.977Z" fill="#E0E0E0"/>
<path d="M80.72 316.227C53.857 316.227 32 294.37 32 267.507C32 240.644 53.857 218.787 80.72 218.787C107.583 218.787 129.447 240.644 129.447 267.507C129.447 294.37 107.59 316.227 80.72 316.227ZM80.72 221.724C55.4766 221.724 34.9447 242.264 34.9447 267.5C34.9447 292.736 55.4839 313.275 80.72 313.275C105.956 313.275 126.503 292.736 126.503 267.5C126.503 242.264 105.963 221.724 80.72 221.724Z" fill="#263238"/>
<path d="M124.309 267.647C124.309 267.647 124.287 267.404 124.272 266.94C124.243 266.477 124.258 265.777 124.177 264.872C124.066 263.053 123.757 260.374 122.925 257.017C122.064 253.674 120.621 249.648 118.096 245.429C115.578 241.226 111.964 236.831 107.039 233.084C104.587 231.206 101.804 229.521 98.7346 228.129C95.6647 226.738 92.3152 225.619 88.7447 224.978C81.6259 223.646 73.609 224.051 65.9233 226.841C58.2671 229.616 50.9864 234.799 45.7448 241.984C40.4738 249.118 37.3156 258.224 37.3303 267.654C37.3083 277.085 40.4664 286.199 45.7374 293.332C50.979 300.517 58.2598 305.7 65.916 308.475C73.6016 311.265 81.6185 311.67 88.7373 310.338C92.3078 309.697 95.6647 308.578 98.7272 307.187C101.797 305.796 104.58 304.11 107.031 302.233C111.956 298.485 115.564 294.09 118.089 289.887C120.614 285.669 122.057 281.642 122.918 278.3C123.75 274.943 124.059 272.256 124.169 270.445C124.25 269.539 124.236 268.84 124.265 268.376C124.287 267.912 124.302 267.669 124.302 267.669C124.302 267.669 124.331 268.626 124.243 270.452C124.155 272.27 123.875 274.965 123.058 278.344C122.219 281.701 120.79 285.757 118.273 290.005C115.755 294.238 112.14 298.677 107.193 302.461C104.734 304.36 101.937 306.061 98.845 307.474C95.7604 308.88 92.3888 310.014 88.7889 310.669C85.1964 311.339 81.3903 311.604 77.5033 311.31C73.6163 311.052 69.6557 310.213 65.7835 308.836C58.0536 306.046 50.7066 300.826 45.4135 293.582C40.091 286.383 36.896 277.195 36.9181 267.677C36.896 258.165 40.091 248.97 45.4135 241.778C50.7066 234.534 58.0536 229.315 65.7761 226.524C69.6484 225.14 73.609 224.309 77.496 224.051C81.383 223.756 85.189 224.021 88.7815 224.691C92.3814 225.347 95.7531 226.48 98.8377 227.886C101.922 229.292 104.727 231 107.186 232.9C112.126 236.684 115.748 241.123 118.265 245.356C120.783 249.603 122.211 253.66 123.05 257.017C123.868 260.396 124.147 263.083 124.236 264.909C124.324 266.734 124.295 267.691 124.295 267.691L124.309 267.647Z" fill="#263238"/>
<path d="M176.592 208.356L182.511 182.215H187.134L181.502 209.799L176.592 208.356Z" fill="#E0E0E0"/>
<path d="M94.3033 189.424L90.2734 192.811L99.9017 204.269L103.931 200.883L94.3033 189.424Z" fill="#E0E0E0"/>
<path d="M222.071 312.445L220.849 291.604L223.286 312.335L222.071 312.445ZM200.361 308.595L199.375 308.116L208.658 290.124L217.021 271.691L208.982 289.499L200.361 308.588V308.595ZM244.274 304.31L233.681 289.476L220.429 271.587L220.746 271.359L233.747 289.565L244.281 304.31H244.274ZM244.532 304.126L233.747 289.565L232.584 287.938L244.532 304.119V304.126ZM183.054 294.556L198.293 282.836L182.649 294.011L198.307 282.829L215.151 269.872L215.6 270.476L199.11 282.255L183.061 294.556H183.054ZM220.886 292.244L218.56 272.132L220.849 291.611L220.886 292.237V292.244ZM258.622 287.43L222.41 269.32L258.644 287.393L258.629 287.423L258.622 287.43ZM174.374 274.304L174.301 273.877L194.303 270.748L214.246 267.266L196.106 270.468L174.367 274.304H174.374ZM263.584 266.265H223.094L263.584 266.228V266.265ZM214.393 264.41L195.061 258.366L175.515 253.154L194.288 258.123L175.758 252.329L194.303 258.123L214.665 263.512L214.408 264.402L214.393 264.41ZM222.888 264.38L222.689 263.821L241.867 257.232L260.801 250.172L243.074 256.82L260.978 250.665L243.045 256.827L222.888 264.388V264.38ZM215.615 261.929L201.296 247.61L186.161 234.175L200.877 247.191L216.484 261.001L215.607 261.929H215.615ZM221.467 261.723L221.099 261.377L235.168 246.72L248.824 231.878L236.22 245.63L249.14 232.173L236.176 245.682L221.467 261.73V261.723ZM219.656 260.493L219.487 260.457L224.478 239.88L228.932 221.086L225.553 235.449L229.028 221.108L225.531 235.544L229.035 221.108L225.413 236.06L219.664 260.501L219.656 260.493ZM217.735 260.471L210.631 237.017L210.646 237.061L206 221.712L210.763 237.414L217.949 260.398L217.742 260.457L217.735 260.471Z" fill="#E0E0E0"/>
<path d="M218.633 312.591C193.412 312.591 172.902 292.074 172.902 266.86C172.902 241.646 193.42 221.129 218.633 221.129C243.847 221.129 264.365 241.646 264.365 266.86C264.365 292.074 243.847 312.591 218.633 312.591ZM218.633 223.33C194.634 223.33 175.111 242.853 175.111 266.853C175.111 290.852 194.634 310.375 218.633 310.375C242.633 310.375 262.156 290.852 262.156 266.853C262.156 242.853 242.633 223.33 218.633 223.33Z" fill="#E0E0E0"/>
<path d="M218.634 315.581C191.771 315.581 169.914 293.724 169.914 266.861C169.914 239.998 191.771 218.141 218.634 218.141C245.497 218.141 267.354 239.998 267.354 266.861C267.354 293.724 245.497 315.581 218.634 315.581ZM218.634 221.078C193.391 221.078 172.859 241.617 172.859 266.853C172.859 292.089 193.398 312.629 218.634 312.629C243.87 312.629 264.409 292.089 264.409 266.853C264.409 241.617 243.87 221.078 218.634 221.078Z" fill="#263238"/>
<path d="M262.223 267.001C262.223 267.001 262.201 266.758 262.187 266.295C262.157 265.831 262.172 265.131 262.091 264.226C261.98 262.408 261.671 259.728 260.839 256.364C259.978 253.021 258.535 248.995 256.01 244.776C253.492 240.573 249.878 236.178 244.953 232.431C242.501 230.553 239.718 228.868 236.649 227.476C233.579 226.085 230.229 224.966 226.659 224.325C219.54 222.993 211.523 223.398 203.837 226.188C196.181 228.963 188.9 234.146 183.659 241.331C178.388 248.465 175.23 257.571 175.244 267.001C175.222 276.432 178.381 285.546 183.652 292.679C188.893 299.864 196.174 305.047 203.83 307.822C211.516 310.612 219.533 311.017 226.651 309.685C230.222 309.044 233.579 307.925 236.641 306.534C239.711 305.143 242.494 303.457 244.945 301.579C249.87 297.832 253.478 293.437 256.003 289.234C258.528 285.016 259.971 280.989 260.832 277.646C261.664 274.289 261.973 271.602 262.083 269.791C262.164 268.886 262.15 268.187 262.179 267.723C262.201 267.259 262.216 267.016 262.216 267.016C262.216 267.016 262.245 267.973 262.157 269.799C262.069 271.617 261.789 274.312 260.972 277.691C260.133 281.048 258.704 285.104 256.187 289.352C253.669 293.585 250.054 298.024 245.107 301.808C242.648 303.707 239.851 305.408 236.759 306.821C233.675 308.227 230.303 309.361 226.703 310.016C223.11 310.686 219.304 310.951 215.417 310.656C211.53 310.399 207.57 309.56 203.698 308.183C195.968 305.393 188.621 300.173 183.328 292.929C178.005 285.73 174.81 276.542 174.832 267.023C174.81 257.512 178.005 248.317 183.328 241.125C188.621 233.881 195.968 228.661 203.69 225.871C207.562 224.487 211.523 223.655 215.41 223.398C219.297 223.096 223.103 223.368 226.696 224.038C230.295 224.693 233.667 225.827 236.752 227.233C239.836 228.639 242.641 230.347 245.1 232.247C250.04 236.031 253.662 240.47 256.179 244.703C258.697 248.95 260.125 253.007 260.964 256.364C261.782 259.743 262.061 262.43 262.15 264.255C262.238 266.081 262.209 267.038 262.209 267.038L262.223 267.001Z" fill="#263238"/>
<path d="M77.4668 267.406L100.421 206.752L95.8343 200.708L101.105 196.836L106.494 203.248L178.293 205.383L182.666 205.928C182.666 205.928 207.968 247.08 212.43 252.675C217.2 258.652 222.743 266.088 222.743 266.088L218.135 269.106C218.135 269.106 205.554 253.727 199.274 243.347C192.987 232.967 181.105 213.577 181.105 213.577L164.806 277.69L159.042 276.703L174.045 211.316L110.131 209.8L161.383 267.332L159.042 276.703L105.14 214.379L83.2163 269.04L77.4815 267.398L77.4668 267.406Z" fill="#1E4C2F"/>
<path d="M164.105 271.88L217.721 264.982L218.634 269.017L164.105 277.689V271.88Z" fill="#1E4C2F"/>
<path d="M168.796 181.728C167.228 181.692 166.61 179.704 167.861 178.762C168.789 178.062 170.129 177.495 172.035 177.437C177.336 177.267 206.79 177.437 206.79 177.437C206.79 177.437 207.865 178.975 205.804 180.683C203.735 182.391 198.081 184.099 195.026 184.099C191.971 184.099 183.35 182.678 178.676 182.222C175.797 181.942 171.601 181.795 168.789 181.728H168.796Z" fill="#1E4C2F"/>
<path d="M85.5268 267.501C85.5268 270.173 83.3625 272.337 80.6902 272.337C78.0179 272.337 75.8535 270.173 75.8535 267.501C75.8535 264.828 78.0179 262.664 80.6902 262.664C83.3625 262.664 85.5268 264.828 85.5268 267.501Z" fill="#E0E0E0"/>
<path d="M85.5268 267.5C85.4827 267.5 85.4974 267.073 85.2986 266.337C85.0999 265.623 84.614 264.57 83.5318 263.768C82.4864 262.958 80.7711 262.509 79.1074 263.127C78.2902 263.422 77.5099 263.981 76.9578 264.754C76.3909 265.513 76.067 266.492 76.0596 267.493C76.067 268.501 76.3909 269.473 76.9578 270.239C77.5099 271.012 78.2902 271.571 79.1074 271.866C80.7711 272.484 82.4864 272.035 83.5318 271.225C84.614 270.423 85.0999 269.37 85.2986 268.656C85.4974 267.927 85.4827 267.493 85.5268 267.493C85.5416 267.493 85.5489 267.596 85.5489 267.802C85.5489 268.008 85.5342 268.31 85.4459 268.693C85.2913 269.444 84.8201 270.563 83.7011 271.446C82.6189 272.33 80.7859 272.852 78.9822 272.204C78.0988 271.895 77.2449 271.299 76.6412 270.467C76.0228 269.65 75.6695 268.582 75.6621 267.493C75.6695 266.403 76.0228 265.343 76.6412 264.519C77.2449 263.687 78.0915 263.091 78.9822 262.781C80.7859 262.134 82.6189 262.656 83.7011 263.54C84.8201 264.423 85.2913 265.542 85.4459 266.293C85.5268 266.676 85.5563 266.978 85.5489 267.184C85.5489 267.39 85.5416 267.493 85.5268 267.493V267.5Z" fill="#263238"/>
<path d="M87.8616 210.241C84.7696 209.872 81.6262 208.437 79.6974 205.934C77.9085 203.615 77.1797 200.479 78.3355 197.718C79.5354 194.847 82.2225 193.655 85.1745 193.456C88.9585 193.198 92.8234 193.471 96.6147 193.574C101.12 193.699 105.618 193.883 110.116 194.118C112.56 194.243 112.553 190.452 110.116 190.32C105.493 190.077 100.862 189.893 96.2392 189.768C93.9865 189.709 91.7338 189.657 89.4811 189.62C87.3978 189.591 85.3218 189.554 83.2531 189.871C79.2778 190.482 76.127 192.94 74.6767 196.702C73.2927 200.302 74.0583 204.506 76.2595 207.62C78.9833 211.477 83.2605 213.487 87.8689 214.032C88.8848 214.15 89.7683 213.075 89.7683 212.133C89.7683 211.006 88.8922 210.358 87.8689 210.233L87.8616 210.241Z" fill="#E0E0E0"/>
<path d="M176.592 206.28L177.571 201.988H183.549L182.65 206.899L177.114 208.143L176.592 206.28Z" fill="#1E4C2F"/>
<path d="M117.853 128.717C117.853 128.717 109.232 129.689 108.224 136.381C107.215 143.065 105.345 164.944 104.749 166.549C104.145 168.154 86.4844 197.615 86.4844 197.615L92.2633 205.956C92.2633 205.956 113.98 178.99 118.596 169.759C123.212 160.527 127.828 138.861 128.432 134.945C129.035 131.029 124.176 127.002 117.853 128.717Z" fill="#FFBF9D"/>
<path d="M83.1715 200.23C83.1715 200.23 79.1815 199.457 78.7618 199.596C78.3422 199.736 73.8663 203.093 73.1669 203.866C72.4676 204.639 71.7682 207.783 73.1669 208.975L74.0209 209.608C74.0209 209.608 74.146 211.986 75.8245 212.369C77.503 212.759 77.503 212.369 77.503 212.369C77.503 212.369 76.9435 214.438 78.8355 214.438H80.7274C80.7274 214.438 81.92 216.47 83.1789 215.836C84.4377 215.203 89.2523 211.758 89.8118 210.359C90.3713 208.961 90.8277 207.768 90.8277 207.768L93.9123 205.287L86.0058 197.152L83.1715 200.23Z" fill="#263238"/>
<path d="M218.606 271.697C221.277 271.697 223.443 269.531 223.443 266.86C223.443 264.189 221.277 262.023 218.606 262.023C215.935 262.023 213.77 264.189 213.77 266.86C213.77 269.531 215.935 271.697 218.606 271.697Z" fill="#E0E0E0"/>
<path d="M223.443 266.86C223.399 266.86 223.413 266.433 223.215 265.696C223.016 264.982 222.53 263.93 221.448 263.127C220.402 262.317 218.687 261.868 217.023 262.487C216.206 262.781 215.426 263.341 214.874 264.114C214.307 264.872 213.983 265.851 213.976 266.852C213.983 267.861 214.307 268.833 214.874 269.598C215.426 270.371 216.206 270.931 217.023 271.225C218.687 271.844 220.402 271.394 221.448 270.585C222.53 269.782 223.016 268.729 223.215 268.015C223.413 267.287 223.399 266.852 223.443 266.852C223.458 266.852 223.465 266.955 223.465 267.161C223.465 267.368 223.45 267.669 223.362 268.052C223.207 268.803 222.736 269.922 221.617 270.805C220.535 271.689 218.702 272.212 216.898 271.564C216.015 271.255 215.161 270.658 214.557 269.826C213.939 269.009 213.585 267.942 213.578 266.852C213.585 265.763 213.939 264.703 214.557 263.878C215.161 263.046 216.008 262.45 216.898 262.141C218.702 261.493 220.535 262.016 221.617 262.899C222.736 263.782 223.207 264.901 223.362 265.652C223.443 266.035 223.472 266.337 223.465 266.543C223.465 266.749 223.458 266.852 223.443 266.852V266.86Z" fill="#263238"/>
<path d="M167.057 297.058L153.666 302.471L155.603 307.262L168.994 301.849L167.057 297.058Z" fill="#263238"/>
<path d="M155.603 307.269V307.254L153.652 302.447H153.667L167.073 297.021V297.036L169.024 301.843H169.009L155.603 307.269ZM153.704 302.469L155.625 307.225L168.979 301.829L167.058 297.073L153.704 302.469Z" fill="#FC8838"/>
<path d="M161.169 302.129C159.814 302.011 158.806 300.819 158.923 299.464L160.617 279.794C160.734 278.439 161.927 277.431 163.282 277.548C164.636 277.666 165.645 278.859 165.527 280.213L163.834 299.884C163.716 301.238 162.523 302.247 161.169 302.129Z" fill="#263238"/>
<path d="M161.17 302.13C161.17 302.13 161.368 302.13 161.722 302.071C162.068 302.012 162.605 301.843 163.076 301.35C163.312 301.107 163.511 300.783 163.636 300.393C163.761 300.01 163.746 299.546 163.798 299.053C163.871 298.059 163.96 296.94 164.055 295.703C164.261 293.208 164.497 290.263 164.762 286.994C164.902 285.353 165.042 283.637 165.196 281.856C165.233 281.407 165.27 280.958 165.314 280.509C165.366 280.045 165.366 279.647 165.211 279.235C164.931 278.425 164.151 277.807 163.275 277.741C162.399 277.66 161.523 278.131 161.111 278.882C160.89 279.257 160.824 279.655 160.794 280.118C160.757 280.575 160.713 281.024 160.676 281.466C160.522 283.247 160.367 284.963 160.22 286.604C159.925 289.873 159.653 292.817 159.425 295.306C159.307 296.535 159.204 297.654 159.108 298.648C159.071 299.141 158.976 299.598 159.035 299.995C159.086 300.4 159.233 300.753 159.425 301.033C159.808 301.6 160.308 301.85 160.639 301.975C160.978 302.093 161.177 302.108 161.17 302.123C161.17 302.123 160.971 302.145 160.61 302.049C160.257 301.946 159.719 301.703 159.292 301.122C159.079 300.834 158.917 300.459 158.843 300.025C158.77 299.583 158.858 299.119 158.88 298.633C158.954 297.639 159.042 296.52 159.138 295.284C159.344 292.788 159.579 289.843 159.844 286.575C159.984 284.933 160.124 283.218 160.279 281.436C160.316 280.987 160.352 280.538 160.397 280.089C160.419 279.655 160.507 279.11 160.765 278.69C161.251 277.814 162.281 277.255 163.304 277.35C164.335 277.431 165.255 278.16 165.579 279.11C165.763 279.566 165.749 280.118 165.697 280.553C165.66 281.009 165.616 281.458 165.579 281.9C165.425 283.682 165.27 285.397 165.123 287.039C164.828 290.307 164.556 293.252 164.328 295.74C164.21 296.97 164.107 298.088 164.011 299.082C163.952 299.568 163.96 300.039 163.812 300.466C163.673 300.886 163.437 301.225 163.187 301.475C162.664 301.983 162.097 302.13 161.729 302.167C161.361 302.204 161.17 302.145 161.17 302.145V302.13Z" fill="#FC8838"/>
<path d="M174.545 279.693C176.169 272.757 171.864 265.818 164.928 264.194C157.992 262.57 151.053 266.876 149.429 273.811C147.805 280.747 152.111 287.686 159.046 289.31C165.982 290.934 172.921 286.628 174.545 279.693Z" fill="#E0E0E0"/>
<path d="M156.897 260.645L169.773 254.102L167.432 249.494L154.556 256.038L156.897 260.645Z" fill="#263238"/>
<path d="M156.885 260.676V260.661L154.529 256.038H154.544L167.434 249.479V249.493L169.79 254.116H169.775L156.885 260.676ZM154.581 256.053L156.907 260.624L169.746 254.094L167.42 249.523L154.581 256.053Z" fill="#FC8838"/>
<path d="M162.162 284.057C166.232 284.057 169.531 280.757 169.531 276.687C169.531 272.618 166.232 269.318 162.162 269.318C158.092 269.318 154.793 272.618 154.793 276.687C154.793 280.757 158.092 284.057 162.162 284.057Z" fill="#263238"/>
<path d="M162.331 255.08C163.693 255.08 164.798 256.184 164.798 257.546V277.29C164.798 278.652 163.693 279.757 162.331 279.757C160.969 279.757 159.865 278.652 159.865 277.29V257.546C159.865 256.184 160.969 255.08 162.331 255.08Z" fill="#263238"/>
<path d="M162.331 255.081C162.331 255.081 162.14 255.096 161.786 255.184C161.448 255.28 160.925 255.486 160.498 256.016C160.285 256.281 160.108 256.62 160.027 257.017C159.939 257.407 159.99 257.871 159.983 258.372C159.99 259.365 160.005 260.492 160.012 261.729C160.027 264.232 160.042 267.184 160.056 270.467C160.056 272.116 160.064 273.839 160.071 275.628C160.071 276.077 160.071 276.526 160.071 276.982C160.056 277.446 160.093 277.843 160.277 278.241C160.623 279.021 161.455 279.573 162.339 279.566C163.222 279.573 164.054 279.021 164.4 278.248C164.591 277.851 164.621 277.453 164.606 276.989C164.606 276.533 164.606 276.084 164.606 275.635C164.606 273.846 164.613 272.123 164.621 270.474C164.635 267.198 164.65 264.239 164.665 261.736C164.672 260.499 164.687 259.373 164.694 258.379C164.694 257.886 164.739 257.422 164.65 257.024C164.562 256.627 164.385 256.288 164.179 256.023C163.752 255.493 163.229 255.28 162.891 255.191C162.537 255.103 162.346 255.11 162.346 255.088C162.346 255.088 162.537 255.052 162.905 255.118C163.266 255.191 163.818 255.383 164.297 255.928C164.532 256.2 164.731 256.561 164.834 256.988C164.945 257.422 164.9 257.893 164.915 258.379C164.923 259.373 164.937 260.499 164.945 261.736C164.959 264.239 164.974 267.191 164.989 270.474C164.989 272.123 164.996 273.846 165.004 275.635C165.004 276.084 165.004 276.533 165.004 276.989C165.018 277.431 164.981 277.969 164.761 278.418C164.356 279.331 163.377 279.978 162.346 279.971C161.315 279.978 160.336 279.331 159.931 278.418C159.71 277.976 159.674 277.431 159.688 276.997C159.688 276.54 159.688 276.091 159.688 275.642C159.688 273.853 159.696 272.131 159.703 270.482C159.718 267.206 159.733 264.246 159.747 261.743C159.755 260.507 159.769 259.38 159.777 258.386C159.799 257.901 159.747 257.429 159.858 256.995C159.961 256.568 160.16 256.207 160.395 255.935C160.874 255.39 161.426 255.191 161.786 255.125C162.155 255.059 162.346 255.096 162.346 255.096L162.331 255.081Z" fill="#FC8838"/>
<path d="M97.0467 84.9238C97.0467 84.9238 99.903 85.1815 100.22 86.0502C100.448 86.6686 88.4702 91.7408 88.4702 91.7408L88.0801 89.2599L91.5107 86.1164L97.0467 84.9312V84.9238Z" fill="#1E4C2F"/>
<g opacity="0.3">
<path d="M97.0467 84.9238C97.0467 84.9238 99.903 85.1815 100.22 86.0502C100.448 86.6686 88.4702 91.7408 88.4702 91.7408L88.0801 89.2599L91.5107 86.1164L97.0467 84.9312V84.9238Z" fill="black"/>
</g>
<path d="M109.32 106.221C107.966 103.379 106.596 100.537 104.778 97.9681C102.96 95.4062 100.655 93.1167 97.8358 91.7253C97.4088 91.5119 94.3169 90.3119 94.0077 90.6726C93.7868 90.9303 96.3413 92.3585 96.415 92.6897C97.1585 95.8553 99.1609 98.6159 101.576 100.788C103.99 102.959 106.486 104.616 109.313 106.213" fill="#263238"/>
<path d="M81.7505 114.576C76.8475 109.106 76.958 100.795 82.0155 95.4646L82.5161 94.9346C88.2656 89.5384 96.0617 91.4083 101.296 97.3051L118.935 116.527L121.055 130.97L112.964 135.527C111.418 133.93 105.742 128.158 105.728 128.165C105.728 128.165 99.6689 132.848 94.1108 127.709C91.4311 125.228 86.3221 119.67 81.7505 114.583V114.576Z" fill="#FFBF9D"/>
<path d="M105.721 128.158C105.721 128.158 109.203 124.89 110.388 119.008C110.388 119.008 112.884 124.64 107.193 129.653L105.721 128.166V128.158Z" fill="#FF9A6C"/>
<path d="M88.4571 117.483C88.8546 117.887 89.5319 117.887 89.9662 117.483C90.4006 117.07 90.4227 116.415 90.0251 116.003C89.6276 115.598 88.9503 115.598 88.516 116.003C88.0816 116.415 88.0595 117.078 88.4571 117.483Z" fill="#263238"/>
<path d="M85.2755 115.709C85.4669 115.709 85.5921 114.7 86.3945 113.854C87.1822 113 88.2055 112.794 88.1908 112.602C88.1908 112.514 87.911 112.44 87.4546 112.521C87.0055 112.602 86.3871 112.875 85.8939 113.405C85.4007 113.935 85.1724 114.56 85.1283 115.002C85.0841 115.451 85.1798 115.716 85.2755 115.709Z" fill="#263238"/>
<path d="M95.8555 110.305C96.253 110.71 96.9303 110.71 97.3647 110.305C97.799 109.893 97.8211 109.237 97.4236 108.825C97.026 108.42 96.3487 108.42 95.9144 108.825C95.4801 109.237 95.458 109.9 95.8555 110.305Z" fill="#263238"/>
<path d="M93.2775 107.943C93.4689 107.943 93.594 106.935 94.3965 106.088C95.1842 105.234 96.2074 105.028 96.1927 104.837C96.1927 104.748 95.913 104.675 95.4565 104.756C95.0075 104.837 94.3891 105.109 93.8959 105.632C93.4026 106.162 93.1744 106.787 93.1302 107.229C93.0861 107.678 93.1818 107.943 93.2775 107.936V107.943Z" fill="#263238"/>
<path d="M96.9293 116.798C96.8852 116.746 96.2962 117.188 95.3834 117.931C95.1552 118.123 94.9196 118.292 94.7355 118.189C94.5294 118.093 94.3822 117.784 94.2349 117.438C93.9037 116.739 93.5577 116.01 93.1969 115.244C91.7025 112.145 90.3848 109.686 90.2596 109.745C90.1345 109.804 91.2461 112.366 92.7479 115.465C93.1233 116.224 93.4767 116.945 93.8227 117.637C93.992 117.954 94.1319 118.351 94.5589 118.55C94.7724 118.646 95.0447 118.594 95.2067 118.491C95.3834 118.395 95.4938 118.277 95.6042 118.174C96.4582 117.365 96.9662 116.835 96.922 116.79L96.9293 116.798Z" fill="#263238"/>
<path d="M91.4963 106.109C91.8129 106.212 92.2914 105.284 93.1233 104.386C93.9404 103.473 94.8312 102.906 94.6913 102.612C94.625 102.472 94.2791 102.442 93.8005 102.59C93.322 102.73 92.7257 103.076 92.2325 103.613C91.7393 104.158 91.4595 104.776 91.3712 105.247C91.2755 105.726 91.3491 106.05 91.4963 106.101V106.109Z" fill="#263238"/>
<path d="M82.0894 112.699C82.4501 112.713 82.9139 111.845 83.7016 111.02C84.4599 110.173 85.2991 109.643 85.255 109.29C85.2255 109.128 84.931 109.047 84.4599 109.18C83.9887 109.305 83.363 109.658 82.8256 110.232C82.2955 110.807 81.9937 111.462 81.9054 111.933C81.817 112.411 81.9201 112.691 82.0894 112.706V112.699Z" fill="#263238"/>
<path d="M104.932 101.605C104.983 101.472 107.39 96.7755 111.035 100.456C114.671 104.137 110.232 107.03 110.122 106.935C110.011 106.839 104.939 101.612 104.939 101.612L104.932 101.605Z" fill="#FFBF9D"/>
<path d="M109.865 104.423C109.865 104.423 109.975 104.4 110.13 104.349C110.284 104.29 110.498 104.143 110.616 103.885C110.866 103.355 110.579 102.42 109.938 101.735C109.614 101.389 109.232 101.139 108.849 100.992C108.473 100.837 108.113 100.815 107.877 100.977C107.641 101.124 107.612 101.382 107.671 101.529C107.722 101.684 107.818 101.728 107.803 101.758C107.803 101.78 107.664 101.772 107.546 101.596C107.487 101.507 107.443 101.375 107.465 101.22C107.479 101.058 107.575 100.896 107.73 100.778C108.032 100.521 108.547 100.528 108.967 100.683C109.401 100.83 109.843 101.102 110.203 101.485C110.91 102.251 111.219 103.318 110.836 103.996C110.645 104.319 110.351 104.452 110.152 104.481C109.946 104.503 109.85 104.437 109.85 104.423H109.865Z" fill="#FF9A6C"/>
<path d="M78.1722 106.095C77.2519 106.345 77.1636 102.649 77.9881 100.544C79.2322 97.3636 82.0371 93.4324 84.6578 92.0116C87.816 90.3037 91.0699 89.538 94.5078 90.5834C97.9384 91.6288 100.964 93.8005 103.386 96.4433C104.13 97.2531 104.844 98.1439 105.065 99.2187C105.344 100.544 104.851 102.024 105.992 103.113C106.412 103.511 106.699 104.041 106.706 104.622C106.728 106.006 105.241 106.131 104.196 105.822C101.965 105.16 100.191 103.518 98.4979 101.92C97.2979 100.787 96.0759 99.6236 95.3029 98.166C94.8833 97.3709 94.6035 96.5022 94.1471 95.7293C93.6833 94.9563 92.9692 94.2643 92.0858 94.1318C91.9386 94.1097 91.7325 94.1097 91.4895 94.117C89.546 94.2201 87.8013 95.3685 86.94 97.1206C85.5707 99.8886 83.0751 104.46 81.4555 104.659C79.1218 104.939 78.1574 104.585 78.1574 104.585L78.1795 106.08L78.1722 106.095Z" fill="#263238"/>
<path d="M100.044 114.767C99.9117 114.885 100.729 115.738 100.582 117.056C100.434 118.367 99.4332 119.154 99.5436 119.279C99.5805 119.346 99.9044 119.25 100.302 118.889C100.692 118.536 101.126 117.888 101.215 117.086C101.303 116.283 101.016 115.599 100.707 115.223C100.398 114.833 100.096 114.715 100.044 114.774V114.767Z" fill="#263238"/>
<path d="M104.674 97.6729C105.403 92.7037 105.16 90.0314 103.415 87.418L75.0137 115.775C75.0137 115.775 79.2614 116.151 81.6908 114.568L80.3141 112.794C80.3141 112.794 94.2278 98.2692 99.9626 96.8263L102.48 96.0754L104.674 97.6729Z" fill="#FC8838"/>
<path d="M98.3793 95.0664C98.3793 95.0664 105.896 102.016 110.143 108.649C114.553 115.539 108.877 123.534 108.877 123.534C108.877 123.534 111.829 113.758 106.352 107.67C101.398 102.156 96.2812 97.0762 96.2812 97.0762L98.372 95.0664H98.3793Z" fill="#FC8838"/>
<path d="M90.9887 80.8887C90.9887 80.8887 92.2402 80.9476 92.1961 82.5524L92.1445 84.5033C92.1445 84.5033 94.78 84.4444 97.2978 84.9671C97.2978 84.9671 92.0415 86.8811 89.9581 90.1792C89.8035 90.4221 90.0833 90.7092 90.3262 90.5546C92.5053 89.2074 98.3063 85.718 100.014 85.7769C100.397 85.7916 101.516 85.8137 102.503 86.513C104.446 87.9118 105.403 90.3191 105.19 92.7043L104.925 95.5901L100.346 95.5385C98.5934 95.5164 96.9002 96.1864 95.6266 97.3937C92.704 100.154 86.7557 104.858 85.5043 106.11C84.4515 107.155 77.2959 115.408 75.4187 115.71C73.5488 116.012 71.6495 116.483 71.7084 114.76C71.7673 113.037 72.3267 104.432 74.6678 98.4243C77.0088 92.4172 81.0357 88.8099 81.0357 88.8099C81.0357 88.8099 89.5606 80.6899 90.974 80.896" fill="#1E4C2F"/>
<path d="M81.8384 94.2134C81.8016 94.1913 82.1844 93.4625 82.9426 92.3877C83.7009 91.3055 84.8567 89.8847 86.3217 88.4934C87.7866 87.102 89.2663 86.0198 90.378 85.3131C91.497 84.6064 92.2331 84.2604 92.2626 84.3045C92.292 84.3561 91.6074 84.7904 90.5399 85.5487C89.4725 86.3069 88.0443 87.4112 86.6014 88.7805C85.1585 90.1571 83.9806 91.5264 83.1782 92.557C82.3684 93.5877 81.9046 94.2502 81.8531 94.2208L81.8384 94.2134Z" fill="#263238"/>
<g opacity="0.3">
<path d="M88.4565 92.6673C88.3608 92.4538 88.1325 92.3213 87.897 92.2845C87.6614 92.255 87.1976 92.1888 86.9767 92.255C86.3215 92.4612 85.7252 92.8366 85.3056 93.9188C85.0627 94.758 86.2553 95.1924 86.859 94.9494C87.47 94.7065 87.9043 94.1691 88.2503 93.6096C88.427 93.3225 88.5963 92.9691 88.4565 92.6599V92.6673Z" fill="black"/>
</g>
<g opacity="0.3">
<path d="M82.5526 98.107C82.3538 98.1438 82.1918 98.291 82.0446 98.4309C80.8299 99.6088 79.998 101.125 79.4238 102.715C78.8496 104.306 78.2239 106.22 77.8926 107.876C80.1821 105.182 81.9342 102.031 82.9943 98.6591C83.0237 98.5634 83.0532 98.4677 83.0311 98.372C82.9869 98.1732 82.7513 98.0702 82.5526 98.107Z" fill="black"/>
</g>
<g opacity="0.3">
<path d="M76.4784 98.1516C76.3017 98.2546 76.1912 98.4387 76.1029 98.6154C75.3299 100.117 75.0207 101.825 74.9766 103.511C74.9324 105.197 75.1459 106.883 75.352 108.561C76.6698 105.278 77.1336 102.068 77.0673 98.5344C77.0673 98.4387 77.0673 98.3356 77.0158 98.2473C76.9127 98.0706 76.655 98.0485 76.4784 98.1516Z" fill="black"/>
</g>
<path d="M98.4748 86.0273C98.5043 86.0789 97.7239 86.5574 96.443 87.2936C95.162 88.0297 93.3879 89.0236 91.4076 90.0984C90.9143 90.3634 90.4284 90.6284 89.9573 90.8787C89.7512 90.9965 89.4641 90.9008 89.361 90.702C89.3021 90.6063 89.28 90.4812 89.3168 90.3708C89.3315 90.3192 89.361 90.2603 89.3831 90.2235L89.442 90.1426C89.5966 89.9291 89.7512 89.7303 89.9058 89.5389C90.5389 88.7733 91.2235 88.1843 91.8345 87.7574C92.4456 87.323 92.983 87.0506 93.3658 86.8813C93.7486 86.712 93.9694 86.6531 93.9768 86.6752C94.0063 86.7414 93.1523 87.0874 92.0039 87.9856C91.4296 88.4346 90.7892 89.0236 90.1929 89.7745C90.0456 89.9585 89.8984 90.1573 89.7512 90.3634C89.6481 90.5033 89.6849 90.4591 89.6923 90.5106C89.7144 90.5475 89.7512 90.5548 89.7806 90.5401C90.2444 90.2824 90.7229 90.0248 91.2162 89.7524C93.1891 88.6776 94.9927 87.7205 96.3031 87.0506C97.6135 86.3807 98.438 85.9832 98.4675 86.0347L98.4748 86.0273Z" fill="#263238"/>
<path d="M156.14 150.634C156.14 150.634 107.494 177.57 111.955 192.375C116.416 207.179 156.162 234.764 156.162 234.764L165.195 227.056C165.195 227.056 149.662 206.531 145.319 199.92C142.072 194.981 135.778 191.248 135.778 191.248C135.778 191.248 163.222 181.818 173.97 176.547C184.719 171.276 188.79 167.963 189.599 160.263C190.409 152.555 188.385 148.815 187.17 145.37C185.955 141.925 177.033 135.432 177.033 135.432L156.148 150.641L156.14 150.634Z" fill="#FFBF9D"/>
<path d="M187.171 145.362C185.956 141.917 177.034 135.424 177.034 135.424L156.148 150.633C156.148 150.633 133.29 163.214 120.326 176.039L137.015 191.005C137.015 191.005 163.414 182.149 174.17 176.87C184.918 171.599 189.313 166.969 190.123 159.261C190.933 151.553 188.393 148.8 187.178 145.355L187.171 145.362Z" fill="#263238"/>
<path d="M188.702 162.824C188.702 162.824 188.709 162.883 188.702 162.986C188.702 163.097 188.687 163.251 188.658 163.457C188.606 163.87 188.496 164.481 188.26 165.239C187.789 166.741 186.803 168.898 184.793 170.944C183.799 171.96 182.555 172.932 181.083 173.734C179.603 174.5 178.013 175.28 176.327 176.083C172.948 177.68 169.193 179.329 165.203 180.964C157.231 184.24 149.883 186.868 144.517 188.627C141.837 189.511 139.651 190.173 138.134 190.615C137.398 190.821 136.816 190.983 136.382 191.101C135.977 191.204 135.771 191.255 135.764 191.241C135.764 191.226 135.962 191.152 136.36 191.02C136.787 190.88 137.369 190.696 138.09 190.468C139.592 189.982 141.763 189.282 144.428 188.362C149.766 186.536 157.091 183.871 165.056 180.603C169.031 178.969 172.793 177.327 176.172 175.759C177.858 174.971 179.463 174.198 180.928 173.455C182.378 172.682 183.6 171.739 184.594 170.753C186.589 168.773 187.605 166.667 188.113 165.202C188.363 164.459 188.496 163.862 188.577 163.457C188.65 163.052 188.68 162.832 188.695 162.832L188.702 162.824Z" fill="#FC8838"/>
<path d="M154.439 233.769L142.02 224.383L154.395 212.611L163.729 223.58L164.635 230.007L158.929 234.763L154.439 233.769Z" fill="#263238"/>
<path d="M159.321 255.662C159.321 255.662 163.568 252.055 165.769 247.984C167.971 243.92 170.356 237.346 171.254 234.946C172.152 232.546 176.878 226.936 175.031 225.111C173.183 223.285 162.501 222.357 162.501 222.357C162.501 222.357 164.452 224.529 162.979 226.59C161.507 228.652 157.701 232.038 157.701 232.038C157.701 232.038 153.762 232.001 152.857 233.15C151.951 234.298 155.669 236.161 155.669 236.161C155.669 236.161 157.87 241.859 157.429 244.487C156.987 247.115 157.561 247.601 156.059 250.015C154.558 252.43 154.683 254.145 154.683 254.145C154.683 254.145 155.912 256.516 156.98 256.413C158.047 256.317 159.313 255.662 159.313 255.662H159.321Z" fill="#FC8838"/>
<path d="M156.922 256.421C158.033 256.443 159.344 255.692 159.344 255.692C159.344 255.692 163.591 252.085 165.792 248.014C167.994 243.943 170.379 237.376 171.277 234.976C172.175 232.576 176.901 226.966 175.054 225.141C174.553 224.633 173.935 224.272 173.198 224.059C173.198 224.059 170.813 231.317 168.811 234.262C166.801 237.207 164.725 244.922 162.494 248.271C160.256 251.621 156.958 254.867 156.958 254.867L155.641 255.582C156.046 256.038 156.274 256.428 156.922 256.428V256.421Z" fill="#E0E0E0"/>
<path d="M157.34 243.353C157.377 243.294 157.937 243.618 158.71 243.669C159.483 243.736 160.086 243.493 160.116 243.559C160.153 243.61 159.542 243.971 158.695 243.905C157.848 243.846 157.296 243.397 157.34 243.36V243.353Z" fill="white"/>
<path d="M156.898 240.283C156.927 240.216 157.634 240.562 158.562 240.54C159.497 240.54 160.189 240.172 160.218 240.231C160.262 240.275 159.57 240.761 158.569 240.776C157.568 240.798 156.861 240.327 156.898 240.283Z" fill="white"/>
<path d="M156.162 237.824C156.162 237.757 156.802 237.772 157.553 237.64C158.311 237.514 158.9 237.294 158.93 237.36C158.959 237.411 158.385 237.743 157.59 237.875C156.795 238.015 156.147 237.89 156.154 237.831L156.162 237.824Z" fill="white"/>
<path d="M168.273 229.1C168.273 229.1 168.17 229.461 167.912 229.998C167.655 230.536 167.272 231.272 166.801 232.052C166.33 232.84 165.873 233.524 165.52 234.01C165.166 234.496 164.923 234.776 164.901 234.761C164.842 234.724 165.674 233.502 166.602 231.934C167.537 230.374 168.214 229.071 168.28 229.1H168.273Z" fill="white"/>
<path d="M128.004 188.693C127.989 188.597 130.073 188.457 132.458 189.326C133.636 189.753 134.63 190.327 135.292 190.806C135.631 191.048 135.866 191.262 136.058 191.343C136.249 191.424 136.374 191.394 136.382 191.431C136.396 191.453 136.264 191.542 136.014 191.49C135.763 191.446 135.476 191.24 135.138 191.041C134.453 190.629 133.466 190.114 132.318 189.694C130.021 188.847 127.997 188.81 128.004 188.693Z" fill="#FF9A6C"/>
<path d="M108.031 131.428C108.031 131.803 120.907 149.339 123.668 151.938C126.428 154.536 144.28 158.21 144.28 158.21C144.28 158.21 154.624 152.615 156.854 150.988C159.085 149.361 170.819 146.056 178.167 145.393C183.732 144.893 187.347 144.893 187.347 144.893C187.347 144.893 185.609 138.245 169.2 128.66C152.791 119.075 137.684 112.898 126.796 112.898H115.908L108.031 131.421V131.428Z" fill="#1E4C2F"/>
<path d="M106 153.859L123.227 158.946C123.227 158.946 129.381 138.444 129.676 134.329C129.97 130.213 128.056 121.843 121.445 121.401C114.834 120.96 109.666 126.54 108.356 134.778C107.046 143.008 106 153.867 106 153.867V153.859Z" fill="#EBEBEB"/>
<path d="M106.25 151.408L123.911 156.628L124.86 153.367L106.603 148.508L106.25 151.408Z" fill="#1E4C2F"/>
<path d="M106 153.86C106 153.86 106 153.772 106 153.602C106.015 153.411 106.029 153.161 106.059 152.844C106.125 152.152 106.213 151.18 106.324 149.936C106.574 147.411 106.957 143.767 107.553 139.269C107.715 138.143 107.877 136.972 108.047 135.743C108.216 134.521 108.451 133.24 108.812 131.944C109.556 129.375 110.815 126.695 112.964 124.523C114.032 123.449 115.335 122.521 116.814 121.932C118.294 121.336 119.95 121.085 121.607 121.225C123.278 121.351 124.92 122.109 126.149 123.316C127.393 124.516 128.269 126.069 128.858 127.711C129.388 129.176 129.697 130.693 129.83 132.209C129.896 132.967 129.903 133.726 129.845 134.476C129.764 135.235 129.616 135.956 129.484 136.678C128.866 139.541 128.137 142.273 127.43 144.893C126.002 150.128 124.603 154.883 123.366 158.991L123.322 159.138L123.175 159.094C117.889 157.504 113.583 156.201 110.572 155.295C109.107 154.846 107.966 154.493 107.156 154.25C106.788 154.132 106.493 154.044 106.28 153.97C106.081 153.904 105.985 153.875 105.993 153.867C105.993 153.867 106.11 153.889 106.317 153.948C106.545 154.007 106.847 154.096 107.229 154.199C108.047 154.427 109.21 154.758 110.697 155.178C113.7 156.046 117.992 157.283 123.263 158.807L123.079 158.91C124.287 154.802 125.663 150.039 127.077 144.805C127.776 142.184 128.497 139.453 129.108 136.604C129.837 133.792 129.491 130.722 128.497 127.858C127.931 126.253 127.077 124.752 125.891 123.611C124.713 122.462 123.182 121.748 121.592 121.623C120.002 121.483 118.404 121.726 116.976 122.293C115.541 122.86 114.282 123.75 113.244 124.796C111.153 126.901 109.894 129.529 109.151 132.047C108.79 133.321 108.547 134.572 108.37 135.802C108.186 137.024 108.017 138.194 107.848 139.321C107.222 143.804 106.795 147.448 106.493 149.966C106.346 151.202 106.236 152.174 106.155 152.866C106.118 153.183 106.081 153.426 106.059 153.617C106.037 153.786 106.022 153.867 106.015 153.875L106 153.86Z" fill="#263238"/>
<path d="M125.143 137.6L112.414 134.105L111.379 137.875L124.108 141.369L125.143 137.6Z" fill="#FC8838"/>
<path d="M131.178 154.994L136.243 144.334L140.233 146.329L135.205 156.098" fill="#FC8838"/>
</g>
<defs>
<clipPath id="clip0_50_10702">
<rect width="519.444" height="320" fill="white"/>
</clipPath>
</defs>
</svg>
