<svg width="20" height="20" viewBox="0 0 20 20" fill="none" xmlns="http://www.w3.org/2000/svg">
<path d="M12.0827 12.0827C12.0827 10.9321 11.1499 9.99935 9.99935 9.99935C8.84876 9.99935 7.91602 10.9321 7.91602 12.0827C7.91602 13.2333 8.84876 14.166 9.99935 14.166C11.1499 14.166 12.0827 13.2333 12.0827 12.0827Z" stroke="#28303F" stroke-width="1.5"/>
<path d="M4.51507 9.78683C5.30193 7.42623 7.51106 5.83398 9.99935 5.83398V5.83398C12.4876 5.83398 14.6968 7.42623 15.4836 9.78683L15.7002 10.4366C16.9953 14.3218 14.0947 18.334 9.99935 18.334V18.334C5.904 18.334 3.00341 14.3218 4.29847 10.4366L4.51507 9.78683Z" stroke="#28303F" stroke-width="1.5" stroke-linejoin="round"/>
<path d="M11.7376 5.83268L8.26111 5.83268L7.09354 4.49348C5.94901 3.1807 7.28422 1.2185 8.95524 1.75756L9.72838 2.00697C9.90441 2.06375 10.0943 2.06375 10.2703 2.00697L11.0435 1.75756C12.7145 1.2185 14.0497 3.18071 12.9052 4.49348L11.7376 5.83268Z" stroke="#28303F" stroke-width="1.5" stroke-linejoin="round"/>
</svg>
