<svg width="21" height="20" viewBox="0 0 21 20" fill="none" xmlns="http://www.w3.org/2000/svg">
<path d="M0.666016 4H16.666C18.8752 4 20.666 5.79086 20.666 8V16C20.666 18.2091 18.8752 20 16.666 20H4.66602C2.45688 20 0.666016 18.2091 0.666016 16V4Z" fill="#1E4C2F"/>
<path d="M0.666016 4C0.666016 1.79086 2.45688 0 4.66602 0H10.666C12.8752 0 14.666 1.79086 14.666 4H0.666016Z" fill="#F9CB9F"/>
<path d="M20.666 10L20.666 14L16.666 14C15.5614 14 14.666 13.1046 14.666 12C14.666 10.8954 15.5614 10 16.666 10L20.666 10Z" fill="#F9CB9F"/>
</svg>
