<svg width="320" height="338" viewBox="0 0 320 338" fill="none" xmlns="http://www.w3.org/2000/svg">
<g filter="url(#filter0_dd_218_2264)">
<path d="M142.158 67.774C134.716 68.3339 127.785 68.7978 120.885 69.3737C113.475 69.9976 106.017 70.3335 98.7024 71.5493C88.8485 73.1489 81.1348 78.6998 75.2896 86.7301C63.3499 103.056 55.3621 121.939 51.9567 141.887C51.3657 145.182 50.3596 146.974 46.7822 147.885C36.2417 150.541 29.3903 157.595 26.1962 167.817C23.9946 174.369 23.4374 181.363 24.5738 188.181C25.7102 195 28.5052 201.433 32.7122 206.913C33.9323 208.77 35.5099 210.365 37.3527 211.603C39.1955 212.842 41.2664 213.7 43.4443 214.128C48.8743 215.056 52.324 217.679 52.1323 223.726C52.2034 225.008 52.3851 226.282 52.6753 227.533C55.1348 243.258 64.5095 253.128 80.1127 256.103C84.9997 257.047 89.9345 257.703 95.3965 258.519C87.1397 272.324 86.5009 285.953 94.9972 300.03C91.8031 300.542 88.9124 300.83 86.0697 301.63C83.4214 302.432 76.8049 302.817 78.3879 305.853C79.4099 307.813 83.6262 307.996 83.6262 307.996C83.6262 307.996 99.5967 310.892 107.758 311.436C142.122 313.801 176.606 313.838 210.975 311.548C219.088 310.988 227.185 309.948 235.218 308.748C237.854 308.348 240.627 307.914 242.804 305.549C247.597 300.344 225.62 299.806 225.62 299.806C230.411 293.711 231.561 286.673 231.753 279.202C231.864 271.789 229.553 264.543 225.173 258.567L234.132 257.175C257.561 253.688 265.818 245.513 268.964 221.982C269.507 217.951 270.785 216.047 274.921 215.072C288.943 211.744 294.086 200.675 296.034 188.053C296.857 181.603 296.516 175.058 295.028 168.729C292.569 157.324 284.599 150.573 273.548 147.646C270.513 146.83 269.619 145.294 269.108 142.463C265.451 122.387 258.328 103.783 246.03 87.242C238.173 76.6842 228.032 70.9894 215.016 70.3495C195.164 69.3737 175.297 68.4139 155.43 67.678C154.245 67.7731 153.063 67.4753 152.064 66.8307C151.066 66.186 150.307 65.2303 149.904 64.1108C147.892 59.6637 145.688 55.2806 143.436 50.9455C142.852 50.0363 142.554 48.9727 142.579 47.892C142.605 46.8113 142.953 45.7631 143.58 44.8827C148.594 36.5645 145.688 28.3102 136.728 24.6309C131.65 22.5514 122.994 25.8627 120.342 30.9016C117.148 37.0124 118.745 45.0747 124.127 48.498C125.546 49.538 127.186 50.2335 128.919 50.5296C133.311 50.8335 135.307 53.457 136.904 57.1202C138.341 60.5115 140.162 63.8388 142.158 67.774ZM160.125 114.164C185.605 114.048 211.06 115.785 236.288 119.363C248.442 120.963 255.198 127.682 257.274 140.159C261.622 167.592 261.693 195.535 257.481 222.99C255.293 238.011 247.739 244.761 232.695 245.849C223.113 246.537 213.674 247.257 204.188 248.233C196.698 249.001 189.271 250.92 181.829 251.048C149.888 251.624 118.139 249.177 86.453 245.641C72.3989 244.042 66.6176 238.427 63.8707 224.526C59.7822 203.906 60.0537 183.03 60.9161 162.139C61.2632 154.352 62.2946 146.612 63.9984 139.007C66.5537 127.586 73.5808 120.803 85.7343 119.075C110.393 115.766 135.247 114.136 160.125 114.196V114.164ZM76.1839 108.918L75.4333 107.83C78.851 102.631 82.2208 97.3999 85.7183 92.249C89.8068 86.2342 95.6201 83.4188 102.807 82.8909C116.382 81.8831 129.957 80.8433 143.484 79.4836C147.333 79.0997 149.169 80.2834 150.319 83.8187C150.974 85.8183 151.453 87.242 149.345 88.6177C148.786 88.9697 148.594 89.8974 148.243 90.5213C154.631 95.3203 167.312 95.2243 172.55 90.5213C170.793 87.7539 169.995 87.322 165.986 87.0181C160.125 86.5701 159.726 86.2182 158.544 79.8675C159.907 79.7249 161.278 79.6608 162.648 79.6755C178.427 80.5234 194.222 81.2752 210.001 82.283C228.399 83.3868 231.705 85.4824 241.319 101.143C242.357 102.823 243.284 104.582 244.178 106.342C244.589 107.385 244.931 108.453 245.2 109.541C188.537 100.151 132.368 100.807 76.1839 108.95V108.918ZM160.924 296.191V295.551C156.963 295.551 152.938 295.855 149.073 295.551C138.677 294.591 133.949 289.28 133.838 278.898C133.618 275.23 134.826 271.619 137.208 268.824C139.591 266.029 142.962 264.267 146.614 263.91C149.712 263.462 152.842 263.03 155.973 262.87C163.958 262.47 171.799 262.454 179.338 265.509C183.953 267.381 186.78 270.58 186.588 275.891C186.578 276.59 186.648 277.288 186.796 277.971C187.209 279.929 187.215 281.952 186.813 283.913C186.41 285.874 185.608 287.73 184.457 289.367C183.306 291.003 181.831 292.384 180.123 293.423C178.415 294.463 176.511 295.138 174.53 295.407C169.931 296.047 165.427 295.935 160.924 296.191ZM220.605 278.802C220.311 281.91 220.112 285.071 219.344 288.097C217.874 292.592 214.776 295.743 209.761 295.999C207.476 296.271 205.162 295.811 203.154 294.684C201.145 293.558 199.545 291.823 198.582 289.728C195.388 283.09 194.765 276.371 198.279 269.604C199.315 267.366 201.06 265.533 203.244 264.39C205.427 263.248 207.926 262.859 210.352 263.286C212.802 263.552 215.088 264.649 216.831 266.394C218.574 268.14 219.669 270.429 219.935 272.884C220.35 274.851 220.414 276.835 220.605 278.802ZM100.252 279.458C100.459 277.107 100.555 274.659 100.954 272.26C101.785 267.317 104.931 264.533 109.706 263.51C114.481 262.486 118.634 263.702 121.333 267.829C123.484 270.894 124.759 274.49 125.021 278.228C125.283 281.965 124.521 285.704 122.818 289.04C121.681 291.359 119.845 293.26 117.569 294.475C115.293 295.689 112.693 296.155 110.137 295.807C105.075 294.911 101.769 291.296 100.779 285.457C100.459 283.521 100.427 281.522 100.252 279.458ZM49.2576 160.619V202.61C41.5439 201.01 35.3792 191.316 36.4812 180.855C37.3756 171.465 40.1065 161.707 49.2576 160.619ZM271.855 202.354V160.427C279.105 161.483 284.631 170.105 284.759 180.551C284.919 190.757 279.185 200.931 271.855 202.354Z" fill="#111111"/>
<path d="M160.346 114.197C185.243 114.172 210.113 115.839 234.785 119.188C246.938 120.916 253.949 127.698 256.521 139.12C258.224 146.725 259.256 154.465 259.603 162.251C260.465 183.047 260.737 203.97 256.648 224.638C253.901 238.539 248.12 244.186 234.066 245.754C202.38 249.289 170.599 251.737 138.69 251.161C131.2 251.033 123.774 249.113 116.331 248.345C106.845 247.37 97.3423 246.65 87.8239 245.962C72.7797 244.874 65.2256 238.123 63.0377 223.103C58.8265 195.648 58.8965 167.705 63.2453 140.272C65.3215 127.762 72.077 121.076 84.2306 119.476C109.441 115.874 134.88 114.109 160.346 114.197ZM196.455 234.172C218.431 233.388 239.863 217.088 244.862 196.692C251.059 171.449 241.205 148.446 219.309 137.2C212.742 133.604 205.41 131.636 197.927 131.46C190.444 131.285 183.029 132.908 176.301 136.192C164.722 141.567 153.654 141.583 142.188 135.617C132.525 130.594 121.969 130.578 111.524 132.977C88.4468 138.272 72.588 159.484 72.9075 184.263C73.2109 206.898 90.6986 227.79 113.281 232.477C124.955 234.908 136.023 232.477 146.5 227.534C155.267 223.374 163.764 223.63 172.484 227.15C174.816 228.193 177.205 229.106 179.638 229.885C185.244 231.485 190.866 232.812 196.455 234.22V234.172Z" fill="#ADC5E7"/>
<path d="M76.0217 108.95C132.206 100.807 188.374 100.152 245.038 109.382C244.768 108.294 244.427 107.225 244.016 106.182C243.121 104.423 242.195 102.663 241.157 100.983C231.575 85.2586 228.237 83.227 209.839 82.1232C194.06 81.1794 178.265 80.3636 162.486 79.5158C161.115 79.501 159.745 79.5651 158.382 79.7077C159.564 86.1064 159.979 86.4104 165.824 86.8583C169.833 87.1622 170.615 87.5941 172.388 90.3615C167.15 95.1605 154.405 95.2725 148.081 90.3615C148.432 89.7377 148.624 88.7619 149.183 88.4579C151.291 87.1462 150.78 85.7225 150.157 83.6589C149.007 80.1236 147.17 78.9399 143.322 79.3238C129.779 80.6835 116.172 81.7233 102.645 82.7311C95.4578 83.259 89.6445 86.0744 85.5561 92.0892C82.0586 97.2401 78.6888 102.471 75.2711 107.67L76.0217 108.95Z" fill="#ADC5E7"/>
<path d="M159.548 296.191C155.044 295.935 150.46 296.047 146.02 295.36C144.04 295.091 142.136 294.415 140.428 293.376C138.72 292.337 137.245 290.956 136.093 289.319C134.942 287.683 134.141 285.826 133.738 283.865C133.336 281.905 133.755 277.923 133.755 277.923C133.755 277.923 133.973 276.542 133.963 275.844C133.771 270.533 136.598 267.333 141.213 265.462C148.751 262.406 156.657 262.422 164.578 262.822C167.772 262.982 170.839 263.414 173.937 263.862C177.589 264.22 180.96 265.981 183.343 268.776C185.725 271.571 186.933 275.182 186.713 278.851C186.602 289.233 181.922 294.544 171.477 295.504C167.565 295.855 163.508 296.191 159.548 296.191Z" fill="#ADC5E7"/>
<path d="M99.8657 278.803C99.8942 276.487 100.121 274.852 100.457 272.9C100.722 270.446 101.818 268.157 103.56 266.411C105.303 264.666 107.589 263.569 110.039 263.302C112.465 262.876 114.964 263.264 117.148 264.407C119.331 265.55 121.076 267.383 122.113 269.621C125.626 276.388 125.083 283.106 121.809 289.745C120.846 291.839 119.246 293.574 117.237 294.701C115.229 295.828 112.916 296.288 110.63 296.016C105.599 295.76 102.501 292.608 101.047 288.113C100.279 285.088 99.8205 282.468 99.8657 278.803Z" fill="#ADC5E7"/>
<path d="M220.22 279.459C220.044 281.523 220.012 283.522 219.692 285.458C218.702 291.297 215.396 294.912 210.334 295.808C207.779 296.156 205.179 295.69 202.903 294.476C200.627 293.261 198.79 291.36 197.653 289.041C195.95 285.705 195.188 281.966 195.45 278.228C195.712 274.49 196.987 270.895 199.138 267.829C201.837 263.702 206.006 262.487 210.765 263.51C215.524 264.534 218.75 267.318 219.517 272.261C219.916 274.66 220.012 277.108 220.22 279.459Z" fill="#ADC5E7"/>
<path d="M271.213 160.619C280.365 161.707 283.064 171.465 283.99 180.855C285.06 191.317 278.895 201.011 271.213 202.611V160.619Z" fill="#ADC5E7"/>
<path d="M48.6163 202.354C41.2858 200.931 35.5204 190.757 35.7121 180.551C35.9037 170.105 41.3656 161.483 48.6163 160.427V202.354Z" fill="#ADC5E7"/>
<path d="M196.455 234.22C189.709 233.797 185.276 231.484 179.686 229.933C177.253 229.154 174.864 228.24 172.532 227.197C163.812 223.678 155.315 223.422 146.548 227.581C136.071 232.54 125.003 234.956 113.329 232.524C90.7465 227.837 73.2588 206.929 72.9554 184.31C72.636 159.531 88.4947 138.32 111.572 133.025C122.017 130.625 132.573 130.641 142.236 135.664C153.702 141.631 164.77 141.615 176.349 136.24C183.077 132.955 190.492 131.333 197.975 131.508C205.458 131.683 212.79 133.651 219.357 137.248C241.205 148.446 251.059 171.497 244.91 196.74C239.863 217.135 220.331 235.718 196.455 234.22ZM198.611 221.422C219.293 220.319 235.344 204.978 235.168 183.238C234.96 152.989 205.766 135.12 179.894 147.39C176.535 148.991 173.06 150.333 169.497 151.405C160.075 154.188 151.131 152.221 142.347 148.334C136.374 145.678 130.242 143.535 123.55 143.535C108.011 143.679 93.206 153.437 87.808 167.178C81.5954 182.934 85.077 199.955 96.7994 210.961C102.506 216.244 109.648 219.714 117.323 220.933C124.998 222.151 132.862 221.064 139.92 217.807C143.29 216.238 146.758 214.886 150.301 213.76C159.883 210.849 168.906 212.976 177.754 216.959C184.241 220.116 191.405 221.622 198.611 221.342V221.422Z" fill="#5B8ACE"/>
<path d="M121.521 221.343C128.7 221.586 135.83 220.059 142.282 216.896C151.13 212.976 160.169 210.849 169.736 213.696C173.278 214.822 176.746 216.174 180.116 217.743C187.175 221 195.038 222.087 202.713 220.869C210.388 219.65 217.53 216.18 223.237 210.897C234.959 199.891 238.441 182.871 232.228 167.114C226.814 153.373 212.026 143.615 196.486 143.471C189.795 143.471 183.71 145.534 177.689 148.27C168.937 152.157 159.994 154.125 150.539 151.341C146.977 150.269 143.501 148.927 140.142 147.326C114.27 135.057 85.0759 152.925 84.8683 183.175C84.8204 204.898 100.839 220.239 121.521 221.343ZM193.548 167.194C195.656 166.791 197.837 167.013 199.822 167.831C201.807 168.649 203.512 170.028 204.727 171.801C209.359 178.328 208.001 189.285 201.884 194.452C200.658 195.631 199.103 196.407 197.425 196.678C195.748 196.95 194.028 196.704 192.494 195.972C187.479 193.748 183.087 184.534 185.419 178.376C196.311 179.783 196.949 178.919 193.548 167.194ZM113.04 179.127C116.841 178.344 120.914 178.68 123.038 176.792C125.96 174.184 124.427 170.233 121.345 167.194C126.567 166.474 130.113 167.994 132.748 171.561C135.056 175.02 136.082 179.18 135.647 183.318C135.213 187.455 133.345 191.31 130.368 194.212C126.296 197.844 121.393 197.748 117.672 193.732C115.931 191.755 114.627 189.432 113.842 186.916C113.058 184.399 112.812 181.746 113.12 179.127H113.04Z" fill="#13171C"/>
<path d="M121.447 167.194C124.769 178.919 124.13 179.783 113.302 178.392C110.97 184.582 115.362 193.796 120.377 195.988C121.911 196.719 123.631 196.966 125.309 196.694C126.986 196.423 128.541 195.647 129.767 194.468C135.884 189.301 137.242 178.344 132.61 171.817C131.398 170.044 129.697 168.663 127.715 167.842C125.733 167.022 123.555 166.796 121.447 167.194Z" fill="#5B8ACE"/>
<path d="M184.401 179.127C184.113 181.741 184.376 184.386 185.174 186.891C185.972 189.396 187.287 191.705 189.033 193.668C192.754 197.683 197.657 197.779 201.729 194.148C204.711 191.25 206.584 187.397 207.025 183.259C207.466 179.121 206.445 174.959 204.141 171.497C201.506 167.929 197.96 166.41 192.738 167.13C195.82 170.233 197.353 174.184 194.431 176.728C192.275 178.679 188.17 178.343 184.401 179.127Z" fill="#5B8ACE"/>
</g>
<defs>
<filter id="filter0_dd_218_2264" x="0" y="0" width="320.471" height="337.238" filterUnits="userSpaceOnUse" color-interpolation-filters="sRGB">
<feFlood flood-opacity="0" result="BackgroundImageFix"/>
<feColorMatrix in="SourceAlpha" type="matrix" values="0 0 0 0 0 0 0 0 0 0 0 0 0 0 0 0 0 0 127 0" result="hardAlpha"/>
<feOffset dx="4" dy="-4"/>
<feGaussianBlur stdDeviation="10"/>
<feComposite in2="hardAlpha" operator="out"/>
<feColorMatrix type="matrix" values="0 0 0 0 0.439896 0 0 0 0 0.611964 0 0 0 0 0.858333 0 0 0 0.25 0"/>
<feBlend mode="normal" in2="BackgroundImageFix" result="effect1_dropShadow_218_2264"/>
<feColorMatrix in="SourceAlpha" type="matrix" values="0 0 0 0 0 0 0 0 0 0 0 0 0 0 0 0 0 0 127 0" result="hardAlpha"/>
<feOffset dx="-4" dy="4"/>
<feGaussianBlur stdDeviation="10"/>
<feComposite in2="hardAlpha" operator="out"/>
<feColorMatrix type="matrix" values="0 0 0 0 0.439216 0 0 0 0 0.611765 0 0 0 0 0.858824 0 0 0 0.25 0"/>
<feBlend mode="normal" in2="effect1_dropShadow_218_2264" result="effect2_dropShadow_218_2264"/>
<feBlend mode="normal" in="SourceGraphic" in2="effect2_dropShadow_218_2264" result="shape"/>
</filter>
</defs>
</svg>
