<svg width="320" height="338" viewBox="0 0 320 338" fill="none" xmlns="http://www.w3.org/2000/svg">
<g filter="url(#filter0_dd_218_2260)">
<path d="M178.313 67.774C185.755 68.3339 192.686 68.7978 199.586 69.3737C206.996 69.9976 214.454 70.3335 221.769 71.5493C231.623 73.1489 239.336 78.6998 245.182 86.7301C257.121 103.056 265.109 121.939 268.514 141.887C269.105 145.182 270.111 146.974 273.689 147.885C284.229 150.541 291.081 157.595 294.275 167.817C296.477 174.369 297.034 181.363 295.897 188.181C294.761 195 291.966 201.433 287.759 206.913C286.539 208.77 284.961 210.365 283.118 211.603C281.276 212.842 279.205 213.7 277.027 214.128C271.597 215.056 268.147 217.679 268.339 223.726C268.268 225.008 268.086 226.282 267.796 227.533C265.336 243.258 255.962 253.128 240.358 256.103C235.471 257.047 230.537 257.703 225.075 258.519C233.331 272.324 233.97 285.953 225.474 300.03C228.668 300.542 231.559 300.83 234.401 301.63C237.05 302.432 239.656 303.366 242.211 304.429L242.083 305.853C240.43 306.778 238.671 307.497 236.845 307.996C228.86 309.308 220.874 310.892 212.713 311.436C178.349 313.801 143.865 313.838 109.496 311.548C101.383 310.988 93.2859 309.948 85.2527 308.748C82.6175 308.348 80.19 306.669 77.6667 305.549L77.8743 303.757L94.851 299.806C90.0598 293.711 88.9099 286.673 88.7183 279.202C88.6073 271.789 90.9179 264.543 95.2981 258.567L86.3387 257.175C62.9099 253.688 54.6532 245.513 51.507 221.982C50.964 217.951 49.6863 216.047 45.5499 215.072C31.5278 211.744 26.3853 200.675 24.4369 188.053C23.6144 181.603 23.9552 175.058 25.4431 168.729C27.9025 157.324 35.8718 150.573 46.9234 147.646C49.9578 146.83 50.8522 145.294 51.3632 142.463C55.0205 122.387 62.1433 103.783 74.4407 87.242C82.2981 76.6842 92.4394 70.9894 105.455 70.3495C125.307 69.3737 145.174 68.4139 165.041 67.678C166.226 67.7731 167.408 67.4753 168.407 66.8307C169.405 66.186 170.165 65.2303 170.567 64.1108C172.58 59.6637 174.783 55.2806 177.035 50.9455C177.619 50.0363 177.918 48.9728 177.892 47.892C177.866 46.8113 177.518 45.7631 176.892 44.8828C171.877 36.5645 174.783 28.3102 183.743 24.6309C188.822 22.5514 197.478 25.8627 200.129 30.9016C203.323 37.0124 201.726 45.0747 196.344 48.498C194.925 49.538 193.285 50.2335 191.552 50.5296C187.161 50.8335 185.164 53.457 183.567 57.1202C182.13 60.5115 180.309 63.8388 178.313 67.774ZM160.346 114.164C134.866 114.048 109.411 115.785 84.1827 119.363C72.0291 120.963 65.2736 127.682 63.1974 140.159C58.8486 167.592 58.7786 195.535 62.9898 222.99C65.1777 238.011 72.7318 244.762 87.776 245.849C97.3583 246.537 106.797 247.257 116.283 248.233C123.774 249.001 131.2 250.92 138.642 251.048C170.583 251.624 202.333 249.177 234.018 245.641C248.072 244.042 253.854 238.427 256.6 224.526C260.689 203.906 260.417 183.03 259.555 162.139C259.208 154.352 258.176 146.612 256.473 139.007C253.917 127.586 246.89 120.803 234.737 119.075C210.079 115.766 185.225 114.136 160.346 114.196V114.164ZM244.287 108.918L245.038 107.83C241.62 102.631 238.25 97.3999 234.753 92.249C230.664 86.2342 224.851 83.4188 217.664 82.8909C204.089 81.8831 190.514 80.8433 176.987 79.4836C173.138 79.0997 171.302 80.2835 170.152 83.8187C169.497 85.8183 169.018 87.242 171.126 88.6177C171.685 88.9697 171.877 89.8974 172.228 90.5213C165.84 95.3203 153.159 95.2243 147.921 90.5213C149.678 87.7539 150.476 87.322 154.485 87.0181C160.346 86.5702 160.745 86.2182 161.927 79.8675C160.564 79.7249 159.193 79.6608 157.823 79.6756C142.044 80.5234 126.249 81.2752 110.47 82.283C92.0721 83.3868 88.7662 85.4824 79.1519 101.143C78.1139 102.823 77.1876 104.582 76.2932 106.342C75.882 107.385 75.5405 108.453 75.2711 109.541C131.935 100.151 188.103 100.807 244.287 108.95V108.918ZM159.548 296.191V295.551C163.508 295.551 167.533 295.855 171.398 295.551C181.794 294.591 186.522 289.28 186.634 278.898C186.853 275.23 185.645 271.619 183.263 268.824C180.88 266.029 177.509 264.267 173.857 263.91C170.759 263.462 167.629 263.03 164.498 262.87C156.513 262.47 148.672 262.454 141.134 265.509C136.518 267.381 133.691 270.58 133.883 275.891C133.893 276.59 133.823 277.288 133.675 277.971C133.262 279.929 133.256 281.952 133.658 283.913C134.061 285.874 134.863 287.73 136.014 289.367C137.165 291.003 138.64 292.384 140.349 293.423C142.057 294.463 143.96 295.138 145.941 295.407C150.54 296.047 155.044 295.935 159.548 296.191ZM99.8657 278.802L99.5303 278.882C99.8248 281.99 100.359 285.071 101.127 288.097C102.597 292.592 105.695 295.743 110.71 295.999C112.996 296.271 115.309 295.811 117.317 294.684C119.326 293.558 120.926 291.823 121.889 289.728C125.083 283.09 125.706 276.371 122.193 269.604C121.156 267.366 119.411 265.533 117.227 264.39C115.044 263.248 112.545 262.859 110.119 263.286C107.669 263.552 105.383 264.649 103.64 266.394C101.897 268.14 100.802 270.43 100.536 272.884C100.121 274.851 100.057 276.835 99.8657 278.802ZM220.22 279.458C220.012 277.107 219.916 274.659 219.517 272.26C218.686 267.317 215.54 264.533 210.765 263.51C205.99 262.486 201.837 263.702 199.138 267.829C196.987 270.894 195.712 274.49 195.45 278.228C195.189 281.965 195.95 285.704 197.653 289.04C198.79 291.359 200.627 293.26 202.903 294.475C205.179 295.689 207.779 296.155 210.334 295.807C215.396 294.911 218.702 291.296 219.693 285.457C220.012 283.522 220.044 281.522 220.22 279.458ZM271.213 160.619V202.61C278.927 201.011 285.092 191.317 283.99 180.855C283.096 171.465 280.365 161.707 271.213 160.619ZM48.6163 202.354V160.427C41.3657 161.483 35.8399 170.105 35.7121 180.551C35.5524 190.757 41.2858 200.931 48.6163 202.354Z" fill="#111111"/>
<path d="M160.346 114.196C185.243 114.171 210.113 115.839 234.785 119.188C246.938 120.916 253.949 127.698 256.521 139.12C258.224 146.725 259.256 154.465 259.603 162.251C260.465 183.047 260.737 203.97 256.648 224.638C253.901 238.539 248.12 244.186 234.066 245.754C202.381 249.289 170.599 251.737 138.69 251.161C131.2 251.033 123.774 249.113 116.331 248.345C106.845 247.369 97.3424 246.65 87.8239 245.962C72.7797 244.874 65.2257 238.123 63.0377 223.103C58.8265 195.648 58.8966 167.705 63.2453 140.272C65.3215 127.762 72.077 121.076 84.2306 119.476C109.441 115.874 134.88 114.109 160.346 114.196ZM196.455 234.172C218.431 233.388 239.863 217.088 244.862 196.692C251.059 171.449 241.205 148.446 219.309 137.2C212.742 133.604 205.41 131.636 197.927 131.46C190.445 131.285 183.029 132.908 176.301 136.192C164.722 141.567 153.654 141.583 142.188 135.617C132.525 130.594 121.969 130.578 111.524 132.977C88.4468 138.272 72.5881 159.484 72.9075 184.263C73.2109 206.898 90.6986 227.79 113.281 232.477C124.955 234.908 136.023 232.477 146.5 227.534C155.267 223.374 163.764 223.63 172.484 227.15C174.816 228.193 177.205 229.106 179.638 229.885C185.244 231.485 190.866 232.812 196.455 234.22V234.172Z" fill="#ADC5E7"/>
<path d="M244.287 108.95C188.103 100.807 131.935 100.152 75.2711 109.382C75.5405 108.294 75.882 107.225 76.2932 106.182C77.1876 104.423 78.1139 102.663 79.1519 100.983C88.7343 85.2586 92.0721 83.227 110.47 82.1232C126.249 81.1794 142.044 80.3636 157.823 79.5158C159.193 79.501 160.564 79.5651 161.927 79.7077C160.745 86.1064 160.33 86.4104 154.485 86.8583C150.476 87.1622 149.694 87.5941 147.921 90.3615C153.159 95.1605 165.904 95.2725 172.228 90.3615C171.877 89.7377 171.685 88.7619 171.126 88.4579C169.018 87.1462 169.529 85.7225 170.152 83.6589C171.302 80.1236 173.138 78.9399 176.987 79.3238C190.53 80.6835 204.137 81.7233 217.664 82.7311C224.851 83.259 230.664 86.0744 234.753 92.0892C238.25 97.2401 241.62 102.471 245.038 107.67L244.287 108.95Z" fill="#ADC5E7"/>
<path d="M159.548 296.191C155.044 295.935 150.46 296.047 146.02 295.36C144.04 295.091 142.136 294.415 140.428 293.376C138.72 292.337 137.245 290.956 136.094 289.319C134.942 287.683 134.141 285.826 133.738 283.865C133.336 281.905 133.342 279.882 133.755 277.923C133.903 277.24 133.973 276.542 133.963 275.844C133.771 270.533 136.598 267.333 141.213 265.462C148.751 262.406 156.657 262.422 164.578 262.822C167.772 262.982 170.839 263.414 173.937 263.862C177.589 264.22 180.96 265.981 183.343 268.776C185.725 271.571 186.933 275.182 186.713 278.851C186.602 289.233 181.922 294.544 171.477 295.504C167.565 295.855 163.508 296.191 159.548 296.191Z" fill="#ADC5E7"/>
<path d="M99.8657 278.802C100.057 276.835 100.121 274.852 100.457 272.9C100.723 270.446 101.818 268.157 103.56 266.411C105.303 264.666 107.589 263.569 110.039 263.302C112.465 262.876 114.964 263.264 117.148 264.407C119.331 265.55 121.076 267.383 122.113 269.621C125.626 276.388 125.083 283.106 121.809 289.745C120.846 291.839 119.246 293.574 117.237 294.701C115.229 295.828 112.916 296.288 110.63 296.016C105.599 295.76 102.501 292.608 101.048 288.113C100.279 285.088 99.7449 282.007 99.4504 278.899L99.8657 278.802Z" fill="#ADC5E7"/>
<path d="M220.22 279.458C220.044 281.522 220.012 283.522 219.693 285.457C218.702 291.296 215.396 294.911 210.334 295.807C207.779 296.155 205.179 295.689 202.903 294.475C200.627 293.26 198.79 291.359 197.653 289.04C195.95 285.704 195.189 281.965 195.45 278.228C195.712 274.49 196.987 270.894 199.138 267.829C201.837 263.702 206.006 262.486 210.765 263.51C215.524 264.533 218.75 267.317 219.517 272.26C219.916 274.659 220.012 277.107 220.22 279.458Z" fill="#ADC5E7"/>
<path d="M271.213 160.619C280.365 161.707 283.064 171.465 283.99 180.855C285.06 191.317 278.895 201.011 271.213 202.61V160.619Z" fill="#ADC5E7"/>
<path d="M48.6163 202.354C41.2858 200.931 35.5205 190.757 35.7121 180.551C35.9038 170.105 41.3657 161.483 48.6163 160.427V202.354Z" fill="#ADC5E7"/>
<path d="M196.455 234.22C189.709 233.797 185.276 231.484 179.686 229.933C177.253 229.154 174.864 228.24 172.532 227.197C163.812 223.678 155.315 223.422 146.548 227.581C136.071 232.54 125.003 234.956 113.329 232.524C90.7466 227.837 73.2588 206.929 72.9554 184.31C72.636 159.531 88.4947 138.32 111.572 133.025C122.017 130.625 132.573 130.641 142.236 135.664C153.702 141.631 164.77 141.615 176.349 136.24C183.077 132.955 190.492 131.333 197.975 131.508C205.458 131.683 212.79 133.651 219.357 137.248C241.205 148.446 251.059 171.497 244.91 196.74C239.863 217.135 220.331 235.718 196.455 234.22ZM198.611 221.422C219.293 220.319 235.344 204.978 235.168 183.238C234.96 152.989 205.766 135.12 179.894 147.39C176.535 148.991 173.06 150.333 169.497 151.405C160.075 154.188 151.131 152.221 142.347 148.334C136.374 145.678 130.242 143.535 123.55 143.535C108.011 143.679 93.206 153.437 87.808 167.178C81.5955 182.934 85.077 199.955 96.7994 210.961C102.506 216.244 109.648 219.714 117.323 220.933C124.998 222.151 132.862 221.064 139.92 217.807C143.29 216.238 146.758 214.886 150.301 213.76C159.883 210.849 168.906 212.976 177.754 216.959C184.241 220.116 191.405 221.622 198.611 221.342V221.422Z" fill="#5B8ACE"/>
<path d="M198.611 221.342C191.432 221.586 184.302 220.059 177.85 216.896C169.002 212.976 159.963 210.849 150.396 213.696C146.854 214.822 143.386 216.174 140.016 217.743C132.958 221 125.094 222.087 117.419 220.869C109.744 219.65 102.602 216.18 96.8952 210.897C85.1729 199.891 81.6913 182.871 87.9038 167.114C93.3178 153.373 108.107 143.615 123.646 143.471C130.338 143.471 136.422 145.534 142.443 148.27C151.195 152.157 160.138 154.125 169.593 151.341C173.155 150.269 176.631 148.927 179.99 147.326C205.862 135.057 235.056 152.925 235.264 183.175C235.312 204.898 219.293 220.239 198.611 221.342Z" fill="#13171C"/>
<path d="M128.63 174L143.554 178.949C143.554 178.949 145.552 180.247 146.288 181.512C147.578 183.73 147.324 186.511 146.288 188.082C144.71 190.459 141.833 189.424 139.541 188.153C138.612 187.632 137.762 186.982 136.848 186.439C131.75 183.412 126.559 183.126 121.26 185.911C120.104 186.518 118.925 187.089 117.769 187.696C113.398 189.988 111.121 189.874 109.664 187.26C108.207 184.647 109.064 181.284 113.07 179.406C118.04 177.078 128.63 174 128.63 174Z" fill="#5B8ACE"/>
<path d="M192.667 174.536C198.068 174.887 205.813 178.92 205.813 178.92C205.813 178.92 208.023 180.316 208.712 181.427C210.14 183.633 211.047 186.575 208.634 188.16C207.113 189.16 204.007 188.924 202.207 188.053C198.351 186.211 194.752 183.297 190.304 184.133C186.662 184.811 183.163 186.454 179.728 188.003C177.093 189.188 174.494 190.338 172.295 187.817C170.481 185.739 171.874 181.862 174.758 179.77C179.657 176.192 185.396 174.063 192.667 174.536Z" fill="#5B8ACE"/>
</g>
<defs>
<filter id="filter0_dd_218_2260" x="0" y="0" width="320.471" height="337.238" filterUnits="userSpaceOnUse" color-interpolation-filters="sRGB">
<feFlood flood-opacity="0" result="BackgroundImageFix"/>
<feColorMatrix in="SourceAlpha" type="matrix" values="0 0 0 0 0 0 0 0 0 0 0 0 0 0 0 0 0 0 127 0" result="hardAlpha"/>
<feOffset dx="4" dy="-4"/>
<feGaussianBlur stdDeviation="10"/>
<feComposite in2="hardAlpha" operator="out"/>
<feColorMatrix type="matrix" values="0 0 0 0 0.439896 0 0 0 0 0.611964 0 0 0 0 0.858333 0 0 0 0.25 0"/>
<feBlend mode="normal" in2="BackgroundImageFix" result="effect1_dropShadow_218_2260"/>
<feColorMatrix in="SourceAlpha" type="matrix" values="0 0 0 0 0 0 0 0 0 0 0 0 0 0 0 0 0 0 127 0" result="hardAlpha"/>
<feOffset dx="-4" dy="4"/>
<feGaussianBlur stdDeviation="10"/>
<feComposite in2="hardAlpha" operator="out"/>
<feColorMatrix type="matrix" values="0 0 0 0 0.439216 0 0 0 0 0.611765 0 0 0 0 0.858824 0 0 0 0.25 0"/>
<feBlend mode="normal" in2="effect1_dropShadow_218_2260" result="effect2_dropShadow_218_2260"/>
<feBlend mode="normal" in="SourceGraphic" in2="effect2_dropShadow_218_2260" result="shape"/>
</filter>
</defs>
</svg>
