<svg width="16" height="16" viewBox="0 0 16 16" fill="none" xmlns="http://www.w3.org/2000/svg">
<path d="M16 13C16 14.6569 14.6569 16 13 16C11.3431 16 10 14.6569 10 13C10 11.3431 11.3431 10 13 10C14.6569 10 16 11.3431 16 13Z" fill="#F9CB9F"/>
<path d="M10 2C10 0.89543 10.8954 0 12 0H14C15.1046 0 16 0.895431 16 2V4C16 5.10457 15.1046 6 14 6H12C10.8954 6 10 5.10457 10 4V2Z" fill="#1E4C2F"/>
<path d="M0 2C0 0.89543 0.895431 0 2 0H4C5.10457 0 6 0.895431 6 2V4C6 5.10457 5.10457 6 4 6H2C0.89543 6 0 5.10457 0 4V2Z" fill="#1E4C2F"/>
<path d="M0 12C0 10.8954 0.895431 10 2 10H4C5.10457 10 6 10.8954 6 12V14C6 15.1046 5.10457 16 4 16H2C0.89543 16 0 15.1046 0 14V12Z" fill="#1E4C2F"/>
</svg>
