<?xml version="1.0" encoding="iso-8859-1"?>
<!-- Uploaded to: SVG Repo, www.svgrepo.com, Generator: SVG Repo Mixer Tools -->
<svg fill="#000000" height="800px" width="800px" version="1.1" id="Layer_1" xmlns="http://www.w3.org/2000/svg" xmlns:xlink="http://www.w3.org/1999/xlink" 
	 viewBox="0 0 512 512" xml:space="preserve">
<g>
	<g>
		<path d="M501.551,456.642h-9.404V202.71c0-0.003,0-0.006,0-0.01v-35.494c0-5.771-4.678-10.449-10.449-10.449h-58.829
			c-2.573-41.517-20.36-78.977-47.846-106.861c-0.249-0.315-0.513-0.621-0.804-0.911c-0.29-0.29-0.597-0.554-0.91-0.804
			C343.104,18.407,301.663,0,256,0C167.312,0,94.543,69.409,89.131,156.757H30.302c-5.771,0-10.449,4.678-10.449,10.449v35.505
			c0,0.003,0,0.006,0,0.01v253.922h-9.404C4.678,456.642,0,461.32,0,467.091v34.46C0,507.322,4.678,512,10.449,512h491.102
			c5.771,0,10.449-4.678,10.449-10.449v-34.46C512,461.32,507.322,456.642,501.551,456.642z M401.93,156.757H281.226l85.306-85.307
			C386.67,94.664,399.625,124.262,401.93,156.757z M266.449,21.275c32.494,2.304,62.093,15.261,85.307,35.397l-85.307,85.307V21.275
			z M245.551,21.275V141.98l-85.307-85.307C183.458,36.536,213.056,23.579,245.551,21.275z M145.467,71.45l85.306,85.307H110.07
			C112.374,124.262,125.33,94.664,145.467,71.45z M40.751,177.655h430.498v14.607H40.751V177.655z M434.432,344.051
			c-4.081-4.08-10.697-4.079-14.778,0l-79.017,79.017v-67.033l130.612-130.612v231.219H340.637v-4.019l93.795-93.794
			C438.512,354.749,438.512,348.133,434.432,344.051z M340.637,326.48V213.159h113.321L340.637,326.48z M256,318.694
			c-5.771,0-10.449,4.678-10.449,10.449v127.499h-53.29V213.159h127.478v243.483h-53.29V329.143
			C266.449,323.373,261.771,318.694,256,318.694z M40.751,213.159H155.16L40.751,327.568V213.159z M40.751,453.711l94.883-94.882
			c4.08-4.08,4.08-10.697,0-14.778c-4.081-4.08-10.697-4.079-14.778,0l-80.105,80.105v-67.033l130.612-130.612v230.131H40.751
			V453.711z M491.102,491.102H20.898V477.54h9.404h451.396h9.404V491.102z"/>
	</g>
</g>
<g>
	<g>
		<path d="M458.431,320.051c-4.08-4.08-10.697-4.08-14.777,0l-0.097,0.097c-4.08,4.08-4.08,10.697,0,14.778
			c2.041,2.041,4.715,3.06,7.388,3.06c2.674,0,5.349-1.02,7.388-3.06l0.097-0.097C462.512,330.749,462.512,324.133,458.431,320.051z
			"/>
	</g>
</g>
<g>
	<g>
		<path d="M159.633,320.051c-4.08-4.08-10.697-4.08-14.778,0l-0.097,0.097c-4.08,4.08-4.08,10.697,0,14.778
			c2.041,2.041,4.715,3.06,7.388,3.06s5.349-1.02,7.388-3.06l0.097-0.097C163.714,330.748,163.714,324.132,159.633,320.051z"/>
	</g>
</g>
<g>
	<g>
		<path d="M256,284.754c-5.771,0-10.449,4.678-10.449,10.449v0.137c0,5.771,4.678,10.449,10.449,10.449
			c5.771,0,10.449-4.678,10.449-10.449v-0.137C266.449,289.432,261.77,284.754,256,284.754z"/>
	</g>
</g>
</svg>