<svg width="32" height="32" viewBox="0 0 32 32" fill="none" xmlns="http://www.w3.org/2000/svg">
<rect width="32" height="32" rx="4" fill="#F0F9F4"/>
<g clip-path="url(#clip0_132_36977)">
<path fill-rule="evenodd" clip-rule="evenodd" d="M24.4388 21.9988V21.9106C24.4486 21.9106 24.4596 21.9106 24.4694 21.9106C24.5466 21.9106 24.6201 21.891 24.69 21.8518C24.7611 21.8126 24.815 21.7574 24.8542 21.6876C24.8934 21.6178 24.913 21.5443 24.913 21.4671C24.913 21.3899 24.8934 21.3152 24.853 21.2441C24.8138 21.173 24.7574 21.1179 24.6863 21.0799C24.6152 21.042 24.543 21.0224 24.4682 21.0224C24.4584 21.0224 24.4474 21.0224 24.4376 21.0224V20.9342C24.4474 20.9342 24.4584 20.9342 24.4682 20.9342C24.5577 20.9342 24.6447 20.9574 24.7304 21.0028C24.815 21.0493 24.8824 21.1142 24.9289 21.2C24.9767 21.2858 25 21.374 25 21.4671C25 21.5602 24.9767 21.6472 24.9302 21.7317C24.8836 21.8162 24.8174 21.8824 24.7329 21.9289C24.6483 21.9755 24.5601 21.9988 24.4682 21.9988C24.4584 21.9988 24.4474 21.9988 24.4376 21.9988H24.4388ZM24.4388 21.5283C24.4462 21.5308 24.4511 21.5345 24.4572 21.5394C24.4817 21.5577 24.5135 21.6018 24.554 21.6729L24.6042 21.7636H24.7169L24.6471 21.6521C24.614 21.5994 24.5858 21.5614 24.5626 21.5381C24.5503 21.5259 24.5344 21.5161 24.5135 21.5075C24.5626 21.5038 24.603 21.4867 24.6324 21.4548C24.6618 21.4242 24.6777 21.3874 24.6777 21.3458C24.6777 21.3164 24.6692 21.2882 24.6508 21.2613C24.6324 21.2355 24.6091 21.2159 24.5785 21.2061C24.5491 21.1963 24.5025 21.1902 24.4388 21.1902V21.2674C24.4817 21.2674 24.5099 21.2711 24.527 21.2772C24.5442 21.2833 24.5564 21.2943 24.5662 21.3066C24.576 21.3201 24.5809 21.3348 24.5809 21.3519C24.5809 21.3789 24.5711 21.3997 24.5515 21.4156C24.5319 21.4315 24.4952 21.4401 24.4425 21.4401H24.44V21.5283H24.4388ZM24.4388 16.4747V15.4714L24.9412 15.9724L24.4388 16.476V16.4747ZM15.9779 13.0236C16.0355 13.0199 16.0723 13.0995 16.1642 13.1926C16.3541 13.385 16.5342 13.5663 16.7205 13.7489C17.1212 14.1421 17.4508 14.4925 17.8331 14.8588C17.9728 14.9923 18.8856 15.8818 18.9383 15.9773L15.9767 18.9409V18.9813H15.9792L18.9641 21.962L24.4376 16.476V15.4726L18.953 10L15.9779 12.9746V13.0236ZM24.4388 20.9378V21.026C24.3751 21.0309 24.3126 21.0493 24.2513 21.0824C24.1803 21.1204 24.1251 21.1755 24.0847 21.2466C24.0442 21.3176 24.0246 21.3923 24.0246 21.4695C24.0246 21.5467 24.0443 21.619 24.0835 21.69C24.1227 21.7599 24.1778 21.815 24.2477 21.8542C24.3089 21.8885 24.3714 21.9081 24.4376 21.9118V22C24.3567 21.9951 24.2783 21.9718 24.2035 21.9302C24.119 21.8836 24.0528 21.8175 24.0063 21.7329C23.9585 21.6484 23.9352 21.5602 23.9352 21.4683C23.9352 21.3764 23.9585 21.287 24.0063 21.2012C24.0541 21.1155 24.1202 21.0505 24.206 21.004C24.2807 20.9636 24.3579 20.9415 24.4376 20.9366L24.4388 20.9378ZM24.4388 21.1914V21.2686H24.4339H24.3285V21.4413H24.4388V21.5296C24.4241 21.5234 24.4045 21.5198 24.3824 21.5198H24.3285V21.7636H24.2366V21.1902H24.44L24.4388 21.1914ZM15.973 18.9458C15.8811 18.9078 13.6143 16.6021 13.1818 16.1746C12.9551 15.9516 12.9122 16.0557 13.3692 15.5975C13.7442 15.2227 14.1056 14.8613 14.4806 14.4864C14.9119 14.0551 15.4596 13.5296 15.8701 13.0959C15.9167 13.0469 15.9498 13.026 15.9767 13.0236V12.9746L15.9743 12.977L12.9686 10.0025L7 15.9835L12.9845 21.9547L15.9632 18.9752L15.9779 18.9789V18.9384L15.973 18.9433V18.9458Z" fill="#EB2225"/>
</g>
<defs>
<clipPath id="clip0_132_36977">
<rect width="18" height="12" fill="white" transform="translate(7 10)"/>
</clipPath>
</defs>
</svg>
