<svg width="165" height="25" viewBox="0 0 165 25" fill="none" xmlns="http://www.w3.org/2000/svg">
<path d="M21.996 18.388L21.644 18.292C21.1107 19.2093 20.588 19.9987 20.076 20.66C19.5853 21.3 19.0733 21.844 18.54 22.292C18.0067 22.74 17.452 23.092 16.876 23.348C16.3 23.5827 15.6707 23.7427 14.988 23.828C14.3693 23.9133 13.772 23.9667 13.196 23.988C12.6413 24.0093 12.1827 24.02 11.82 24.02C10.9667 24.02 10.1773 23.956 9.452 23.828C8.72667 23.7 8.268 23.4867 8.076 23.188C7.884 22.8893 7.756 22.4413 7.692 21.844C7.64933 21.2253 7.61733 20.5747 7.596 19.892C7.596 19.6787 7.58533 19.4227 7.564 19.124C7.564 18.804 7.564 18.4733 7.564 18.132C7.564 17.7693 7.564 17.4067 7.564 17.044C7.564 16.6813 7.564 16.3613 7.564 16.084C7.564 15.4653 7.564 14.868 7.564 14.292C7.564 13.716 7.58533 13.2787 7.628 12.98C7.96933 12.98 8.24667 12.98 8.46 12.98C8.69467 12.98 8.908 12.98 9.1 12.98C9.31333 12.98 9.52667 12.9907 9.74 13.012C9.95333 13.012 10.22 13.0227 10.54 13.044C11.18 13.0867 11.7347 13.204 12.204 13.396C12.6947 13.588 13.1107 13.8333 13.452 14.132C13.836 14.4947 14.1987 15.0387 14.54 15.764C14.9027 16.4893 15.1693 17.1933 15.34 17.876H15.724V7.796H15.34C15.212 8.39333 15.0627 8.93733 14.892 9.428C14.7427 9.89733 14.5293 10.3133 14.252 10.676C13.996 11.0387 13.6547 11.348 13.228 11.604C12.8013 11.86 12.268 12.0627 11.628 12.212C11.3507 12.276 10.9987 12.3293 10.572 12.372C10.1667 12.3933 9.75067 12.4147 9.324 12.436C8.91867 12.4573 8.556 12.468 8.236 12.468C7.916 12.468 7.70267 12.468 7.596 12.468C7.596 12.404 7.596 12.2867 7.596 12.116C7.596 11.924 7.58533 11.6573 7.564 11.316C7.564 10.9533 7.564 10.4947 7.564 9.94C7.564 9.38533 7.564 8.70267 7.564 7.892C7.564 6.484 7.57467 5.24667 7.596 4.18C7.63867 3.11333 7.68133 2.40933 7.724 2.068C7.93733 2.02533 8.27867 1.99333 8.748 1.972C9.23867 1.92933 9.708 1.908 10.156 1.908C11.564 1.908 12.7587 1.972 13.74 2.1C14.7213 2.228 15.3933 2.37733 15.756 2.548C17.2707 3.29467 18.892 4.74533 20.62 6.9L20.94 6.74L18.764 1.46H1.1V1.78C1.676 1.86533 2.14533 1.96133 2.508 2.068C2.87067 2.15333 3.212 2.36667 3.532 2.708C3.66 2.836 3.756 3.04933 3.82 3.348C3.90533 3.62533 3.95867 3.94533 3.98 4.308C4.02267 4.67067 4.044 5.05467 4.044 5.46C4.06533 5.86533 4.076 6.26 4.076 6.644V12.884C4.076 13.46 4.076 14.0787 4.076 14.74C4.076 15.38 4.06533 16.0093 4.044 16.628C4.044 17.2253 4.03333 17.78 4.012 18.292C4.012 18.804 4.012 19.2093 4.012 19.508C4.012 19.8493 4.00133 20.2013 3.98 20.564C3.95867 20.9053 3.916 21.236 3.852 21.556C3.80933 21.876 3.756 22.164 3.692 22.42C3.628 22.6547 3.54267 22.836 3.436 22.964C3.13733 23.3053 2.75333 23.572 2.284 23.764C1.836 23.956 1.34533 24.0947 0.812 24.18V24.5H20.396L21.996 18.388ZM45.514 8.852V1.684H45.162C45.034 1.876 44.8953 2.068 44.746 2.26C44.5967 2.43067 44.4473 2.59067 44.298 2.74C44.17 2.868 44.042 2.98533 43.914 3.092C43.8073 3.17733 43.7327 3.22 43.69 3.22C43.6473 3.22 43.4553 3.10267 43.114 2.868C42.7727 2.63333 42.282 2.37733 41.642 2.1C41.002 1.82266 40.202 1.56667 39.242 1.332C38.282 1.09733 37.162 0.98 35.882 0.98C34.474 0.98 33.2047 1.12933 32.074 1.428C30.9433 1.72667 29.93 2.132 29.034 2.644C28.138 3.13467 27.3593 3.71067 26.698 4.372C26.0367 5.03333 25.482 5.72667 25.034 6.452C24.65 7.07067 24.33 7.68933 24.074 8.308C23.8393 8.90533 23.6473 9.48133 23.498 10.036C23.37 10.5907 23.274 11.1133 23.21 11.604C23.1673 12.0947 23.146 12.532 23.146 12.916C23.146 14.644 23.4447 16.2333 24.042 17.684C24.6393 19.1133 25.4927 20.3507 26.602 21.396C27.7327 22.42 29.098 23.22 30.698 23.796C32.298 24.3507 34.09 24.628 36.074 24.628C37.2687 24.628 38.3247 24.532 39.242 24.34C40.1593 24.1267 40.938 23.892 41.578 23.636C42.218 23.3587 42.7087 23.1133 43.05 22.9C43.3913 22.6653 43.5833 22.548 43.626 22.548C43.7327 22.548 43.9247 22.6973 44.202 22.996C44.4793 23.2947 44.746 23.6253 45.002 23.988H45.386L45.482 16.948H45.098C44.906 17.8653 44.5433 18.7613 44.01 19.636C43.498 20.4893 42.858 21.2467 42.09 21.908C41.3433 22.5693 40.4793 23.1027 39.498 23.508C38.538 23.9133 37.5033 24.116 36.394 24.116C34.986 24.116 33.706 23.828 32.554 23.252C31.402 22.676 30.4207 21.8973 29.61 20.916C28.7993 19.9133 28.17 18.74 27.722 17.396C27.2953 16.052 27.082 14.612 27.082 13.076C27.082 11.6253 27.2847 10.2173 27.69 8.852C28.1167 7.46533 28.714 6.228 29.482 5.14C30.2713 4.052 31.242 3.17733 32.394 2.516C33.546 1.85467 34.858 1.524 36.33 1.524C37.3967 1.524 38.3993 1.716 39.338 2.1C40.298 2.484 41.1513 3.00667 41.898 3.668C42.666 4.32933 43.3273 5.108 43.882 6.004C44.4367 6.9 44.8527 7.86 45.13 8.884L45.514 8.852ZM72.0218 12.82C72.0218 11.284 71.7551 9.812 71.2218 8.404C70.6884 6.996 69.9204 5.75867 68.9178 4.692C67.9151 3.604 66.6884 2.74 65.2378 2.1C63.8084 1.46 62.1871 1.14 60.3738 1.14C58.7098 1.14 57.1204 1.41733 55.6058 1.972C54.1124 2.50533 52.8004 3.284 51.6698 4.308C50.5604 5.31067 49.6751 6.548 49.0138 8.02C48.3524 9.47067 48.0218 11.1133 48.0218 12.948C48.0218 14.676 48.3311 16.2653 48.9498 17.716C49.5898 19.1453 50.4538 20.3827 51.5418 21.428C52.6298 22.452 53.8991 23.252 55.3498 23.828C56.8004 24.3827 58.3364 24.66 59.9578 24.66C61.6004 24.66 63.1471 24.372 64.5978 23.796C66.0698 23.22 67.3498 22.3987 68.4378 21.332C69.5471 20.2653 70.4218 19.0067 71.0618 17.556C71.7018 16.1053 72.0218 14.5267 72.0218 12.82ZM68.0538 12.852C68.0538 14.196 67.8831 15.54 67.5418 16.884C67.2218 18.228 66.7311 19.444 66.0698 20.532C65.4084 21.5987 64.5764 22.4733 63.5738 23.156C62.5924 23.8387 61.4298 24.18 60.0858 24.18C58.7418 24.18 57.5578 23.8707 56.5338 23.252C55.5311 22.6333 54.6884 21.812 54.0058 20.788C53.3444 19.764 52.8431 18.58 52.5018 17.236C52.1604 15.892 51.9898 14.4947 51.9898 13.044C51.9898 11.6573 52.1391 10.292 52.4378 8.948C52.7578 7.58267 53.2378 6.36667 53.8778 5.3C54.5391 4.23333 55.3711 3.36933 56.3738 2.708C57.3978 2.02533 58.6031 1.684 59.9898 1.684C61.3551 1.684 62.5391 2.02533 63.5417 2.708C64.5444 3.36933 65.3764 4.244 66.0378 5.332C66.7204 6.39867 67.2218 7.59333 67.5418 8.916C67.8831 10.2387 68.0538 11.5507 68.0538 12.852ZM95.4015 1.812V1.46H87.9455V1.78C88.2228 1.80133 88.5322 1.85467 88.8735 1.94C89.2362 2.004 89.5775 2.11067 89.8975 2.26C90.2175 2.388 90.4842 2.55867 90.6975 2.772C90.9108 2.98533 91.0175 3.252 91.0175 3.572C91.0175 3.80667 90.9535 4.23333 90.8255 4.852C90.6975 5.44933 90.4202 6.33467 89.9935 7.508C89.4175 9.044 88.8628 10.516 88.3295 11.924C87.7962 13.332 87.3055 14.5907 86.8575 15.7C86.4308 16.8093 86.0682 17.7373 85.7695 18.484C85.4922 19.2307 85.3002 19.7213 85.1935 19.956C84.9588 19.316 84.6388 18.4947 84.2335 17.492C83.8282 16.4893 83.3908 15.412 82.9215 14.26C82.4735 13.0867 82.0148 11.9027 81.5455 10.708C81.0762 9.492 80.6495 8.38267 80.2655 7.38C79.9028 6.356 79.6042 5.492 79.3695 4.788C79.1348 4.06267 79.0175 3.604 79.0175 3.412C79.0175 3.092 79.1242 2.82533 79.3375 2.612C79.5722 2.39867 79.8282 2.23867 80.1055 2.132C80.4042 2.004 80.6922 1.91867 80.9695 1.876C81.2468 1.83333 81.4388 1.80133 81.5455 1.78V1.46H71.9775V1.812C72.4682 1.83333 72.8735 1.91867 73.1935 2.068C73.5135 2.196 73.7802 2.356 73.9935 2.548C74.2282 2.74 74.4095 2.932 74.5375 3.124C74.6655 3.316 74.7615 3.476 74.8255 3.604C74.9535 3.86 75.0708 4.10533 75.1775 4.34C75.3055 4.57467 75.4228 4.82 75.5295 5.076C75.6575 5.332 75.7855 5.60933 75.9135 5.908C76.0415 6.20667 76.1802 6.55867 76.3295 6.964C76.8628 8.32933 77.3962 9.69467 77.9295 11.06C78.4628 12.404 79.0175 13.8013 79.5935 15.252C80.1695 16.7027 80.7562 18.2173 81.3535 19.796C81.9722 21.3533 82.6335 22.996 83.3375 24.724H83.7215L85.2895 21.524C85.7588 20.308 86.2495 19.028 86.7615 17.684C87.2948 16.3187 87.8282 14.964 88.3615 13.62C88.8948 12.276 89.4175 10.9747 89.9295 9.716C90.4415 8.436 90.9108 7.284 91.3375 6.26C91.5935 5.64133 91.8175 5.12933 92.0095 4.724C92.2228 4.31867 92.4042 3.988 92.5535 3.732C92.7028 3.45466 92.8308 3.252 92.9375 3.124C93.0655 2.97467 93.1615 2.868 93.2255 2.804C93.2895 2.71867 93.5242 2.548 93.9295 2.292C94.3562 2.036 94.8468 1.876 95.4015 1.812ZM116.777 18.388L116.425 18.292C115.892 19.2093 115.369 19.9987 114.857 20.66C114.367 21.3 113.855 21.844 113.321 22.292C112.788 22.74 112.233 23.092 111.657 23.348C111.081 23.5827 110.452 23.7427 109.769 23.828C109.151 23.9133 108.553 23.9667 107.977 23.988C107.423 24.0093 106.964 24.02 106.601 24.02C105.748 24.02 104.959 23.956 104.233 23.828C103.508 23.7 103.049 23.4867 102.857 23.188C102.665 22.8893 102.537 22.4413 102.473 21.844C102.431 21.2253 102.399 20.5747 102.377 19.892C102.377 19.6787 102.367 19.4227 102.345 19.124C102.345 18.804 102.345 18.4733 102.345 18.132C102.345 17.7693 102.345 17.4067 102.345 17.044C102.345 16.6813 102.345 16.3613 102.345 16.084C102.345 15.4653 102.345 14.868 102.345 14.292C102.345 13.716 102.367 13.2787 102.409 12.98C102.751 12.98 103.028 12.98 103.241 12.98C103.476 12.98 103.689 12.98 103.881 12.98C104.095 12.98 104.308 12.9907 104.521 13.012C104.735 13.012 105.001 13.0227 105.321 13.044C105.961 13.0867 106.516 13.204 106.985 13.396C107.476 13.588 107.892 13.8333 108.233 14.132C108.617 14.4947 108.98 15.0387 109.321 15.764C109.684 16.4893 109.951 17.1933 110.121 17.876H110.505V7.796H110.121C109.993 8.39333 109.844 8.93733 109.673 9.428C109.524 9.89733 109.311 10.3133 109.033 10.676C108.777 11.0387 108.436 11.348 108.009 11.604C107.583 11.86 107.049 12.0627 106.409 12.212C106.132 12.276 105.78 12.3293 105.353 12.372C104.948 12.3933 104.532 12.4147 104.105 12.436C103.7 12.4573 103.337 12.468 103.017 12.468C102.697 12.468 102.484 12.468 102.377 12.468C102.377 12.404 102.377 12.2867 102.377 12.116C102.377 11.924 102.367 11.6573 102.345 11.316C102.345 10.9533 102.345 10.4947 102.345 9.94C102.345 9.38533 102.345 8.70267 102.345 7.892C102.345 6.484 102.356 5.24667 102.377 4.18C102.42 3.11333 102.463 2.40933 102.505 2.068C102.719 2.02533 103.06 1.99333 103.529 1.972C104.02 1.92933 104.489 1.908 104.937 1.908C106.345 1.908 107.54 1.972 108.521 2.1C109.503 2.228 110.175 2.37733 110.537 2.548C112.052 3.29467 113.673 4.74533 115.401 6.9L115.721 6.74L113.545 1.46H95.8813V1.78C96.4573 1.86533 96.9266 1.96133 97.2893 2.068C97.6519 2.15333 97.9933 2.36667 98.3133 2.708C98.4413 2.836 98.5373 3.04933 98.6013 3.348C98.6866 3.62533 98.7399 3.94533 98.7613 4.308C98.8039 4.67067 98.8253 5.05467 98.8253 5.46C98.8466 5.86533 98.8573 6.26 98.8573 6.644V12.884C98.8573 13.46 98.8573 14.0787 98.8573 14.74C98.8573 15.38 98.8466 16.0093 98.8253 16.628C98.8253 17.2253 98.8146 17.78 98.7933 18.292C98.7933 18.804 98.7933 19.2093 98.7933 19.508C98.7933 19.8493 98.7826 20.2013 98.7613 20.564C98.7399 20.9053 98.6973 21.236 98.6333 21.556C98.5906 21.876 98.5373 22.164 98.4733 22.42C98.4093 22.6547 98.3239 22.836 98.2173 22.964C97.9186 23.3053 97.5346 23.572 97.0653 23.764C96.6173 23.956 96.1266 24.0947 95.5933 24.18V24.5H115.177L116.777 18.388ZM139.847 17.908L139.527 17.812C139.271 18.452 139.005 19.0707 138.727 19.668C138.45 20.244 138.109 20.788 137.703 21.3C137.298 21.7907 136.807 22.228 136.231 22.612C135.677 22.996 134.973 23.3053 134.119 23.54C133.757 23.6467 133.341 23.732 132.871 23.796C132.402 23.86 131.943 23.9133 131.495 23.956C131.047 23.9773 130.631 23.9987 130.247 24.02C129.885 24.02 129.618 24.02 129.447 24.02C129.021 24.02 128.594 23.9987 128.167 23.956C127.741 23.892 127.346 23.828 126.983 23.764C126.621 23.6787 126.311 23.5827 126.055 23.476C125.799 23.3693 125.629 23.2627 125.543 23.156C125.351 22.8573 125.234 22.3987 125.191 21.78C125.17 21.1613 125.149 20.5107 125.127 19.828C125.127 19.1027 125.117 18.452 125.095 17.876C125.095 17.2787 125.095 16.7027 125.095 16.148C125.095 15.5933 125.095 15.028 125.095 14.452C125.095 13.8547 125.095 13.1933 125.095 12.468C125.095 11.6787 125.095 10.964 125.095 10.324C125.095 9.684 125.095 9.06533 125.095 8.468C125.117 7.87067 125.127 7.26267 125.127 6.644C125.149 6.02533 125.17 5.34267 125.191 4.596C125.213 4.02 125.341 3.56133 125.575 3.22C125.831 2.85733 126.13 2.58 126.471 2.388C126.813 2.196 127.175 2.05733 127.559 1.972C127.943 1.88667 128.274 1.82267 128.551 1.78V1.46H118.343V1.78C118.898 1.844 119.421 1.972 119.911 2.164C120.423 2.356 120.829 2.63333 121.127 2.996C121.255 3.14533 121.351 3.348 121.415 3.604C121.479 3.86 121.522 4.15867 121.543 4.5C121.586 4.82 121.607 5.172 121.607 5.556C121.607 5.91867 121.607 6.292 121.607 6.676V12.884C121.607 13.46 121.607 14.0787 121.607 14.74C121.607 15.38 121.597 16.0093 121.575 16.628C121.575 17.2253 121.565 17.78 121.543 18.292C121.543 18.804 121.543 19.2093 121.543 19.508C121.543 19.8493 121.522 20.2013 121.479 20.564C121.458 20.9053 121.426 21.236 121.383 21.556C121.341 21.876 121.277 22.164 121.191 22.42C121.127 22.6547 121.042 22.836 120.935 22.964C120.637 23.3053 120.221 23.572 119.687 23.764C119.175 23.956 118.653 24.0947 118.119 24.18V24.5H138.663L139.847 17.908ZM164.616 12.82C164.616 11.284 164.349 9.812 163.816 8.404C163.282 6.996 162.514 5.75867 161.512 4.692C160.509 3.604 159.282 2.74 157.832 2.1C156.402 1.46 154.781 1.14 152.968 1.14C151.304 1.14 149.714 1.41733 148.2 1.972C146.706 2.50533 145.394 3.284 144.264 4.308C143.154 5.31067 142.269 6.548 141.608 8.02C140.946 9.47067 140.616 11.1133 140.616 12.948C140.616 14.676 140.925 16.2653 141.544 17.716C142.184 19.1453 143.048 20.3827 144.136 21.428C145.224 22.452 146.493 23.252 147.944 23.828C149.394 24.3827 150.93 24.66 152.552 24.66C154.194 24.66 155.741 24.372 157.192 23.796C158.664 23.22 159.944 22.3987 161.032 21.332C162.141 20.2653 163.016 19.0067 163.656 17.556C164.296 16.1053 164.616 14.5267 164.616 12.82ZM160.648 12.852C160.648 14.196 160.477 15.54 160.136 16.884C159.816 18.228 159.325 19.444 158.664 20.532C158.002 21.5987 157.17 22.4733 156.168 23.156C155.186 23.8387 154.024 24.18 152.68 24.18C151.336 24.18 150.152 23.8707 149.128 23.252C148.125 22.6333 147.282 21.812 146.6 20.788C145.938 19.764 145.437 18.58 145.096 17.236C144.754 15.892 144.584 14.4947 144.584 13.044C144.584 11.6573 144.733 10.292 145.032 8.948C145.352 7.58267 145.832 6.36667 146.472 5.3C147.133 4.23333 147.965 3.36933 148.968 2.708C149.992 2.02533 151.197 1.684 152.584 1.684C153.949 1.684 155.133 2.02533 156.135 2.708C157.138 3.36933 157.97 4.244 158.632 5.332C159.314 6.39867 159.816 7.59333 160.136 8.916C160.477 10.2387 160.648 11.5507 160.648 12.852Z" fill="#CCEBDA"/>
</svg>
