<svg width="24" height="16" viewBox="0 0 24 16" fill="none" xmlns="http://www.w3.org/2000/svg">
<rect width="24" height="16" rx="2" fill="white"/>
<defs>
<filter id="filter0_d_201_23197" x="1.14258" y="1.06641" width="8" height="6.33398" filterUnits="userSpaceOnUse" color-interpolation-filters="sRGB">
<feFlood flood-opacity="0" result="BackgroundImageFix"/>
<feColorMatrix in="SourceAlpha" type="matrix" values="0 0 0 0 0 0 0 0 0 0 0 0 0 0 0 0 0 0 127 0" result="hardAlpha"/>
<feOffset dy="1"/>
<feColorMatrix type="matrix" values="0 0 0 0 0 0 0 0 0 0 0 0 0 0 0 0 0 0 0.06 0"/>
<feBlend mode="normal" in2="BackgroundImageFix" result="effect1_dropShadow_201_23197"/>
<feBlend mode="normal" in="SourceGraphic" in2="effect1_dropShadow_201_23197" result="shape"/>
</filter>
<linearGradient id="paint0_linear_201_23197" x1="1.14258" y1="1.06641" x2="1.14258" y2="6.3996" gradientUnits="userSpaceOnUse">
<stop stop-color="white"/>
<stop offset="1" stop-color="#F0F0F0"/>
</linearGradient>
</defs>
<mask id="mask0_201_23197" style="mask-type:luminance" maskUnits="userSpaceOnUse" x="0" y="0" width="24" height="16">
<rect width="24" height="16" rx="2" fill="white"/>
</mask>
<g mask="url(#mask0_201_23197)">
<path fill-rule="evenodd" clip-rule="evenodd" d="M24 0H0V1.06667H24V0ZM24 2.1333H0V3.19997H24V2.1333ZM0 4.2666H24V5.33327H0V4.2666ZM24 6.3999H0V7.46657H24V6.3999ZM0 8.5332H24V9.59987H0V8.5332ZM24 10.667H0V11.7337H24V10.667ZM0 12.7998H24V13.8665H0V12.7998ZM24 14.9331H0V15.9998H24V14.9331Z" fill="#D02F44"/>
<rect width="10.2857" height="7.46667" fill="#46467F"/>
<g filter="url(#filter0_d_201_23197)">
<path fill-rule="evenodd" clip-rule="evenodd" d="M2.28544 1.59974C2.28544 1.89429 2.0296 2.13307 1.71401 2.13307C1.39842 2.13307 1.14258 1.89429 1.14258 1.59974C1.14258 1.30519 1.39842 1.06641 1.71401 1.06641C2.0296 1.06641 2.28544 1.30519 2.28544 1.59974ZM4.57106 1.59974C4.57106 1.89429 4.31522 2.13307 3.99963 2.13307C3.68404 2.13307 3.4282 1.89429 3.4282 1.59974C3.4282 1.30519 3.68404 1.06641 3.99963 1.06641C4.31522 1.06641 4.57106 1.30519 4.57106 1.59974ZM6.28537 2.13307C6.60096 2.13307 6.8568 1.89429 6.8568 1.59974C6.8568 1.30519 6.60096 1.06641 6.28537 1.06641C5.96978 1.06641 5.71394 1.30519 5.71394 1.59974C5.71394 1.89429 5.96978 2.13307 6.28537 2.13307ZM9.14239 1.59974C9.14239 1.89429 8.88656 2.13307 8.57096 2.13307C8.25537 2.13307 7.99954 1.89429 7.99954 1.59974C7.99954 1.30519 8.25537 1.06641 8.57096 1.06641C8.88656 1.06641 9.14239 1.30519 9.14239 1.59974ZM2.85705 3.20004C3.17264 3.20004 3.42848 2.96126 3.42848 2.6667C3.42848 2.37215 3.17264 2.13337 2.85705 2.13337C2.54146 2.13337 2.28562 2.37215 2.28562 2.6667C2.28562 2.96126 2.54146 3.20004 2.85705 3.20004ZM5.71363 2.6667C5.71363 2.96126 5.4578 3.20004 5.1422 3.20004C4.82661 3.20004 4.57078 2.96126 4.57078 2.6667C4.57078 2.37215 4.82661 2.13337 5.1422 2.13337C5.4578 2.13337 5.71363 2.37215 5.71363 2.6667ZM7.42795 3.20004C7.74354 3.20004 7.99938 2.96126 7.99938 2.6667C7.99938 2.37215 7.74354 2.13337 7.42795 2.13337C7.11236 2.13337 6.85652 2.37215 6.85652 2.6667C6.85652 2.96126 7.11236 3.20004 7.42795 3.20004ZM9.14239 3.73311C9.14239 4.02766 8.88656 4.26644 8.57096 4.26644C8.25537 4.26644 7.99954 4.02766 7.99954 3.73311C7.99954 3.43856 8.25537 3.19978 8.57096 3.19978C8.88656 3.19978 9.14239 3.43856 9.14239 3.73311ZM6.28537 4.26644C6.60096 4.26644 6.8568 4.02766 6.8568 3.73311C6.8568 3.43856 6.60096 3.19978 6.28537 3.19978C5.96978 3.19978 5.71394 3.43856 5.71394 3.73311C5.71394 4.02766 5.96978 4.26644 6.28537 4.26644ZM4.57106 3.73311C4.57106 4.02766 4.31522 4.26644 3.99963 4.26644C3.68404 4.26644 3.4282 4.02766 3.4282 3.73311C3.4282 3.43856 3.68404 3.19978 3.99963 3.19978C4.31522 3.19978 4.57106 3.43856 4.57106 3.73311ZM1.71403 4.2663C2.02962 4.2663 2.28546 4.02752 2.28546 3.73297C2.28546 3.43842 2.02962 3.19964 1.71403 3.19964C1.39844 3.19964 1.1426 3.43842 1.1426 3.73297C1.1426 4.02752 1.39844 4.2663 1.71403 4.2663ZM3.42848 4.79952C3.42848 5.09407 3.17264 5.33285 2.85705 5.33285C2.54146 5.33285 2.28562 5.09407 2.28562 4.79952C2.28562 4.50496 2.54146 4.26618 2.85705 4.26618C3.17264 4.26618 3.42848 4.50496 3.42848 4.79952ZM5.1422 5.33285C5.4578 5.33285 5.71363 5.09407 5.71363 4.79952C5.71363 4.50496 5.4578 4.26618 5.1422 4.26618C4.82661 4.26618 4.57078 4.50496 4.57078 4.79952C4.57078 5.09407 4.82661 5.33285 5.1422 5.33285ZM7.99938 4.79952C7.99938 5.09407 7.74354 5.33285 7.42795 5.33285C7.11236 5.33285 6.85652 5.09407 6.85652 4.79952C6.85652 4.50496 7.11236 4.26618 7.42795 4.26618C7.74354 4.26618 7.99938 4.50496 7.99938 4.79952ZM8.57096 6.39954C8.88656 6.39954 9.14239 6.16075 9.14239 5.8662C9.14239 5.57165 8.88656 5.33287 8.57096 5.33287C8.25537 5.33287 7.99954 5.57165 7.99954 5.8662C7.99954 6.16075 8.25537 6.39954 8.57096 6.39954ZM6.8568 5.8662C6.8568 6.16075 6.60096 6.39954 6.28537 6.39954C5.96978 6.39954 5.71394 6.16075 5.71394 5.8662C5.71394 5.57165 5.96978 5.33287 6.28537 5.33287C6.60096 5.33287 6.8568 5.57165 6.8568 5.8662ZM3.99963 6.39954C4.31522 6.39954 4.57106 6.16075 4.57106 5.8662C4.57106 5.57165 4.31522 5.33287 3.99963 5.33287C3.68404 5.33287 3.4282 5.57165 3.4282 5.8662C3.4282 6.16075 3.68404 6.39954 3.99963 6.39954ZM2.28546 5.86627C2.28546 6.16082 2.02962 6.3996 1.71403 6.3996C1.39844 6.3996 1.1426 6.16082 1.1426 5.86627C1.1426 5.57172 1.39844 5.33294 1.71403 5.33294C2.02962 5.33294 2.28546 5.57172 2.28546 5.86627Z" fill="url(#paint0_linear_201_23197)"/>
</g>
</g>
</svg>
