<svg width="342" height="80" viewBox="0 0 342 80" fill="none" xmlns="http://www.w3.org/2000/svg">
<path d="M400 -304V96H0V-304" fill="white"/>
<defs>
<linearGradient id="paint0_linear_239_31308" x1="342" y1="43.9024" x2="0.0404026" y2="37.7529" gradientUnits="userSpaceOnUse">
<stop stop-color="#1E4C2F" stop-opacity="0.86"/>
<stop offset="1" stop-color="#1E4C2F"/>
</linearGradient>
</defs>
<path fill-rule="evenodd" clip-rule="evenodd" d="M9.32227 -58.1908L12.9134 -61.2397V-78.5552L24.1845 -113.035L24.7445 -132.244H25.0378L25.5978 -113.035L36.86 -78.5552V-61.2397L40.4512 -58.1908V56.7247H9.32227V-58.1908Z" fill="#D3ECDE"/>
<path fill-rule="evenodd" clip-rule="evenodd" d="M177.581 -67.2216L167.643 -84.955H166.755L166.266 -100.182H166.043L165.555 -84.955H156.097L155.599 -100.182H155.377L154.879 -84.955H153.999L144.061 -67.2216H141.795L141.243 -90.6261H140.977L140.426 -67.2216H138.523V56.725H183.119V-67.2216H181.199L180.648 -90.6261H180.39L179.83 -67.2216H177.581Z" fill="#D3ECDE"/>
<path fill-rule="evenodd" clip-rule="evenodd" d="M270.273 -52.0107L260.335 -69.744H259.446L258.957 -84.9707H258.726L258.237 -69.744H248.779L248.29 -84.9707H248.068L247.57 -69.744H246.69L236.753 -52.0107H234.486L233.935 -75.4151H233.668L233.117 -52.0107H231.215V71.9359H275.802V-52.0107H273.89L273.339 -75.4151H273.082L272.522 -52.0107H270.273Z" fill="#D3ECDE"/>
<path fill-rule="evenodd" clip-rule="evenodd" d="M103.129 -69.744L80.1775 -84.9707L65.6797 -69.744V54.0871H103.129V-69.744Z" fill="#D3ECDE"/>
<path fill-rule="evenodd" clip-rule="evenodd" d="M293.598 -98.5194L316.549 -113.746L331.047 -98.5194V25.3117H293.598V-98.5194Z" fill="#D3ECDE"/>
<path fill-rule="evenodd" clip-rule="evenodd" d="M375.493 -76.0272L352.551 -91.2539L338.053 -76.0272V47.8039H375.493V-76.0272Z" fill="#D3ECDE"/>
<path fill-rule="evenodd" clip-rule="evenodd" d="M200.965 -68.893L204.894 -72.2175V-91.1419L217.205 -99.6753L217.818 -120.68H218.138L218.752 -99.6753L231.063 -91.1419V-72.2175L235 -68.893V56.7247H200.965V-68.893Z" fill="#D3ECDE"/>
<path d="M400 -6.40842H397.858V-26.6929L383.004 -31.4573L368.827 -26.6929V-10.7729H361.947V-19.2706L338.809 -20.5595L326.027 -17.5729V-5.81288L316.284 -6.48842V-18.7995L296.196 -20.2218L286.462 -16.0884V-5.20841L277.956 -2.79066V-11.3862L267.458 -13.7062L254.818 -11.3862V-2.79066L246.311 -5.20841V-24.204L236.578 -28.3284L216.489 -26.9151V-6.48842L200.729 -5.81288V-14.1329L187.947 -17.1373L164.818 -15.8306V-10.7729H157.938V-23.004L143.76 -27.7684L128.907 -23.004V-6.40842H124.027L123.378 -23.6884L107.609 -26.524L92.9956 -25.4573V-6.28399H83.2444V-11.3684L68.8 -14.7907V-27.5995L62.9778 -28.7284V-35.4929L52.2578 -36.6484L45.4844 -35.4929V-29.244L37.9289 -28.3907V-5.56399L19.9111 -4.63954V-8.72843L12.64 -10.3284L0 -9.51953V96.0005H400V-6.40842Z" fill="#B1DACA"/>
<path d="M315.004 62.9971L314.444 65.1927H310.275V63.5571L315.004 62.9971ZM303.733 77.1571L307.875 77.6016L308.666 75.4771L303.902 75.5305L303.724 77.1571H303.733ZM280.906 75.4682L281.59 77.6105L285.004 77.2638L284.844 75.6371L280.915 75.4682H280.906ZM306.479 61.966L294.266 58.4105V55.6016L288.879 58.126L288.222 60.3838L286.462 60.7571L287.102 59.0327L282.337 59.086L282.159 60.7127L285.155 61.0327L283.475 61.3971L284.222 63.646L276.106 63.5482L278.497 68.606L275.279 70.1971L279.777 74.2238L285.208 74.9705L285.306 77.2193L302.435 77.5927L303.413 75.1571L309.03 73.8504L308.959 72.7393L311.804 72.0727L313.022 65.7083L305.626 64.3216L306.462 61.966H306.479Z" fill="#73B550"/>
<path d="M305.653 64.3106L300.578 65.084L306.489 61.9551L305.653 64.3106ZM303.884 67.8129H299.582L297.377 70.9595L280.915 69.3951L275.938 70.7551L279.813 74.2217L285.244 74.9684L285.342 77.2173L302.471 77.5906L303.449 75.1551L309.066 73.8484L308.995 72.7373L311.84 72.0706L313.058 65.7062L305.671 64.3195L303.902 67.8129H303.884ZM310.275 63.5551V65.1906H314.444L315.004 62.9951L310.275 63.5551ZM303.733 77.1551L307.875 77.5995L308.666 75.4751L303.902 75.5284L303.724 77.1551H303.733ZM280.906 75.4662L281.591 77.6084L285.004 77.2617L284.844 75.6351L280.915 75.4662H280.906Z" fill="#388A43"/>
<path d="M111.902 63.1029L111.342 65.2807H107.209V63.654L111.902 63.094V63.1029ZM100.72 77.1562L104.836 77.6006L105.627 75.494L100.898 75.5473L100.72 77.1562ZM78.0625 75.4851L78.7381 77.6095L82.1247 77.2718L81.9647 75.654L78.0625 75.4851ZM103.44 62.0895L91.3247 58.5607V55.7695L85.9736 58.2762L85.3247 60.5162L83.5825 60.8895L84.2225 59.1829L79.4936 59.2362L79.3158 60.8451L82.2936 61.1651L80.6225 61.5206L81.3692 63.7518L73.3158 63.6629L75.6892 68.6762L72.498 70.2584L76.9603 74.2495L82.3469 74.9962L82.4358 77.2273L99.4403 77.6006L100.409 75.1829L105.982 73.8851L105.911 72.774L108.729 72.1162L109.938 65.7962L102.605 64.4184L103.44 62.0806V62.0895Z" fill="#73B550"/>
<path d="M102.612 64.4187L97.5725 65.1921L103.439 62.0898L102.604 64.4276L102.612 64.4187ZM100.861 67.8943H96.5858L94.3991 71.0143L78.0614 69.4676L73.1191 70.8187L76.9591 74.2587L82.3458 75.0054L82.4347 77.2365L99.4391 77.6098L100.408 75.1921L105.981 73.8943L105.91 72.7832L108.728 72.1254L109.937 65.8054L102.604 64.4276L100.852 67.8943H100.861ZM107.208 63.6632V65.2898H111.341L111.901 63.1121L107.208 63.6721V63.6632ZM100.719 77.1565L104.835 77.6009L105.626 75.4943L100.897 75.5476L100.719 77.1565ZM78.0614 75.4854L78.7369 77.6098L82.1236 77.2721L81.9636 75.6543L78.0614 75.4854Z" fill="#388A43"/>
<path d="M140.169 66.3918L139.742 68.0807H136.542V66.8274L140.169 66.4007V66.3918ZM131.52 77.254L134.702 77.6007L135.316 75.974L131.662 76.0096L131.529 77.254H131.52ZM114.009 75.9563L114.534 77.6007L117.156 77.334L117.031 76.0896L114.018 75.9563H114.009ZM133.636 65.6007L124.267 62.8718V60.7207L120.133 62.6585L119.627 64.3918L118.276 64.6851L118.773 63.3607L115.12 63.3963L114.987 64.6407L117.289 64.8896L116 65.1651L116.578 66.8896L110.356 66.8185L112.187 70.694L109.725 71.9118L113.173 74.9963L117.342 75.574L117.413 77.2985L130.56 77.5829L131.307 75.7163L135.618 74.7118L135.565 73.8585L137.742 73.3518L138.676 68.4718L133.005 67.4051L133.645 65.5918L133.636 65.6007Z" fill="#73B550"/>
<path d="M132.987 67.406L129.094 68.0016L133.636 65.6016L132.996 67.406H132.987ZM131.636 70.0905H128.33L126.632 72.4993L114.001 71.2993L110.188 72.3483L113.156 75.006L117.325 75.5838L117.396 77.3082L130.543 77.5927L131.29 75.726L135.601 74.7216L135.548 73.8682L137.725 73.3616L138.659 68.4816L132.987 67.4149L131.636 70.0993V70.0905ZM136.543 66.8194V68.0727H139.743L140.17 66.3838L136.543 66.8105V66.8194ZM131.53 77.2549L134.712 77.6016L135.325 75.9749L131.672 76.0105L131.539 77.2549H131.53ZM114.019 75.9571L114.543 77.6016L117.165 77.3349L117.041 76.0905L114.027 75.9571H114.019Z" fill="#388A43"/>
<path d="M281.849 66.6502L281.431 68.2946H278.311V67.068L281.858 66.6502H281.849ZM273.404 77.2635L276.507 77.6013L277.102 76.0102L273.529 76.0457L273.395 77.2635H273.404ZM256.293 76.0013L256.8 77.6013L259.36 77.3435L259.235 76.1258L256.284 76.0013H256.293ZM275.467 65.8768L266.311 63.2102V61.1035L262.275 62.9969L261.787 64.6946L260.471 64.9791L260.951 63.6902L257.378 63.7257L257.244 64.9435L259.493 65.1835L258.231 65.4502L258.791 67.1302L252.711 67.0591L254.507 70.8458L252.098 72.0369L255.467 75.0591L259.538 75.6191L259.609 77.2991L272.453 77.5835L273.182 75.7613L277.395 74.7746L277.342 73.9391L279.475 73.4413L280.391 68.668L274.853 67.628L275.484 65.8591L275.467 65.8768Z" fill="#73B550"/>
<path d="M274.836 67.6439L271.032 68.2217L275.467 65.875L274.836 67.635V67.6439ZM273.512 70.2661H270.285L268.632 72.6217L256.294 71.4484L252.561 72.4706L255.458 75.0661L259.529 75.6261L259.601 77.3061L272.445 77.5906L273.174 75.7683L277.387 74.7817L277.334 73.9461L279.467 73.4484L280.383 68.675L274.845 67.635L273.521 70.2572L273.512 70.2661ZM278.303 67.075V68.3017H281.423L281.841 66.6572L278.294 67.075H278.303ZM273.396 77.2706L276.498 77.6083L277.094 76.0172L273.521 76.0528L273.387 77.2706H273.396ZM256.285 76.0084L256.792 77.6083L259.352 77.3506L259.227 76.1328L256.276 76.0084H256.285Z" fill="#388A43"/>
<path d="M234.045 66.6502L233.627 68.2946H230.507V67.068L234.054 66.6502H234.045ZM225.601 77.2635L228.703 77.6013L229.298 76.0102L225.725 76.0457L225.592 77.2635H225.601ZM208.49 76.0013L208.996 77.6013L211.556 77.3435L211.432 76.1258L208.481 76.0013H208.49ZM227.663 65.8768L218.507 63.2102V61.1035L214.463 62.9969L213.974 64.6946L212.658 64.9791L213.138 63.6902L209.565 63.7257L209.432 64.9435L211.681 65.1835L210.418 65.4502L210.978 67.1302L204.898 67.0591L206.694 70.8458L204.285 72.0369L207.654 75.0591L211.725 75.6191L211.796 77.2991L224.641 77.5835L225.37 75.7613L229.583 74.7746L229.53 73.9391L231.663 73.4413L232.578 68.668L227.041 67.628L227.672 65.8591L227.663 65.8768Z" fill="#73B550"/>
<path d="M227.022 67.6439L223.217 68.2217L227.653 65.875L227.022 67.635V67.6439ZM225.697 70.2661H222.471L220.817 72.6217L208.479 71.4484L204.746 72.4706L207.644 75.0661L211.715 75.6261L211.786 77.3061L224.631 77.5906L225.359 75.7683L229.573 74.7817L229.519 73.9461L231.653 73.4484L232.568 68.675L227.031 67.635L225.706 70.2572L225.697 70.2661ZM230.488 67.075V68.3017H233.608L234.026 66.6572L230.479 67.075H230.488ZM225.582 77.2706L228.684 77.6083L229.279 76.0172L225.706 76.0528L225.573 77.2706H225.582ZM208.471 76.0084L208.977 77.6083L211.537 77.3506L211.413 76.1328L208.462 76.0084H208.471Z" fill="#388A43"/>
<path d="M61.583 52.4456C61.5652 60.739 64.063 68.9345 64.0896 77.3789H65.7785C65.7519 71.7167 64.2674 66.2678 63.5563 60.6767C63.5919 60.6856 63.6185 60.7034 63.6541 60.7123C65.183 60.9789 66.4363 60.0012 66.4274 58.3745C66.4185 54.579 65.8852 50.7923 65.983 46.979C65.983 46.7923 65.6896 46.7745 65.6541 46.9523C65.3074 48.9523 65.0763 50.8367 65.0319 52.8723C64.9963 54.499 66.0007 58.8101 63.423 58.819C63.4052 58.819 63.3874 58.8278 63.3785 58.8278C62.9252 53.3612 63.503 47.9478 63.4407 42.4723C63.4407 42.2678 63.1652 42.2856 63.1119 42.4456C62.2407 45.0412 61.8141 47.6101 61.6541 50.1701C61.4319 50.3301 61.2452 50.5078 61.0763 50.7567C60.6141 51.4323 59.7696 51.5745 59.023 51.619C58.2407 51.6634 57.3607 51.3345 56.6585 51.0234C55.8141 50.6412 55.7074 49.7612 55.6007 48.9523C55.5119 48.3123 54.543 48.1612 54.4185 48.8634C53.9296 51.6012 55.9741 52.7656 58.4007 53.1478C59.183 53.2723 60.5963 53.0145 61.5919 52.4367L61.583 52.4456Z" fill="#88592F"/>
<path d="M66.3474 55.4578C66.1962 52.6311 65.9207 49.8133 65.9918 46.9689C65.9918 46.7822 65.6985 46.7644 65.6629 46.9422C65.3162 48.9422 65.0851 50.8266 65.0407 52.8622C65.0229 53.4755 65.1562 54.4622 65.1918 55.4578H66.3474Z" fill="#451D00"/>
<path d="M58.3919 53.1559C59.1741 53.2803 60.5874 53.0225 61.583 52.4448C61.583 53.4492 61.6185 54.4537 61.6807 55.4581H63.2185C63.1385 51.1292 63.4852 46.8181 63.4407 42.4625C63.4407 42.2581 63.1652 42.2759 63.1119 42.4359C62.2407 45.0314 61.8141 47.6003 61.6541 50.1603C61.4319 50.3203 61.2452 50.4981 61.0763 50.747C60.6141 51.4225 59.7696 51.5648 59.023 51.6092C58.2407 51.6536 57.3607 51.3248 56.6585 51.0137C55.8141 50.6314 55.7074 49.7514 55.6007 48.9425C55.5119 48.3025 54.543 48.1514 54.4185 48.8536C53.9296 51.5914 55.9741 52.7559 58.4007 53.1381L58.3919 53.1559Z" fill="#451D00"/>
<path d="M58.1706 8.87329L55.1039 10.5622C54.3928 10.9533 53.9217 11.6822 53.8506 12.5266L52.2328 29.5933L46.615 32.8644L44.1973 43.3355L45.3973 44.4555C49.0506 47.8688 53.8062 49.6555 58.4106 49.2199L73.4773 47.7977L81.5128 37.3177C82.3928 36.1711 81.6639 34.3844 80.1084 33.8422L70.5884 30.5266L66.8373 21.1044C66.4017 20.0111 65.6284 19.0688 64.6417 18.4288L61.5573 16.4288L60.8462 10.3755C60.695 9.05107 59.2728 8.26884 58.1528 8.89106L58.1706 8.87329Z" fill="#73B550"/>
<path d="M67.0476 32.6413C62.0165 31.7524 52.2298 29.5835 52.2298 29.5835L53.3231 18.0013C54.3009 19.1035 59.9453 23.3258 65.3676 20.7302C65.6787 20.5791 66.0342 20.4013 66.3542 20.1613C66.5409 20.4635 66.7187 20.7746 66.8431 21.1035L70.5942 30.5257H70.6031C70.6031 30.5257 71.6787 33.2458 67.0476 32.6502V32.6413ZM61.572 16.4102L61.1365 12.668C57.6165 13.2102 56.0787 15.0146 56.132 15.0235C60.0254 15.788 61.572 16.4013 61.572 16.4013V16.4102ZM81.3676 34.7391C81.5098 37.2991 73.7587 38.1435 68.1765 38.0635C62.4342 37.9835 52.6209 38.6235 47.8387 35.6546C47.1009 35.1924 46.6298 34.5258 46.3987 33.788L44.2031 43.3257L45.4031 44.4457C49.0565 47.8591 53.812 49.6457 58.4165 49.2102L73.4831 47.788L81.5187 37.308C82.0965 36.5524 81.972 35.5213 81.3765 34.748L81.3676 34.7391Z" fill="#388A43"/>
<path d="M240.648 52.6137C240.025 60.827 241.928 68.9337 241.341 77.2892H243.03C243.421 71.6892 242.328 66.2937 242.025 60.7559C242.061 60.7648 242.088 60.7826 242.114 60.7915C243.625 61.0581 244.95 60.0803 245.056 58.4714C245.323 54.7114 245.065 50.9692 245.439 47.1914C245.456 47.0048 245.154 46.987 245.11 47.1648C244.612 49.147 244.256 51.0137 244.052 53.0226C243.892 54.6314 244.585 58.8981 242.008 58.907C241.99 58.907 241.972 58.9159 241.963 58.9159C241.91 53.5026 242.879 48.1426 243.216 42.7203C243.225 42.5159 242.959 42.5337 242.888 42.6937C241.83 45.2626 241.216 47.8137 240.87 50.347C240.639 50.507 240.434 50.6848 240.248 50.9337C239.732 51.6003 238.879 51.7515 238.132 51.787C237.341 51.8315 236.488 51.5115 235.812 51.2003C234.994 50.8181 234.959 49.9559 234.905 49.1559C234.861 48.5159 233.91 48.3648 233.723 49.067C233.03 51.7781 234.994 52.9337 237.394 53.307C238.168 53.4314 239.599 53.1737 240.639 52.6048L240.648 52.6137Z" fill="#88592F"/>
<path d="M245.191 55.6013C245.244 52.8013 245.173 50.0102 245.457 47.2013C245.475 47.0146 245.173 46.9968 245.128 47.1746C244.631 49.1568 244.275 51.0235 244.071 53.0324C244.008 53.6368 244.071 54.6146 244.035 55.6013H245.191Z" fill="#451D00"/>
<path d="M237.404 53.3254C238.177 53.4499 239.608 53.1921 240.648 52.6232C240.577 53.6188 240.542 54.6143 240.524 55.6099H242.062C242.302 51.3255 242.959 47.0499 243.226 42.7477C243.235 42.5432 242.968 42.561 242.897 42.721C241.84 45.2899 241.226 47.841 240.879 50.3744C240.648 50.5344 240.444 50.7121 240.257 50.961C239.742 51.6277 238.888 51.7788 238.142 51.8144C237.351 51.8588 236.497 51.5388 235.822 51.2277C235.004 50.8455 234.968 49.9832 234.915 49.1832C234.871 48.5432 233.92 48.3921 233.733 49.0944C233.04 51.8055 235.004 52.961 237.404 53.3343V53.3254Z" fill="#451D00"/>
<path d="M240.411 9.47558L237.22 11.1467C236.482 11.5289 235.957 12.2578 235.815 13.0845L232.953 29.9823L227.095 33.2267L223.922 43.5911L225.042 44.7023C228.455 48.08 233.077 49.8489 237.709 49.4134L252.882 48L261.682 37.6267C262.642 36.4889 262.055 34.72 260.535 34.1867L251.264 30.9067L248.206 21.5822C247.851 20.4978 247.149 19.5645 246.206 18.9333L243.273 16.9511L243.006 10.9511C242.944 9.63559 241.593 8.87115 240.42 9.48448L240.411 9.47558Z" fill="#73B550"/>
<path d="M247.557 33.0139C242.589 32.1339 232.962 29.9828 232.962 29.9828L234.9 18.5161C235.797 19.6094 241.14 23.7872 246.749 21.2094C247.069 21.0583 247.442 20.8806 247.771 20.6406C247.94 20.9339 248.091 21.245 248.197 21.5739L251.255 30.8984H251.264C251.264 30.8984 252.135 33.5917 247.549 33.005L247.557 33.0139ZM243.264 16.9517L243.104 13.2539C239.549 13.7872 237.877 15.5739 237.931 15.5917C241.762 16.3472 243.264 16.9606 243.264 16.9606V16.9517ZM261.726 35.0939C261.682 37.6272 253.869 38.4717 248.286 38.3828C242.553 38.3028 232.695 38.9339 228.117 36.0006C227.406 35.5472 226.997 34.8806 226.811 34.1517L223.922 43.5917L225.042 44.7028C228.455 48.0806 233.077 49.8495 237.709 49.4139L252.882 48.0006L261.682 37.6272C262.313 36.8806 262.26 35.8584 261.726 35.0939Z" fill="#388A43"/>
<path d="M23.005 71.8145H21.8672V78.1078H23.005V71.8145Z" fill="#653E36"/>
<path d="M25.9835 71.8145H24.8457V78.1078H25.9835V71.8145Z" fill="#653E36"/>
<path d="M34.4561 71.8145H33.3184V78.1078H34.4561V71.8145Z" fill="#653E36"/>
<path d="M38.0206 71.8145H36.8828V78.1078H38.0206V71.8145Z" fill="#653E36"/>
<path d="M46.3722 71.8145H45.2344V78.1078H46.3722V71.8145Z" fill="#653E36"/>
<path d="M49.3624 71.8145H48.2246V78.1078H49.3624V71.8145Z" fill="#653E36"/>
<path d="M52.39 74.3749H19.6966L17.9277 65.9838L32.8166 64.686L35.5988 62.1082L51.7766 60.2148L54.15 63.6282L52.39 74.3749Z" fill="#73B550"/>
<path d="M18.6113 69.2451L19.6958 74.374H52.3802L53.4735 67.7251L51.6602 66.6318C51.598 66.7829 51.5091 66.9251 51.4024 67.0407C51.0469 67.4229 50.4335 67.5562 49.9358 67.3784C49.3313 67.1562 48.878 66.6407 49.0202 65.9562C49.0824 65.6718 49.278 65.4673 49.5269 65.3429L48.7802 64.8984L48.5135 64.9518C48.558 65.1562 48.5669 65.3695 48.5313 65.5829C48.4869 66.3295 47.8913 67.0229 47.3047 67.4051C46.4691 67.9562 45.4469 67.7695 44.7002 67.174C44.2735 66.8362 44.1224 66.294 44.1491 65.7695L37.4291 67.0318L32.3091 70.1962L30.9402 70.0984C30.9402 70.1784 30.9224 70.2673 30.9047 70.3473C30.6647 71.2896 29.5269 71.9029 28.6024 71.654C27.9269 71.4673 27.3935 70.8362 27.4024 70.1251C27.4024 70.0273 27.4202 69.9384 27.438 69.8584L23.518 69.5829C23.4913 69.814 23.3935 70.0362 23.2247 70.2318C22.9135 70.5873 22.3358 70.6584 21.9091 70.5162C21.4024 70.3473 21.0735 69.9918 21.0291 69.4495C21.0291 69.4407 21.0291 69.4229 21.0291 69.4051L18.6113 69.2362V69.2451ZM37.9269 68.0184C38.2558 67.5295 38.9402 67.3073 39.5002 67.2629C40.0958 67.2184 40.638 67.4406 41.0735 67.8495C41.4113 68.1606 41.3758 68.7118 41.0735 69.0229C40.6824 69.4318 40.0602 69.6362 39.5358 69.7695C38.9402 69.9295 38.1847 70.0007 37.6958 69.5384C37.1891 69.0584 37.4558 68.374 37.9269 68.0184Z" fill="#388A43"/>
<path d="M148.364 71.8223H147.227V78.1156H148.364V71.8223Z" fill="#653E36"/>
<path d="M151.343 71.8223H150.205V78.1156H151.343V71.8223Z" fill="#653E36"/>
<path d="M159.816 71.8223H158.678V78.1156H159.816V71.8223Z" fill="#653E36"/>
<path d="M163.38 71.8223H162.242V78.1156H163.38V71.8223Z" fill="#653E36"/>
<path d="M171.732 71.8223H170.594V78.1156H171.732V71.8223Z" fill="#653E36"/>
<path d="M174.722 71.8223H173.584V78.1156H174.722V71.8223Z" fill="#653E36"/>
<path d="M177.751 74.3749H145.058L143.289 65.9838L158.178 64.686L160.96 62.1082L177.138 60.2148L179.511 63.6282L177.751 74.3749Z" fill="#73B550"/>
<path d="M143.984 69.2451L145.069 74.374H177.753L178.847 67.7251L177.033 66.6318C176.971 66.7829 176.882 66.9251 176.775 67.0407C176.42 67.4229 175.807 67.5562 175.309 67.3784C174.704 67.1562 174.251 66.6407 174.393 65.9562C174.455 65.6718 174.651 65.4673 174.9 65.3429L174.153 64.8984L173.887 64.9518C173.931 65.1562 173.94 65.3695 173.904 65.5829C173.86 66.3295 173.264 67.0229 172.678 67.4051C171.842 67.9562 170.82 67.7695 170.073 67.174C169.647 66.8362 169.495 66.294 169.522 65.7695L162.802 67.0318L157.682 70.1962L156.313 70.0984C156.313 70.1784 156.295 70.2673 156.278 70.3473C156.038 71.2896 154.9 71.9029 153.975 71.654C153.3 71.4673 152.767 70.8362 152.775 70.1251C152.775 70.0273 152.793 69.9384 152.811 69.8584L148.891 69.5829C148.864 69.814 148.767 70.0362 148.598 70.2318C148.287 70.5873 147.709 70.6584 147.282 70.5162C146.775 70.3473 146.447 69.9918 146.402 69.4495C146.402 69.4407 146.402 69.4229 146.402 69.4051L143.984 69.2362V69.2451ZM163.3 68.0184C163.629 67.5295 164.313 67.3073 164.873 67.2629C165.469 67.2184 166.011 67.4406 166.447 67.8495C166.784 68.1606 166.749 68.7118 166.447 69.0229C166.055 69.4318 165.433 69.6362 164.909 69.7695C164.313 69.9295 163.558 70.0007 163.069 69.5384C162.562 69.0584 162.829 68.374 163.3 68.0184Z" fill="#388A43"/>
<path d="M194.268 59.6616V57.0038C200.116 57.0038 209.921 55.4038 209.921 44.666H212.579C212.579 54.0527 205.734 59.6616 194.276 59.6616H194.268Z" fill="#88592F"/>
<path d="M193.503 77.5121C193.441 65.8232 193.316 63.2276 193.138 59.3076C193.005 56.3476 192.836 52.6676 192.641 43.7165L195.29 43.6543C195.485 52.5699 195.654 56.241 195.787 59.1832C195.965 63.1387 196.081 65.7521 196.152 77.4943L193.494 77.5121H193.503Z" fill="#88592F"/>
<path d="M194.526 65.3695C183.157 65.3695 182.615 59.974 182.615 42.8984H185.273C185.273 60.8629 186.135 62.7118 194.535 62.7118V65.3695H194.526Z" fill="#88592F"/>
<path d="M209.878 53.4847L207.754 51.8936C209.549 49.5113 209.914 46.6491 209.914 44.6758H212.572C212.572 48.0891 211.647 51.138 209.878 53.4847Z" fill="#451D00"/>
<path d="M192.827 52.561C192.765 49.6099 192.712 46.6676 192.641 43.7165L195.29 43.6543C195.352 46.6054 195.414 49.5565 195.476 52.5077L192.818 52.561H192.827Z" fill="#451D00"/>
<path d="M182.749 52.5073C182.633 49.2273 182.615 45.9562 182.615 42.8984H185.273C185.273 45.9295 185.291 49.174 185.397 52.4095L182.749 52.4984V52.5073Z" fill="#451D00"/>
<path d="M0 77.1773L0 107.295L400 107.295V77.1773L0 77.1773Z" fill="#83BF63"/>
<path d="M192.116 7.66211L183.005 11.9377L181.894 15.7599L173.894 17.4755L175.165 21.271L161.449 21.1199L165.494 29.6621L160.062 32.3554L167.654 39.1554L176.836 40.4266L176.987 44.2221L205.947 44.8532L207.6 40.7377L217.094 38.5243L216.978 36.6399L221.778 35.5199L223.831 24.7555L211.334 22.4088L212.756 18.4266L192.116 12.4088V7.66211Z" fill="#73B550"/>
<path d="M219.166 23.8766H226.206L227.157 20.1699L219.166 21.121V23.8766Z" fill="#B8DC64"/>
<path d="M171.672 16.3219L178.676 17.0774L180.019 13.4863L171.965 13.5752L171.672 16.3219Z" fill="#73B550"/>
<path d="M208.107 44.0992L215.112 44.8548L216.454 41.2637L208.401 41.3525L208.107 44.0992Z" fill="#B8DC64"/>
<path d="M176.444 44.285L170.675 44.8628L169.52 41.2539L176.168 41.5384L176.444 44.285Z" fill="#B8DC64"/>
<path d="M202.756 23.7166L211.343 22.4011L212.756 18.4277L202.756 23.7166Z" fill="#388A43"/>
<path d="M223.833 24.7588L211.344 22.4121L208.358 28.3232H201.078L197.344 33.6388L169.522 30.9988L161.113 33.301L167.656 39.1588L176.838 40.4299L176.989 44.2254L205.949 44.8566L207.602 40.741L217.096 38.5277L216.98 36.6432L221.78 35.5232L223.833 24.7588Z" fill="#388A43"/>
<path d="M219.166 23.8766H226.206L227.157 20.1699L219.166 21.121V23.8766Z" fill="#73B550"/>
<path d="M208.107 44.0972L215.112 44.8528L216.454 41.2617L208.401 41.3506L208.107 44.0972Z" fill="#388A43"/>
<path d="M176.448 44.287L170.679 44.8647L169.523 41.2559L176.172 41.5403L176.448 44.287Z" fill="#73B550"/>
<path d="M334.301 59.6616V57.0038C340.15 57.0038 349.954 55.4038 349.954 44.666H352.612C352.612 54.0527 345.767 59.6616 334.31 59.6616H334.301Z" fill="#88592F"/>
<path d="M333.536 77.5121C333.474 65.8232 333.349 63.2276 333.172 59.3076C333.038 56.3476 332.869 52.6676 332.674 43.7165L335.323 43.6543C335.518 52.5699 335.687 56.241 335.82 59.1832C335.998 63.1387 336.114 65.7521 336.185 77.4943L333.527 77.5121H333.536Z" fill="#88592F"/>
<path d="M334.56 65.3695C323.191 65.3695 322.648 59.974 322.648 42.8984H325.306C325.306 60.8629 326.168 62.7118 334.568 62.7118V65.3695H334.56Z" fill="#88592F"/>
<path d="M332.864 52.561C332.802 49.6099 332.749 46.6676 332.678 43.7165L335.327 43.6543C335.389 46.6054 335.451 49.5565 335.513 52.5077L332.855 52.561H332.864Z" fill="#451D00"/>
<path d="M322.776 52.5073C322.66 49.2273 322.643 45.9562 322.643 42.8984H325.3C325.3 45.9295 325.318 49.174 325.425 52.4095L322.776 52.4984V52.5073Z" fill="#451D00"/>
<path d="M332.15 7.66211L323.039 11.9377L321.928 15.7599L313.928 17.4755L315.19 21.271L301.483 21.1199L305.519 29.6621L300.088 32.3554L307.688 39.1554L316.861 40.4266L317.021 44.2221L345.981 44.8532L347.635 40.7377L357.128 38.5243L357.003 36.6399L361.812 35.5199L363.866 24.7555L351.368 22.4088L352.79 18.4266L332.15 12.4088V7.66211Z" fill="#73B550"/>
<path d="M311.705 16.3219L318.71 17.0774L320.052 13.4863L311.998 13.5752L311.705 16.3219Z" fill="#73B550"/>
<path d="M316.479 44.285L310.701 44.8628L309.555 41.2539L316.195 41.5384L316.479 44.285Z" fill="#B8DC64"/>
<path d="M363.868 24.7588L351.371 22.4121L348.393 28.3232H341.113L337.38 33.6388L309.557 30.9988L301.148 33.301L307.691 39.1588L316.864 40.4299L317.024 44.2254L345.984 44.8566L347.637 40.741L357.131 38.5277L357.006 36.6432L361.815 35.5232L363.868 24.7588Z" fill="#388A43"/>
<path d="M316.483 44.287L310.705 44.8647L309.559 41.2559L316.199 41.5403L316.483 44.287Z" fill="#73B550"/>
<path d="M131.5 78.7752H23.0558C20.6024 78.7752 18.6113 78.4285 18.6113 78.0018C18.6113 77.5752 20.6024 77.2285 23.0558 77.2285H131.491C133.945 77.2285 135.936 77.5752 135.936 78.0018C135.936 78.4285 133.945 78.7752 131.491 78.7752H131.5Z" fill="#6AAB48"/>
<path d="M290.284 78.8806H181.849C179.395 78.8806 177.404 78.534 177.404 78.1073C177.404 77.6806 179.395 77.334 181.849 77.334H290.284C292.738 77.334 294.729 77.6806 294.729 78.1073C294.729 78.534 292.738 78.8806 290.284 78.8806Z" fill="#6AAB48"/>
<rect width="342" height="80" rx="16" fill="url(#paint0_linear_239_31308)"/>

</svg>
